<?xml version="1.0" standalone="no"?>
<!DOCTYPE svg PUBLIC "-//W3C//DTD SVG 1.1//EN" "http://www.w3.org/Graphics/SVG/1.1/DTD/svg11.dtd" >
<svg>
<metadata>
Created by FontForge 20090914 at Fri Jan 15 16:18:57 2021
 By www-data
2012 H. A. Simon published by FSI FontShop International GmbH
</metadata>
<defs>
<font id="MarketWebW03-Regular" horiz-adv-x="510" >
  <font-face 
    font-family="MarketWebW03-Regular"
    font-weight="400"
    font-stretch="normal"
    units-per-em="1000"
    panose-1="3 1 5 0 2 1 1 1 1 1"
    ascent="800"
    descent="-200"
    x-height="448"
    cap-height="638"
    bbox="-643 -438 1266.99 997.99"
    underline-thickness="50"
    underline-position="-75"
    unicode-range="U+0020-U+FEFF"
  />
<missing-glyph horiz-adv-x="420" 
d="M30 700h360v-700h-360v700zM326 64v572h-232v-572h232z" />
    <glyph glyph-name="uniFB01" unicode="fi" horiz-adv-x="488" 
d="M224 277c-3.33301 -3.33301 -5.6709 -6.49512 -7.00391 -9.49512s-2.66602 -5.83301 -3.99902 -8.5l-34 -98.5c-11.333 -32.333 -22 -65.166 -32 -98.499s-18.667 -67.5 -26 -102.5s-12.666 -71.167 -15.999 -108.5c-0.666992 -6 -3.66699 -11.667 -9 -17
s-11.666 -9.33301 -18.999 -12c-6 -2 -12.167 -4.33301 -18.5 -7s-10.5 -4 -12.5 -4c-6 0 -10.5 1.16699 -13.5 3.5s-6.83301 5.16602 -11.5 8.49902c-1.33301 1.33301 -2.83301 6.33301 -4.5 15s-2.5 16.667 -2.5 24c0 19.333 3.16699 37.666 9.5 54.999
s12.166 34.666 17.499 51.999c1.33301 3.33301 3 9.16602 5 17.499s3.66699 15.833 5 22.5c1.33301 8.66699 4.33301 20.667 9 36l15.5 50.5l18 56.5l18 54c5.66699 16.667 10.167 31.167 13.5 43.5s5 20.5 5 24.5c0 2.66699 -0.666992 5 -2 7
c-6 10.667 -14.167 20 -24.5 28s-17.5 18 -21.5 30l-4 12.5c-1.33301 4.33301 -2 8.16602 -2 11.499c0 5.33301 1.5 10 4.5 14s6.16699 6 9.5 6c7.33301 0 16.333 -2.33301 27 -7s20.667 -7 30 -7c2 0 5.66699 0.833008 11 2.5s9.33301 5.5 12 11.5l41 98
c12.667 30 25.334 58.5 38.001 85.5s25.5 53 38.5 78s27.167 49.833 42.5 74.5c4 6.66699 11.667 12 23 16s20.666 6 27.999 6c14 0 25.333 -5.66699 34 -17c5.33301 -7.33301 8 -14 8 -20c0 -5.33301 -1.5 -10.333 -4.5 -15l-9.5 -14.5l-10 -14.5
c-3.33301 -4.66699 -5.33301 -9.33398 -6 -14.001c-0.666992 -6 -2 -11.333 -4 -16c-6.66699 -13.333 -15.167 -26.666 -25.5 -39.999l-31.5 -41c-10.667 -14 -20.667 -28.333 -30 -43s-16.333 -30.334 -21 -47.001c-1.33301 -5.33301 -2.66602 -10 -3.99902 -14
s-3.66602 -9.33301 -6.99902 -16l-6 -12c-2.66699 -5.33301 -5.16699 -11 -7.5 -17l-6.5 -17c-2 -5.33301 -3 -9.66602 -3 -12.999s2.33301 -5 7 -5c7.33301 0 18.666 1.66699 33.999 5s36.333 10.333 63 21c30 12 52.333 22 67 30s25 18.333 31 31
c7.33301 15.333 14.833 25 22.5 29s18.167 6 31.5 6c4.66699 0 9.66699 -0.5 15 -1.5s10 -3.16699 14 -6.5c2.66699 -2 4.66699 -4 6 -6s2 -5.33301 2 -10c0 -13.333 -2.33301 -25.166 -7 -35.499s-10.167 -20.166 -16.5 -29.499l-20.5 -29c-7.33301 -10 -14 -21 -20 -33
c-4.66699 -9.33301 -9.66699 -20.333 -15 -33l-16 -38.5l-15.5 -38.5l-12.5 -32c-8.66699 -22.667 -14.834 -42.667 -18.501 -60s-5.5 -30 -5.5 -38c0 -5.33301 1 -12 3 -20s7 -12 15 -12c5.33301 0 10.333 0.5 15 1.5s9.66699 2.66699 15 5s11.333 5.66602 18 9.99902
s15 10.166 25 17.499c12 8.66699 20.833 14.5 26.5 17.5s12.5 4.5 20.5 4.5c4 0 8.33301 -0.5 13 -1.5s8.66699 -2.83301 12 -5.5s5.16602 -5.16699 5.49902 -7.5s0.5 -4.5 0.5 -6.5c0 -5.33301 -1.33301 -9.83301 -4 -13.5s-6.66699 -8.16699 -12 -13.5l-41 -38
c-11.333 -10.667 -25.666 -21.334 -42.999 -32.001s-37.333 -16 -60 -16c-7.33301 0 -14.833 2.33301 -22.5 7s-15 10.834 -22 18.501s-13.167 16.167 -18.5 25.5s-9.33301 18.666 -12 27.999c-2 6.66699 -3.33301 13.5 -4 20.5s-1 14.167 -1 21.5
c0 12.667 1.16699 25 3.5 37s6.5 26.667 12.5 44l18.5 52c7.66699 21.333 18.5 47.666 32.5 78.999c4.66699 10 7 16.667 7 20c0 2 -1 3 -3 3c-1.33301 0 -3.16602 -0.5 -5.49902 -1.5l-15.5 -6.5c-3.33301 -1.33301 -8.66602 -3.33301 -15.999 -6l-24 -8.5l-25.5 -8.5
l-21.5 -7c-17.333 -5.33301 -30.833 -10.166 -40.5 -14.499s-16.5 -8.5 -20.5 -12.5zM631.995 691.005c5.33301 -5.33301 8.66895 -10.833 10.002 -16.5s2 -11.167 2 -16.5c0 -3.33301 -0.333008 -6.5 -1 -9.5s-2 -5.83301 -4 -8.5
c-9.33301 -11.333 -19.5 -22.333 -30.5 -33s-22.167 -16 -33.5 -16c-10 0 -18.5 2.16699 -25.5 6.5s-11.833 8.83301 -14.5 13.5c-2.66699 5.33301 -4.5 11 -5.5 17s-1.5 11.667 -1.5 17c0 7.33301 1 14.833 3 22.5s5.33301 14.167 10 19.5
c5.33301 6 12.166 10.333 20.499 13s17.833 4 28.5 4c8 0 16.167 -1.16699 24.5 -3.5s14.166 -5.5 17.499 -9.5z" />
    <glyph glyph-name="uniFB02" unicode="fl" horiz-adv-x="500" 
d="M410 -18c-2 0 -7.99512 1.50488 -17.9951 4.50488s-20.667 7.5 -32 13.5s-22 13.833 -32 23.5s-16.333 21.5 -19 35.5c-2 10.667 -3 22 -3 34c0 23.333 4.33301 46.833 13 70.5l30 78.5c4 10.667 8.83301 22.667 14.5 36s9.83398 22.666 12.501 27.999
c5.33301 12.667 8.66602 20.334 9.99902 23.001s2 4.66699 2 6c0 2 -1 3 -3 3c-1.33301 0 -3 -0.333008 -5 -1s-6 -2.33398 -12 -5.00098c-7.33301 -3.33301 -17.666 -7.16602 -30.999 -11.499l-32 -10.5c-23.333 -7.33301 -41 -13.333 -53 -18s-21.667 -9.66699 -29 -15
c-4 -2.66699 -7 -7 -9 -13l-34.5 -99.5c-11.667 -33 -22.5 -66.5 -32.5 -100.5s-18.667 -68.667 -26 -104s-12.666 -71.666 -15.999 -108.999c-0.666992 -6 -3.66699 -11.833 -9 -17.5s-11.666 -9.5 -18.999 -11.5c-5.33301 -1.33301 -11.333 -3.5 -18 -6.5
s-11 -4.5 -13 -4.5c-6 0 -10.5 1.16699 -13.5 3.5s-6.83301 5.16602 -11.5 8.49902c-1.33301 1.33301 -2.83301 6.33301 -4.5 15s-2.5 16.667 -2.5 24c0 19.333 3.16699 37.666 9.5 54.999s12.166 34.666 17.499 51.999c1.33301 3.33301 3 9.16602 5 17.499
s3.66699 15.833 5 22.5c1.33301 8.66699 4.33301 20.667 9 36l15.5 50.5l18 56.5l18 54c5.66699 16.667 10.167 31.167 13.5 43.5s5 20.5 5 24.5c0 2.66699 -0.666992 5 -2 7c-6 10.667 -14.167 20 -24.5 28s-17.5 18 -21.5 30l-4 12.5
c-1.33301 4.33301 -2 8.16602 -2 11.499c0 5.33301 1.5 10 4.5 14s6.16699 6 9.5 6c7.33301 0 16.333 -2.33301 27 -7s20.667 -7 30 -7c2 0 5.66699 0.833008 11 2.5s9.33301 5.5 12 11.5l41 98c12.667 30 25.334 58.5 38.001 85.5s25.5 53 38.5 78s27.167 49.833 42.5 74.5
c4 6.66699 11.167 11.667 21.5 15s20.166 5 29.499 5c13.333 0 23.666 -4.16699 30.999 -12.5s11 -15.833 11 -22.5c0 -13.333 -2.83301 -26.833 -8.5 -40.5s-17.834 -31.834 -36.501 -54.501c-9.33301 -11.333 -19 -23.833 -29 -37.5s-19.167 -27.167 -27.5 -40.5
l-22.5 -37.5c-6.66699 -11.667 -11.334 -21.5 -14.001 -29.5c-2 -5.33301 -4.16699 -10.833 -6.5 -16.5s-5.16602 -11.834 -8.49902 -18.501l-6 -12c-2.66699 -5.33301 -5.16699 -11 -7.5 -17l-6.5 -17c-2 -5.33301 -3 -9.66602 -3 -12.999s1.66699 -5 5 -5
c8 0 20 1.66699 36 5s38 10.666 66 21.999c16.667 6.66699 31 13.834 43 21.501s24.667 19.667 38 36s29 38.666 47 66.999s41 66.833 69 115.5c4 6.66699 8 15.334 12 26.001s8.5 21.334 13.5 32.001s11 19.834 18 27.501s15.167 11.5 24.5 11.5
c7.33301 0 13.333 0.333008 18 1s9.66699 1 15 1s10.166 -0.833008 14.499 -2.5s8.16602 -4.5 11.499 -8.5c5.33301 -8 8 -17.333 8 -28c0 -12 -3.33301 -23.667 -10 -35l-70 -108.5l-69.5 -107c-22.333 -35.667 -43.5 -71.834 -63.5 -108.501s-37.333 -74.334 -52 -113.001
c-8 -20.667 -16.333 -40.834 -25 -60.501s-13 -40.5 -13 -62.5c0 -6 0.333008 -12 1 -18s2 -12.333 4 -19c1.33301 -4.66699 3.83301 -7.83398 7.5 -9.50098s7.5 -2.5 11.5 -2.5c7.33301 0 13.666 1.66699 18.999 5c12 8 23.833 18.333 35.5 31l34.5 36.5
c11.333 11.667 22.666 21.834 33.999 30.501s22.666 13 33.999 13c4 0 10.667 -1.83301 20 -5.5s14 -9.5 14 -17.5c0 -6.66699 -2 -11.667 -6 -15s-8.66699 -7.66602 -14 -12.999c-12.667 -14 -25 -28.667 -37 -44s-24.5 -29.5 -37.5 -42.5s-27.167 -23.667 -42.5 -32
s-32.333 -12.5 -51 -12.5z" />
    <glyph glyph-name=".notdef" horiz-adv-x="420" 
d="M30 700h360v-700h-360v700zM326 64v572h-232v-572h232z" />
    <glyph glyph-name="glyph1" horiz-adv-x="0" 
 />
    <glyph glyph-name="glyph1" horiz-adv-x="0" 
 />
    <glyph glyph-name="space" unicode=" " horiz-adv-x="246" 
 />
    <glyph glyph-name="exclam" unicode="!" horiz-adv-x="320" 
d="M344 626c7.33301 -2 13.5 -5.50098 18.5 -10.501s7.5 -9.83301 7.5 -14.5c0 -18.667 -4 -35.334 -12 -50.001s-14.333 -29.334 -19 -44.001c-8.66699 -27.333 -16.667 -54.333 -24 -81l-22.5 -79c-7.66699 -26 -15.834 -51.833 -24.501 -77.5s-18.667 -51.167 -30 -76.5
c-3.33301 -8 -7.66602 -12 -12.999 -12c-7.33301 0 -12.5 1.33301 -15.5 4s-4.83301 5.33398 -5.5 8.00098c-1.33301 6.66699 -3.5 12 -6.5 16s-6.16699 7.33301 -9.5 10s-6.16602 5.33398 -8.49902 8.00098s-3.5 5.66699 -3.5 9s0.166992 6.16602 0.5 8.49902
s1.16602 5.5 2.49902 9.5c3.33301 9.33301 5.5 16.666 6.5 21.999s2.5 12.333 4.5 21l18 69.5l18 66c6 21.667 11.667 43.667 17 66s10 45.833 14 70.5l4.5 26c1.66699 9.33301 4.16699 18 7.5 26s7.5 14.667 12.5 20s11.167 8 18.5 8c4 0 7.5 -1.16699 10.5 -3.5
s6.83301 -4.16602 11.5 -5.49902c6.66699 -1.33301 11 -3.66602 13 -6.99902s5 -5.66602 9 -6.99902zM201 81.999c5.33301 -0.666992 9.00098 -2.5 11.001 -5.5s3 -6.16699 3 -9.5c0 -4.66699 -0.333008 -9.83398 -1 -15.501s-2.66699 -13.167 -6 -22.5
s-7.5 -18.166 -12.5 -26.499s-11.5 -12.5 -19.5 -12.5c-3.33301 0 -7.66602 -0.166992 -12.999 -0.5s-14 -0.5 -26 -0.5c-4 0 -7.83301 2.33301 -11.5 7s-7 10.334 -10 17.001s-5.33301 13.5 -7 20.5s-2.5 12.833 -2.5 17.5c0 5.33301 0.666992 9.83301 2 13.5
s3.66602 8.5 6.99902 14.5c2 3.33301 3.66699 8.16602 5 14.499s6.66602 9.5 15.999 9.5c6.66699 0 12.667 -1 18 -3s10.333 -4.33301 15 -7s9.5 -5 14.5 -7s10.833 -3.33301 17.5 -4z" />
    <glyph glyph-name="quotedbl" unicode="&#x22;" horiz-adv-x="350" 
d="M351 557c2.66699 10.667 5.16504 21.333 7.49805 32s4.33301 20.5 6 29.5s3 16.667 4 23s1.5 10.166 1.5 11.499c0 6 1.66699 10.5 5 13.5s9.66602 4.5 18.999 4.5c6 0 12.333 -0.5 19 -1.5s12.334 -4.16699 17.001 -9.5c6.66699 -8 12.167 -13.667 16.5 -17
s6.5 -8.66602 6.5 -15.999c0 -6 -1.16699 -14.167 -3.5 -24.5s-5 -20.833 -8 -31.5s-6 -20.167 -9 -28.5s-4.83301 -13.833 -5.5 -16.5l-36 -141c-1.33301 -4.66699 -4.66602 -8.66699 -9.99902 -12s-9 -5 -11 -5c-8.66699 0 -15.167 0.5 -19.5 1.5
s-9.16602 2.5 -14.499 4.5c-8.66699 2.66699 -15.667 9.33398 -21 20.001c-1.33301 2.66699 -2 5.33398 -2 8.00098c0 0.666992 0.666992 3.5 2 8.5s2.66602 10.667 3.99902 17s2.83301 12.666 4.5 18.999s2.83398 11.166 3.50098 14.499zM202.998 575.999
c4 17.333 7 32.498 9 45.498s3.66699 25.5 5 37.5c0.666992 6.66699 2.66699 11.667 6 15s9.66602 5 18.999 5c5.33301 0 9.83301 -2 13.5 -6s9.83398 -6.66699 18.501 -8c12.667 -2 20.5 -5.83301 23.5 -11.5s4.5 -11.5 4.5 -17.5
c0 -7.33301 -2.83301 -20.166 -8.5 -38.499s-11.167 -39.166 -16.5 -62.499l-32 -137c-1.33301 -5.33301 -5.5 -10 -12.5 -14s-12.5 -6 -16.5 -6c-5.33301 0 -10.833 1.16699 -16.5 3.5s-11.167 3.5 -16.5 3.5c-3.33301 0 -8 3 -14 9s-9 11 -9 15c0 6 1 10.333 3 13
s3.66699 7 5 13z" />
    <glyph glyph-name="numbersign" unicode="#" horiz-adv-x="650" 
d="M578 252c2.66699 0 6.33594 -0.179688 11.0029 -0.512695s9.33398 -0.833008 14.001 -1.5s8.66699 -1.5 12 -2.5s5 -1.83301 5 -2.5c2 -7.33301 4.33301 -11.166 7 -11.499s4 -2.16602 4 -5.49902c0 -7.33301 -1.16699 -12.833 -3.5 -16.5s-3.83301 -8.5 -4.5 -14.5
c-0.666992 -5.33301 -2.83398 -9.66602 -6.50098 -12.999s-7.5 -5 -11.5 -5c-18 0 -34.833 0.5 -50.5 1.5s-26.834 1.5 -33.501 1.5c-7.33301 0 -16.333 -0.166992 -27 -0.5s-18 -0.5 -22 -0.5c-5.33301 0 -9.33301 -1 -12 -3s-5.66699 -7 -9 -15
c-8.66699 -23.333 -17.5 -45 -26.5 -65l-31.5 -72c-9.33301 -21.333 -16.833 -37.666 -22.5 -48.999s-11.167 -17 -16.5 -17s-11.333 0.333008 -18 1s-11.334 2 -14.001 4c-5.33301 4.66699 -10 8.16699 -14 10.5s-6 5.83301 -6 10.5c0 5.33301 0.833008 10.833 2.5 16.5
s3.5 11.167 5.5 16.5c3.33301 9.33301 6.83301 16.5 10.5 21.5s6.16699 9.83301 7.5 14.5l38 97c3.33301 8 5 13.333 5 16c0 4 -3 6 -9 6c-1.33301 0 -5.66602 -0.166992 -12.999 -0.5s-15.166 -0.833008 -23.499 -1.5s-16.166 -1.16699 -23.499 -1.5
s-11.666 -0.5 -12.999 -0.5c-4.66699 0 -8.33398 -0.666992 -11.001 -2s-5.66699 -5.66602 -9 -12.999l-27 -65c-8.66699 -21.333 -18 -42.666 -28 -63.999l-23.5 -50c-5 -10.667 -10.167 -16 -15.5 -16c-10 0 -16 0.833008 -18 2.5s-6.66699 2.5 -14 2.5
c-8 0 -13.333 2.33301 -16 7s-4 9.33398 -4 14.001c0 8.66699 2.66699 19.667 8 33c2.66699 6.66699 6.66699 15.5 12 26.5s12.666 27.833 21.999 50.5l21 53c3.33301 8 5 13.333 5 16c0 4 -3 6 -9 6c-14.667 0 -27.167 -0.333008 -37.5 -1s-19.333 -1.33398 -27 -2.00098
s-14.334 -1.33398 -20.001 -2.00098s-11.167 -1 -16.5 -1c-10 0 -15 5 -15 15v6c0 2.66699 0.666992 5 2 7c1.33301 2.66699 2 4.66699 2 6c0 2 -0.5 3.66699 -1.5 5s-1.5 3 -1.5 5s0.333008 4.16699 1 6.5s2.66699 5.83301 6 10.5c4.66699 6 8.5 9.66699 11.5 11
s7.16699 2.33301 12.5 3c2 0 7 0.166992 15 0.5s17 0.5 27 0.5h61c9.33301 0 15.666 1.83301 18.999 5.5s6.66602 8.83398 9.99902 15.501l26 62c1.33301 4 2.5 7.16699 3.5 9.5s1.5 4.5 1.5 6.5c0 4 -3 6 -9 6c-13.333 0 -24 -0.166992 -32 -0.5
s-14.833 -0.666016 -20.5 -0.999023s-10.834 -0.666016 -15.501 -0.999023s-10.334 -0.5 -17.001 -0.5c-18 0 -29.333 1 -34 3s-7 6.33301 -7 13c0 3.33301 1.66699 8.66602 5 15.999s5.33301 13.666 6 18.999c1.33301 9.33301 5 15.833 11 19.5s11.667 5.5 17 5.5
c12 0 21.333 -0.166992 28 -0.5s13 -0.666016 19 -0.999023s13.333 -0.666016 22 -0.999023s21.334 -0.5 38.001 -0.5c9.33301 0 15.666 1.5 18.999 4.5s6.66602 8.83301 9.99902 17.5l54 137c5.33301 14.667 10.5 27.5 15.5 38.5s9.16699 18.167 12.5 21.5
c5.33301 5.33301 11 8.5 17 9.5s10.333 1.5 13 1.5c3.33301 0 7 -1 11 -3s8.66699 -3 14 -3c8 0 14 -3.16699 18 -9.5s6 -11.5 6 -15.5c0 -7.33301 -0.333008 -12.166 -1 -14.499s-2 -4.83301 -4 -7.5l-16 -22c-4 -5.33301 -7.33301 -10.666 -10 -15.999
c-8 -16.667 -16.167 -34.667 -24.5 -54l-26.5 -61c-3.33301 -8 -5 -13.333 -5 -16c0 -2 1 -3.5 3 -4.5s4 -1.5 6 -1.5c1.33301 0 5.5 0.166992 12.5 0.5s14.5 0.666016 22.5 0.999023l23 1c7.33301 0.333008 12 0.5 14 0.5c7.33301 0 12.333 1.16699 15 3.5
s5.66699 8.16602 9 17.499l53 133c5.33301 14 11 25.5 17 34.5s9.66699 18.167 11 27.5c0.666992 6 8.33398 9 23.001 9c6.66699 0 13.834 -1.16699 21.501 -3.5s13.167 -4.83301 16.5 -7.5c4 -2.66699 8.16699 -5.66699 12.5 -9s6.5 -7 6.5 -11
c0 -7.33301 -0.333008 -12.166 -1 -14.499s-2 -4.83301 -4 -7.5c-6.66699 -9.33301 -13.167 -19 -19.5 -29s-10.833 -17.667 -13.5 -23c-3.33301 -7.33301 -7.33301 -15.666 -12 -24.999s-9.16699 -18.833 -13.5 -28.5l-11.5 -26
c-3.33301 -7.66699 -5.33301 -12.834 -6 -15.501c-3.33301 -8.66699 -5 -14.334 -5 -17.001c0 -3.33301 3 -5 9 -5c2 0 6.33301 0.166992 13 0.5s14.167 0.833008 22.5 1.5s16.833 1.16699 25.5 1.5s16.334 0.5 23.001 0.5c13.333 0 22.833 -0.166992 28.5 -0.5
s8.83398 -1.5 9.50098 -3.5c1.33301 -3.33301 2.83301 -7.66602 4.5 -12.999s2.5 -9.66602 2.5 -12.999s-0.666992 -6 -2 -8s-2.83301 -3.66699 -4.5 -5s-3.5 -2.66602 -5.5 -3.99902s-3.33301 -3.33301 -4 -6c-3.33301 -8.66699 -6.83301 -14.167 -10.5 -16.5
s-6.16699 -3.5 -7.5 -3.5h-33c-6 0 -13.167 -0.166992 -21.5 -0.5s-16.833 -0.5 -25.5 -0.5s-16.834 -0.166992 -24.501 -0.5s-13.834 -0.5 -18.501 -0.5c-4 0 -7.16699 -0.666992 -9.5 -2s-5.16602 -5.66602 -8.49902 -12.999c-9.33301 -21.333 -18 -42.666 -26 -63.999
c-3.33301 -8 -5 -13.333 -5 -16c0 -4 3 -6 9 -6h82zM316.002 242.987c2 0 6.83594 0.333008 14.5029 1s15.5 1.16699 23.5 1.5s15.5 0.833008 22.5 1.5s11.167 1 12.5 1c6 0 10.167 1.16699 12.5 3.5s5.16602 7.5 8.49902 15.5l24 60c1.33301 2.66699 2.5 5.66699 3.5 9
s1.5 5.66602 1.5 6.99902c0 4 -3 6 -9 6c-0.666992 0 -4.33398 -0.166992 -11.001 -0.5s-14.167 -0.666016 -22.5 -0.999023l-24 -1c-7.66699 -0.333008 -12.834 -0.5 -15.501 -0.5c-6.66699 0 -11 -0.833008 -13 -2.5s-4.66699 -6.5 -8 -14.5l-24 -63
c-3.33301 -8 -5 -13.333 -5 -16c0 -4.66699 3 -7 9 -7z" />
    <glyph glyph-name="dollar" unicode="$" horiz-adv-x="462" 
d="M439 513c-4.66699 4.66699 -7.66406 7.8252 -8.99707 9.49219s-2.16602 3.33398 -2.49902 5.00098s-1 3.5 -2 5.5s-3.5 6 -7.5 12s-7.66699 9 -11 9c-2 0 -4 -2.66699 -6 -8l-18 -55c-4 -13.333 -8.5 -26.833 -13.5 -40.5l-14 -39
c-4.33301 -12.333 -7.83301 -23.166 -10.5 -32.499s-4 -16 -4 -20c0 -3.33301 2 -9 6 -17l26 -57l26 -57c7.33301 -16.667 13.5 -32.667 18.5 -48s8.66699 -30.5 11 -45.5s3.5 -31.5 3.5 -49.5c0 -20.667 -5.66699 -38.667 -17 -54s-26 -28.333 -44 -39
c-2.66699 -1.33301 -10.167 -3.33301 -22.5 -6s-27.833 -4 -46.5 -4c-20.667 0 -36.667 1.5 -48 4.5s-18.333 4.5 -21 4.5c-1.33301 0 -2.5 -0.333008 -3.5 -1s-1.83301 -2.66699 -2.5 -6c0 -1.33301 -0.333008 -4 -1 -8l-1 -13c0 -4.66699 -0.166992 -9 -0.5 -13
s-0.5 -6.66699 -0.5 -8c0 -6 -1.33301 -11.167 -4 -15.5s-6 -7.83301 -10 -10.5s-8.16699 -4.66699 -12.5 -6s-7.83301 -2 -10.5 -2c-8.66699 0 -14.834 0.833008 -18.501 2.5s-9.83398 2.5 -18.501 2.5c-5.33301 0 -9.16602 2.33301 -11.499 7s-3.5 10.334 -3.5 17.001
c0 8.66699 1.83301 18.334 5.5 29.001l13.5 40c1.33301 4 2 6.66699 2 8c0 4 -2.66699 7.33301 -8 10c-15.333 8 -28.833 17.167 -40.5 27.5s-21.5 20.5 -29.5 30.5c-5.33301 6.66699 -11.333 12.834 -18 18.501s-13 12.334 -19 20.001s-11 17.334 -15 29.001
s-6 26.5 -6 44.5c0 4 2.5 10 7.5 18s10.167 12.333 15.5 13c4 0.666992 8 1.16699 12 1.5s7.33301 0.5 10 0.5c7.33301 0 12.666 -0.833008 15.999 -2.5s7.66602 -3.16699 12.999 -4.5c7.33301 -2 15.666 -5.83301 24.999 -11.5s14 -12.167 14 -19.5
c0 -4 -0.166992 -7 -0.5 -9s-0.833008 -3.83301 -1.5 -5.5s-1.16699 -3.66699 -1.5 -6s-0.5 -6.16602 -0.5 -11.499c0 -2 1 -6.16699 3 -12.5s5.33301 -12.833 10 -19.5c2.66699 -3.33301 6.5 -7.66602 11.5 -12.999s10.5 -10.333 16.5 -15
c4.66699 -3.33301 8.66699 -5 12 -5c1.33301 0 3 3.33301 5 10c7.33301 28 17 59.667 29 95s23.333 71 34 107c1.33301 3.33301 2.33301 6.66602 3 9.99902s1 6.33301 1 9c0 5.33301 -2.66699 14 -8 26c-18.667 41.333 -33.5 75.833 -44.5 103.5s-16.5 52.5 -16.5 74.5
c0 16 1.66699 29.667 5 41s7.66602 21.333 12.999 30s11.666 16.334 18.999 23.001l23 20c16.667 14 39.334 21 68.001 21c12.667 0 22.834 -1 30.501 -3s12.834 -3 15.501 -3c6 0 10 3.66699 12 11c10 28 15.333 45.333 16 52c0.666992 4 3 7 7 9s8.5 3.66699 13.5 5
s10.333 2.16602 16 2.49902s10.5 0.5 14.5 0.5s10.5 -1.33301 19.5 -4s13.5 -7.33398 13.5 -14.001s-1.66699 -13 -5 -19s-5 -12 -5 -18c0 -4 -1.33301 -8.5 -4 -13.5s-5.83398 -10 -9.50098 -15s-6.83398 -9.66699 -9.50098 -14s-4 -7.5 -4 -9.5
c0 -3.33301 2.33301 -6.33301 7 -9c14 -8 26.167 -16.5 36.5 -25.5s19.333 -17.5 27 -25.5s13.667 -15.167 18 -21.5l8.5 -12.5c2 -3.33301 3 -7 3 -11c0 -7.33301 -3.33301 -14.333 -10 -21c-4.66699 -4.66699 -9.5 -8.16699 -14.5 -10.5s-9.16699 -5.16602 -12.5 -8.49902
c-1.33301 -1.33301 -3.33301 -2 -6 -2c-3.33301 0 -6.33301 0.833008 -9 2.5s-5.66699 2.5 -9 2.5c-9.33301 0 -16.166 3.16699 -20.499 9.5s-8.83301 11.833 -13.5 16.5zM296.003 213.991l-13.998 -41.499c-4.66699 -14.333 -8.83398 -27.666 -12.501 -39.999l-10 -33.5
c-3 -10 -5.5 -17.333 -7.5 -22c-1.33301 -3.33301 -2.33301 -7 -3 -11s-1 -6.66699 -1 -8c0 -2.66699 3.66699 -5.66699 11 -9s19.333 -5 36 -5c14 0 25.667 3 35 9s14 16 14 30c0 25.333 -3 49.166 -9 71.499s-14 45.166 -24 68.499c-1.33301 3.33301 -2.5 5.5 -3.5 6.5
s-2.16699 1.5 -3.5 1.5c-0.666992 0 -1.33398 -0.666992 -2.00098 -2s-2.66699 -6.33301 -6 -15zM265.005 534.992c0 -7.33301 1.83398 -17.001 5.50098 -29.001s8.5 -26 14.5 -42c3.33301 -9.33301 6.66602 -14 9.99902 -14c0.666992 0 1.33398 0.5 2.00098 1.5
s2 5.16699 4 12.5c5.33301 19.333 11.166 37.833 17.499 55.5l19.5 53.5c1.33301 4 2.16602 7 2.49902 9s0.5 3.66699 0.5 5c0 2.66699 -3.33301 5.33398 -10 8.00098s-14.667 4 -24 4c-15.333 0 -26.166 -5.66699 -32.499 -17s-9.5 -27 -9.5 -47z" />
    <glyph glyph-name="percent" unicode="%" horiz-adv-x="780" 
d="M445 561c-2 0 -2.99902 -0.671875 -2.99902 -2.00488v-8c0 -31.333 -5.5 -62.666 -16.5 -93.999s-27.167 -60 -48.5 -86c-11.333 -14 -24.166 -26.167 -38.499 -36.5s-31.833 -15.5 -52.5 -15.5c-28 0 -50 6 -66 18s-29.667 25.667 -41 41
c-8.66699 11.333 -15.334 22.833 -20.001 34.5s-7 24.5 -7 38.5c0 14.667 3.16699 31.5 9.5 50.5s16.166 41.833 29.499 68.5c6 11.333 13.333 22.5 22 33.5s18.5 20.833 29.5 29.5s23 15.667 36 21s27.167 8 42.5 8c13.333 0 23.333 -1.5 30 -4.5s10.667 -5.16699 12 -6.5
s4.83301 -3.66602 10.5 -6.99902s11.167 -5.66602 16.5 -6.99902c25.333 -7.33301 45.166 -12.166 59.499 -14.499s25.5 -3.5 33.5 -3.5c30.667 0 57.5 1.83301 80.5 5.5s39.5 11.834 49.5 24.501c2 2.66699 4.5 5.33398 7.5 8.00098s6.16699 4 9.5 4
c8 0 14.833 -0.5 20.5 -1.5s11.167 -3.5 16.5 -7.5c6 -4 10.167 -7.5 12.5 -10.5s3.5 -8.16699 3.5 -15.5c0 -15.333 -1.16699 -25.333 -3.5 -30s-6.83301 -9.66699 -13.5 -15s-13.667 -12.333 -21 -21s-17.333 -22.667 -30 -42l-280 -443l-58 -88
c-4.66699 -6.66699 -10.334 -10.667 -17.001 -12s-11.667 -2 -15 -2c-4 0 -9.5 1.16699 -16.5 3.5s-12.5 5.16602 -16.5 8.49902c-3.33301 2.66699 -5.66602 5.66699 -6.99902 9s-2 10 -2 20c0 12.667 0.666992 20.5 2 23.5s3.66602 5.16699 6.99902 6.5
c1.33301 0.666992 4 2.33398 8 5.00098s7.66699 6.66699 11 12c6.66699 10.667 11.5 17.167 14.5 19.5s5.66699 4.16602 8 5.49902s5.5 4.5 9.5 9.5s10.667 15.167 20 30.5l66.5 108.5l60 98l62 100l73.5 115.5c2.66699 3.33301 4 6.33301 4 9s-1 4 -3 4
c-3.33301 0 -10.333 -1 -21 -3c-4.66699 -1.33301 -9.66699 -2 -15 -2h-21c-7.33301 0 -16.166 0.833008 -26.499 2.5s-16.166 2.5 -17.499 2.5zM741.001 212.995c0 -34 -4.99902 -64.667 -14.999 -92s-24 -55 -42 -83c-9.33301 -14 -22 -26 -38 -36s-38 -15 -66 -15
c-14 0 -29.667 1.83301 -47 5.5s-32.333 12.5 -45 26.5c-11.333 12.667 -20.333 25.5 -27 38.5s-10 25.5 -10 37.5c0 24 3.33301 46.667 10 68s16.667 43.666 30 66.999c10 16.667 19.333 30.834 28 42.501s17.5 21 26.5 28s18.667 12.167 29 15.5s22.166 5 35.499 5
c16.667 0 31.5 -2.5 44.5 -7.5s27.167 -11.833 42.5 -20.5c15.333 -8 26.5 -19.5 33.5 -34.5s10.5 -30.167 10.5 -45.5zM356.002 577.995c-6 2 -9.83203 4.50195 -11.499 7.50195s-2.66699 6 -3 9s-1.33301 5.66699 -3 8s-5.83398 3.5 -12.501 3.5c-6 0 -11 -1 -15 -3
s-8.33301 -6 -13 -12c-20.667 -28 -37 -55.5 -49 -82.5s-18 -50.5 -18 -70.5c0 -7.33301 0.5 -15 1.5 -23s3 -15.167 6 -21.5s7.33301 -11.5 13 -15.5s13.167 -6 22.5 -6c7.33301 0 13.5 2 18.5 6s11.167 12.333 18.5 25c12 20 21.5 37.167 28.5 51.5s12.5 27 16.5 38
s6.66699 21.167 8 30.5s2 19 2 29c0 5.33301 -0.833008 10.666 -2.5 15.999s-4.16699 8.66602 -7.5 9.99902zM652.003 246.997c-6 2.66699 -10 7.00098 -12 13.001s-7 9 -15 9c-6 0 -10.833 -1 -14.5 -3s-8.16699 -7 -13.5 -15c-21.333 -32 -37.666 -61.667 -48.999 -89
s-17 -53 -17 -77c0 -2.66699 0.166992 -6.83398 0.5 -12.501s1.66602 -11.5 3.99902 -17.5s5.83301 -11.167 10.5 -15.5s11 -6.5 19 -6.5c9.33301 0 17.5 2.5 24.5 7.5s12.5 11.5 16.5 19.5c20.667 40.667 35.667 72.5 45 95.5s14 44.167 14 63.5
c0 5.33301 -1.33301 11 -4 17s-5.66699 9.66699 -9 11z" />
    <glyph glyph-name="ampersand" unicode="&#x26;" horiz-adv-x="528" 
d="M247 357c-6.66699 30.667 -10.4971 54.167 -11.4971 70.5s-1.5 25.833 -1.5 28.5c0 6.66699 0.5 14.334 1.5 23.001s2.16699 16.334 3.5 23.001c9.33301 43.333 25.833 75.166 49.5 95.499s48.167 30.5 73.5 30.5c9.33301 0 18.5 -0.333008 27.5 -1s17.167 -3 24.5 -7
c6.66699 -3.33301 11.5 -7 14.5 -11s6.5 -7.66699 10.5 -11c9.33301 -7.33301 16.833 -15.333 22.5 -24s8.5 -18.667 8.5 -30c0 -10.667 -1.5 -21.834 -4.5 -33.501s-7.16699 -25.167 -12.5 -40.5c-4.66699 -13.333 -16.167 -30.166 -34.5 -50.499s-42.5 -45.5 -72.5 -75.5
c-6 -6 -9 -11.333 -9 -16c0 -2 1.33301 -7.33301 4 -16c7.33301 -26 14.833 -50.333 22.5 -73l23.5 -71c1.33301 -4.66699 2.5 -7.33398 3.5 -8.00098s2.16699 -1 3.5 -1c2 0 5.66699 2.33301 11 7c7.33301 6 13 11 17 15s8.33301 7.66699 13 11
c6.66699 5.33301 12.334 9.66602 17.001 12.999s10 6.66602 16 9.99902c7.33301 5.33301 12.833 8.5 16.5 9.5s7.5 1.5 11.5 1.5c4.66699 0 7.83398 -0.333008 9.50098 -1s3.16699 -3.33398 4.5 -8.00098s2.33301 -8.83398 3 -12.501s1 -10.167 1 -19.5
c0 -15.333 -2 -26.666 -6 -33.999s-11.333 -13.666 -22 -18.999c-4 -2 -7.16699 -4 -9.5 -6s-5 -4.16699 -8 -6.5l-12.5 -9.5c-5.33301 -4 -13 -9 -23 -15c-5.33301 -3.33301 -8.83301 -5.83301 -10.5 -7.5s-2.5 -3.83398 -2.5 -6.50098c0 -4.66699 0.666992 -8.66699 2 -12
l9.5 -26.5c3 -8.33301 6.5 -17.5 10.5 -27.5c4.66699 -11.333 7 -19 7 -23c0 -5.33301 -2.33301 -8 -7 -8s-9.33398 1 -14.001 3s-9.33398 3 -14.001 3c-2.66699 0 -4.33398 -0.666992 -5.00098 -2s-3.66699 -2 -9 -2c-8 0 -15.5 2.5 -22.5 7.5s-10.833 9.16699 -11.5 12.5
c-1.33301 5.33301 -3.16602 9.83301 -5.49902 13.5s-4.16602 8.16699 -5.49902 13.5c-3.33301 8 -6.33301 12 -9 12c-3.33301 0 -8 -1.66699 -14 -5c-10.667 -5.33301 -21.667 -10.5 -33 -15.5s-20.666 -8.5 -27.999 -10.5c-5.33301 -1.33301 -12 -2.83301 -20 -4.5
s-16.167 -3.16699 -24.5 -4.5s-16.333 -2.5 -24 -3.5s-13.834 -1.5 -18.501 -1.5c-12.667 0 -22.834 0.5 -30.501 1.5s-15.167 2.83301 -22.5 5.5c-14.667 4.66699 -25.334 12.834 -32.001 24.501s-13.334 21.167 -20.001 28.5c-4 4.66699 -7.83301 10.667 -11.5 18
s-5.5 16.333 -5.5 27c0 5.33301 0.666992 12 2 20s3.66602 15.667 6.99902 23c13.333 28 28.333 51.667 45 71s35.667 39.333 57 60c4.66699 5.33301 10.834 11.5 18.501 18.5l22.5 20l19 17c5.33301 5 8.66602 8.16699 9.99902 9.5c2 2.66699 3.16699 4.83398 3.5 6.50098
s0.5 3.83398 0.5 6.50098zM235.003 234c-11.333 -11.333 -21.832 -23.5 -31.499 -36.5l-25.5 -33.5c-2.66699 -3.33301 -5.83398 -7.5 -9.50098 -12.5s-7.16699 -10.5 -10.5 -16.5s-6.16602 -12.5 -8.49902 -19.5s-3.5 -13.833 -3.5 -20.5
c0 -8.66699 3.16699 -14.834 9.5 -18.501s15.166 -5.5 26.499 -5.5c8 0 23.333 2.66699 46 8s49.667 15 81 29c6 2.66699 9.66699 4.5 11 5.5s2 2.83301 2 5.5c0 1.33301 -0.5 3.33301 -1.5 6s-2.16699 6.66699 -3.5 12l-39 120
c-1.33301 4.66699 -2.33301 7.33398 -3 8.00098s-1.66699 1 -3 1s-4 -1.5 -8 -4.5s-13.667 -12.167 -29 -27.5zM324.004 418c11.333 11.333 22 23.001 32 35.001s18.333 24.333 25 37c4 7.33301 6.83301 14.166 8.5 20.499s3.16699 11.166 4.5 14.499
c2 4.66699 3.83301 9.33398 5.5 14.001s2.5 9 2.5 13c0 5.33301 -1.5 10 -4.5 14s-7.16699 6 -12.5 6c-1.33301 0 -4 -0.333008 -8 -1s-8.5 -2 -13.5 -4s-10 -4.83301 -15 -8.5s-9.5 -8.5 -13.5 -14.5l-19.5 -33c-6.33301 -10.667 -9.5 -26 -9.5 -46
c0 -7.33301 0.166992 -14 0.5 -20s1.16602 -13 2.49902 -21c0.666992 -8.66699 2.33398 -13 5.00098 -13c2 0 5.33301 2.33301 10 7z" />
    <glyph glyph-name="quotesingle" unicode="'" horiz-adv-x="232" 
d="M212 561c4.66699 19.333 8.16504 36.5 10.498 51.5s4.16602 29.833 5.49902 44.5c0.666992 7.33301 2.33398 13 5.00098 17s9.66699 6 21 6c8 0 14.333 -2.5 19 -7.5s9.66699 -8.16699 15 -9.5c13.333 -2.66699 21.333 -7.16699 24 -13.5s4 -12.833 4 -19.5
c0 -10.667 -3.66699 -26 -11 -46s-13.666 -43.667 -18.999 -71l-24 -114c-1.33301 -5.33301 -5.66602 -10.5 -12.999 -15.5s-13.333 -7.5 -18 -7.5c-3.33301 0 -8.16602 1.33301 -14.499 4s-12.833 4 -19.5 4c-3.33301 0 -8 3.5 -14 10.5s-9 12.833 -9 17.5
c0 7.33301 1.16699 12.333 3.5 15s4.16602 7.66699 5.49902 15z" />
    <glyph glyph-name="parenleft" unicode="(" horiz-adv-x="330" 
d="M353 694c3.33301 4 6.16406 6.83301 8.49707 8.5s4.83301 3.16699 7.5 4.5s5.5 3 8.5 5s7.16699 5.66699 12.5 11c4.66699 4.66699 9 7.5 13 8.5s8.66699 1.5 14 1.5c6 0 11.167 -1.66699 15.5 -5s7.83301 -7.33301 10.5 -12s4.66699 -9.5 6 -14.5s2 -8.83301 2 -11.5
c0 -2 -0.5 -5.66699 -1.5 -11l-3.5 -18c-1.33301 -6.66699 -2.83301 -13.334 -4.5 -20.001s-3.16699 -12.334 -4.5 -17.001c-3.33301 -10.667 -12 -16 -26 -16c-9.33301 0 -16.166 -1 -20.499 -3s-10.5 -8 -18.5 -18c-14.667 -18.667 -29 -39.167 -43 -61.5
s-27 -44.5 -39 -66.5s-22.667 -42.667 -32 -62s-16.666 -35.333 -21.999 -48c-18 -44 -31.833 -89.5 -41.5 -136.5s-14.5 -91.167 -14.5 -132.5v-13c0 -5.33301 0.166992 -11.166 0.5 -17.499s0.833008 -12.5 1.5 -18.5s1.33398 -10.667 2.00098 -14
c1.33301 -7.33301 3.66602 -13.833 6.99902 -19.5s6.66602 -11 9.99902 -16s6.33301 -10 9 -15s4 -10.833 4 -17.5c0 -3.33301 -0.166992 -7.5 -0.5 -12.5s-1.66602 -9.83301 -3.99902 -14.5s-5.83301 -8.83398 -10.5 -12.501s-11.334 -5.5 -20.001 -5.5
c-3.33301 0 -7.66602 1.83301 -12.999 5.5s-10 5.83398 -14 6.50098c-7.33301 0.666992 -13.833 6.33398 -19.5 17.001s-10.167 23.167 -13.5 37.5s-5.83301 29.5 -7.5 45.5s-2.5 29.667 -2.5 41c0 40 1.83301 76 5.5 108s9.83398 65.333 18.501 100
c6 22.667 14.667 50.5 26 83.5s26 68.667 44 107s39.5 77.833 64.5 118.5s53.5 80.667 85.5 120z" />
    <glyph glyph-name="parenright" unicode=")" horiz-adv-x="330" 
d="M263 632c-2 7.33301 -4.32422 13.1709 -6.99121 17.5039s-5.33398 8.33301 -8.00098 12s-5 7.66699 -7 12s-3 10.166 -3 17.499c0 8 0.666992 13.5 2 16.5s4 5.16699 8 6.5c3.33301 0.666992 6.16602 2 8.49902 4s4.66602 4.16699 6.99902 6.5s5.33301 4.33301 9 6
s8.5 2.5 14.5 2.5c9.33301 0 17.666 -2.5 24.999 -7.5s13.333 -10.167 18 -15.5c3.33301 -4 6.5 -10.5 9.5 -19.5s5.83301 -25.833 8.5 -50.5c2 -18 3.33301 -36.833 4 -56.5s1 -34.167 1 -43.5c0 -34 -2 -70 -6 -108s-10.667 -76.333 -20 -115s-21.5 -76.667 -36.5 -114
s-33.5 -73 -55.5 -107c-21.333 -33.333 -45 -64.833 -71 -94.5s-56 -57.5 -90 -83.5c-6.66699 -5.33301 -12 -8.5 -16 -9.5s-8.66699 -1.5 -14 -1.5c-7.33301 0 -14.333 2.33301 -21 7s-10 9.33398 -10 14.001c0 8 -2.33301 14.667 -7 20s-7 10.666 -7 15.999
c0 6.66699 4 11.667 12 15s14.333 7.33301 19 12c20 20 33.667 30 41 30c3.33301 0 6.66602 1 9.99902 3s8.66602 6.66699 15.999 14l27 27.5c8 8.33301 15.667 17.833 23 28.5s15.166 23 23.499 37s18.166 31.667 29.499 53c28 52.667 46.833 104.167 56.5 154.5
s14.5 102.5 14.5 156.5c0 16 -0.333008 31.667 -1 47s-1.33398 29.166 -2.00098 41.499s-1.5 22.666 -2.5 30.999s-1.83301 14.166 -2.5 17.499z" />
    <glyph glyph-name="asterisk" unicode="*" horiz-adv-x="414" 
d="M274 540c-3.33301 8.66699 -6.49707 17.332 -9.49707 25.999s-6.5 17 -10.5 25c-9.33301 18 -14 31.333 -14 40c0 4.66699 1.33301 8.66699 4 12c3.33301 4.66699 7.83301 8.33398 13.5 11.001s9.5 5 11.5 7c5.33301 5.33301 8.83301 8.33301 10.5 9s5.16699 1 10.5 1
c4.66699 0 8.16699 -2.33301 10.5 -7s4.5 -9.66699 6.5 -15c3.33301 -7.33301 6 -15 8 -23s3.66699 -15.333 5 -22l4 -13.5l4 -12.5c2 -7.33301 3.33301 -12 4 -14s1.66699 -3 3 -3s2.83301 0.833008 4.5 2.5s4.16699 5.16699 7.5 10.5c2 3.33301 5 7.5 9 12.5l12.5 15.5
l12 15c3.66699 4.66699 6.16699 8 7.5 10c7.33301 11.333 13.5 19.333 18.5 24s10.5 7 16.5 7h20c2.66699 0 5.83398 -0.166992 9.50098 -0.5s6.83398 -1.16602 9.50098 -2.49902l11.5 -4.5c4.33301 -1.66699 6.5 -4.5 6.5 -8.5c0 -3.33301 -1 -7.16602 -3 -11.499
s-4.66699 -8.5 -8 -12.5c-7.33301 -9.33301 -12.833 -15.5 -16.5 -18.5s-7.16699 -6.5 -10.5 -10.5l-18 -20l-21 -26c-4.66699 -5.33301 -7.5 -8.83301 -8.5 -10.5s-1.5 -2.83398 -1.5 -3.50098c0 -1.33301 0.666992 -2 2 -2h4c2 0 5 0.666992 9 2
c5.33301 1.33301 12.166 2.66602 20.499 3.99902l24.5 4c8 1.33301 15.167 2.33301 21.5 3s10.166 1 11.499 1c13.333 0 21.833 -1.33301 25.5 -4s5.5 -5.66699 5.5 -9c0 -6.66699 0.5 -10 1.5 -10s1.5 -2.66699 1.5 -8c0 -4.66699 -1 -8.5 -3 -11.5s-3.66699 -6.5 -5 -10.5
c-1.33301 -2 -3.33301 -4.66699 -6 -8s-6.33398 -5 -11.001 -5c-8 0 -14 -0.166992 -18 -0.5s-7 -0.5 -9 -0.5c-15.333 0 -30.833 -1.5 -46.5 -4.5s-26.167 -4.83301 -31.5 -5.5c-8.66699 -0.666992 -13 -2 -13 -4c0 -0.666992 0.333008 -1.83398 1 -3.50098
s2.33398 -4.16699 5.00098 -7.5c2 -2.66699 4.83301 -7.16699 8.5 -13.5l11 -20c3.66699 -7 7.33398 -13.333 11.001 -19s6.5 -9.16699 8.5 -10.5c6.66699 -5.33301 10 -13 10 -23c0 -5.33301 -2.83301 -10.166 -8.5 -14.499s-9.83398 -8.16602 -12.501 -11.499
c-5.33301 -6.66699 -11.333 -10 -18 -10c-5.33301 0 -10 2.66699 -14 8c-2.66699 3.33301 -7.66699 10 -15 20s-18.333 28.667 -33 56c-4.66699 8.66699 -7.5 13.667 -8.5 15s-1.83301 2 -2.5 2s-1.66699 -0.833008 -3 -2.5s-5 -7.5 -11 -17.5s-11 -17.833 -15 -23.5
s-8.66699 -14.834 -14 -27.501c-2 -4.66699 -4.5 -8.66699 -7.5 -12s-8.16699 -7 -15.5 -11c-2.66699 -1.33301 -5.83398 -2.33301 -9.50098 -3s-10.167 -1 -19.5 -1c-4.66699 0 -10.834 2.33301 -18.501 7s-11.5 10 -11.5 16c0 3.33301 0.833008 5.83301 2.5 7.5
s3.16699 3.83398 4.5 6.50098l58 86c1.33301 1.33301 2.5 2.83301 3.5 4.5s1.5 3.16699 1.5 4.5s-1.66699 2.16602 -5 2.49902s-10.666 0.833008 -21.999 1.5c-14.667 0.666992 -26.334 1 -35.001 1s-20.334 1 -35.001 3c-6.66699 0.666992 -11.334 2 -14.001 4
c-4 2.66699 -6.33301 5.5 -7 8.5s-1 6.16699 -1 9.5c0 8.66699 0.666992 14.334 2 17.001s2 6.33398 2 11.001c0 2.66699 0.833008 4.66699 2.5 6s3.16699 3 4.5 5c2 3.33301 4.5 5.5 7.5 6.5s5.83301 1.5 8.5 1.5c4.66699 0 7 -0.333008 7 -1s1.66699 -1.33398 5 -2.00098
c8.66699 -1.33301 20.334 -2.33301 35.001 -3s25.334 -1.33398 32.001 -2.00098c5.33301 -0.666992 10.166 -1.16699 14.499 -1.5s6.83301 -0.5 7.5 -0.5c1.33301 0 2 1 2 3c0 1.33301 -0.666992 4 -2 8z" />
    <glyph glyph-name="plus" unicode="+" horiz-adv-x="590" 
d="M381 304c4 0 7.83105 0.163086 11.498 0.496094s7.16699 0.5 10.5 0.5c4.66699 0 12.5 0.5 23.5 1.5s22.5 2.33301 34.5 4s23.167 3 33.5 4s17.5 1.5 21.5 1.5c15.333 0 27.666 -4.66699 36.999 -14c2 -2 3.16699 -3.66699 3.5 -5s0.5 -3.66602 0.5 -6.99902
c0 -7.33301 -1.5 -14.166 -4.5 -20.499s-5.83301 -12.833 -8.5 -19.5s-6 -10 -10 -10c-2.66699 0 -5.16699 0.333008 -7.5 1s-4.83301 1 -7.5 1c-4 0 -8.83301 -0.166992 -14.5 -0.5s-10.5 -0.833008 -14.5 -1.5c-12 -1.33301 -24.833 -2.66602 -38.5 -3.99902
s-26.5 -2.5 -38.5 -3.5s-22.833 -2 -32.5 -3s-16.834 -1.83301 -21.501 -2.5c-6 -0.666992 -9.66699 -3.33398 -11 -8.00098c-5.33301 -14.667 -11.166 -35.5 -17.499 -62.5s-11.833 -55.167 -16.5 -84.5c-1.33301 -10 -3.66602 -17.667 -6.99902 -23s-12.333 -8 -27 -8
c-2.66699 0 -5.83398 -1 -9.50098 -3s-6.5 -3 -8.5 -3c-11.333 0 -18.833 1.83301 -22.5 5.5s-5.5 6.5 -5.5 8.5c0 13.333 0.833008 25.166 2.5 35.499s4 20.5 7 30.5l9 30.5c3 10.333 6.16699 22.5 9.5 36.5l6 27c0.666992 1.33301 1 3 1 5c0 3.33301 -1.66699 5 -5 5h-38
c-7.33301 0 -15.833 0.333008 -25.5 1s-19.167 1.5 -28.5 2.5s-17.666 2 -24.999 3s-12.333 2.16699 -15 3.5c-5.33301 2 -9.66602 8 -12.999 18s-5 23 -5 39c0 4 3 8.33301 9 13c5.33301 4.66699 11.333 7 18 7h6c2 0 4.66699 -0.666992 8 -2
c4 -1.33301 10.333 -2.33301 19 -3l26.5 -2c9 -0.666992 17.5 -1 25.5 -1h46c14.667 0 22.667 2.33301 24 7c2 5.33301 4.5 12.833 7.5 22.5l9 30l8.5 28.5c2.66699 8.66699 4.33398 14.667 5.00098 18c4.66699 19.333 8.83398 33 12.501 41s7.16699 12.667 10.5 14
c12 3.33301 20.833 6.33301 26.5 9s10.834 4 15.501 4c4 0 9.16699 -0.666992 15.5 -2s10.166 -2.66602 11.499 -3.99902c3.33301 -3.33301 5 -6.66602 5 -9.99902c0 -1.33301 -0.5 -3.33301 -1.5 -6s-1.83301 -5 -2.5 -7l-18 -58l-11.5 -37.5l-7 -22
c-1.66699 -5 -2.83398 -8.83301 -3.50098 -11.5c-1.33301 -3.33301 -2 -5.66602 -2 -6.99902c0 -2 1.33301 -3 4 -3z" />
    <glyph glyph-name="comma" unicode="," horiz-adv-x="260" 
d="M61 9c2 3.33301 5.16699 8.99805 9.5 16.998l14 26l14.5 28l12 24c4.66699 8.66699 9 14.334 13 17.001s10.667 4 20 4c12.667 0 23.667 -6.66699 33 -20c6 -9.33301 11 -15.666 15 -18.999s6 -9 6 -17c0 -3.33301 -1 -6.33301 -3 -9l-130 -198
c-3.33301 -5.33301 -7.83301 -10 -13.5 -14s-9.16699 -6 -10.5 -6c-6.66699 0 -13 1 -19 3c-1.33301 0.666992 -4.33301 1.5 -9 2.5s-8 1.5 -10 1.5c-4 0 -7.83301 3 -11.5 9s-5.5 10.667 -5.5 14c0 1.33301 0.333008 3.5 1 6.5s2.66699 7.5 6 13.5z" />
    <glyph glyph-name="hyphen" unicode="-" horiz-adv-x="456" 
d="M423 243c-3.33301 -3.33301 -10.3311 -5.33496 -20.998 -6.00195s-22 -2.66699 -34 -6c-2.66699 -0.666992 -6.66699 -1.16699 -12 -1.5s-11.333 -0.666016 -18 -0.999023s-13.667 -0.5 -21 -0.5h-19c-15.333 0 -30.833 0.333008 -46.5 1s-30.5 1.5 -44.5 2.5
s-26.333 2 -37 3s-18.334 1.5 -23.001 1.5s-8.83398 2.5 -12.501 7.5s-7.16699 11.833 -10.5 20.5l-4 12.5c-1.33301 4.33301 -2 8.83301 -2 13.5s1 9 3 13c2.66699 4.66699 8.16699 7.83398 16.5 9.50098s14.833 2.5 19.5 2.5c30 0 58 -0.666992 84 -2s54 -2 84 -2
c10.667 0 23.5 0.666992 38.5 2s27.167 2 36.5 2c24.667 0 37 -6 37 -18c0 -15.333 -0.666992 -26.5 -2 -33.5s-5.33301 -13.833 -12 -20.5z" />
    <glyph glyph-name="period" unicode="." horiz-adv-x="284" 
d="M218 74c0 -4 -0.998047 -10.3301 -2.99805 -18.9971s-3.66699 -15.334 -5 -20.001c-3.33301 -8.66699 -6.5 -15.334 -9.5 -20.001s-6.83301 -8.66699 -11.5 -12c-5.33301 -4.66699 -11 -7.33398 -17 -8.00098s-12.667 -1 -20 -1c-5.33301 0 -12.833 2.5 -22.5 7.5
s-18.834 14.167 -27.501 27.5c-3.33301 4.66699 -5.5 9 -6.5 13s-1.5 7.33301 -1.5 10c0 3.33301 0.833008 7 2.5 11s3.5 7 5.5 9c7.33301 7.33301 11.666 16.333 12.999 27c0.666992 10 4 18.333 10 25c3.33301 3.33301 7.5 5.5 12.5 6.5s11.833 1.5 20.5 1.5
c11.333 0 21.833 -3.33301 31.5 -10s16.5 -13.667 20.5 -21c3.33301 -6.66699 5.5 -12 6.5 -16s1.5 -7.66699 1.5 -11z" />
    <glyph glyph-name="slash" unicode="/" horiz-adv-x="400" 
d="M523 653c0 -7.33301 -0.829102 -12.998 -2.49609 -16.998s-5.16699 -8.66699 -10.5 -14c-11.333 -12 -19.833 -19.833 -25.5 -23.5s-10.834 -8.83398 -15.501 -15.501c-25.333 -37.333 -52.333 -79.833 -81 -127.5l-87 -148.5l-86.5 -153.5l-79.5 -140.5
c-16.667 -28.667 -31.334 -51 -44.001 -67s-20.667 -24 -24 -24c-8 0 -14 0.333008 -18 1s-8.66699 2.66699 -14 6c-7.33301 4.66699 -12.833 9 -16.5 13s-5.5 9 -5.5 15c0 3.33301 1.66699 9.5 5 18.5s7.66602 18.167 12.999 27.5c3.33301 6 8.66602 14 15.999 24
s13.333 18.667 18 26l316 547c4.66699 8.66699 10.334 17.5 17.001 26.5l19.5 25.5c6.33301 8 11.833 14.667 16.5 20s7.66699 8.66602 9 9.99902c5.33301 4 11 7.16699 17 9.5s10.667 3.5 14 3.5c4 0 8.66699 -1.5 14 -4.5s10.666 -6.5 15.999 -10.5
s9.83301 -8.5 13.5 -13.5s5.5 -9.5 5.5 -13.5z" />
    <glyph glyph-name="zero" unicode="0" horiz-adv-x="440" 
d="M386 577c2 0 6.32715 -1.16602 12.9941 -3.49902s14 -5.5 22 -9.5s15.667 -8.5 23 -13.5s12.333 -10.167 15 -15.5c8.66699 -16.667 14.834 -34.334 18.501 -53.001s5.5 -38.334 5.5 -59.001c0 -34 -4.66699 -67 -14 -99s-20 -63.333 -32 -94
c-2 -4.66699 -4.16699 -10.5 -6.5 -17.5s-6.33301 -16.667 -12 -29s-13.667 -27.833 -24 -46.5s-24.5 -42 -42.5 -70c-20 -31.333 -43.667 -55.666 -71 -72.999s-52.333 -26 -75 -26c-6 0 -15 2.16699 -27 6.5s-24.5 10.5 -37.5 18.5s-25.667 17.5 -38 28.5
s-21.833 23.5 -28.5 37.5c-1.33301 2 -4.16602 11.167 -8.49902 27.5s-6.5 34.5 -6.5 54.5c0 11.333 1.33301 25.333 4 42s6.33398 34.5 11.001 53.5s10.334 38.667 17.001 59s14.334 39.5 23.001 57.5c19.333 42 43 81.667 71 119s58.333 75 91 113
c3.33301 4 8.5 6.33301 15.5 7s15.5 1 25.5 1c4.66699 0 9 -0.833008 13 -2.5s10 -5.16699 18 -10.5c8.66699 -5.33301 15.334 -8 20.001 -8c4 0 6.16699 0.833008 6.5 2.5s3.83301 2.5 10.5 2.5zM402.994 452.001c0 8.66699 -1.50195 17.501 -4.50195 26.501
s-7.16699 17 -12.5 24s-11.333 12.833 -18 17.5s-13.334 7 -20.001 7c-7.33301 0 -14.333 -3.66699 -21 -11c-34 -38.667 -65.167 -80.334 -93.5 -125.001s-52.166 -92.667 -71.499 -144c-6 -15.333 -9.33301 -26.5 -10 -33.5s-1.66699 -12.833 -3 -17.5l-9.5 -39.5
c-3 -13 -4.5 -26.5 -4.5 -40.5c0 -2 0.333008 -5.5 1 -10.5s1.5 -10.5 2.5 -16.5s2 -11.5 3 -16.5s2.16699 -8.5 3.5 -10.5c2.66699 -3.33301 6.33398 -8.66602 11.001 -15.999s11.334 -11 20.001 -11c6 0 13.167 1.66699 21.5 5s17.666 9.33301 27.999 18
s21.833 20.667 34.5 36s26.334 35.333 41.001 60c3.33301 6 7.83301 13 13.5 21s10.167 16.333 13.5 25l26.5 61c9 20 17 40.167 24 60.5s12.833 41.166 17.5 62.499s7 44 7 68z" />
    <glyph glyph-name="one" unicode="1" horiz-adv-x="440" 
d="M340 416l-86.5 -102.995l-62 -70.5l-42 -45.5c-11 -11.333 -19.833 -20 -26.5 -26s-11.5 -10.5 -14.5 -13.5s-5.16699 -5.5 -6.5 -7.5c-2 -3.33301 -5.66699 -5.5 -11 -6.5s-10.666 -1.5 -15.999 -1.5c-7.33301 0 -12 0.666992 -14 2l-4 5l-11 6.5
c-4 2.33301 -7 4.83301 -9 7.5c-6.66699 7.33301 -10.834 13 -12.501 17s-2.5 6.66699 -2.5 8c0 2.66699 7 10.667 21 24c16 14.667 28.667 25.667 38 33s17.333 13.166 24 17.499s12.834 9 18.501 14s13.167 12.5 22.5 22.5l97 109.5l100 118.5l20 26l23.5 32.5l20.5 30
c6 9 9.66699 14.833 11 17.5c2.66699 5.33301 4.83398 8.66602 6.50098 9.99902s6.16699 2 13.5 2c12 0 24.167 -2.16699 36.5 -6.5s21.166 -12.166 26.499 -23.499c1.33301 -2.66699 2 -5.66699 2 -9c0 -4 -1 -8.33301 -3 -13c-32 -80.667 -58.333 -163.834 -79 -249.501
l-63 -257.5l-7 -27c-2.66699 -10 -4 -21.667 -4 -35c0 -2.66699 -0.333008 -6.33398 -1 -11.001s-1.83398 -9.5 -3.50098 -14.5s-4.16699 -9.33301 -7.5 -13s-7.66602 -5.5 -12.999 -5.5c-6.66699 0 -11.5 -0.5 -14.5 -1.5s-6.83301 -1.5 -11.5 -1.5
c-19.333 0 -34.333 4.66699 -45 14c-2.66699 2.66699 -4 8 -4 16c0 6 0.5 12.5 1.5 19.5s2.16699 13.167 3.5 18.5c2.66699 13.333 6 23.5 10 30.5s7.33301 15.5 10 25.5l39 148.5c13.333 49.667 25.666 99.167 36.999 148.5c1.33301 3.33301 2.33301 7.16602 3 11.499
s1 7.16602 1 8.49902c0 3.33301 -1 5 -3 5c-1.33301 0 -2.33301 -0.333008 -3 -1z" />
    <glyph glyph-name="two" unicode="2" horiz-adv-x="440" 
d="M164 223c45.333 43.333 83.1738 82.4971 113.507 117.497s54.5 66.5 72.5 94.5s30.833 52.667 38.5 74s11.5 39.666 11.5 54.999c0 6.66699 -2.33301 10.834 -7 12.501s-10.667 2.5 -18 2.5c-12 0 -25 -3.5 -39 -10.5s-27 -15.333 -39 -25s-22 -19 -30 -28
s-12 -15.5 -12 -19.5c0 -2 -3.83301 -6.5 -11.5 -13.5s-13.167 -14.167 -16.5 -21.5s-7.33301 -12.5 -12 -15.5s-10.667 -4.5 -18 -4.5c-5.33301 0 -9.83301 -0.666992 -13.5 -2s-6.83398 -2 -9.50098 -2c-0.666992 0 -2.66699 0.833008 -6 2.5s-7 4.33398 -11 8.00098
s-7.5 8.16699 -10.5 13.5s-4.5 12 -4.5 20c0 6 0.166992 10.667 0.5 14s1.16602 6.83301 2.49902 10.5s3.83301 8 7.5 13l14.5 19.5c12.667 16.667 26 30 40 40s30.667 20.667 50 32c11.333 6.66699 21.666 12.167 30.999 16.5s18.666 7.5 27.999 9.5
s19.166 3.33301 29.499 4s22.166 1 35.499 1c8 0 17.667 -3 29 -9s22.166 -13.333 32.499 -22s19.166 -17.834 26.499 -27.501s11 -18.167 11 -25.5c0 -32.667 -6.16699 -64.5 -18.5 -95.5s-28.333 -60.833 -48 -89.5s-42 -56.167 -67 -82.5l-74.5 -75.5l-70 -69
c-22 -22 -40.333 -42.667 -55 -62c-4.66699 -6 -7.5 -10 -8.5 -12s-1.5 -3.66699 -1.5 -5c0 -3.33301 4.33301 -7 13 -11c5.33301 -2.66699 14.5 -4.33398 27.5 -5.00098s27.167 -1 42.5 -1c30.667 0 54 1.5 70 4.5s29.667 10.167 41 21.5
c10.667 10.667 17.5 21.334 20.5 32.001s8.5 21.334 16.5 32.001c4 5.33301 9.83301 9 17.5 11s16.167 3 25.5 3c5.33301 0 10 -1.5 14 -4.5s9.33301 -7.5 16 -13.5c3.33301 -3.33301 5 -8.66602 5 -15.999c0 -4 -1.16699 -11 -3.5 -21s-5.16602 -20.667 -8.49902 -32
s-7.16602 -22.333 -11.499 -33s-8.5 -18.334 -12.5 -23.001c-4.66699 -6 -11 -10.833 -19 -14.5s-18.667 -6.66699 -32 -9s-30.333 -4 -51 -5s-46 -1.5 -76 -1.5c-16.667 0 -33.834 0.166992 -51.501 0.5s-34.5 1 -50.5 2s-30.167 2.83301 -42.5 5.5
s-21.5 6.33398 -27.5 11.001c-13.333 11.333 -23 22.166 -29 32.499s-9 20.833 -9 31.5c0 2.66699 1.33301 6.83398 4 12.501s9 14.334 19 26.001s24.333 27.167 43 46.5z" />
    <glyph glyph-name="three" unicode="3" horiz-adv-x="440" 
d="M461 588c2.66699 -5.33301 4.33105 -9.33008 4.99805 -11.9971s1 -4.66699 1 -6c0 -5.33301 -1 -11 -3 -17s-4.66699 -13 -8 -21c-2 -5.33301 -3.5 -9.83301 -4.5 -13.5s-2.5 -7.16699 -4.5 -10.5c-20 -35.333 -40.333 -66 -61 -92s-38.334 -46 -53.001 -60
c15.333 0 31.833 -3.83301 49.5 -11.5s31.5 -20.167 41.5 -37.5c4 -7.33301 7.33301 -15.333 10 -24s4 -22.334 4 -41.001c0 -19.333 -3.66699 -40.166 -11 -62.499s-16 -43.833 -26 -64.5c-9.33301 -19.333 -19.5 -38 -30.5 -56s-23.667 -34 -38 -48
s-30.666 -25.167 -48.999 -33.5s-39.166 -12.5 -62.499 -12.5c-16.667 0 -33.334 3.83301 -50.001 11.5s-32.667 17.167 -48 28.5s-29.666 23.666 -42.999 36.999s-24.666 25.666 -33.999 36.999c-5.33301 6.66699 -7.83301 10.5 -7.5 11.5s-0.5 3.5 -2.5 7.5
s-3.16699 7 -3.5 9s-0.5 3.66699 -0.5 5c0 4 1.33301 8.33301 4 13s9.33398 7 20.001 7c4.66699 0 9 -0.166992 13 -0.5s9 -0.5 15 -0.5c1.33301 0 3 0.333008 5 1s4 1 6 1c4 0 7 -0.5 9 -1.5s4.33301 -2.83301 7 -5.5c6.66699 -7.33301 13.834 -14 21.501 -20
s11.5 -12.333 11.5 -19c0 -3.33301 2.16699 -7.83301 6.5 -13.5s10.166 -11.334 17.499 -17.001s15.333 -10.667 24 -15s17.667 -6.5 27 -6.5c8.66699 0 15.667 1.66699 21 5c20 12.667 37.333 28 52 46s28 41 40 69l9 23c3.33301 8.66699 6.33301 17 9 25
s4.83398 15.167 6.50098 21.5s2.5 10.833 2.5 13.5c0 9.33301 -1.16699 17.166 -3.5 23.499s-5.16602 11.833 -8.49902 16.5c-4.66699 6.66699 -9.83398 11 -15.501 13s-10.834 3 -15.501 3c-6.66699 0 -12.834 -0.833008 -18.501 -2.5s-9.83398 -3.16699 -12.501 -4.5
c-3.33301 -1.33301 -6.83301 -2 -10.5 -2s-10.167 -2.66699 -19.5 -8l-41.5 -22.5c-13.667 -7.66699 -28.5 -11.5 -44.5 -11.5c-3.33301 0 -7.66602 0.5 -12.999 1.5s-8.66602 2.16699 -9.99902 3.5c-5.33301 5.33301 -9.5 12 -12.5 20s-4.5 14 -4.5 18
c0 2.66699 5.33301 7.66699 16 15s20.667 13.666 30 18.999s15.5 9.83301 18.5 13.5s5.5 6.16699 7.5 7.5c27.333 18 51 37.5 71 58.5s36.833 41.333 50.5 61s24.334 37.834 32.001 54.501s13.167 29.334 16.5 38.001c1.33301 4.66699 2.16602 7.66699 2.49902 9
s0.5 2.66602 0.5 3.99902c0 2 -1 3 -3 3c-2.66699 0 -6.16699 -0.333008 -10.5 -1s-9.5 -2.66699 -15.5 -6c-8 -4 -17.833 -9.33301 -29.5 -16s-22.834 -13.667 -33.501 -21s-19.667 -14.666 -27 -21.999s-11 -13.333 -11 -18c0 -9.33301 -3.16699 -15.333 -9.5 -18
s-12.166 -6.66699 -17.499 -12c-2.66699 -2.66699 -7.83398 -4.33398 -15.501 -5.00098s-15.167 -1 -22.5 -1c-2.66699 0 -5.66699 1.83301 -9 5.5s-6.33301 8 -9 13s-5 9.66699 -7 14s-3 7.16602 -3 8.49902c0 10 2.16699 18.833 6.5 26.5s9.66602 14.5 15.999 20.5
s13.333 11.667 21 17s14.5 11 20.5 17c2 2 6.33301 3.66699 13 5c10 2 18 5.16699 24 9.5s13 8.5 21 12.5c17.333 8.66699 33.833 16.334 49.5 23.001s31.834 10 48.501 10c9.33301 0 17.833 -1 25.5 -3s13.167 -4.33301 16.5 -7
c5.33301 -3.33301 9.5 -5.66602 12.5 -6.99902s5.5 -2.33301 7.5 -3c7.33301 -2 13.333 -5.33301 18 -10s8 -9 10 -13z" />
    <glyph glyph-name="four" unicode="4" horiz-adv-x="440" 
d="M420 184c-9.33301 -1.33301 -21.1689 -3.16602 -35.502 -5.49902s-27.166 -4.83301 -38.499 -7.5c-4 -8.66699 -7.66699 -19.834 -11 -33.501s-6.16602 -27.5 -8.49902 -41.5s-4 -27.167 -5 -39.5s-1.5 -21.5 -1.5 -27.5c0 -3.33301 -0.5 -6.33301 -1.5 -9
s-1.83301 -5.66699 -2.5 -9s-1.83398 -7.16602 -3.50098 -11.499s-4.5 -6.5 -8.5 -6.5c-13.333 0 -24.5 3 -33.5 9s-18.167 11.667 -27.5 17c-6 3.33301 -9 10.333 -9 21c0 4.66699 0.833008 11.834 2.5 21.501l6.5 37.5c2 12.667 4.16699 23.834 6.5 33.501
s3.5 15.167 3.5 16.5c0 5.33301 -2.66699 8 -8 8c-28.667 1.33301 -55.5 2.16602 -80.5 2.49902s-51.833 6.16602 -80.5 17.499c-2.66699 1.33301 -5 2.83301 -7 4.5s-3.66699 3.16699 -5 4.5c-10 10 -19.167 21.667 -27.5 35s-12.5 23.333 -12.5 30
c0 1.33301 0.333008 3.16602 1 5.49902s1 5.5 1 9.5c0 2.66699 0.333008 4.66699 1 6s3.33398 4.66602 8.00098 9.99902l63 72l70.5 80l78 82c27 27.333 55.5 53.666 85.5 78.999c3.33301 2.66699 7.5 6.33398 12.5 11.001s8.16699 8.33398 9.5 11.001
c5.33301 8 10 13.5 14 16.5s9 4.5 15 4.5c7.33301 0 15 -1.33301 23 -4c3.33301 -1.33301 9 -4.33301 17 -9s12 -9.66699 12 -15c0 -20.667 -2.66699 -36.334 -8 -47.001s-8 -20 -8 -28c0 -11.333 -3.16699 -28.166 -9.5 -50.499l-21.5 -73l-23.5 -80
c-7.66699 -27 -12.834 -50.5 -15.501 -70.5c-0.666992 -3.33301 -1 -6.33301 -1 -9v-5c0 -2 1.66699 -3 5 -3c6 0 11.5 0.5 16.5 1.5l17 3.5c6.33301 1.33301 14.5 2.5 24.5 3.5s23 1.5 39 1.5c10 0 17.667 -3 23 -9s10.666 -15.667 15.999 -29c1.33301 -4 2 -7 2 -9
c0 -12 -7.66699 -18 -23 -18c-7.33301 0 -16.666 -0.5 -27.999 -1.5s-20.666 -2.16699 -27.999 -3.5zM338.997 496c-1.33301 0 -2.66895 -0.499023 -4.00195 -1.49902s-3.66602 -3.16699 -6.99902 -6.5c-13.333 -13.333 -28.5 -29.333 -45.5 -48l-52.5 -60l-54 -64.5
l-49 -59.5c-2.66699 -3.33301 -4 -6.33301 -4 -9c0 -6 1.66699 -9.66699 5 -11c9.33301 -5.33301 21.166 -9 35.499 -11s29.166 -3 44.499 -3c3.33301 0 10.833 0.5 22.5 1.5s22.167 2.16699 31.5 3.5c3.33301 0.666992 5.33301 1.16699 6 1.5s1.33398 0.833008 2.00098 1.5
c1.33301 1.33301 2.33301 4.33301 3 9c4 23.333 8.83301 46.666 14.5 69.999s11.334 45.333 17.001 66s11.334 39.667 17.001 57l14.5 44c3.33301 10 5 15.667 5 17c0 2 -0.666992 3 -2 3z" />
    <glyph glyph-name="five" unicode="5" horiz-adv-x="440" 
d="M448 540c-4 0 -9.66406 -0.341797 -16.9971 -1.00879c-36 -2.66699 -68 -6.33398 -96 -11.001s-53.333 -9.66699 -76 -15c-4.66699 -1.33301 -7.66699 -4.66602 -9 -9.99902l-14.5 -47c-5.66699 -18 -10.5 -34 -14.5 -48c-1.33301 -5.33301 -2.16602 -9 -2.49902 -11
s-0.5 -3.66699 -0.5 -5c0 -2 2 -3 6 -3c0.666992 0 3.33398 1.16699 8.00098 3.5s10.667 4.83301 18 7.5s16 5.16699 26 7.5s20.333 3.5 31 3.5c20.667 0 41 -3.16699 61 -9.5s37.333 -20.166 52 -41.499c10 -14.667 16 -30.167 18 -46.5s3 -29.166 3 -38.499
c0 -28 -5.66699 -55.833 -17 -83.5s-24 -54.5 -38 -80.5c-14 -25.333 -28.5 -47.166 -43.5 -65.499s-29.833 -33.166 -44.5 -44.499s-28.834 -19.666 -42.501 -24.999s-25.834 -8 -36.501 -8c-18 0 -35.167 2.66699 -51.5 8s-31.833 12.333 -46.5 21s-28.5 18.667 -41.5 30
s-25.5 23.333 -37.5 36l-14 15.5c-3.33301 3.66699 -5.83301 6.83398 -7.5 9.50098s-2.66699 4.83398 -3 6.50098s-0.5 3.83398 -0.5 6.50098c0 3.33301 2.33301 6.33301 7 9s10.5 7.83398 17.5 15.501s15.167 11.5 24.5 11.5c5.33301 0 11.5 -1.33301 18.5 -4
s11.167 -4.66699 12.5 -6c6.66699 -4 11.834 -8.16699 15.501 -12.5s7 -9 10 -14l9 -15.5c3 -5.33301 7.16699 -11 12.5 -17c14 -14.667 25.833 -24.5 35.5 -29.5s20.167 -7.5 31.5 -7.5c2.66699 0 6.66699 1.66699 12 5s10.333 7 15 11
c21.333 19.333 38.833 40.666 52.5 63.999s25.5 48 35.5 74c3.33301 8 5.5 15.167 6.5 21.5s4.16699 17.166 9.5 32.499c3.33301 9.33301 6.16602 18.666 8.49902 27.999s3.5 18 3.5 26c0 30 -6.33301 48.333 -19 55c-2.66699 1.33301 -4.83398 2.16602 -6.50098 2.49902
s-5.83398 0.5 -12.501 0.5c-12.667 0 -30.5 -5.83301 -53.5 -17.5s-48.5 -31.5 -76.5 -59.5c-5.33301 -5.33301 -9.33301 -8.5 -12 -9.5s-5 -1.5 -7 -1.5c-10 0 -18.5 1.33301 -25.5 4s-15.167 6.66699 -24.5 12c-3.33301 1.33301 -6.33301 3 -9 5s-4 4.66699 -4 8
c0 1.33301 0.666992 4 2 8l43.5 144c13.667 46 26.5 86 38.5 120c1.33301 4.66699 4.5 8.83398 9.5 12.501s10.5 6.83398 16.5 9.50098s12 4.83398 18 6.50098s10.667 2.5 14 2.5c5.33301 0 9.5 -1.16699 12.5 -3.5s5.83301 -3.5 8.5 -3.5c1.33301 0 5.5 0.5 12.5 1.5
s15.667 2.16699 26 3.5l34 4.5c12.333 1.66699 24.833 3.5 37.5 5.5c9.33301 1.33301 19 2.5 29 3.5l29 3c9.33301 1 18 1.83301 26 2.5s14.333 1 19 1c8 0 18.667 -3.33301 32 -10s23.666 -15 30.999 -25c4 -5.33301 6 -11 6 -17c0 -7.33301 -3.16699 -13.666 -9.5 -18.999
s-14.166 -8 -23.499 -8c-2.66699 0 -10.334 1 -23.001 3s-25 3 -37 3h-8z" />
    <glyph glyph-name="six" unicode="6" horiz-adv-x="440" 
d="M464 583c2.66699 -10 3.99219 -17.6699 3.99219 -23.0029c0 -3.33301 -1.66699 -6.66602 -5 -9.99902s-8.66602 -5 -15.999 -5c-5.33301 0 -9 0.166992 -11 0.5s-4 0.5 -6 0.5l-5 1c-1.33301 0.666992 -4 1 -8 1c-2.66699 0 -5.83398 -1.33301 -9.50098 -4l-9.5 -7
c-24 -19.333 -46.667 -40 -68 -62s-40.5 -44.333 -57.5 -67s-31.667 -44.334 -44 -65.001s-21.833 -39 -28.5 -55c-3.33301 -8.66699 -5.66602 -15 -6.99902 -19s-2 -6.66699 -2 -8c0 -2.66699 1 -4 3 -4c2.66699 0 6.66699 1.66699 12 5c4.66699 3.33301 10.167 7 16.5 11
s12.5 7.66699 18.5 11s11.167 6.33301 15.5 9s7.5 4.33398 9.5 5.00098c21.333 6 39 12 53 18s29.333 9 46 9c8.66699 0 17.667 -1.16699 27 -3.5s16.666 -6.83301 21.999 -13.5l19.5 -24c5.66699 -6.66699 11.167 -15 16.5 -25c1.33301 -2.66699 2 -5 2 -7
c0 -1.33301 -0.333008 -2.66602 -1 -3.99902l-1 -6c-17.333 -58 -43.5 -107.333 -78.5 -148s-73.167 -75 -114.5 -103c-6 -4 -15.333 -7.83301 -28 -11.5s-26.667 -5.5 -42 -5.5c-13.333 0 -24.666 1.33301 -33.999 4s-17.166 5.66699 -23.499 9
s-11.666 6.66602 -15.999 9.99902s-7.5 5.66602 -9.5 6.99902l-20.5 14.5c-7 5 -13.5 10.667 -19.5 17s-10.833 13.5 -14.5 21.5s-5.5 17 -5.5 27c0 14 0.833008 25.333 2.5 34s3.83398 16.667 6.50098 24c22.667 68.667 46.167 126.334 70.5 173.001
s46.833 84.834 67.5 114.501s38.334 51.5 53.001 65.5s24 22.667 28 26c7.33301 6 16 14.167 26 24.5s20.833 20.5 32.5 30.5s23.834 18.5 36.501 25.5s25.667 10.5 39 10.5c6.66699 0 13.334 -1.16699 20.001 -3.5s12.834 -5.16602 18.501 -8.49902s10.167 -6.5 13.5 -9.5
s5.33301 -5.5 6 -7.5zM353.992 220.997c2 3.33301 3.49902 7.50293 4.49902 12.5029s1.5 8.5 1.5 10.5c0 3.33301 -2.66699 5 -8 5c-2.66699 0 -7.83398 -1.33301 -15.501 -4s-16.667 -6.33398 -27 -11.001s-21.333 -10 -33 -16l-33.5 -18c-6.66699 -4 -14.167 -9 -22.5 -15
l-24.5 -18c-8 -6 -15 -12 -21 -18s-10.333 -11 -13 -15c-7.33301 -11.333 -14.666 -21.333 -21.999 -30s-11 -19.667 -11 -33c0 -6.66699 4.16699 -14.334 12.5 -23.001s16.166 -13 23.499 -13c8 0 21.833 5.16699 41.5 15.5s38.5 24.833 56.5 43.5
c16.667 17.333 31.834 35.666 45.501 54.999s28.834 43.333 45.501 72z" />
    <glyph glyph-name="seven" unicode="7" horiz-adv-x="440" 
d="M202 246c3.33301 4.66699 5.33691 7.6709 6.00391 9.00391s1 2.33301 1 3c0 3.33301 -3 5 -9 5c-3.33301 0 -8.66602 0.166992 -15.999 0.5s-14.666 1 -21.999 2s-14.166 2.16699 -20.499 3.5s-10.5 3 -12.5 5c-2.66699 2.66699 -5 6.83398 -7 12.501
s-3.33301 9.16699 -4 10.5s-1.16699 3 -1.5 5s-0.5 5.66699 -0.5 11c0 1.33301 -0.333008 3.16602 -1 5.49902s-1 4.16602 -1 5.49902c0 6 1.83301 10.333 5.5 13s7.16699 4 10.5 4c2.66699 0 6.16699 -0.333008 10.5 -1s8.16602 -1.66699 11.499 -3
c1.33301 -0.666992 4.33301 -1.33398 9 -2.00098s9.66699 -1.5 15 -2.5s10.5 -1.83301 15.5 -2.5s8.5 -1 10.5 -1c37.333 0 57.666 2.66699 60.999 8c17.333 25.333 32.666 46.5 45.999 63.5s25 32.667 35 47s19.167 28.333 27.5 42s16.166 29.834 23.499 48.501
c2 4.66699 3 9 3 13c0 3.33301 -3.66699 5.83301 -11 7.5s-16.333 2.5 -27 2.5c-58 0 -99.667 -5.66699 -125 -17s-38 -30 -38 -56c0 -5.33301 -3.16699 -9.16602 -9.5 -11.499s-11.166 -3.5 -14.499 -3.5c-8 0 -14.833 0.666992 -20.5 2s-11.167 5.66602 -16.5 12.999
c-5.33301 6 -8.16602 14.5 -8.49902 25.5s-2.5 21.167 -6.5 30.5c-2 4 -3.16699 8.16699 -3.5 12.5s-0.5 9.16602 -0.5 14.499c0 6.66699 5 12.5 15 17.5s22.667 9.33301 38 13s31.833 6.5 49.5 8.5s34.167 4 49.5 6c13.333 1.33301 28.333 2.5 45 3.5s33.667 1.5 51 1.5
c18 0 34.667 -0.666992 50 -2s26.666 -3.66602 33.999 -6.99902c1.33301 -0.666992 4.83301 -2.83398 10.5 -6.50098s11.5 -8.33398 17.5 -14.001s11.5 -11.5 16.5 -17.5s7.5 -12 7.5 -18s-0.333008 -11.167 -1 -15.5s-2.33398 -9.16602 -5.00098 -14.499
s-6.83398 -12.5 -12.501 -21.5s-13.5 -20.833 -23.5 -35.5c-6 -9.33301 -13.5 -20 -22.5 -32l-27 -35.5l-23.5 -30c-6.66699 -8.33301 -10.667 -13.5 -12 -15.5s-2 -4 -2 -6c0 -2.66699 3.66699 -4 11 -4c4 0 8.16699 0.333008 12.5 1s8.16602 1 11.499 1
c12.667 0 23.667 -1.33301 33 -4s18 -8.33398 26 -17.001c2.66699 -2.66699 4.83398 -5 6.50098 -7s2.5 -4.66699 2.5 -8c0 -19.333 -3 -29 -9 -29c-4.66699 0 -8.16699 0.5 -10.5 1.5s-8.83301 1.5 -19.5 1.5c-17.333 0 -31 -0.666992 -41 -2s-19 -3 -27 -5l-25 -6.5
c-8.66699 -2.33301 -20.334 -4.5 -35.001 -6.5c-50 -72 -85.667 -130 -107 -174s-32 -75.333 -32 -94c0 -2.66699 -0.5 -5.33398 -1.5 -8.00098s-3.16699 -4 -6.5 -4c-5.33301 0 -9.33301 -2.83301 -12 -8.5s-8 -8.5 -16 -8.5c-3.33301 0 -8.5 1.16699 -15.5 3.5
s-13.833 7.5 -20.5 15.5c-4.66699 5.33301 -9.33398 10.333 -14.001 15s-7 8.66699 -7 12c0 6 1.33301 13.667 4 23s8.5 22.5 17.5 39.5s21.833 39 38.5 66z" />
    <glyph glyph-name="eight" unicode="8" horiz-adv-x="440" 
d="M202 354c0 6.66699 -0.166992 11.9961 -0.5 15.9961s-0.5 8.33301 -0.5 13c0 66.667 8.83301 122.667 26.5 168s45.834 75 84.501 89c5.33301 2 9.83301 3.16699 13.5 3.5s8.16699 0.5 13.5 0.5c8.66699 0 17.167 -1 25.5 -3s17.5 -4.66699 27.5 -8
c4.66699 -1.33301 8 -3.16602 10 -5.49902s3.83301 -4.66602 5.5 -6.99902s3.5 -4.5 5.5 -6.5s5 -4 9 -6c10.667 -4.66699 21.167 -11.5 31.5 -20.5s19.666 -19.333 27.999 -31s16 -23.834 23 -36.501s12.833 -25 17.5 -37c1.33301 -2.66699 2.5 -7 3.5 -13
s1.5 -11.667 1.5 -17c0 -11.333 -2.83301 -22.166 -8.5 -32.499s-15.167 -19.166 -28.5 -26.499l-103 -52.5c-32.667 -16.333 -66.667 -32.166 -102 -47.499c-1.33301 -3.33301 -2 -11 -2 -23v-14c0 -4.66699 0.333008 -10.334 1 -17.001c2 -27.333 3.5 -54 4.5 -80
s1.5 -45 1.5 -57c0 -8 -0.333008 -19 -1 -33s-2.33398 -28 -5.00098 -42s-6.66699 -26.333 -12 -37s-12.666 -16.667 -21.999 -18c-3.33301 -0.666992 -7.16602 -1.83398 -11.499 -3.50098s-10.166 -2.5 -17.499 -2.5c-12 0 -21.833 0.5 -29.5 1.5
s-17.167 4.83301 -28.5 11.5c-14 8.66699 -28.833 19.334 -44.5 32.001s-30 26.834 -43 42.501s-23.833 32.5 -32.5 50.5s-13 36.667 -13 56c0 22.667 5.5 42.167 16.5 58.5s24.667 30.5 41 42.5s33.666 22.5 51.999 31.5s35.166 18.167 50.499 27.5
c6 3.33301 9.5 6.5 10.5 9.5s1.5 10.833 1.5 23.5zM393 542.996c-4 0 -7.33496 3.16602 -10.002 9.49902s-4.66699 11.833 -6 16.5c-1.33301 5.33301 -2.66602 8 -3.99902 8c-2.66699 0 -5.66699 -0.666992 -9 -2c-12.667 -5.33301 -23.167 -11.666 -31.5 -18.999
s-16.833 -18 -25.5 -32c-5.33301 -8 -10.5 -23.667 -15.5 -47s-7.5 -49 -7.5 -77c0 -7.33301 0.5 -12.166 1.5 -14.499s2.5 -3.5 4.5 -3.5c1.33301 0 5 1 11 3s17.667 7.66699 35 17c14 7.33301 29.833 14.333 47.5 21s35.167 16.667 52.5 30
c9.33301 7.33301 14 15.666 14 24.999c0 10 -1.16699 19.333 -3.5 28s-7.16602 16.334 -14.499 23.001c-8 7.33301 -14.5 12.166 -19.5 14.499s-8.5 3.5 -10.5 3.5c-2.66699 0 -4.16699 -0.666992 -4.5 -2s-1.83301 -2 -4.5 -2zM195.998 51.9951
c4 12.667 6.83301 25.667 8.5 39s2.5 27 2.5 41c0 26 -0.833008 48.833 -2.5 68.5s-2.5 31.167 -2.5 34.5c0 5.33301 -1.66699 8 -5 8c-2 0 -5.33301 -1 -10 -3c-22 -9.33301 -40.333 -22 -55 -38s-22 -33.667 -22 -53c0 -10.667 1.66699 -21 5 -31s7 -17.667 11 -23
c27.333 -36.667 47.333 -55 60 -55c4.66699 0 8 4 10 12z" />
    <glyph glyph-name="nine" unicode="9" horiz-adv-x="440" 
d="M530 555c0 -11.333 -1.83789 -20.832 -5.50488 -28.499s-9.16699 -16.834 -16.5 -27.501c-5.33301 -7.33301 -9.66602 -15.333 -12.999 -24c-8 -22 -17 -42.667 -27 -62l-30.5 -58.5l-30.5 -61c-10 -21 -19 -44.5 -27 -70.5c-12 -38 -24.833 -75 -38.5 -111
s-23.167 -73 -28.5 -111c-0.666992 -4 -1.83398 -6.83301 -3.50098 -8.5s-5.16699 -4.16699 -10.5 -7.5s-9.16602 -5.33301 -11.499 -6s-5.16602 -1 -8.49902 -1c-2 0 -4.83301 0.333008 -8.5 1s-7.16699 2 -10.5 4c-11.333 7.33301 -20.333 13.833 -27 19.5
s-10 11.5 -10 17.5c0 1.33301 0.333008 3.16602 1 5.49902s3 8.83301 7 19.5l44 120.5l43 121.5c3.33301 10 5.33301 16.167 6 18.5s1 4.16602 1 5.49902c0 2 -1 3 -3 3c-0.666992 0 -2.5 -0.666992 -5.5 -2s-9.5 -4.66602 -19.5 -9.99902
c-20.667 -11.333 -34.334 -18 -41.001 -20c-11.333 -3.33301 -19.166 -5 -23.499 -5s-9.83301 -1 -16.5 -3c-16 -5.33301 -30.333 -8 -43 -8c-8.66699 0 -15.667 0.666992 -21 2s-11 4.33301 -17 9c-4 2.66699 -7.66699 4.83398 -11 6.50098s-6.66602 3.66699 -9.99902 6
s-6.83301 5.5 -10.5 9.5s-7.83398 9.66699 -12.501 17c-4 6.66699 -8.33301 12.5 -13 17.5s-7 12.5 -7 22.5c0 11.333 2 21 6 29c15.333 28 33.833 52 55.5 72s44.834 38 69.501 54s50 30.667 76 44s51.333 27 76 41c2.66699 2 7.33398 4.16699 14.001 6.5l21 7.5
c7.33301 2.66699 14.833 4.83398 22.5 6.50098s14.5 2.5 20.5 2.5c4.66699 0 9.83398 -0.333008 15.501 -1s10.167 -2.33398 13.5 -5.00098c5.33301 -4.66699 10.833 -8.5 16.5 -11.5s13.167 -8.16699 22.5 -15.5c20 -16 30 -26.333 30 -31zM436.995 552.001
c-2 0 -5.33203 -1 -9.99902 -3l-75.5 -35.5c-25.667 -11.667 -50.834 -24.834 -75.501 -39.501s-48 -31.334 -70 -50.001s-42 -40.667 -60 -66c-3.33301 -5.33301 -5.5 -8.66602 -6.5 -9.99902s-1.5 -2.66602 -1.5 -3.99902c0 -3.33301 1.5 -6.33301 4.5 -9
s7.16699 -4 12.5 -4c8.66699 0 19 2 31 6c32 10.667 62.167 24.667 90.5 42s53.5 35.5 75.5 54.5s40.5 37.833 55.5 56.5s25.167 35 30.5 49c1.33301 4 2 7.33301 2 10c0 2 -1 3 -3 3z" />
    <glyph glyph-name="colon" unicode=":" horiz-adv-x="290" 
d="M258 105c4.66699 -2.66699 8.49902 -9.49805 11.499 -20.498s4.5 -21.5 4.5 -31.5c0 -1.33301 -0.166992 -3.83301 -0.5 -7.5s-0.833008 -7.66699 -1.5 -12s-1.66699 -8.33301 -3 -12s-3 -5.83398 -5 -6.50098l-22 -10c-6 -2.66699 -13 -4 -21 -4
c-12 0 -20 2.16699 -24 6.5s-8 9.16602 -12 14.499c-6 8 -11.667 13.833 -17 17.5s-8 9.16699 -8 16.5c0 2.66699 0.666992 6.16699 2 10.5s3 12.166 5 23.499c2 10 6.33301 20 13 30s15 15 25 15c11.333 0 20.833 -3.66699 28.5 -11s15.834 -13.666 24.501 -18.999z
M314.999 335.002c-5.33301 -18.667 -12.167 -31.333 -20.5 -38s-13.5 -10 -15.5 -10c-4 0 -9.33301 0.833008 -16 2.5s-12 3.16699 -16 4.5c-11.333 3.33301 -20.833 7.83301 -28.5 13.5s-11.5 14.167 -11.5 25.5c0 20 2.5 33.833 7.5 41.5s9.16699 14.834 12.5 21.501
c5.33301 12 9.5 19 12.5 21s9.83301 3 20.5 3c4.66699 0 9.5 -0.833008 14.5 -2.5s12.833 -6.83398 23.5 -15.501c4.66699 -3.33301 9.5 -8 14.5 -14s7.5 -11.333 7.5 -16c0 -2.66699 -0.5 -8.5 -1.5 -17.5s-2.16699 -15.5 -3.5 -19.5z" />
    <glyph glyph-name="semicolon" unicode=";" horiz-adv-x="280" 
d="M179 107c6.66699 -2 11.167 -5.83105 13.5 -11.498s3.5 -11.167 3.5 -16.5v-13c0 -11.333 -2.5 -18.833 -7.5 -22.5s-8.83301 -7.5 -11.5 -11.5l-35 -57.5l-32.5 -55l-33.5 -56c-11.333 -19 -23.666 -38.5 -36.999 -58.5c-4 -6 -8 -9.5 -12 -10.5s-8.66699 -1.5 -14 -1.5
c-6.66699 0 -12.334 0.666992 -17.001 2s-10 2.33301 -16 3c-8 0.666992 -13.333 4.83398 -16 12.501s-4 14.5 -4 20.5c0 3.33301 1.16699 6.16602 3.5 8.49902s5.16602 6.16602 8.49902 11.499c18 27.333 33.167 52.166 45.5 74.499l34.5 63.5l30.5 58
c9.66699 18.667 20.5 38.334 32.5 59.001c4 7.33301 6.83301 11.666 8.5 12.999s3.16699 2.33301 4.5 3c2.66699 1.33301 4.33398 2.5 5.00098 3.5s2 1.5 4 1.5c8.66699 0 17 -3 25 -9s13.667 -9.66699 17 -11zM290 354.002c0 -9.33301 -0.166992 -15.998 -0.5 -19.998
s-1.16602 -7.66699 -2.49902 -11c-2.66699 -7.33301 -6.16699 -15 -10.5 -23s-9.5 -12 -15.5 -12c-5.33301 0 -13.333 -0.166992 -24 -0.5s-19.667 -0.5 -27 -0.5c-15.333 0 -26.166 3.5 -32.499 10.5s-9.5 13.167 -9.5 18.5c0 7.33301 1.66699 18.166 5 32.499
s8.33301 26.166 15 35.499c4 6 8.5 11.833 13.5 17.5s11.167 8.5 18.5 8.5c9.33301 0 16.666 -1.5 21.999 -4.5s10.666 -7.83301 15.999 -14.5c5.33301 -6 10 -10.667 14 -14l10 -8.5c2.66699 -2.33301 4.66699 -4.5 6 -6.5s2 -4.66699 2 -8z" />
    <glyph glyph-name="less" unicode="&#x3c;" horiz-adv-x="590" 
d="M451 115c6.66699 0 12.9971 -2.66309 18.9971 -7.99609s9 -11 9 -17c0 -3.33301 -0.5 -6 -1.5 -8s-2.5 -4 -4.5 -6s-4.5 -4.66699 -7.5 -8l-11.5 -13c-4.66699 -5.33301 -10.5 -9.33301 -17.5 -12s-12.5 -4 -16.5 -4c-8.66699 0 -18.834 2.5 -30.501 7.5
s-28.834 13.833 -51.501 26.5c-12.667 6.66699 -24.667 13.5 -36 20.5l-38 24l-48.5 31l-67.5 42.5c-8 5.33301 -13 9.66602 -15 12.999s-3 8.33301 -3 15c0 3.33301 0.666992 7 2 11s3 8.66699 5 14c1.33301 2.66699 2.33301 4.33398 3 5.00098l3 3
c1.33301 1.33301 2.5 2.83301 3.5 4.5s2.5 4.83398 4.5 9.50098c0.666992 2.66699 2 5.16699 4 7.5s5.16699 5.16602 9.5 8.49902s10.333 7.16602 18 11.499l29.5 17.5l77.5 43.5l86.5 50.5l48.5 29c12.333 7.33301 22 12.833 29 16.5s12.333 6.16699 16 7.5l10.5 4
c5.33301 1.33301 9.83301 3.16602 13.5 5.49902s8.5 3.5 14.5 3.5c7.33301 0 13.833 -3 19.5 -9s8.5 -12 8.5 -18c0 -3.33301 1.5 -7.5 4.5 -12.5s4.5 -9.16699 4.5 -12.5c0 -2 -1 -6.33301 -3 -13s-4.33301 -10 -7 -10c-3.33301 0 -8.16602 -1.33301 -14.499 -4
s-18.5 -9.66699 -36.5 -21c-3.33301 -2 -6.16602 -3.33301 -8.49902 -4l-8.5 -2.5c-3.33301 -1 -7.66602 -2.66699 -12.999 -5s-12.666 -5.83301 -21.999 -10.5l-37.5 -20.5l-45 -25.5l-41.5 -24l-29 -17l-33 -20c-6.66699 -4 -10 -7 -10 -9
c0 -1.33301 0.666992 -2.83301 2 -4.5s5 -4.16699 11 -7.5l18.5 -11.5l30 -19l34 -21.5c11.667 -7.33301 22.167 -13.333 31.5 -18c14.667 -8 26.834 -14.333 36.501 -19s17.5 -8.33398 23.5 -11.001s11.167 -4.33398 15.5 -5.00098s8.5 -1 12.5 -1z" />
    <glyph glyph-name="equal" unicode="=" horiz-adv-x="590" 
d="M398 370c4 0 12.6719 0.833984 26.0049 2.50098s27.666 3.16699 42.999 4.5s29.666 2.66602 42.999 3.99902s22 2 26 2c9.33301 0 16.166 -0.5 20.499 -1.5s8.83301 -3.83301 13.5 -8.5c2 -2 3.16699 -4.5 3.5 -7.5s0.5 -6.16699 0.5 -9.5
c0 -4 -0.833008 -10.333 -2.5 -19s-3.83398 -15.667 -6.50098 -21c-1.33301 -3.33301 -4 -5.5 -8 -6.5s-6.66699 -1.5 -8 -1.5c-7.33301 0 -15.5 -0.166992 -24.5 -0.5s-22.167 -1.16602 -39.5 -2.49902l-157 -14c-5.33301 -0.666992 -10.666 -1 -15.999 -1h-16
c-12 0 -25.5 0.5 -40.5 1.5l-43 3c-13.667 1 -25.834 2.16699 -36.501 3.5s-17.334 2.33301 -20.001 3c-11.333 3.33301 -17 22 -17 56c0 3.33301 0.833008 5.83301 2.5 7.5s3.83398 4.16699 6.50098 7.5s5 5.16602 7 5.49902s4.66699 0.5 8 0.5h6
c2.66699 0 6 -0.666992 10 -2c17.333 -4 34.333 -6.83301 51 -8.5s34.667 -2.5 54 -2.5h17c5.33301 0 11.666 0.333008 18.999 1zM358.005 239.001c16 0 30.999 0.669922 44.999 2.00293s32.667 3.66602 56 6.99902c13.333 2 25.666 3.33301 36.999 4s19 1 23 1
c7.33301 0 13 -0.5 17 -1.5s8 -3.16699 12 -6.5c2.66699 -2 5.16699 -4.66699 7.5 -8s3.5 -6 3.5 -8c-0.666992 -7.33301 -2.16699 -14.833 -4.5 -22.5s-4.5 -15.167 -6.5 -22.5c-1.33301 -4.66699 -4.33301 -7 -9 -7c-4 0 -8 0.333008 -12 1s-8 1 -12 1h-10
c-3.33301 0 -6.66602 -0.333008 -9.99902 -1c-30 -5.33301 -62.333 -9 -97 -11s-65.334 -3 -92.001 -3h-28c-13.333 0 -27.166 0.166992 -41.499 0.5s-27.5 0.666016 -39.5 0.999023s-22.333 0.833008 -31 1.5s-13.667 1.66699 -15 3c-5.33301 3.33301 -11.5 10 -18.5 20
s-10.5 22.333 -10.5 37c0 2.66699 0.833008 4.66699 2.5 6s3.16699 3.66602 4.5 6.99902c2 5.33301 8 8 18 8c7.33301 0 22.5 -1.83301 45.5 -5.5s55.5 -5.5 97.5 -5.5c7.33301 0 17.333 0.333008 30 1s25.334 1 38.001 1z" />
    <glyph glyph-name="greater" unicode="&#x3e;" horiz-adv-x="590" 
d="M296 373c-11.333 6 -20.0049 10.835 -26.0049 14.502l-14.5 9l-10.5 6.5c-3.33301 2 -8 4.33301 -14 7c-5.33301 2 -9.66602 5.5 -12.999 10.5s-5 12.167 -5 21.5c0 6.66699 1.66699 13 5 19c7.33301 13.333 12 22.666 14 27.999s6.66699 8 14 8
c5.33301 0 9 -1.83301 11 -5.5s8.66699 -8.16699 20 -13.5c9.33301 -4.66699 15.5 -8 18.5 -10s5.33301 -4 7 -6s3.66699 -4 6 -6s7.5 -5.33301 15.5 -10l75 -44l133 -82c8 -5.33301 13 -9.66602 15 -12.999s3 -8.33301 3 -15c0 -3.33301 -0.666992 -7.5 -2 -12.5
s-3 -9.16699 -5 -12.5c-5.33301 -8 -9.16602 -13 -11.499 -15s-4.16602 -4 -5.49902 -6c-1.33301 -3.33301 -2.83301 -6.16602 -4.5 -8.49902s-4.5 -5 -8.5 -8s-9.33301 -6.66699 -16 -11s-15.667 -9.83301 -27 -16.5c-11.333 -6 -26.5 -14.5 -45.5 -25.5l-58 -33.5
l-53.5 -31.5l-31 -18.5l-38 -23.5c-9.33301 -5.66699 -17.333 -9.83398 -24 -12.501s-13 -4.33398 -19 -5.00098s-13.667 -1 -23 -1c-12.667 0 -21.5 1.16699 -26.5 3.5s-8.16699 6.5 -9.5 12.5c-1.33301 6.66699 -3.33301 11.834 -6 15.501s-4 7.16699 -4 10.5
c0 2 0.5 4.66699 1.5 8s4.16699 7 9.5 11c4 2.66699 7.5 4.66699 10.5 6s7.5 3.16602 13.5 5.49902s13.833 5.83301 23.5 10.5s23.167 11.667 40.5 21l39 21.5l47.5 26.5l47 26.5l37.5 21.5l24.5 14c5.66699 3.33301 9.83398 6 12.501 8s4.33398 3.66699 5.00098 5
s1 2.66602 1 3.99902c0 2 -6 6.66699 -18 14l-80 48.5c-22.667 13.667 -39.667 23.167 -51 28.5z" />
    <glyph glyph-name="question" unicode="?" horiz-adv-x="360" 
d="M440 572c0 -12.667 -0.493164 -23.6621 -1.49316 -32.9951s-5 -19.5 -12 -30.5s-17.833 -24.5 -32.5 -40.5s-35.667 -37.333 -63 -64c-14.667 -14 -28 -27.667 -40 -41s-22.333 -25.5 -31 -36.5s-15.334 -20.167 -20.001 -27.5s-7 -12 -7 -14
c0 -5.33301 4.16699 -9.5 12.5 -12.5s17.166 -4.5 26.499 -4.5c6 0 11.833 0.333008 17.5 1s11.5 1 17.5 1c10 0 18.167 -0.833008 24.5 -2.5s11.5 -3.5 15.5 -5.5s7 -3.83301 9 -5.5s3.66699 -2.5 5 -2.5s3.66602 -1.16699 6.99902 -3.5s5.66602 -5.5 6.99902 -9.5
c1.33301 -2.66699 2.66602 -6.33398 3.99902 -11.001s2 -8 2 -10c0 -4 -1.83301 -7.33301 -5.5 -10s-7.5 -4.33398 -11.5 -5.00098c-3.33301 -0.666992 -7.83301 -1.83398 -13.5 -3.50098s-11.167 -2.5 -16.5 -2.5c-28.667 0 -54.667 1.5 -78 4.5s-44 8.16699 -62 15.5
c-9.33301 4 -15.833 7.66699 -19.5 11s-8.16699 9.66602 -13.5 18.999c-6 10.667 -9 18.334 -9 23.001c0 1.33301 -0.333008 3 -1 5s-1 3.66699 -1 5c0 7.33301 2 13 6 17c1.33301 1.33301 2.33301 3.16602 3 5.49902s1.66699 4.16602 3 5.49902
c13.333 24.667 30.666 49.167 51.999 73.5s46.666 51.833 75.999 82.5c26.667 28 45.667 49.333 57 64s17 25.334 17 32.001c0 5.33301 -1.66699 10.166 -5 14.499s-7.16602 8 -11.499 11s-9 5.33301 -14 7s-9.5 2.5 -13.5 2.5c-8.66699 0 -16.5 -2.33301 -23.5 -7
s-13.167 -9.66699 -18.5 -15c-3.33301 -3.33301 -5.5 -7 -6.5 -11s-1.5 -8.33301 -1.5 -13c0 -2.66699 0.333008 -6.33398 1 -11.001s1 -8.66699 1 -12c0 -5.33301 -1.5 -10.166 -4.5 -14.499s-9.5 -6.5 -19.5 -6.5c-16 0 -29.333 7.33301 -40 22
c-3.33301 4 -5.33301 9.83301 -6 17.5s-1 14.167 -1 19.5c0 13.333 2 25.5 6 36.5s9.33301 19.5 16 25.5c22.667 20.667 50.667 31 84 31c18 0 33.167 -1.66699 45.5 -5s25.166 -8.66602 38.499 -15.999c10.667 -6 21.5 -14.833 32.5 -26.5s16.5 -24.834 16.5 -39.501z
M256.007 45.0049c0 -9.33301 -0.5 -16.667 -1.5 -22s-3.5 -10 -7.5 -14c-6.66699 -6.66699 -14.334 -12.667 -23.001 -18s-17.667 -8 -27 -8c-7.33301 0 -14.666 1.66699 -21.999 5s-12.333 6.66602 -15 9.99902c-3.33301 4.66699 -7.5 9.5 -12.5 14.5
s-7.5 9.83301 -7.5 14.5c0 5.33301 0.5 10.5 1.5 15.5s2.16699 9.16699 3.5 12.5c5.33301 20 11.5 32.167 18.5 36.5s14.167 6.5 21.5 6.5c3.33301 0 8.83301 -2 16.5 -6s15.5 -8.66699 23.5 -14s15.167 -11.166 21.5 -17.499s9.5 -11.5 9.5 -15.5z" />
    <glyph glyph-name="at" unicode="@" horiz-adv-x="700" 
d="M482 603c-11.333 0 -25.668 -1.83887 -43.001 -5.50586s-36.333 -11.167 -57 -22.5s-42.334 -27.5 -65.001 -48.5s-44.667 -49.167 -66 -84.5c-26 -42.667 -43.833 -84.667 -53.5 -126s-14.5 -75.333 -14.5 -102c0 -25.333 3.66699 -48.333 11 -69s18 -38.334 32 -53.001
s30.833 -26.167 50.5 -34.5s41.834 -12.5 66.501 -12.5c20.667 0 44.167 3.33301 70.5 10s53.833 20.334 82.5 41.001c5.33301 4 10 6.66699 14 8s8 2 12 2c7.33301 0 16 -2.16699 26 -6.5s17.333 -12.166 22 -23.499c1.33301 -2.66699 2.66602 -4.66699 3.99902 -6
s2.66602 -2.83301 3.99902 -4.5s2.33301 -4 3 -7s1 -7.5 1 -13.5c0 -2.66699 -1.5 -4.83398 -4.5 -6.50098s-6.83301 -3.16699 -11.5 -4.5l-13 -4c-4 -1.33301 -7 -2.66602 -9 -3.99902c-34.667 -23.333 -67.5 -38.833 -98.5 -46.5s-60.833 -11.5 -89.5 -11.5
c-11.333 0 -23.666 1.33301 -36.999 4s-26.5 6.16699 -39.5 10.5s-25.5 9.33301 -37.5 15s-22 11.834 -30 18.501c-38.667 30.667 -65.667 62.5 -81 95.5s-23 71.833 -23 116.5c0 24 1.5 47.167 4.5 69.5s7.83301 44.833 14.5 67.5s15.667 45.834 27 69.501
s25 48.167 41 73.5c20 32 41.833 58.5 65.5 79.5s47.334 37.667 71.001 50s46.334 21.166 68.001 26.499s41.167 8 58.5 8c42.667 0 79.167 -5.66699 109.5 -17s60.166 -31.666 89.499 -60.999c10.667 -11.333 20.667 -22.666 30 -33.999s17.5 -24.166 24.5 -38.499
s12.333 -30.666 16 -48.999s5.5 -40.166 5.5 -65.499c0 -22 -2.16699 -43 -6.5 -63s-10.166 -39 -17.499 -57s-15.5 -34.833 -24.5 -50.5s-18.5 -29.834 -28.5 -42.501c-16.667 -22 -33.167 -36.333 -49.5 -43s-31.5 -10 -45.5 -10c-9.33301 0 -19 1.66699 -29 5
s-21.667 9 -35 17c-7.33301 4.66699 -12.833 9.66699 -16.5 15s-7.16699 14 -10.5 26c-0.666992 2 -1.16699 4.16699 -1.5 6.5s-1.5 3.5 -3.5 3.5c-1.33301 0 -2.66602 -0.666992 -3.99902 -2s-3.66602 -4.33301 -6.99902 -9c-4 -6 -9.33301 -12.5 -16 -19.5
s-13.834 -13.167 -21.501 -18.5s-15.834 -9.83301 -24.501 -13.5s-17 -5.5 -25 -5.5c-6 0 -11.833 1.16699 -17.5 3.5s-11 5 -16 8s-9.5 6 -13.5 9s-7 5.16699 -9 6.5c-11.333 7.33301 -20.5 18.166 -27.5 32.499s-10.5 29.5 -10.5 45.5c0 14.667 2 30.5 6 47.5
s9.5 34 16.5 51s14.833 33.333 23.5 49s18 29.167 28 40.5c21.333 24 42 42.667 62 56s39 20 57 20c7.33301 0 15.333 -2 24 -6s16.834 -8.66699 24.501 -14s14.5 -10.833 20.5 -16.5s10 -10.167 12 -13.5c3.33301 -4.66699 5.5 -9 6.5 -13s1.5 -7 1.5 -9
c0 -3.33301 1.5 -6.16602 4.5 -8.49902s6.83301 -4.83301 11.5 -7.5c6 -3.33301 9 -7.66602 9 -12.999c0 -4 -0.166992 -7.33301 -0.5 -10s-1.5 -6.33398 -3.5 -11.001l-27.5 -63c-7 -16 -12.167 -29.5 -15.5 -40.5s-5.5 -20.5 -6.5 -28.5s-1.5 -16.667 -1.5 -26
c0 -4.66699 1.66699 -9.83398 5 -15.501s7.66602 -8.5 12.999 -8.5c10.667 0 22.667 5.83301 36 17.5s25.833 27.5 37.5 47.5s21.5 43.333 29.5 70s12 54.667 12 84c0 36 -5.5 65.333 -16.5 88s-25.167 40.334 -42.5 53.001s-36.333 21.167 -57 25.5s-40.667 6.5 -60 6.5z
M511.998 438.994c0 3.33301 -2.66797 7.16797 -8.00098 11.501s-9 6.5 -11 6.5c-12 0 -24.667 -5.5 -38 -16.5s-26 -23.833 -38 -38.5s-22.5 -29.667 -31.5 -45s-14.833 -27 -17.5 -35c-3.33301 -10.667 -7.5 -20.167 -12.5 -28.5s-8.5 -17.5 -10.5 -27.5
c-1.33301 -4.66699 -2.16602 -9.66699 -2.49902 -15s-0.5 -12 -0.5 -20c0 -5.33301 1.16699 -9 3.5 -11s4.83301 -3 7.5 -3c4 0 7.83301 0.666992 11.5 2s8.5 4.66602 14.5 9.99902c14 12.667 27.167 25.834 39.5 39.501s23 26.5 32 38.5s16.167 22.167 21.5 30.5
s8 14.166 8 17.499c0 2 -1 3.83301 -3 5.5s-3 4.16699 -3 7.5c0 4 0.5 7.5 1.5 10.5s3.5 6.5 7.5 10.5c9.33301 10 16.5 19.5 21.5 28.5s7.5 16.167 7.5 21.5z" />
    <glyph glyph-name="A" unicode="A" 
d="M460 -73c0 -6 -2.32617 -10.8359 -6.99316 -14.5029l-13 -10.5c-2.66699 -2 -4.66699 -3.16699 -6 -3.5s-3 -0.5 -5 -0.5c-8 0 -16.833 1.33301 -26.5 4s-17.834 7.33398 -24.501 14.001c-3.33301 3.33301 -6.16602 9.5 -8.49902 18.5s-4.33301 19.5 -6 31.5
s-2.83398 24.833 -3.50098 38.5s-1 26.5 -1 38.5c0 22.667 0.666992 44.834 2 66.501s2 44.167 2 67.5c0 2.66699 -2 4 -6 4c-14 -5.33301 -30.667 -11.166 -50 -17.499l-58 -18.5c-19.333 -6 -37.5 -11.333 -54.5 -16s-30.5 -7.66699 -40.5 -9
c-3.33301 -0.666992 -6 -1.83398 -8 -3.50098s-4.33301 -5.16699 -7 -10.5c-6 -13.333 -10.167 -26 -12.5 -38s-3.5 -22.667 -3.5 -32c0 -22 0.5 -35.833 1.5 -41.5s1.5 -10.5 1.5 -14.5c0 -2 -1.66699 -4 -5 -6c-6.66699 -4.66699 -12.834 -9.5 -18.501 -14.5
s-12.167 -7.5 -19.5 -7.5c-1.33301 0 -4 1 -8 3s-7.66699 4 -11 6c-5.33301 3.33301 -9.83301 6.83301 -13.5 10.5s-6.5 8 -8.5 13s-3.5 11 -4.5 18s-1.5 15.833 -1.5 26.5c0 10 0.666992 20 2 30s2.83301 19 4.5 27s3.16699 14.833 4.5 20.5s2 8.83398 2 9.50098
c0 2.66699 -2 5 -6 7c-12 6.66699 -20.333 11.834 -25 15.501s-7 8.83398 -7 15.501c0 11.333 2.16699 23 6.5 35s7.16602 18.667 8.49902 20c3.33301 2.66699 7 4 11 4c8 0 15.5 -2.83301 22.5 -8.5s13.833 -8.5 20.5 -8.5c1.33301 0 2.83301 0.666992 4.5 2
s4.16699 5.33301 7.5 12l60 108l64 109.5l70 113.5l78 120c8 12 13.167 19.167 15.5 21.5s4.5 3.5 6.5 3.5c5.33301 0 14.5 2 27.5 6s25.167 6 36.5 6c6.66699 0 13.667 -0.833008 21 -2.5s11.666 -3.83398 12.999 -6.50098c1.33301 -5.33301 3 -8.33301 5 -9s3 -3 3 -7
c0 -2 -0.833008 -7.83301 -2.5 -17.5s-3.33398 -20 -5.00098 -31s-3.33398 -21.167 -5.00098 -30.5s-2.5 -14.666 -2.5 -15.999c0 -9.33301 -1 -20.333 -3 -33c-3.33301 -19.333 -6.33301 -42.666 -9 -69.999s-5 -53.833 -7 -79.5s-3.5 -47.834 -4.5 -66.501
s-1.5 -28.334 -1.5 -29.001c0 -1.33301 0.166992 -2.66602 0.5 -3.99902s2.16602 -2 5.49902 -2s9.16602 0.666992 17.499 2s19.833 2 34.5 2c13.333 0 25.5 -1.66699 36.5 -5s19.167 -8 24.5 -14c4 -4.66699 6 -8.33398 6 -11.001c0 -4 -1.33301 -8.33301 -4 -13
c-6 -10 -14.667 -16.833 -26 -20.5s-26.666 -5.5 -45.999 -5.5c-8 0 -16 -0.833008 -24 -2.5s-14.667 -4.16699 -20 -7.5c-4.66699 -3.33301 -7.5 -5.83301 -8.5 -7.5s-1.83301 -5.83398 -2.5 -12.501l-5 -100c0 -3.33301 -0.166992 -7.83301 -0.5 -13.5
s-0.5 -11.5 -0.5 -17.5v-32c0 -20 1 -36.833 3 -50.5s4.33301 -24.5 7 -32.5s5 -14 7 -18s3 -6.66699 3 -8zM365.007 266.997c9.33301 70.667 15.6621 127.33 18.9951 169.997s5 75.334 5 98.001c0 7.33301 -0.166992 11.833 -0.5 13.5s-1.16602 2.5 -2.49902 2.5
s-2.5 -0.333008 -3.5 -1s-2.83301 -3 -5.5 -7l-53.5 -86.5l-46.5 -78l-41.5 -73l-38.5 -71.5c-5.33301 -9.33301 -8.66602 -15.666 -9.99902 -18.999s-2 -5.66602 -2 -6.99902c0 -2.66699 2 -4 6 -4c2.66699 0 7.83398 0.833008 15.501 2.5s16.5 4 26.5 7l30.5 9
c10.333 3 19.5 6.16699 27.5 9.5c18.667 7.33301 34 12.833 46 16.5s19 6.16699 21 7.5c2.66699 1.33301 4.33398 2.5 5.00098 3.5s1.33398 3.5 2.00098 7.5z" />
    <glyph glyph-name="B" unicode="B" horiz-adv-x="574" 
d="M389 665c4.66699 2.66699 13.5 5.83887 26.5 9.50586s27.167 5.5 42.5 5.5c18 0 35.667 -2.83301 53 -8.5s32 -13.834 44 -24.501c14 -12 21 -24 21 -36c0 -3.33301 -0.666992 -8.33301 -2 -15s-4.83301 -16 -10.5 -28s-14.334 -26.5 -26.001 -43.5
s-27.834 -37.5 -48.501 -61.5l-20 -24c-6.66699 -8 -12.667 -15.667 -18 -23l-12 -17c-3.33301 -4.66699 -5 -7.33398 -5 -8.00098c0 -1.33301 1.33301 -2.66602 4 -3.99902c9.33301 -4.66699 20 -6.83398 32 -6.50098s22.667 -1.16699 32 -4.5
c17.333 -6.66699 32.5 -15.834 45.5 -27.501s23.167 -24.834 30.5 -39.501c3.33301 -5.33301 5.33301 -10.5 6 -15.5s1 -11.167 1 -18.5c0 -22 -2.66699 -42.5 -8 -61.5s-12.666 -37.5 -21.999 -55.5s-20 -36.333 -32 -55l-38 -60c-16.667 -26.667 -39.334 -46 -68.001 -58
s-59.667 -18 -93 -18c-8 0 -17 0.333008 -27 1s-19.833 1.83398 -29.5 3.50098s-18.834 3.5 -27.501 5.5s-15.667 4.66699 -21 8s-12.666 6.66602 -21.999 9.99902s-18.666 9.66602 -27.999 18.999c-2 -1.33301 -4.33301 -2 -7 -2h-8c-11.333 0 -21.833 4.16699 -31.5 12.5
l-27.5 23.5c-3.33301 2.66699 -5.16602 4.83398 -5.49902 6.50098s-0.5 3.5 -0.5 5.5c0 4 -2.16699 8.66699 -6.5 14l-14 16.5l-14.5 16c-4.66699 5 -7 8.83301 -7 11.5c-0.666992 4.66699 -1.83398 8.83398 -3.50098 12.501s-3.5 7 -5.5 10s-3.83301 6.16699 -5.5 9.5
s-2.5 7.66602 -2.5 12.999c0 6.66699 3.83301 11.167 11.5 13.5s22.5 3.5 44.5 3.5c3.33301 0 6.83301 -0.666992 10.5 -2s6.5 -2 8.5 -2s4 0.5 6 1.5s3.66699 4.83301 5 11.5l21 87c6.66699 26.667 13.5 52.5 20.5 77.5s14.667 49.667 23 74s17.833 50.166 28.5 77.499
c0 1.33301 -1 3.66602 -3 6.99902c-4 6 -6.5 11.333 -7.5 16s-1.5 10.334 -1.5 17.001c0 5.33301 0.333008 8.5 1 9.5s2.33398 2.16699 5.00098 3.5c14.667 6 25.667 15.167 33 27.5s14.666 29.166 21.999 50.499c7.33301 20 13.833 32.833 19.5 38.5s11.5 8.5 17.5 8.5
s11.833 -1.33301 17.5 -4s11.334 -5.66699 17.001 -9s11.5 -6.33301 17.5 -9s12 -4 18 -4c6.66699 0 14.667 2.66699 24 8zM440 330.005c-11.333 0 -23.3311 -2.16504 -35.998 -6.49805s-25 -9.5 -37 -15.5s-22.833 -12 -32.5 -18l-23.5 -15
c-12.667 -8.66699 -26.334 -16.334 -41.001 -23.001s-28.334 -10 -41.001 -10c-4 0 -6.5 -0.666992 -7.5 -2s-2.16699 -4 -3.5 -8l-8 -30.5l-10 -40.5c-3.33301 -14 -6.33301 -27.333 -9 -40s-4 -22.334 -4 -29.001c0 -5.33301 2.33301 -10.333 7 -15
c15.333 -15.333 34 -29.666 56 -42.999s47.333 -20 76 -20c14 0 26.833 4 38.5 12s23 19.333 34 34s21.833 32.167 32.5 52.5l34 67.5c12.667 26 20 47.5 22 64.5s3 30.833 3 41.5c0 8 -0.666992 14 -2 18s-4 8.66699 -8 14s-9.33301 8.66602 -16 9.99902s-14.667 2 -24 2z
M478.002 612.007c0 4 -1.66602 5.99902 -4.99902 5.99902c-28.667 0 -54.334 -4.83301 -77.001 -14.5s-44.667 -22.167 -66 -37.5c-3.33301 -2.66699 -5.83301 -4.83398 -7.5 -6.50098s-3.16699 -4.16699 -4.5 -7.5l-10 -22c-3.33301 -7.33301 -6.33301 -14.666 -9 -21.999
c-3.33301 -10.667 -8.5 -25 -15.5 -43l-20.5 -55c-6.66699 -18.667 -12.5 -36 -17.5 -52s-7.5 -27.333 -7.5 -34c0 -2.66699 1.33301 -4 4 -4c3.33301 0 10.833 3.83301 22.5 11.5s21.834 17.167 30.501 28.5l11.5 16c4.33301 6 8.16602 10.667 11.499 14l53.5 58.5
c20.333 21.667 38.5 43.5 54.5 65.5c19.333 26.667 32.833 48.834 40.5 66.501s11.5 28.167 11.5 31.5z" />
    <glyph glyph-name="C" unicode="C" horiz-adv-x="472" 
d="M520 656c5.33301 -7.33301 13.6709 -15.9961 25.0039 -25.9961s18.666 -22 21.999 -36c0.666992 -3.33301 1 -7 1 -11c0 -1.33301 -0.333008 -3.83301 -1 -7.5s-3 -10.5 -7 -20.5l-19.5 -44.5c-5.66699 -12.333 -10.834 -26.833 -15.501 -43.5
c-1.33301 -5.33301 -5 -9.83301 -11 -13.5s-12.667 -5.5 -20 -5.5c-4.66699 0 -9.66699 0.5 -15 1.5s-10 1.83301 -14 2.5c-2 0 -4.83301 1 -8.5 3s-7.33398 4.5 -11.001 7.5s-6.83398 6.16699 -9.50098 9.5s-4 6.66602 -4 9.99902c0 9.33301 1.66699 17.5 5 24.5
s7 13.5 11 19.5l11.5 17.5c3.66699 5.66699 6.16699 12.167 7.5 19.5c0.666992 3.33301 2.83398 7.66602 6.50098 12.999s5.5 11 5.5 17c0 10 -3 15 -9 15s-13 -1.33301 -21 -4s-16 -6 -24 -10s-15.5 -8.33301 -22.5 -13s-12.833 -9 -17.5 -13
c-10 -9.33301 -18.333 -17.5 -25 -24.5s-13.834 -15 -21.501 -24s-16.5 -20.167 -26.5 -33.5l-39 -53c-28 -38 -52.5 -80.667 -73.5 -128s-38.833 -95 -53.5 -143c-1.33301 -3.33301 -2.16602 -7.83301 -2.49902 -13.5s-0.833008 -11.5 -1.5 -17.5s-1 -11.667 -1 -17v-10
c0 -4.66699 1.33301 -11 4 -19s5.66699 -13.333 9 -16c8.66699 -7.33301 16 -14 22 -20s13 -9 21 -9c14 0 29.167 3.5 45.5 10.5s33.166 16.333 50.499 28s34.666 25.167 51.999 40.5s34 31 50 47c8 8 14 13.333 18 16s10.667 4 20 4h16
c6.66699 0 12.834 -1.33301 18.501 -4s10.834 -7.66699 15.501 -15c4 -6.66699 6 -12 6 -16c0 -2.66699 -1.16699 -4.83398 -3.5 -6.50098s-5.5 -4.5 -9.5 -8.5l-55.5 -55c-18.333 -18.667 -37.5 -35.667 -57.5 -51s-41.167 -28 -63.5 -38s-46.833 -15 -73.5 -15
c-11.333 0 -25 1.33301 -41 4s-28.333 6 -37 10c-7.33301 3.33301 -15.5 8 -24.5 14s-17.5 12.5 -25.5 19.5s-15 14.167 -21 21.5s-9.33301 14.666 -10 21.999c-1.33301 11.333 -2.5 22 -3.5 32s-1.5 19.667 -1.5 29c0 10 0.5 20.5 1.5 31.5s2.33301 21.333 4 31
s3.16699 18 4.5 25s2.33301 11.167 3 12.5c14 39.333 30.667 79.666 50 120.999s41.5 81 66.5 119s53.167 73.333 84.5 106s66 60 104 82c2.66699 2 7.33398 4 14.001 6s14 3.83301 22 5.5s16.167 3 24.5 4s15.833 1.5 22.5 1.5c7.33301 0 14.5 -0.666992 21.5 -2
s14.167 -3.66602 21.5 -6.99902c3.33301 -1.33301 6.16602 -2.83301 8.49902 -4.5s4.16602 -3.16699 5.49902 -4.5z" />
    <glyph glyph-name="D" unicode="D" horiz-adv-x="554" 
d="M602 547c6.66699 -8.66699 11.6602 -18.3311 14.9932 -28.998s5 -28.334 5 -53.001c0 -14.667 -2.33301 -30.167 -7 -46.5s-11.334 -32.5 -20.001 -48.5c-4 -7.33301 -6.66699 -13.666 -8 -18.999s-4.66602 -13 -9.99902 -23c-18 -37.333 -37 -74.166 -57 -110.499
s-41.833 -70.166 -65.5 -101.499s-50 -59 -79 -83s-61.5 -42.667 -97.5 -56c-5.33301 -2 -10.666 -3.16699 -15.999 -3.5s-10.666 -0.5 -15.999 -0.5c-12.667 0 -25.5 1.33301 -38.5 4s-25.167 5.66699 -36.5 9c-0.666992 -4.66699 -3.5 -7.33398 -8.5 -8.00098
s-11.167 -1 -18.5 -1c-8.66699 0 -18.667 3.83301 -30 11.5s-19.666 16.167 -24.999 25.5c-8 3.33301 -17 7.33301 -27 12s-19.167 10 -27.5 16s-15.5 12.5 -21.5 19.5s-9 14.833 -9 23.5c0 6.66699 2 11.167 6 13.5s8.66699 3.5 14 3.5c4.66699 0 10 -0.5 16 -1.5
s13 -1.5 21 -1.5c6 0 11 -1.83301 15 -5.5s8 -5.5 12 -5.5c3.33301 0 5.33301 1 6 3c15.333 61.333 33.333 122.5 54 183.5s43.334 121.5 68.001 181.5c0 3.33301 -0.333008 5.16602 -1 5.49902s-1.66699 0.5 -3 0.5c-2 0 -4.83301 -1.16699 -8.5 -3.5l-12 -8
c-4.33301 -3 -9 -5.66699 -14 -8s-9.5 -3.5 -13.5 -3.5c-4.66699 0 -9.16699 2 -13.5 6s-6.5 9.33301 -6.5 16c0 12 0.333008 21.667 1 29s3.33398 14.166 8.00098 20.499s11.834 13.333 21.501 21s23.167 17.5 40.5 29.5c14 9.33301 29.5 18.5 46.5 27.5s34.667 17 53 24
s37 12.5 56 16.5s37.5 6 55.5 6c14.667 0 31 -1.5 49 -4.5s33.667 -9.16699 47 -18.5l40.5 -27c13.667 -8.66699 26.834 -21.334 39.501 -38.001zM522.993 540.003c-9.33301 13.333 -19.6689 22.5029 -31.002 27.5029s-23.333 7.5 -36 7.5
c-19.333 0 -38.166 -3.83301 -56.499 -11.5s-34.833 -13.167 -49.5 -16.5c2.66699 -2.66699 4 -5 4 -7c0 -4.66699 -0.666992 -8 -2 -10s-2.83301 -4 -4.5 -6s-3.66699 -4 -6 -6s-4.5 -5.33301 -6.5 -10l-50.5 -112.5c-17 -37.667 -33 -75.334 -48 -113.001
s-28.167 -75.834 -39.5 -114.501s-19.666 -77.667 -24.999 -117c0 -3.33301 0.166992 -5.33301 0.5 -6s2.16602 -1.66699 5.49902 -3s8 -2.16602 14 -2.49902s11.667 -0.5 17 -0.5c18.667 0 36 3.66699 52 11s30.667 17.666 44 30.999c48 47.333 88.333 98.333 121 153
s61.334 112.334 86.001 173.001c4.66699 11.333 9.66699 24.666 15 39.999s8 29 8 41c0 1.33301 -0.333008 4.16602 -1 8.49902s-1.5 9.33301 -2.5 15s-2.16699 11 -3.5 16s-3 9.16699 -5 12.5z" />
    <glyph glyph-name="E" unicode="E" horiz-adv-x="508" 
d="M679 608c0 -7.33301 -1.16992 -12.333 -3.50293 -15s-6.16602 -4 -11.499 -4c-4.66699 0 -8.83398 -1 -12.501 -3s-7.83398 -3 -12.501 -3c-4 0 -8.66699 1.66699 -14 5s-12.666 5 -21.999 5c-47.333 0 -92.166 -4.83301 -134.499 -14.5s-81.5 -20.5 -117.5 -32.5
c-3.33301 -1.33301 -5.83301 -2.66602 -7.5 -3.99902s-3.16699 -4 -4.5 -8l-27.5 -70.5l-27.5 -70.5c0 -2.66699 1.33301 -4 4 -4l71.5 25.5c25 9 50.167 13.5 75.5 13.5s50.333 -6.66699 75 -20c5.33301 -3.33301 8.83301 -8.16602 10.5 -14.499s2.5 -12.166 2.5 -17.499
c0 -3.33301 -2.16699 -6.16602 -6.5 -8.49902s-9.16602 -4.33301 -14.499 -6s-10.666 -3 -15.999 -4s-9 -1.5 -11 -1.5c-6 0 -11.833 0.5 -17.5 1.5s-10.834 1.5 -15.501 1.5c-15.333 0 -30.5 -1.66699 -45.5 -5s-29.667 -7.5 -44 -12.5l-42 -15
c-13.667 -5 -26.834 -9.16699 -39.501 -12.5l-17 -6c-6.66699 -2 -11 -5.33301 -13 -10c-21.333 -48 -39.333 -90.333 -54 -127s-22 -68.334 -22 -95.001c0 -8 2.83301 -15.667 8.5 -23s11.167 -11 16.5 -11c9.33301 0 21.666 1.66699 36.999 5s30 8 44 14
c15.333 6.66699 28.5 12.167 39.5 16.5l28.5 11.5c13.333 6 26.5 13 39.5 21l39 23.5c13 7.66699 26.333 14.167 40 19.5s28.167 8 43.5 8c5.33301 0 8.66602 -1 9.99902 -3c0.666992 -1.33301 2.83398 -3.16602 6.50098 -5.49902s7.16699 -4.83301 10.5 -7.5
s6.5 -5.66699 9.5 -9s4.5 -6.33301 4.5 -9c0 -8 -2 -12.333 -6 -13c-7.33301 -2 -14.666 -6.33301 -21.999 -13c-10.667 -9.33301 -19.667 -16 -27 -20l-70 -36.5c-24 -12.333 -49.167 -23.166 -75.5 -32.499s-54.166 -17 -83.499 -23s-61 -9 -95 -9
c-2 0 -6.16699 0.833008 -12.5 2.5s-13.5 4.16699 -21.5 7.5s-16 7.5 -24 12.5s-14.333 11.167 -19 18.5c-3.33301 5.33301 -5.5 13.5 -6.5 24.5s-1.5 19.833 -1.5 26.5c0 20.667 2 40.667 6 60s9.16699 38.166 15.5 56.499s13.166 36.666 20.499 54.999l21 54.5
c-1.33301 1.33301 -3.83301 4.66602 -7.5 9.99902s-5.5 12.333 -5.5 21v6c0 2.66699 0.666992 4.66699 2 6c1.33301 2.66699 3.66602 4.5 6.99902 5.5l22 6.5c4 1.33301 6.83301 2.66602 8.5 3.99902s3.83398 4.66602 6.50098 9.99902c14 31.333 24.833 56.333 32.5 75
s13.5 35.667 17.5 51c0 3.33301 -1.33301 5 -4 5c-3.33301 0 -8.5 -1.33301 -15.5 -4s-14.167 -4 -21.5 -4s-13.666 1.33301 -18.999 4c-3.33301 2 -6.66602 5.16699 -9.99902 9.5s-6.16602 9 -8.49902 14s-4.16602 9.83301 -5.49902 14.5s-2 8.66699 -2 12
s2 5.66602 6 6.99902c32 8 62.667 17.5 92 28.5l89 33.5c10 4 25 8.83301 45 14.5s42.667 11.167 68 16.5s51.666 10 78.999 14s53.666 6 78.999 6c5.33301 0 11.5 -0.666992 18.5 -2s12.167 -2.66602 15.5 -3.99902c12 -6 23.167 -13.5 33.5 -22.5s15.5 -18.167 15.5 -27.5
z" />
    <glyph glyph-name="F" unicode="F" horiz-adv-x="446" 
d="M639 615c1.33301 -2 2.33594 -4.99414 3.00293 -8.99414s1 -8 1 -12c0 -6 -0.166992 -9.83301 -0.5 -11.5s-2.16602 -3.16699 -5.49902 -4.5c-6.66699 -3.33301 -13.167 -6 -19.5 -8s-13.833 -3 -22.5 -3c-2 0 -4 1.16699 -6 3.5s-4.5 4.83301 -7.5 7.5
s-7.16699 5.16699 -12.5 7.5s-12.333 3.5 -21 3.5c-11.333 0 -22.333 -1.66699 -33 -5s-21.667 -5.66602 -33 -6.99902c-21.333 -2.66699 -41.5 -7 -60.5 -13s-38.167 -11 -57.5 -15c-4.66699 -1.33301 -7.66699 -3.5 -9 -6.5s-2 -6.16699 -2 -9.5v-8
c0 -2.66699 -0.666992 -5 -2 -7l-44.5 -85.5c-14.333 -27.667 -25.5 -57.167 -33.5 -88.5c0 -3.33301 2.33301 -5 7 -5c27.333 6.66699 54.5 12.5 81.5 17.5l87.5 16.5c5.33301 1.33301 9.16602 2.16602 11.499 2.49902s4.83301 0.5 7.5 0.5c2 0 4.66699 -0.666992 8 -2
l10 -4c18 -7.33301 29.167 -13.5 33.5 -18.5s6.5 -11.167 6.5 -18.5c0 -5.33301 -1.16699 -8.83301 -3.5 -10.5s-4.83301 -2.83398 -7.5 -3.50098l-130.5 -25.5c-43.667 -8.33301 -86.834 -17.833 -129.501 -28.5c-4 -1.33301 -6.66699 -2.5 -8 -3.5
s-2.66602 -3.16699 -3.99902 -6.5c-10.667 -21.333 -18.167 -43.5 -22.5 -66.5s-11.166 -44.833 -20.499 -65.5c-4 -8.66699 -6.33301 -15.334 -7 -20.001c-1.33301 -5.33301 -3.16602 -14.5 -5.49902 -27.5s-3.5 -26.833 -3.5 -41.5c0 -10 0.333008 -15.833 1 -17.5
s1 -4.83398 1 -9.50098c0 -5.33301 -1.83301 -9 -5.5 -11s-6.5 -3 -8.5 -3c-13.333 0 -25.333 1.66699 -36 5s-20.667 7.66602 -30 12.999c-3.33301 2 -5.33301 3.83301 -6 5.5s-1 3.83398 -1 6.50098c0 32 4.66699 64.667 14 98l27 95c1.33301 3.33301 2 5.66602 2 6.99902
v5c0 6.66699 -5 10 -15 10c-9.33301 0 -17.166 3 -23.499 9s-9.5 13 -9.5 21c0 1.33301 -1 3.66602 -3 6.99902s-3 6.66602 -3 9.99902c0 2.66699 2 4.66699 6 6c13.333 5.33301 25 8.66602 35 9.99902s20.333 3.66602 31 6.99902c4.66699 0.666992 8 3.66699 10 9
l37.5 92.5l36.5 90.5c0 3.33301 -1.33301 5 -4 5s-8.33398 -2 -17.001 -6l-28.5 -13l-29.5 -13c-9.33301 -4 -16 -6 -20 -6c-4.66699 0 -9.33398 1.33301 -14.001 4s-8.83398 6 -12.501 10s-6.66699 7.83301 -9 11.5s-3.5 6.5 -3.5 8.5c0 6.66699 1.83301 12.5 5.5 17.5
s6.5 10.167 8.5 15.5c1.33301 4 3.66602 6.33301 6.99902 7c12.667 2.66699 24.167 5.5 34.5 8.5s21.166 6.5 32.499 10.5l38 14l50 20c6.66699 2.66699 12.167 4.66699 16.5 6l12.5 4c18.667 4.66699 38.167 9.83398 58.5 15.501s40.666 10.834 60.999 15.501
s40.5 8.66699 60.5 12s39.333 5 58 5c13.333 0 28.333 -1.66699 45 -5s31.667 -14 45 -32z" />
    <glyph glyph-name="G" unicode="G" horiz-adv-x="596" 
d="M616 627c8 -6 15.0049 -13.9932 21.0049 -23.9932s9 -20 9 -30c0 -14 -1.16699 -27 -3.5 -39s-4.83301 -22.667 -7.5 -32s-5.5 -17.5 -8.5 -24.5s-4.83301 -11.833 -5.5 -14.5c-1.33301 -3.33301 -3.5 -7.16602 -6.5 -11.499s-6.66699 -8.5 -11 -12.5
s-8.66602 -7.5 -12.999 -10.5s-8.5 -4.5 -12.5 -4.5c-4.66699 0 -8.83398 1.33301 -12.501 4s-6.83398 4.33398 -9.50098 5.00098c-15.333 3.33301 -24.666 8.33301 -27.999 15c-1.33301 3.33301 -3.33301 6.5 -6 9.5s-4 5.5 -4 7.5c0 4 1 7.66699 3 11s4.33301 6.5 7 9.5
l8.5 9.5c3 3.33301 5.16699 7.33301 6.5 12c2 7.33301 4.33301 12.666 7 15.999s5.16699 6.66602 7.5 9.99902s4.16602 8 5.49902 14s2 15.667 2 29c0 16.667 -10.333 25 -31 25c-7.33301 0 -17.333 -1.33301 -30 -4c-15.333 -3.33301 -29.666 -8.83301 -42.999 -16.5
s-25.833 -16.334 -37.5 -26.001s-22.667 -19.834 -33 -30.501s-20.166 -20.334 -29.499 -29.001l-27 -26c-22.667 -22 -43.5 -46 -62.5 -72s-36.333 -53.167 -52 -81.5s-29 -57.166 -40 -86.499s-19.833 -58 -26.5 -86c-2.66699 -11.333 -4.33398 -20.166 -5.00098 -26.499
s-1 -12.166 -1 -17.499c0 -14 0.333008 -24.167 1 -30.5s1.83398 -10.833 3.50098 -13.5s3.33398 -4.83398 5.00098 -6.50098s3.5 -5.16699 5.5 -10.5c1.33301 -4 5.66602 -7.33301 12.999 -10s14.666 -4 21.999 -4c9.33301 0 24.333 4 45 12s41.667 21.333 63 40l65.5 56
l42 34c11 8.66699 19.667 15.834 26 21.501s12.5 11.5 18.5 17.5c15.333 16.667 26.166 29.334 32.499 38.001s9.5 15 9.5 19c0 3.33301 -2.33301 5 -7 5c-4 0 -10.167 -1.16699 -18.5 -3.5s-17 -5 -26 -8l-25 -8c-7.66699 -2.33301 -13.5 -3.5 -17.5 -3.5
c-11.333 0 -20 0.5 -26 1.5s-11 3.16699 -15 6.5c-9.33301 7.33301 -15.666 12.666 -18.999 15.999s-5 8.33301 -5 15c0 10 1 16.667 3 20s7.33301 5.66602 16 6.99902c10 2 18.167 3 24.5 3s13.166 1 20.499 3l33.5 9.5c8.33301 2.33301 17.833 5.16602 28.5 8.49902
c13.333 4.66699 24 7.66699 32 9s18.667 2 32 2c2.66699 0 7.16699 -2 13.5 -6s12.666 -9 18.999 -15s11.833 -12.333 16.5 -19s7 -12.667 7 -18c0 -3.33301 -0.833008 -7.83301 -2.5 -13.5s-6.16699 -16.167 -13.5 -31.5c-14 -29.333 -25.5 -57.833 -34.5 -85.5
s-16 -53.167 -21 -76.5s-8.33301 -44.166 -10 -62.499s-2.5 -32.5 -2.5 -42.5c0 -2 -1.5 -4.33301 -4.5 -7s-6.5 -5.16699 -10.5 -7.5s-8 -4.33301 -12 -6s-7.33301 -2.5 -10 -2.5c-5.33301 0 -9.16602 0.333008 -11.499 1s-4.16602 1.5 -5.49902 2.5s-3 1.83301 -5 2.5
s-5.33301 1 -10 1c-7.33301 0 -11.833 1.33301 -13.5 4s-2.5 6.66699 -2.5 12c0 8.66699 1.16699 19.334 3.5 32.001l7 36.5c2.33301 11.667 4.66602 21.667 6.99902 30s3.5 13.166 3.5 14.499c0 2 -1 3 -3 3c-1.33301 0 -4.16602 -1.83301 -8.49902 -5.5l-25.5 -22.5
c-18.667 -17.333 -34.834 -31.333 -48.501 -42s-26.5 -19.334 -38.5 -26.001s-23.833 -12 -35.5 -16s-24.834 -8 -39.501 -12c-15.333 -4 -28.666 -6 -39.999 -6c-36.667 0 -67 12.667 -91 38c-16.667 17.333 -28.5 32.166 -35.5 44.499s-10.5 25.166 -10.5 38.499
c0 16.667 2 39.5 6 68.5s12.667 62.333 26 100s32.666 78.667 57.999 123s59.333 90.166 102 137.499c12.667 14 28.167 29.167 46.5 45.5s37.333 31.666 57 45.999s39.5 26.833 59.5 37.5s38.333 17.667 55 21c5.33301 1.33301 11.166 2.16602 17.499 2.49902
s12.166 0.5 17.499 0.5c8 0 17.167 -1.16699 27.5 -3.5s20.666 -5.33301 30.999 -9s20 -7.66699 29 -12s16.167 -8.5 21.5 -12.5z" />
    <glyph glyph-name="H" unicode="H" horiz-adv-x="562" 
d="M611 380c12.667 0 24.0039 -2.33301 34.0039 -7c4 -2 7.33301 -3 10 -3c6 0 11.667 -2.66699 17 -8s9.66602 -10.666 12.999 -15.999s5.66602 -8.66602 6.99902 -9.99902s2 -6.33301 2 -15c0 -9.33301 -2.66699 -14 -8 -14c-33.333 0 -64.166 -3.16699 -92.499 -9.5
s-56.5 -12.166 -84.5 -17.499c-5.33301 -1.33301 -9 -2.66602 -11 -3.99902s-3.66699 -3.33301 -5 -6c-9.33301 -15.333 -16.333 -32.333 -21 -51s-10 -37 -16 -55c-11.333 -34 -19.5 -68 -24.5 -102s-9.5 -68 -13.5 -102c-0.666992 -4 -3.33398 -7.16699 -8.00098 -9.5
s-9.66699 -3.5 -15 -3.5c-6.66699 0 -13.5 0.833008 -20.5 2.5s-13.167 3.5 -18.5 5.5c-6 2.66699 -10.5 7.5 -13.5 14.5s-5.16699 14.167 -6.5 21.5c-1.33301 6.66699 -2 11.667 -2 15c0 4 0.166992 8 0.5 12s1.5 9.33301 3.5 16c8.66699 28 16.334 58.833 23.001 92.5
s14.667 64.167 24 91.5c1.33301 3.33301 2.33301 7.16602 3 11.499s1 8.16602 1 11.499c0 7.33301 -3.66699 11 -11 11l-140 -28c-5.33301 -1.33301 -8.83301 -2.5 -10.5 -3.5s-3.16699 -2.83301 -4.5 -5.5c-5.33301 -9.33301 -10 -20.5 -14 -33.5s-7.5 -26 -10.5 -39
s-5.5 -24.833 -7.5 -35.5s-4 -18 -6 -22c-1.33301 -2 -2.33301 -4.83301 -3 -8.5s-1 -9.16699 -1 -16.5c0 -9.33301 0.833008 -17.666 2.5 -24.999s2.5 -13.666 2.5 -18.999c0 -9.33301 -1 -16.5 -3 -21.5s-7.66699 -7.5 -17 -7.5c-4.66699 0 -9.83398 0.5 -15.501 1.5
s-9.83398 2.5 -12.501 4.5c-6 5.33301 -10.833 8.16602 -14.5 8.49902s-8.16699 2.83301 -13.5 7.5c-3.33301 3.33301 -5.83301 6 -7.5 8s-3.83398 3 -6.50098 3c-4 0 -6 3.33301 -6 10c0 2.66699 0.333008 8.16699 1 16.5s1.66699 15.166 3 20.499l3 16
c0.666992 6 2.16699 14.167 4.5 24.5s4.5 20.666 6.5 30.999l5.5 28.5c1.66699 8.66699 2.5 14.667 2.5 18s-1.33301 5 -4 5c-3.33301 0 -10.166 -1 -20.499 -3s-20.5 -3 -30.5 -3c-11.333 0 -22.333 1.5 -33 4.5s-20.334 9.5 -29.001 19.5
c-1.33301 2 -2.66602 5.16699 -3.99902 9.5s-2.5 8.83301 -3.5 13.5s-1.83301 9 -2.5 13s-1 6.66699 -1 8c0 3.33301 1.33301 6.5 4 9.5s6.66699 4.5 12 4.5c6 0 13 -1.5 21 -4.5s15.667 -4.5 23 -4.5c2 0 6.66699 0.5 14 1.5s15.333 2.16699 24 3.5s17.667 2.83301 27 4.5
s17 3.5 23 5.5c3.33301 1.33301 5.5 2.5 6.5 3.5s2.16699 2.5 3.5 4.5c8.66699 18 15.334 37.333 20.001 58s11.334 41 20.001 61l61 139.5c21.333 47 44 92.5 68 136.5c2.66699 4.66699 6 7.83398 10 9.50098s10.667 2.5 20 2.5c5.33301 0 10.166 -1.66699 14.499 -5
s12.833 -7 25.5 -11c4.66699 -1.33301 8.33398 -3.66602 11.001 -6.99902s4 -6.66602 4 -9.99902c0 -2 -0.166992 -4.33301 -0.5 -7s-1.16602 -5.33398 -2.49902 -8.00098c-16.667 -24 -30.834 -47.833 -42.501 -71.5s-22.5 -47.834 -32.5 -72.501l-31 -77
c-10.667 -26.667 -23.334 -54.667 -38.001 -84c-3.33301 -6 -5.16602 -10.667 -5.49902 -14s-0.5 -6.33301 -0.5 -9c0 -6.66699 2 -10 6 -10c26 4 52 8.66699 78 14s51 11.666 75 18.999c3.33301 1.33301 6 2.66602 8 3.99902s4 4.33301 6 9
c17.333 37.333 32.333 75.333 45 114l40 119c1.33301 4.66699 3.66602 8 6.99902 10c3.33301 2.66699 6.66602 5.5 9.99902 8.5s8.66602 4.5 15.999 4.5c5.33301 0 10.5 -0.5 15.5 -1.5s11.167 -1.5 18.5 -1.5c6.66699 0 13.167 -2 19.5 -6s9.5 -9.66699 9.5 -17
c0 -6 -0.666992 -12.5 -2 -19.5s-4 -16.167 -8 -27.5c-10 -28 -21 -54.667 -33 -80s-23 -52.333 -33 -81c0 -5.33301 2.33301 -8 7 -8c4 0 9.5 1 16.5 3l22.5 6.5l23 6.5c7.33301 2 13 3 17 3z" />
    <glyph glyph-name="I" unicode="I" horiz-adv-x="254" 
d="M352 609c0 -8.66699 -0.499023 -15.998 -1.49902 -21.998s-2.5 -11.5 -4.5 -16.5s-5 -9.83301 -9 -14.5s-9 -10 -15 -16c-2 -2 -3.83301 -4.16699 -5.5 -6.5s-4.16699 -8.16602 -7.5 -17.499c-28.667 -73.333 -55.334 -147.5 -80.001 -222.5l-76 -230.5
c-1.33301 -4 -2 -7.33301 -2 -10s0.333008 -5 1 -7s1 -4.66699 1 -8c0 -8 -1.33301 -16.667 -4 -26s-7.66699 -21 -15 -35c-1.33301 -2 -3.33301 -3.16699 -6 -3.5s-5 -0.5 -7 -0.5c-2.66699 0 -5 -1 -7 -3s-3.66699 -4.33301 -5 -7c-3.33301 -5.33301 -6.33301 -8 -9 -8
c-4 0 -6.66699 1.66699 -8 5s-4.33301 5 -9 5c-6 0 -12 2.5 -18 7.5s-10.333 7.5 -13 7.5c-4 0 -6 2 -6 6c0 1.33301 0.5 5.16602 1.5 11.499s2.5 13.5 4.5 21.5s4.16699 16 6.5 24s4.5 14 6.5 18c2 3.33301 3.66699 6.66602 5 9.99902s2.66602 8 3.99902 14
c10 39.333 20.667 77.333 32 114l35 109l37 108.5c12.667 36.333 25 73.5 37 111.5c2 6.66699 4.33301 12.5 7 17.5l9 16.5c3.33301 6 6.83301 13.833 10.5 23.5s8.16699 23.167 13.5 40.5c1.33301 5.33301 5.5 8.66602 12.5 9.99902s16.167 2 27.5 2
c4.66699 0 10.334 -0.833008 17.001 -2.5s13 -3.66699 19 -6s11 -5.33301 15 -9s6 -7.5 6 -11.5z" />
    <glyph glyph-name="J" unicode="J" horiz-adv-x="400" 
d="M324 140c-4 -12 -8.33496 -24.168 -13.002 -36.501s-9.66699 -24.166 -15 -35.499l-15.5 -31.5c-5 -9.66699 -9.5 -17.834 -13.5 -24.501c-16.667 -27.333 -36.334 -50.666 -59.001 -69.999s-44.667 -29 -66 -29c-13.333 0 -25.166 3.66699 -35.499 11
s-21.166 12.666 -32.499 15.999c-12 4 -22.5 10.833 -31.5 20.5s-16.5 21.5 -22.5 35.5s-10.5 29.5 -13.5 46.5s-4.5 35.167 -4.5 54.5c0 9.33301 0.333008 21.666 1 36.999s3.33398 32.333 8.00098 51c3.33301 13.333 8.5 25.833 15.5 37.5s13.5 17.5 19.5 17.5
c7.33301 0 13.5 -0.666992 18.5 -2s9.16699 -2 12.5 -2c8.66699 0 16.667 -3.66699 24 -11s11 -15.666 11 -24.999c0 -8.66699 -2.33301 -15.834 -7 -21.501s-8.66699 -14.834 -12 -27.501c-2 -8 -3.83301 -13.333 -5.5 -16s-3 -5.66699 -4 -9
s-1.83301 -8.16602 -2.5 -14.499s-1 -16.833 -1 -31.5c0 -17.333 1.5 -31.666 4.5 -42.999s6.5 -20.666 10.5 -27.999s8.16699 -12.5 12.5 -15.5s7.83301 -4.5 10.5 -4.5c5.33301 0 10.833 0.666992 16.5 2s11.5 4 17.5 8s12.167 9.66699 18.5 17s13.5 17.333 21.5 30
l16.5 28c5 8.66699 9.66699 18.167 14 28.5l14 34.5c5 12.667 10.5 28 16.5 46l33.5 95.5l27 74.5l24 61l23 55.5c7.66699 18.333 16.167 37.5 25.5 57.5l31 68c0 2.66699 -2 4 -6 4c-18.667 -3.33301 -36.834 -7.66602 -54.501 -12.999s-34.167 -9.66602 -49.5 -12.999
c-4 -1.33301 -7 -2.5 -9 -3.5s-4.66699 -2.5 -8 -4.5c-8 -5.33301 -16.833 -8.83301 -26.5 -10.5s-19.5 -2.5 -29.5 -2.5c-14 0 -26 1 -36 3c-8 2 -13 6.66699 -15 14c-0.666992 2.66699 -1.66699 4.66699 -3 6l-4 3c-0.666992 1.33301 -1.5 2.66602 -2.5 3.99902
s-1.5 3.66602 -1.5 6.99902c0 7.33301 0.833008 14.166 2.5 20.499l4.5 17.5c0.666992 5.33301 4.33398 8 11.001 8c17.333 0 37.833 2.33301 61.5 7s48.334 9.83398 74.001 15.501s51.5 10.834 77.5 15.501s49.667 7 71 7c2 0 5.66699 -1 11 -3s14 -7 26 -15
c10.667 -7.33301 17 -12.833 19 -16.5s3 -6.83398 3 -9.50098c0 -10 -1.5 -18.167 -4.5 -24.5s-6.66699 -12.333 -11 -18l-14 -17.5c-5 -6 -9.83301 -13.667 -14.5 -23c-32 -66.667 -61.833 -134 -89.5 -202s-52.834 -138.333 -75.501 -211z" />
    <glyph glyph-name="K" unicode="K" horiz-adv-x="532" 
d="M382 627c3.33301 -3.33301 5.33984 -6.82812 6.00684 -10.4951s1 -7.16699 1 -10.5c0 -2.66699 -2.33301 -7.66699 -7 -15c-21.333 -32 -41.333 -65 -60 -99s-35.667 -68.667 -51 -104c0 -2 0.333008 -3.33301 1 -4s2.66699 -1 6 -1c4.66699 0 11.667 1.66699 21 5l6 1
c1.33301 0.666992 2.83301 1.16699 4.5 1.5s3.66699 1 6 2s6.16602 2.83301 11.499 5.5c67.333 33.333 127.166 69.666 179.499 108.999s98.5 83 138.5 131c2.66699 3.33301 4.5 5.16602 5.5 5.49902s2.5 0.5 4.5 0.5c9.33301 0 18.666 -1.83301 27.999 -5.5
s17.333 -8.16699 24 -13.5c2.66699 -2 5.33398 -3.16699 8.00098 -3.5s4.66699 -1.16602 6 -2.49902c4 -4 6 -7.66699 6 -11c0 -1.33301 -0.333008 -2.83301 -1 -4.5s-3.33398 -5.16699 -8.00098 -10.5c-34.667 -42 -72 -79.333 -112 -112s-81 -61.667 -123 -87
c-23.333 -14 -47.333 -27.333 -72 -40l-77 -39c-6 -3.33301 -9.83301 -6 -11.5 -8s-2.5 -5.33301 -2.5 -10c0 -7.33301 2.66699 -16.333 8 -27c5.33301 -11.333 8.5 -19.833 9.5 -25.5s3.5 -12.834 7.5 -21.501c6.66699 -14 16 -30.5 28 -49.5s25.333 -38.833 40 -59.5
s30.334 -41 47.001 -61s33.334 -38.333 50.001 -55c7.33301 -7.33301 12.666 -12.5 15.999 -15.5s7.66602 -5.83301 12.999 -8.5c13.333 -6.66699 23.666 -13.334 30.999 -20.001s11 -14 11 -22c0 -6 -1.5 -10.5 -4.5 -13.5s-6.5 -4.83301 -10.5 -5.5
c-4.66699 -0.666992 -7.83398 -1.33398 -9.50098 -2.00098s-3 -1.33398 -4 -2.00098s-2.33301 -1.33398 -4 -2.00098s-4.83398 -1 -9.50098 -1c-12.667 0 -24.667 2.16699 -36 6.5s-21.833 9.83301 -31.5 16.5s-18.5 13.834 -26.5 21.501s-14.667 14.834 -20 21.501
c-11.333 13.333 -23 26.333 -35 39s-22.667 25 -32 37c-16 20 -30.333 40.5 -43 61.5s-24 41.667 -34 62s-18.667 39.833 -26 58.5s-13.333 35.334 -18 50.001c-0.666992 3.33301 -2 5 -4 5s-3.66699 -1.33301 -5 -4c-21.333 -42.667 -40.5 -86.5 -57.5 -131.5
s-29.5 -91.167 -37.5 -138.5c-0.666992 -3.33301 -1.83398 -6.33301 -3.50098 -9s-6.83398 -6.66699 -15.501 -12c-6.66699 -4 -12.667 -6 -18 -6s-8.83301 2 -10.5 6s-6.83398 7.66699 -15.501 11c-9.33301 3.33301 -16.5 6.66602 -21.5 9.99902s-7.5 8 -7.5 14
c0 3.33301 0.166992 7 0.5 11s1.83301 10 4.5 18c16.667 52.667 35 105.334 55 158.001s40.5 103.167 61.5 151.5s41.667 93.333 62 135l54.5 108.5c4.66699 8.66699 7.66699 13.667 9 15s3 2.66602 5 3.99902c5.33301 3.33301 10.833 8.33301 16.5 15s12.834 10 21.501 10
c4.66699 0 8.33398 -0.666992 11.001 -2c4 -2 6.16699 -3.83301 6.5 -5.5s3.5 -3.83398 9.5 -6.50098c3.33301 -1.33301 7.33301 -2.5 12 -3.5s8.66699 -3.16699 12 -6.5z" />
    <glyph glyph-name="L" unicode="L" horiz-adv-x="450" 
d="M405 628c0 -13.333 -2.33594 -23.332 -7.00293 -29.999s-7 -13.667 -7 -21c0 -2.66699 -2 -5.66699 -6 -9c-10.667 -8.66699 -20 -20.167 -28 -34.5s-15.667 -31.166 -23 -50.499c-4 -10 -8 -18.5 -12 -25.5s-9 -17.167 -15 -30.5
c-25.333 -54.667 -49.166 -110.334 -71.499 -167.001s-43.833 -115 -64.5 -175c-2.66699 -6.66699 -4 -13.667 -4 -21c0 -4.66699 1.33301 -9 4 -13s6.33398 -6 11.001 -6c2.66699 0 6.83398 0.5 12.501 1.5s15.5 3.16699 29.5 6.5c35.333 9.33301 69.833 20 103.5 32
s66.167 24.333 97.5 37c3.33301 1.33301 9.33301 2 18 2c5.33301 0 13.666 -2.33301 24.999 -7s21 -11 29 -19c1.33301 -1.33301 2.83301 -3 4.5 -5s2.5 -4.33301 2.5 -7c0 -2 1 -4 3 -6s3 -5.66699 3 -11c0 -2 -0.166992 -4.16699 -0.5 -6.5
s-1.16602 -4.83301 -2.49902 -7.5c-2 -3.33301 -5.66699 -5.83301 -11 -7.5s-15.666 -2.5 -30.999 -2.5h-10c-2 0 -5 -0.666992 -9 -2c-25.333 -6 -49.833 -13.333 -73.5 -22l-71 -25c-23.667 -8 -47.667 -14.833 -72 -20.5s-50.166 -8.5 -77.499 -8.5c-10 0 -19 2 -27 6
s-15.5 9 -22.5 15s-13.167 12.333 -18.5 19l-14 18c-2.66699 3.33301 -4 8 -4 14c0 6.66699 1.5 14.334 4.5 23.001s7.16699 19.667 12.5 33c1.33301 4 2.16602 7.16699 2.49902 9.5s0.833008 5.16602 1.5 8.49902l2.5 13c1 5.33301 3.16699 12.666 6.5 21.999
c30 87.333 64.833 172.166 104.5 254.499l116.5 248.5c2.66699 5.33301 7.66699 8.5 15 9.5s12.666 1.5 15.999 1.5c4.66699 0 8 -1.5 10 -4.5s8 -5.83301 18 -8.5c6 -1.33301 12.333 -4.16602 19 -8.49902s10 -8.5 10 -12.5z" />
    <glyph glyph-name="M" unicode="M" horiz-adv-x="654" 
d="M396 657c0 -4 -1.00488 -10.165 -3.00488 -18.498l-6.5 -27.5c-2.33301 -10 -5 -20 -8 -30s-5.5 -19 -7.5 -27c-1.33301 -5.33301 -3.16602 -17.5 -5.49902 -36.5s-3.5 -41.833 -3.5 -68.5c0 -2 0.166992 -5.5 0.5 -10.5s0.5 -12.5 0.5 -22.5s0.166992 -23.167 0.5 -39.5
s0.5 -36.833 0.5 -61.5c0 -8 2 -12 6 -12c1.33301 0 2.5 0.5 3.5 1.5s3.83301 4.16699 8.5 9.5c22.667 25.333 46.667 49.666 72 72.999l75 69l72 68.5c23.333 23 44.666 47.167 63.999 72.5c3.33301 4.66699 5.83301 7.5 7.5 8.5s3.83398 1.5 6.50098 1.5
c13.333 0 22.666 -1.33301 27.999 -4s10.666 -4 15.999 -4c0.666992 0 2.33398 -1 5.00098 -3s5.33398 -4.83301 8.00098 -8.5s5.16699 -8 7.5 -13s3.5 -10.5 3.5 -16.5c0 -2 -1.66699 -5.33301 -5 -10c-26.667 -40 -50.334 -81.333 -71.001 -124s-38.667 -88.667 -54 -138
s-28.166 -102.833 -38.499 -160.5s-18.833 -121.5 -25.5 -191.5c-1.33301 -11.333 -2.33301 -18 -3 -20s-2 -3 -4 -3c-3.33301 0 -6.83301 1.33301 -10.5 4s-7.83398 4 -12.501 4c-3.33301 0 -5.16602 -0.666992 -5.49902 -2s-2.16602 -2 -5.49902 -2
c-6.66699 0 -14 2.33301 -22 7s-14 8.66699 -18 12l-7 7c-0.666992 0.666992 -1 2.33398 -1 5.00098c0 1.33301 0.833008 7.5 2.5 18.5l6.5 41l9 53c3.33301 19 6.33301 37.333 9 55s5.16699 33.167 7.5 46.5s4.16602 22.666 5.49902 27.999
c1.33301 8 3.83301 18.833 7.5 32.5s8 28.5 13 44.5l15.5 49.5l15 46.5c0 2.66699 -1.33301 4 -4 4c-1.33301 0 -3 -1 -5 -3l-40.5 -42l-43 -46l-36.5 -39.5c-10.667 -11.667 -17.667 -19.5 -21 -23.5c-4.66699 -5.33301 -7.66699 -8.33301 -9 -9s-2.66602 -1 -3.99902 -1
s-4.83301 1 -10.5 3s-14.167 4 -25.5 6c-8.66699 1.33301 -17.167 3.33301 -25.5 6s-15.166 8.33398 -20.499 17.001c-4 6 -8.16699 17.333 -12.5 34s-7.16602 35.667 -8.49902 57v97c0 3.33301 -1 5 -3 5c-1.33301 0 -2.66602 -1 -3.99902 -3s-4 -6.66699 -8 -14
c-15.333 -29.333 -28.666 -57.833 -39.999 -85.5s-23.333 -58.834 -36 -93.501c-21.333 -58.667 -37 -107.334 -47 -146.001s-15 -68.667 -15 -90c0 -3.33301 -2.33301 -7 -7 -11s-8.66699 -6 -12 -6c-7.33301 0 -12 -1.66699 -14 -5s-5 -5 -9 -5
c-2 0 -4.83301 0.833008 -8.5 2.5s-7.33398 3.5 -11.001 5.5l-10.5 5.5c-3.33301 1.66699 -5.66602 2.5 -6.99902 2.5c-3.33301 0 -7.5 4 -12.5 12s-7.5 16.333 -7.5 25c0 9.33301 1.5 18.333 4.5 27s6.5 16.834 10.5 24.501l11.5 21.5c3.66699 6.66699 6.16699 13 7.5 19
c12.667 49.333 28.834 98.166 48.501 146.499s40.5 95.833 62.5 142.5l65.5 137.5c21.667 45 41.167 88.833 58.5 131.5c3.33301 7.33301 5.66602 12.333 6.99902 15s2.66602 4 3.99902 4c5.33301 0 9 -0.5 11 -1.5s7.33301 -2.16699 16 -3.5c8 -1.33301 16.333 -3 25 -5
s15.667 -5.66699 21 -11c4 -4 6 -7.66699 6 -11z" />
    <glyph glyph-name="N" unicode="N" horiz-adv-x="598" 
d="M426 -22c-4.66699 0 -9.16406 0.503906 -13.4971 1.50391s-11.833 4.16699 -22.5 9.5c-18.667 9.33301 -31 18.166 -37 26.499s-11 19.166 -15 32.499c-9.33301 29.333 -17.166 62.166 -23.499 98.499s-12.166 72.333 -17.499 108l-15 101
c-4.66699 31.667 -9.33398 57.5 -14.001 77.5c-1.33301 6 -2.5 9.83301 -3.5 11.5s-2.5 2.5 -4.5 2.5c-2.66699 0 -5.33398 -4.66699 -8.00098 -14c-5.33301 -18.667 -13 -43.834 -23 -75.501l-31.5 -104c-11 -37.667 -21.167 -76.334 -30.5 -116.001
s-15.666 -76.5 -18.999 -110.5c-2 -21.333 -3 -33.333 -3 -36c0 -5.33301 -3.5 -9.66602 -10.5 -12.999s-15.833 -5 -26.5 -5c-8 0 -13.833 0.333008 -17.5 1s-6.66699 1.5 -9 2.5s-4.33301 2.33301 -6 4s-3.83398 3.16699 -6.50098 4.5c-4 2 -7.5 4.16699 -10.5 6.5
s-4.5 5.16602 -4.5 8.49902c0 7.33301 2.5 21.5 7.5 42.5s11.5 45.5 19.5 73.5l25.5 88.5l26 87l21 69.5l10.5 36l9 34l22 85l19 77c0.666992 4 2.16699 6.66699 4.5 8s4.66602 2.33301 6.99902 3s4.33301 1.33398 6 2.00098s2.5 2.33398 2.5 5.00098
c0 5.33301 -2.5 11.833 -7.5 19.5s-7.5 20.167 -7.5 37.5c0 2 0.5 3.83301 1.5 5.5s3.83301 3.5 8.5 5.5c5.33301 2 13.5 4 24.5 6s22.833 3 35.5 3c6 0 10.667 -4.66699 14 -14c16 -48.667 28 -97 36 -145s14.667 -96 20 -144s11.166 -96.333 17.499 -145
s16.166 -97.334 29.499 -146.001c2.66699 -10 5.33398 -15 8.00098 -15c1.33301 0 2.33301 0.833008 3 2.5s2.66699 5.83398 6 12.501c27.333 58.667 50.5 118.834 69.5 180.501l57.5 188.5c3.33301 11.333 6.33301 20.333 9 27s5.66699 16 9 28
c4.66699 17.333 7.33398 35.333 8.00098 54s3.66699 36.667 9 54c2.66699 9.33301 5 15.166 7 17.499s6.66699 3.5 14 3.5s14.666 -1 21.999 -3s13.666 -3 18.999 -3c3.33301 0 7.16602 -1.5 11.499 -4.5s8.33301 -6.33301 12 -10s6.66699 -7.33398 9 -11.001
s3.5 -6.16699 3.5 -7.5c0 -6.66699 -0.666992 -12.667 -2 -18s-4.33301 -12 -9 -20c-3.33301 -5.33301 -5.66602 -10.833 -6.99902 -16.5s-3.66602 -13.5 -6.99902 -23.5c-12 -34 -23.833 -69.5 -35.5 -106.5l-37.5 -117.5l-43.5 -130.5
c-15.667 -45.667 -33.834 -94.167 -54.501 -145.5c-4 -10 -6.66699 -16.167 -8 -18.5s-3.33301 -4.83301 -6 -7.5c-10 -10 -18.333 -16.833 -25 -20.5s-14 -5.5 -22 -5.5z" />
    <glyph glyph-name="O" unicode="O" horiz-adv-x="490" 
d="M448 601c19.333 -17.333 35.998 -40.166 49.998 -68.499s21 -63.833 21 -106.5v-15c0 -4 -0.333008 -8.66699 -1 -14s-1.66699 -11.333 -3 -18s-3.33301 -15 -6 -25c-14.667 -60 -32.167 -117.333 -52.5 -172s-47.166 -103 -80.499 -145
c-16 -20 -36.167 -35.167 -60.5 -45.5s-50.5 -15.5 -78.5 -15.5c-10.667 0 -20.5 0.666992 -29.5 2s-19.167 3.66602 -30.5 6.99902c-8 2.66699 -17.667 8.5 -29 17.5s-20.666 19.167 -27.999 30.5c-11.333 17.333 -19.5 34.333 -24.5 51s-7.5 37.667 -7.5 63
c0 68.667 10.833 130.834 32.5 186.501s51.167 110.5 88.5 164.5c18 26.667 36.167 50.167 54.5 70.5s39.166 37.5 62.499 51.5c12 7.33301 20.667 11 26 11s12.666 -2 21.999 -6c2.66699 -1.33301 6.33398 -2.83301 11.001 -4.5s9.66699 -3.33398 15 -5.00098l15 -4.5
c4.66699 -1.33301 8.33398 -2 11.001 -2c3.33301 0 6.83301 -0.5 10.5 -1.5s7.5 -3.16699 11.5 -6.5zM380.998 546c0 6.66699 -2.33301 10 -7 10c-1.33301 0 -5 -1.33301 -11 -4s-16 -11.334 -30 -26.001c-32.667 -34 -61.667 -72 -87 -114s-45.333 -86.333 -60 -133l-8 -25
c-2.66699 -10 -4 -22.333 -4 -37c0 -2 -0.333008 -5.66699 -1 -11s-1.16699 -11.333 -1.5 -18s-0.833008 -13.667 -1.5 -21s-1 -13.666 -1 -18.999c0 -21.333 3 -40 9 -56s14.333 -29.333 25 -40c2 -2 6.5 -4 13.5 -6s13.5 -3 19.5 -3c12.667 0 25.5 3.5 38.5 10.5
s23.167 15.833 30.5 26.5c26 40 47.167 79.833 63.5 119.5s29 76.167 38 109.5s15.167 61.833 18.5 85.5s5 39.167 5 46.5v21c0 4 -0.333008 8 -1 12c-2.66699 15.333 -7.16699 28.833 -13.5 40.5s-15.833 19.5 -28.5 23.5c-4 1.33301 -6 4 -6 8z" />
    <glyph glyph-name="P" unicode="P" horiz-adv-x="490" 
d="M573 442c-21.333 -39.333 -47.5029 -76.6719 -78.5029 -112.005s-63.167 -66 -96.5 -92c-2.66699 -2 -7.5 -4.66699 -14.5 -8s-15.167 -6.5 -24.5 -9.5s-19.5 -5.66699 -30.5 -8s-21.5 -3.5 -31.5 -3.5c-9.33301 0 -17 0.833008 -23 2.5s-11.167 3.83398 -15.5 6.50098
s-8.33301 5.5 -12 8.5s-7.83398 6.16699 -12.501 9.5c-4 2.66699 -6.66699 4 -8 4s-2.5 -0.666992 -3.5 -2s-2.5 -5 -4.5 -11c-7.33301 -22.667 -14.666 -47.167 -21.999 -73.5s-13.833 -51.166 -19.5 -74.499s-10.334 -43.5 -14.001 -60.5s-5.5 -27.5 -5.5 -31.5
s-2.33301 -7.66699 -7 -11c-7.33301 -5.33301 -15 -8 -23 -8c-6.66699 0 -11 1 -13 3c-4 4 -7.5 6.83301 -10.5 8.5s-5.83301 3 -8.5 4s-5.33398 2.16699 -8.00098 3.5s-6 4 -10 8c-2 2 -3 4 -3 6s1.33301 8.33301 4 19l7 29l8.5 35.5l9 36c3 11.667 6.16699 21.5 9.5 29.5
c1.33301 2.66699 2.66602 5.83398 3.99902 9.50098s2 6.83398 2 9.50098c0 6 1.66699 14.5 5 25.5s7.33301 22.833 12 35.5s8.83398 24.834 12.501 36.501s6.16699 21.167 7.5 28.5c0 3.33301 -1.33301 6 -4 8c-4 3.33301 -8.16699 7 -12.5 11s-6.5 8.66699 -6.5 14
c0 4 0.5 6.66699 1.5 8s2.5 2.33301 4.5 3s5.66699 2.83398 11 6.50098s12.333 5.5 21 5.5c2 0 3.33301 1.33301 4 4l11.5 34c3 8.66699 5.83301 16.5 8.5 23.5s5 13.667 7 20s4 14.166 6 23.499c0 2 -0.166992 3.33301 -0.5 4s-2.16602 1 -5.49902 1
c-1.33301 0 -2.83301 0.166992 -4.5 0.5s-4.5 1.83301 -8.5 4.5c-9.33301 5.33301 -14.666 9.83301 -15.999 13.5s-3.66602 7.16699 -6.99902 10.5c-4.66699 4.66699 -7 8.33398 -7 11.001c0 7.33301 2.5 14 7.5 20s14.167 13.333 27.5 22l74.5 47
c25 15.333 50.833 29 77.5 41s54 21.833 82 29.5s57.333 11.5 88 11.5c14.667 0 26.834 -0.833008 36.501 -2.5s20.834 -7.83398 33.501 -18.501c11.333 -9.33301 19.833 -18.5 25.5 -27.5s8.5 -23.5 8.5 -43.5c0 -27.333 -4.5 -51.333 -13.5 -72s-19.833 -42.667 -32.5 -66
zM533.997 587.994c0 3.33301 -1.00293 5.83301 -3.00293 7.5s-9.33301 2.5 -22 2.5c-2 0 -4.16699 -0.166992 -6.5 -0.5s-6.16602 -1.16602 -11.499 -2.49902c-14.667 -4 -29.334 -7.66699 -44.001 -11s-29 -7.33301 -43 -12s-27.667 -10.5 -41 -17.5
s-25.666 -16.167 -36.999 -27.5l-42 -109.5c-14.667 -37 -25.667 -73.5 -33 -109.5c13.333 -11.333 24.5 -20.333 33.5 -27s17.167 -10 24.5 -10c2.66699 0 4.66699 0.166992 6 0.5s4.33301 2.16602 9 5.49902c32.667 21.333 63.167 47.833 91.5 79.5s51.833 64.5 70.5 98.5
c4.66699 8.66699 9.83398 19 15.501 31s10.834 24.167 15.501 36.5s8.66699 24.333 12 36s5 21.5 5 29.5z" />
    <glyph glyph-name="Q" unicode="Q" horiz-adv-x="554" 
d="M568 576c11.333 -9.33301 20.167 -23.501 26.5 -42.501s9.5 -47.5 9.5 -85.5c0 -18 -3.33301 -38.5 -10 -61.5s-16.167 -47.667 -28.5 -74s-27.333 -53.833 -45 -82.5s-37.5 -57.667 -59.5 -87c-2 -2.66699 -3 -6 -3 -10c10 -19.333 21.5 -39.333 34.5 -60
s26.667 -40.5 41 -59.5s28.666 -36.167 42.999 -51.5s27.5 -27.333 39.5 -36l9 -7.5c2.66699 -2.33301 4 -4.16602 4 -5.49902c0 -5.33301 -2.16699 -9.5 -6.5 -12.5s-12.166 -4.5 -23.499 -4.5c-16.667 0 -30 1.5 -40 4.5s-19.667 8.16699 -29 15.5
c-26 22 -49.667 46.167 -71 72.5s-38.333 48.5 -51 66.5c-2.66699 3.33301 -4.5 5.33301 -5.5 6s-1.83301 1 -2.5 1c-2.66699 0 -5 -1.33301 -7 -4c-11.333 -12 -23.666 -22.833 -36.999 -32.5s-26.666 -17.667 -39.999 -24s-25.833 -11.333 -37.5 -15
s-21.5 -5.5 -29.5 -5.5c-9.33301 0 -17 0.166992 -23 0.5s-10.833 0.666016 -14.5 0.999023s-7 1 -10 2s-6.16699 2.16699 -9.5 3.5c-3.33301 0.666992 -7.33301 2.66699 -12 6s-9.83398 6.83301 -15.501 10.5l-16 10.5c-5 3.33301 -9.16699 6 -12.5 8
c-12.667 6.66699 -22.167 15.834 -28.5 27.501s-11.5 25.834 -15.5 42.501c-3.33301 14.667 -5.83301 28.834 -7.5 42.501s-2.5 27.167 -2.5 40.5c0 21.333 1.66699 42 5 62s8 40 14 60c2.66699 8 4.66699 14.5 6 19.5s3 9.5 5 13.5c19.333 39.333 41.333 77.833 66 115.5
s54.667 71.5 90 101.5c7.33301 6 14 10.667 20 14s13 7.66602 21 12.999c13.333 8.66699 27.166 16.167 41.499 22.5s28 11.5 41 15.5s24.667 7 35 9s18.166 3 23.499 3c12 0 25.333 -3.66699 40 -11c10 -5.33301 21.833 -9.83301 35.5 -13.5s27.834 -11.834 42.501 -24.501
zM486.001 560.999c-10 0 -21.998 -1.8291 -35.998 -5.49609s-25.667 -7.83398 -35 -12.501c-39.333 -19.333 -73.5 -43.833 -102.5 -73.5s-54.5 -61.167 -76.5 -94.5c-21.333 -32 -38 -64.833 -50 -98.5s-18 -69.167 -18 -106.5c0 -11.333 0.666992 -24 2 -38
s3.66602 -27.167 6.99902 -39.5s8.33301 -22.666 15 -30.999s15.667 -12.5 27 -12.5c13.333 0 30.666 6.16699 51.999 18.5s47.666 34.166 78.999 65.499c3.33301 3.33301 5 7.66602 5 12.999l-31.5 62.5l-20 42l-11.5 25c-2.66699 5.66699 -4.33398 10.167 -5.00098 13.5
c-1.33301 4.66699 -2.5 9.16699 -3.5 13.5s-1.5 8.16602 -1.5 11.499c0 5.33301 1.66699 9.66602 5 12.999s10.333 5 21 5c11.333 0 20.166 -2 26.499 -6s14.5 -6 24.5 -6c8.66699 0 14.667 -5 18 -15c5.33301 -17.333 9.5 -31.5 12.5 -42.5s6.16699 -19.167 9.5 -24.5
c6 -10.667 10 -16 12 -16c1.33301 0 2.83301 0.666992 4.5 2s4.16699 4.33301 7.5 9c12 15.333 23.833 33 35.5 53s22.334 40.833 32.001 62.5s17.334 43.5 23.001 65.5s8.5 42.667 8.5 62c0 30 -2.66699 51.667 -8 65s-14.666 20 -27.999 20z" />
    <glyph glyph-name="R" unicode="R" horiz-adv-x="494" 
d="M532 576c3.33301 -6.66699 6.66406 -16.0049 9.99707 -28.0049s5 -26.333 5 -43c0 -24.667 -6 -52 -18 -82s-32 -60 -60 -90c-19.333 -21.333 -42 -37 -68 -47s-57.333 -20.333 -94 -31c-3.33301 -1.33301 -5.66602 -2.33301 -6.99902 -3s-2 -2.66699 -2 -6
c6.66699 -16.667 16.834 -34.834 30.501 -54.501s26.167 -39.167 37.5 -58.5c2.66699 -4.66699 6 -9.33398 10 -14.001l31 -35l25 -24c16.667 -15.333 30.334 -25.166 41.001 -29.499s21.667 -7.83301 33 -10.5c3.33301 -0.666992 6.66602 -3 9.99902 -7
s6.5 -8.66699 9.5 -14s5.5 -11.166 7.5 -17.499s3 -11.833 3 -16.5c0 -5.33301 -3.33301 -9.16602 -10 -11.499s-13.667 -3.5 -21 -3.5c-12 0 -25.167 3 -39.5 9s-29.5 14 -45.5 24c-26 16 -48.333 33.833 -67 53.5s-35.5 40.334 -50.5 62.001s-29 44.334 -42 68.001
l-40.5 72.5c-2 3.33301 -3.5 5.33301 -4.5 6s-2.16699 1 -3.5 1c-4 0 -7 -3.33301 -9 -10c-6.66699 -21.333 -12.667 -43.333 -18 -66s-9.83301 -44.167 -13.5 -64.5s-6.5 -38.5 -8.5 -54.5s-3 -28.333 -3 -37c0 -5.33301 -3.5 -9.66602 -10.5 -12.999s-17.167 -5 -30.5 -5
c-6 0 -9.66699 0.666992 -11 2s-6 4 -14 8c-3.33301 1.33301 -7.83301 3.66602 -13.5 6.99902s-8.5 8.33301 -8.5 15c9.33301 67.333 23 133.5 41 198.5s38.333 129.833 61 194.5l6.5 17c1 2.66699 3.16699 6 6.5 10c4.66699 6 8.83398 15.333 12.501 28s7.5 23 11.5 31
c0 2.66699 -1.33301 4 -4 4c-2 0 -5 1.83301 -9 5.5s-8 7.83398 -12 12.501s-7.5 9.5 -10.5 14.5s-4.5 8.83301 -4.5 11.5c0 4 0.666992 6.66699 2 8l5 5c10 7.33301 22.333 15.166 37 23.499s31 16 49 23s37.5 12.833 58.5 17.5s42.5 7 64.5 7c15.333 0 30.333 -1 45 -3
s26.667 -4.66699 36 -8c12 -4 19.167 -7 21.5 -9s4.5 -3.66699 6.5 -5c13.333 -9.33301 21.833 -16.166 25.5 -20.499s7.16699 -10.166 10.5 -17.499zM455.998 565.995c-4.66699 4.66699 -11 8.16992 -19 10.5029s-16.333 3.5 -25 3.5
c-11.333 0 -22.166 -1.16699 -32.499 -3.5s-20.5 -5.16602 -30.5 -8.49902c-6.66699 -2 -11 -5 -13 -9c-10 -17.333 -19.333 -34.333 -28 -51s-17 -33.834 -25 -51.501s-15.667 -36.5 -23 -56.5l-23 -66c0 -3.33301 1 -5.66602 3 -6.99902
c3.33301 -2.66699 7.5 -4.5 12.5 -5.5s9.5 -1.5 13.5 -1.5c6.66699 0 12.167 0.5 16.5 1.5s10.166 2.83301 17.499 5.5c4 1.33301 7.5 2.16602 10.5 2.49902s6 0.833008 9 1.5s6.66699 2 11 4s9.83301 5 16.5 9c14.667 9.33301 29 20.666 43 33.999s26.5 28.166 37.5 44.499
s19.667 34.166 26 53.499s9.5 40 9.5 62c0 8 -0.666992 14.167 -2 18.5s-3 7.5 -5 9.5z" />
    <glyph glyph-name="S" unicode="S" horiz-adv-x="432" 
d="M451 596c11.333 -12 19.667 -25.5039 25 -40.5039s9 -28.833 11 -41.5l4 -18c1.33301 -6 2 -10.667 2 -14s-2.16699 -6.33301 -6.5 -9s-9.16602 -4 -14.499 -4c-4.66699 0 -10.334 1 -17.001 3c-9.33301 2.66699 -18.166 8 -26.499 16s-14.166 14.333 -17.499 19
c-2.66699 4 -4.83398 9.33301 -6.50098 16l-5.5 21c-2 7.33301 -5 14.5 -9 21.5s-9.66699 12.5 -17 16.5s-14.666 6 -21.999 6c-3.33301 0 -8.16602 -7 -14.499 -21s-9.5 -33.333 -9.5 -58c0 -5.33301 0.666992 -16.333 2 -33s5.33301 -38.667 12 -66
c4 -16 9.33301 -36 16 -60l20.5 -75l20 -77.5c6.33301 -25.667 11.166 -48.5 14.499 -68.5c3.33301 -18.667 5.33301 -32 6 -40s1 -16.667 1 -26c0 -20.667 -5.66699 -38.834 -17 -54.501s-26.333 -27.167 -45 -34.5c-4 -1.33301 -8.66699 -2.16602 -14 -2.49902
s-13.666 -0.5 -24.999 -0.5c-44.667 0 -87.834 11.833 -129.501 35.5s-78.5 55.5 -110.5 95.5c-4 4.66699 -8.66699 9.66699 -14 15s-10.666 11.833 -15.999 19.5s-10.333 16.667 -15 27s-8.33398 22.5 -11.001 36.5c-1.33301 5.33301 -2 10.333 -2 15v15
c0 4.66699 2.33301 10.667 7 18s9.66699 11 15 11c8.66699 0 17.667 -1.33301 27 -4s17.333 -6 24 -10c9.33301 -6 17.5 -12.667 24.5 -20s10.5 -12.333 10.5 -15c0 -7.33301 -1.16699 -13.166 -3.5 -17.499s-3.5 -11.833 -3.5 -22.5c0 -2 0.666992 -4.33301 2 -7
s2.66602 -5.66699 3.99902 -9c6.66699 -12 15 -23.667 25 -35s21.333 -22.166 34 -32.499s26 -19.5 40 -27.5s28 -14.333 42 -19c8 -2.66699 16.667 -4 26 -4c8 0 15.667 3.5 23 10.5s11 15.833 11 26.5c0 13.333 -0.5 27 -1.5 41s-2.16699 26 -3.5 36
c-4 28 -9.33301 54.833 -16 80.5s-13.667 51 -21 76l-21.5 76.5c-7 26 -13.167 53 -18.5 81c-0.666992 2.66699 -1.5 7.33398 -2.5 14.001s-2 13.834 -3 21.501s-1.83301 15.334 -2.5 23.001s-1 13.834 -1 18.501c0 11.333 0.333008 18.666 1 21.999
c2 8 3.83301 17.333 5.5 28s4.66699 20.667 9 30s10.166 17.166 17.499 23.499s17.666 9.5 30.999 9.5c26.667 0 52.834 -3.66699 78.501 -11s49.5 -23 71.5 -47z" />
    <glyph glyph-name="T" unicode="T" horiz-adv-x="388" 
d="M618 581c0 -10 -1.33691 -17.165 -4.00391 -21.498s-5.66699 -7.16602 -9 -8.49902s-7.16602 -3.5 -11.499 -6.5s-10.5 -4.5 -18.5 -4.5c-4 0 -6.66699 1.33301 -8 4s-5.66602 5.66699 -12.999 9c-9.33301 3.33301 -15.666 6 -18.999 8s-7.66602 3 -12.999 3
c-28 0 -54.5 -1.5 -79.5 -4.5s-48.167 -6.5 -69.5 -10.5c4.66699 -4.66699 7 -8.66699 7 -12c0 -1.33301 -0.666992 -3.33301 -2 -6c-42.667 -72 -78.5 -144.833 -107.5 -218.5s-51.5 -152.834 -67.5 -237.501c-1.33301 -8 -2.5 -14.167 -3.5 -18.5
s-1.5 -9.83301 -1.5 -16.5c0 -4 0.166992 -8 0.5 -12s0.5 -8 0.5 -12c0 -9.33301 -1.66699 -17 -5 -23s-10.666 -9 -21.999 -9c-7.33301 0 -15.666 2 -24.999 6s-18 8.33301 -26 13c-2.66699 1.33301 -5.5 4.83301 -8.5 10.5s-4.5 10.167 -4.5 13.5s0.5 9.83301 1.5 19.5
s2.16699 17.167 3.5 22.5c19.333 80.667 41.666 158.667 66.999 234s56 150 92 224c0 2.66699 -2 4 -6 4l-32.5 -3c-14.333 -1.33301 -27.833 -2 -40.5 -2c-10.667 0 -21.334 1.33301 -32.001 4s-18.667 6.66699 -24 12c-1.33301 1.33301 -2 3.33301 -2 6v23
c0 12 2.83301 20.833 8.5 26.5s10.167 8.5 13.5 8.5c2 0 4.16699 -0.333008 6.5 -1s6 -1.5 11 -2.5s12 -1.83301 21 -2.5s21.833 -1 38.5 -1c24 0 47.833 1.66699 71.5 5s47.5 7 71.5 11s48.333 7.66699 73 11s50 5 76 5c8.66699 0 18.5 -2 29.5 -6s21 -8.83301 30 -14.5
s16.667 -11.334 23 -17.001s9.5 -9.83398 9.5 -12.501z" />
    <glyph glyph-name="U" unicode="U" horiz-adv-x="600" 
d="M336 624c1.33301 -3.33301 2.49707 -7.67383 3.49707 -13.0068s1.5 -9.66602 1.5 -12.999c0 -2 -1.16699 -5.83301 -3.5 -11.5l-5.5 -13.5c-15.333 -38 -31.166 -75 -47.499 -111l-47 -106.5c-15 -35 -28.333 -70 -40 -105s-20.167 -70.5 -25.5 -106.5
c-1.33301 -7.33301 -2.33301 -15.5 -3 -24.5s-1 -19.167 -1 -30.5c0 -6 0.5 -10 1.5 -12s2.16699 -3 3.5 -3c4 0 9.5 1.33301 16.5 4s14.5 8 22.5 16c46 46 87.333 89.833 124 131.5s69.167 80.5 97.5 116.5s52.5 68.5 72.5 97.5s36.333 53.833 49 74.5
c2.66699 4.66699 4.66699 8.33398 6 11.001s2.5 5.33398 3.5 8.00098s2.5 6 4.5 10s5.33301 9.66699 10 17c3.33301 5.33301 8.33301 11.5 15 18.5s11.334 10.5 14.001 10.5c2 0 5.66699 -0.666992 11 -2s12.666 -2 21.999 -2c4 0 7.66699 -3 11 -9l14 -22
c1.33301 -2.66699 2.66602 -5.16699 3.99902 -7.5s2 -4.5 2 -6.5c0 -3.33301 -2.33301 -10.666 -7 -21.999c-8 -21.333 -18.333 -41.833 -31 -61.5s-23 -40.167 -31 -61.5c-24.667 -66.667 -42.834 -132.167 -54.501 -196.5s-17.5 -131.166 -17.5 -200.499
c0 -11.333 0.166992 -18.833 0.5 -22.5s0.5 -6.16699 0.5 -7.5c0 -6.66699 -4.66699 -10 -14 -10c-7.33301 0 -11.666 0.833008 -12.999 2.5s-4.66602 3.16699 -9.99902 4.5s-10.666 3.66602 -15.999 6.99902l-19 12c-4 2.66699 -8 4.83398 -12 6.50098
s-6 5.83398 -6 12.501c0 3.33301 0.333008 6.83301 1 10.5s2 7.16699 4 10.5c2.66699 4 4.33398 9.33301 5.00098 16c4 34.667 7.16699 68.5 9.5 101.5s7.16602 64.5 14.499 94.5c2 8 3 13.333 3 16c0 3.33301 -1.66699 5 -5 5c-2 0 -4.66699 -1.66699 -8 -5l-55 -63
l-58.5 -65.5l-60 -63.5c-20.333 -20.667 -40.166 -39.334 -59.499 -56.001c-4.66699 -4 -11.334 -7.66699 -20.001 -11s-17.334 -5 -26.001 -5c-6 0 -13.167 1.33301 -21.5 4s-14.833 6.33398 -19.5 11.001s-9.5 7.83398 -14.5 9.50098s-10 3.16699 -15 4.5
s-9.66699 3.16602 -14 5.49902s-8.16602 6.5 -11.499 12.5c-1.33301 3.33301 -2.5 11.166 -3.5 23.499s-1.5 25.5 -1.5 39.5c0 31.333 3 60.666 9 87.999s12 50.666 18 69.999c18.667 58.667 39.834 116.334 63.501 173.001s46.167 114.334 67.5 173.001
c2 5.33301 4 9.5 6 12.5s3.66699 6.16699 5 9.5c3.33301 6.66699 7.33301 12.834 12 18.501s10.667 8.5 18 8.5c2.66699 0 5.5 -1 8.5 -3s9.5 -5 19.5 -9c4 -1.33301 8.33301 -3.16602 13 -5.49902s8 -5.5 10 -9.5z" />
    <glyph glyph-name="V" unicode="V" horiz-adv-x="470" 
d="M273 625c1.33301 -3.33301 2.66406 -7.00098 3.99707 -11.001s2.33301 -9.66699 3 -17v-10c0 -3.33301 -0.333008 -7 -1 -11c-10 -72.667 -21.5 -145.5 -34.5 -218.5s-23.167 -146.5 -30.5 -220.5c-0.666992 -4.66699 -1 -9 -1 -13v-10c0 -11.333 1.66699 -17 5 -17
c2 0 5.5 1.33301 10.5 4s11.5 8 19.5 16s17.333 19.5 28 34.5s22.667 34.5 36 58.5l69 124.5l70 126.5c10 18.667 19 38 27 58s12 41.667 12 65c0 7.33301 -0.333008 12.333 -1 15s-1 5.33398 -1 8.00098c0 10 7.33301 15 22 15c6 0 11.167 -0.166992 15.5 -0.5
s8.5 -0.5 12.5 -0.5c5.33301 0 8.5 -1.5 9.5 -4.5s4.16699 -6.83301 9.5 -11.5c6 -4.66699 11.167 -9.33398 15.5 -14.001s6.5 -10.334 6.5 -17.001c0 -6 -1.16699 -14.833 -3.5 -26.5s-5.66602 -24.334 -9.99902 -38.001s-9.16602 -27.167 -14.499 -40.5
s-11 -24.666 -17 -33.999c-22.667 -36 -44.5 -74.167 -65.5 -114.5l-63.5 -119c-21.333 -39 -43.333 -76 -66 -111s-46.667 -65.167 -72 -90.5c-12.667 -12.667 -21.334 -19 -26.001 -19s-8.66699 1 -12 3s-8.66602 3 -15.999 3c-6.66699 0 -10.667 -1 -12 -3s-4 -3 -8 -3
c-6 0 -14.167 2.83301 -24.5 8.5s-20.166 13.167 -29.499 22.5c-2 2 -3.5 3.83301 -4.5 5.5s-1.5 4.83398 -1.5 9.50098c0 5.33301 -2.16699 11.166 -6.5 17.499s-6.5 13.166 -6.5 20.499c0 2.66699 0.5 5.33398 1.5 8.00098s1.5 5.66699 1.5 9
c0 2.66699 0.166992 6.33398 0.5 11.001s0.833008 8.66699 1.5 12c4 38.667 9.16699 78.167 15.5 118.5l18.5 119.5c6 39.333 11.5 77.5 16.5 114.5s8.16699 71.833 9.5 104.5c0 6 0.5 10.333 1.5 13s1.83301 5.16699 2.5 7.5s1.33398 5.83301 2.00098 10.5
s1 12.334 1 23.001c0 7.33301 1.33301 13.5 4 18.5s8.66699 7.5 18 7.5c3.33301 0 7.66602 -0.333008 12.999 -1s12 -1 20 -1c4 0 8.5 -1 13.5 -3s9.16699 -6 12.5 -12z" />
    <glyph glyph-name="W" unicode="W" horiz-adv-x="684" 
d="M713 639c4.66699 -9.33301 7.83691 -18.333 9.50391 -27s2.83398 -17.667 3.50098 -27c0.666992 -7.33301 1.16699 -14.5 1.5 -21.5s0.5 -13.167 0.5 -18.5c0 -25.333 -1.66699 -48.833 -5 -70.5s-8.33301 -48.167 -15 -79.5
c-15.333 -70 -36.666 -138.167 -63.999 -204.5s-62.333 -129.833 -105 -190.5c-6 -8.66699 -12.833 -16.334 -20.5 -23.001s-17.834 -10 -30.501 -10c-2.66699 0 -5.83398 1 -9.50098 3s-10.167 3.33301 -19.5 4c-7.33301 0.666992 -13.166 2 -17.499 4
s-8.83301 5.33301 -13.5 10c-3.33301 3.33301 -10 6.33301 -20 9s-16.667 7.66699 -20 15c-9.33301 20 -15.333 40.833 -18 62.5l-9 73.5c-1.33301 8.66699 -2.5 13.834 -3.5 15.501s-2.16699 2.5 -3.5 2.5c-2.66699 0 -5.66699 -2.66699 -9 -8
c-5.33301 -8 -10.5 -15.167 -15.5 -21.5s-11.5 -13.166 -19.5 -20.499c-12.667 -11.333 -24.667 -24.333 -36 -39s-22.5 -28.334 -33.5 -41.001s-21.833 -23.334 -32.5 -32.001s-21.667 -13 -33 -13c-6.66699 0 -18.667 7.66699 -36 23
c-2.66699 2.66699 -6 4.33398 -10 5.00098l-11 3c-3.33301 1.33301 -6.33301 2.66602 -9 3.99902s-4.33398 3.66602 -5.00098 6.99902c-1.33301 4 -2 7.66699 -2 11v23c0 16.667 1.16699 31.834 3.5 45.501s4.5 27.167 6.5 40.5c0.666992 6 1 10.667 1 14l1 10
c0.666992 3.33301 1.33398 7.16602 2.00098 11.499s2 10.5 4 18.5c15.333 70 33.666 140 54.999 210s41.333 139.333 60 208c1.33301 5.33301 3.5 9.5 6.5 12.5s11.167 4.5 24.5 4.5c5.33301 0 10.5 -0.666992 15.5 -2l15.5 -4c1.33301 0 3.33301 -1.33301 6 -4l8 -9
c3.33301 -2.66699 6 -5.33398 8 -8.00098s3 -4.33398 3 -5.00098c0 -1.33301 -0.333008 -3 -1 -5s-1.33398 -3.66699 -2.00098 -5c-30.667 -73.333 -56.5 -149.166 -77.5 -227.499s-39.833 -157.5 -56.5 -237.5c-2 -9.33301 -3.33301 -16.666 -4 -21.999
s-1 -8.66602 -1 -9.99902c0 -3.33301 1 -5 3 -5c1.33301 0 3.66602 1 6.99902 3s9.66602 7.66699 18.999 17c32.667 34 63.5 71.167 92.5 111.5s51.5 78.5 67.5 114.5c2.66699 5.33301 4.66699 9.83301 6 13.5l3.5 10c1 3 2 6.33301 3 10l3.5 13.5
c2 9.33301 4.33301 18.166 7 26.499s5.66699 16.166 9 23.499c1.33301 3.33301 2.5 5.5 3.5 6.5s2.5 1.5 4.5 1.5c4 0 8.5 -0.666992 13.5 -2s9.16699 -2.33301 12.5 -3c8 -0.666992 15 -4.66699 21 -12c11.333 -13.333 17 -25.666 17 -36.999
c0 -6 -0.166992 -10.5 -0.5 -13.5s-1.16602 -6.16699 -2.49902 -9.5c-9.33301 -29.333 -16.5 -58.666 -21.5 -87.999s-7.5 -60 -7.5 -92c0 -40.667 4.33301 -82.667 13 -126c1.33301 -6 3.66602 -9 6.99902 -9c2 0 4.16699 1.33301 6.5 4l8.5 10
c40.667 54.667 73.834 116.334 99.501 185.001s46.5 137.667 62.5 207c2.66699 10.667 4.33398 19.334 5.00098 26.001s1 12.667 1 18c0 6 0.166992 11 0.5 15s0.5 8 0.5 12s0.166992 8.16699 0.5 12.5s0.5 10.166 0.5 17.499c0 8 -1 14.5 -3 19.5s-4.33301 9.83301 -7 14.5
s-5 9.5 -7 14.5s-3 11.167 -3 18.5c0 11.333 0.833008 20 2.5 26s5.16699 9 10.5 9c4 0 8.16699 -0.333008 12.5 -1s10.166 -1 17.499 -1c9.33301 0 17.666 -1.33301 24.999 -4s13.666 -9.66699 18.999 -21z" />
    <glyph glyph-name="X" unicode="X" horiz-adv-x="482" 
d="M660 646c5.33301 -1.33301 10.6562 -5.33301 15.9893 -12s8 -11.667 8 -15c0 -1.33301 -0.166992 -3.33301 -0.5 -6s-1.16602 -5 -2.49902 -7c-8.66699 -11.333 -17.667 -20.833 -27 -28.5s-19.5 -15.5 -30.5 -23.5l-35.5 -25.5c-12.667 -9 -26.334 -20.5 -41.001 -34.5
c-9.33301 -9.33301 -17.333 -16.833 -24 -22.5l-19 -16.5l-82.5 -70l-81.5 -71c-5.33301 -5.33301 -8.66602 -9 -9.99902 -11s-2 -5 -2 -9c7.33301 -44.667 17 -88 29 -130s22.667 -84.333 32 -127c0.666992 -4.66699 2.66699 -9.33398 6 -14.001s6.5 -9.33398 9.5 -14.001
s5.83301 -9.5 8.5 -14.5s4 -9.83301 4 -14.5c0 -3.33301 -0.5 -6.16602 -1.5 -8.49902s-3.16699 -5.16602 -6.5 -8.49902c-2 -2 -5.33301 -3.5 -10 -4.5s-9 -1.5 -13 -1.5c-7.33301 0 -15.666 1.33301 -24.999 4s-19 6 -29 10c-4 1.33301 -6.66699 2.66602 -8 3.99902
s-3.33301 4.66602 -6 9.99902c-9.33301 18 -16.666 36.667 -21.999 56s-9.66602 39 -12.999 59s-6.33301 40 -9 60s-6 39.333 -10 58c-1.33301 8.66699 -3.66602 13 -6.99902 13c-1.33301 0 -3.33301 -1.16699 -6 -3.5s-7.66699 -7.16602 -15 -14.499l-49.5 -54
c-16.333 -18 -31.166 -36.167 -44.499 -54.5s-25.166 -37 -35.499 -56s-17.833 -38.5 -22.5 -58.5c-0.666992 -2.66699 -1.66699 -5.16699 -3 -7.5s-5.33301 -4.5 -12 -6.5c-7.33301 -2.66699 -11.666 -5.5 -12.999 -8.5s-3.66602 -4.5 -6.99902 -4.5
c-11.333 0 -22 2.5 -32 7.5s-19 11.5 -27 19.5c-3.33301 3.33301 -5.16602 5.83301 -5.49902 7.5s-0.5 5.5 -0.5 11.5c0 13.333 4.5 26.5 13.5 39.5s16.833 26.167 23.5 39.5c2.66699 5.33301 5 9.66602 7 12.999s4.33301 7 7 11c12.667 20.667 26.834 39.667 42.501 57
s31.667 34.166 48 50.499l49.5 48c16.667 15.667 32.667 31.834 48 48.501c7.33301 7.33301 11.5 12.166 12.5 14.499s1.5 5.16602 1.5 8.49902c-6 32 -10.833 59.667 -14.5 83s-6.5 44.333 -8.5 63s-3.33301 36.334 -4 53.001s-1 34.334 -1 53.001
c0 4.66699 0.333008 8.16699 1 10.5s1.5 4.33301 2.5 6s1.83301 3.16699 2.5 4.5s1 3.66602 1 6.99902c0 2.66699 -0.5 5.83398 -1.5 9.50098s-1.5 7.16699 -1.5 10.5s0.333008 6 1 8s3.33398 4.66699 8.00098 8c3.33301 2.66699 7.16602 4.16699 11.499 4.5
s9.5 0.5 15.5 0.5c11.333 0 19.333 -0.5 24 -1.5s8.33398 -3.83301 11.001 -8.5c4 -7.33301 8.83301 -14 14.5 -20s8.5 -11.667 8.5 -17c0 -4.66699 -1.5 -12.5 -4.5 -23.5s-4.5 -28.167 -4.5 -51.5c0 -19.333 1 -38.166 3 -56.499s4.66699 -37.5 8 -57.5
c1.33301 -7.33301 2.66602 -12.166 3.99902 -14.499s3.33301 -3.5 6 -3.5c2 0 5 0.833008 9 2.5s8.33301 4.83398 13 9.50098c20 20 40.833 39.333 62.5 58l65 55.5c21.667 18.333 43 37.333 64 57s41.167 40.5 60.5 62.5c4 4.66699 6.83301 7.5 8.5 8.5
s4.16699 1.5 7.5 1.5c8.66699 0 17 -1.83301 25 -5.5s16.667 -6.83398 26 -9.50098z" />
    <glyph glyph-name="Y" unicode="Y" horiz-adv-x="502" 
d="M257 668c3.33301 -0.666992 6.3291 -4.34082 8.99609 -11.0078s4 -12.667 4 -18c0 -7.33301 -0.833008 -13.333 -2.5 -18s-3.66699 -9.5 -6 -14.5l-7.5 -16.5c-2.66699 -6 -5 -13.667 -7 -23l-16 -83c-5.33301 -28.667 -10.166 -57 -14.499 -85s-7.83301 -55 -10.5 -81
s-4 -49.667 -4 -71c0 -2 1.5 -4.16699 4.5 -6.5s7.83301 -3.5 14.5 -3.5c4 0 8.66699 0.5 14 1.5s10.666 3.16699 15.999 6.5c24 15.333 45.167 30.166 63.5 44.499s34.833 28.833 49.5 43.5c10.667 10.667 25.334 28.834 44.001 54.501s40.334 62.5 65.001 110.5
c15.333 30.667 29 55.5 41 74.5s19.667 30.833 23 35.5c4.66699 6.66699 8.33398 10 11.001 10c6.66699 0 16.167 -1.5 28.5 -4.5s22.833 -8.83301 31.5 -17.5c2 -2 4.33301 -6.66699 7 -14s4 -12.333 4 -15c0 -1.33301 -0.333008 -3.16602 -1 -5.49902
s-2.33398 -5.16602 -5.00098 -8.49902c-70.667 -99.333 -128.834 -220.166 -174.501 -362.499s-81.5 -309.5 -107.5 -501.5c-1.33301 -10 -2.66602 -16.667 -3.99902 -20s-2 -6.66602 -2 -9.99902c0 -5.33301 -2 -8 -6 -8c-3.33301 0 -6.83301 0.5 -10.5 1.5
s-8.83398 2.16699 -15.501 3.5c-13.333 2 -24.166 5.16699 -32.499 9.5s-13.166 9.83301 -14.499 16.5c-0.666992 2.66699 -1.16699 7 -1.5 13s-0.5 11.667 -0.5 17c0 22 2.66699 42.5 8 61.5s10 37.833 14 56.5c2 8.66699 3.83301 18 5.5 28l5.5 32
c10.667 56.667 24.334 114.834 41.001 174.501l51 177.5l-8 -9c-4.66699 -5.33301 -11.167 -11.666 -19.5 -18.999s-18.166 -14.5 -29.499 -21.5s-24.166 -12.833 -38.499 -17.5s-29.5 -7 -45.5 -7c-2 0 -5.33301 1 -10 3s-10.334 4.83301 -17.001 8.5
s-13.5 7.83398 -20.5 12.501s-13.833 10 -20.5 16c-12.667 11.333 -22.5 22.333 -29.5 33s-10.5 19 -10.5 25c0 0.666992 0.166992 4.66699 0.5 12s0.666016 16.333 0.999023 27s0.833008 22 1.5 34s1.33398 23.333 2.00098 34c0.666992 6.66699 1.66699 12 3 16
s2 10.667 2 20c0 10.667 1.16699 18.5 3.5 23.5s4.16602 12.167 5.49902 21.5c6 37.333 12.833 73.5 20.5 108.5s16.5 70.167 26.5 105.5c2 6 4.66699 9 8 9c12.667 0 24 -1.16699 34 -3.5s19.667 -4.16602 29 -5.49902z" />
    <glyph glyph-name="Z" unicode="Z" horiz-adv-x="560" 
d="M659 555c0 -9.33301 -0.49707 -16.999 -1.49707 -22.999s-3.16699 -12.167 -6.5 -18.5s-8.16602 -13.166 -14.499 -20.499s-14.833 -16.666 -25.5 -27.999c-5.33301 -6 -12.666 -13.5 -21.999 -22.5l-29 -27l-28.5 -25.5c-9 -8 -15.833 -13.667 -20.5 -17
c-2.66699 -2 -4.16699 -3.5 -4.5 -4.5s-0.5 -2.16699 -0.5 -3.5c0 -3.33301 3 -5 9 -5c21.333 0 40.666 -2.66699 57.999 -8s30.666 -14 39.999 -26c3.33301 -4 5 -9.66699 5 -17c0 -6.66699 -1.83301 -12 -5.5 -16s-7.16699 -6 -10.5 -6
c-1.33301 0 -2.83301 0.166992 -4.5 0.5s-4.16699 0.5 -7.5 0.5s-8.16602 0.166992 -14.499 0.5s-14.833 0.5 -25.5 0.5c-20.667 0 -40.334 -1.33301 -59.001 -4s-37.167 -6 -55.5 -10l-54.5 -12c-18 -4 -36.333 -7.33301 -55 -10c-17.333 -14.667 -36 -28.667 -56 -42
s-39.5 -27.166 -58.5 -41.499s-36.667 -29.5 -53 -45.5s-29.5 -34 -39.5 -54c-1.33301 -3.33301 -2.66602 -6.5 -3.99902 -9.5s-2 -5.83301 -2 -8.5c0 -2 1.83301 -4.5 5.5 -7.5s8.16699 -5.66699 13.5 -8s11.166 -4.5 17.499 -6.5s12.5 -3 18.5 -3
c8.66699 0 17.167 -1.33301 25.5 -4s18.5 -4 30.5 -4c17.333 0 35.833 1.83301 55.5 5.5s39.834 8.5 60.501 14.5s41.667 12.667 63 20l62 22c14.667 5.33301 24 8 28 8c1.33301 0 3.66602 -0.166992 6.99902 -0.5s7 -1 11 -2s7.66699 -2 11 -3s5.66602 -2.5 6.99902 -4.5
c5.33301 -9.33301 12 -18.333 20 -27s12 -17.334 12 -26.001c0 -5.33301 -2.33301 -8 -7 -8c-5.33301 0 -8.16602 0.666992 -8.49902 2s-3.16602 2 -8.49902 2c-4 0 -6.16699 -1 -6.5 -3s-2.83301 -4 -7.5 -6c-42 -18.667 -86.667 -33.667 -134 -45s-92.333 -17 -135 -17
c-34.667 0 -68.667 4.16699 -102 12.5s-66 22.5 -98 42.5c-2 1.33301 -5.33301 4.83301 -10 10.5s-9.33398 12.167 -14.001 19.5s-8.83398 14.666 -12.501 21.999s-5.5 13.333 -5.5 18c0 6.66699 0.166992 11.667 0.5 15s1.16602 6.66602 2.49902 9.99902
c2.66699 6.66699 7 14.167 13 22.5s14.333 17.833 25 28.5s23.834 22.667 39.501 36l56.5 47c4 3.33301 6 5.66602 6 6.99902c0 2.66699 -2.33301 4.33398 -7 5.00098c-9.33301 1.33301 -18.333 3.66602 -27 6.99902s-14.667 6.66602 -18 9.99902
c-2 2.66699 -3.83301 6 -5.5 10s-2.5 7.33301 -2.5 10c0 4.66699 0.5 7.5 1.5 8.5s1.5 6.83301 1.5 17.5c0 7.33301 3 13 9 17s11.333 6 16 6c3.33301 0 7 -0.5 11 -1.5s7.66699 -2.16699 11 -3.5c16 -5.33301 29 -9 39 -11s17 -3 21 -3c2.66699 0 7.83398 0.5 15.501 1.5
s15.667 2.16699 24 3.5s16 2.83301 23 4.5s11.833 3.16699 14.5 4.5l69 44c25.333 16.667 50.666 34.5 75.999 53.5s49.166 39 71.499 60s40.5 41.833 54.5 62.5l4.5 7c1.66699 2.66699 2.5 5 2.5 7c0 5.33301 -4.5 9.83301 -13.5 13.5s-19.833 6.5 -32.5 8.5
s-26 3.5 -40 4.5s-26.333 1.5 -37 1.5c-27.333 0 -54 -4.16699 -80 -12.5s-44.667 -23.166 -56 -44.499c-1.33301 -2 -4.33301 -3.66699 -9 -5s-9.33398 -2 -14.001 -2c-5.33301 0 -10.333 0.833008 -15 2.5s-8.66699 3.16699 -12 4.5c-10 5.33301 -17 12.333 -21 21
s-8 21.667 -12 39c0 4.66699 0.166992 7.66699 0.5 9s1.5 2.66602 3.5 3.99902c26 17.333 56.5 30.333 91.5 39s71.167 13 108.5 13c32 0 63.833 -3.66699 95.5 -11s61.167 -18.666 88.5 -33.999c2 -1.33301 5.83301 -4.33301 11.5 -9s11.5 -10 17.5 -16s11.5 -12 16.5 -18
s7.5 -11 7.5 -15z" />
    <glyph glyph-name="bracketleft" unicode="[" horiz-adv-x="326" 
d="M478 810c28 0 48.498 -1.00195 61.498 -3.00195s20.167 -6 21.5 -12c0.666992 -3.33301 2 -5.66602 4 -6.99902s3 -5.66602 3 -12.999c0 -3.33301 -0.5 -6.16602 -1.5 -8.49902l-3.5 -8.5c-5.33301 -11.333 -10 -18.666 -14 -21.999s-11.667 -5 -23 -5
c-3.33301 0 -8 0.333008 -14 1s-16.667 1 -32 1h-11c-14 0 -25.167 -0.333008 -33.5 -1s-15 -2.16699 -20 -4.5s-9.16699 -5.83301 -12.5 -10.5s-6.66602 -11 -9.99902 -19c-19.333 -44.667 -39.333 -97.5 -60 -158.5l-63.5 -192l-64.5 -202
c-21.333 -67.667 -42.333 -130.834 -63 -189.501c-7.33301 -20 -11.5 -34 -12.5 -42s-1.5 -14 -1.5 -18c0 -2.66699 0.333008 -5 1 -7s2.5 -3.83301 5.5 -5.5s7.83301 -2.83398 14.5 -3.50098s15.667 -1 27 -1c24 0 41.667 0.666992 53 2s22 2 32 2
c7.33301 0 12.833 -3.66699 16.5 -11s5.5 -12.666 5.5 -15.999c0 -9.33301 -1 -17 -3 -23s-4.5 -10.833 -7.5 -14.5s-6 -6.5 -9 -8.5s-5.16699 -3.66699 -6.5 -5c-2.66699 -2.66699 -8.83398 -4.16699 -18.501 -4.5s-21.5 -0.5 -35.5 -0.5h-19
c-7.33301 0 -19.5 0.166992 -36.5 0.5s-36.167 1.16602 -57.5 2.49902c-6 0.666992 -12.5 3.5 -19.5 8.5s-13.5 11 -19.5 18s-11 14.667 -15 23s-6 15.833 -6 22.5c0 5.33301 0.166992 10.5 0.5 15.5s1.33301 10.5 3 16.5l6.5 22.5c2.66699 9 6.33398 20.167 11.001 33.5
l222 670c12.667 38.667 23.834 68.834 33.501 90.501s18.167 38 25.5 49s13.5 18.167 18.5 21.5s9.16699 5.66602 12.5 6.99902c11.333 4 23.5 6.5 36.5 7.5s26.833 1.5 41.5 1.5h37z" />
    <glyph glyph-name="backslash" unicode="\" horiz-adv-x="374" 
d="M266 645c0 -5.33301 -1.50098 -12.166 -4.50098 -20.499s-4.5 -19.166 -4.5 -32.499c0 -12.667 0.5 -24.334 1.5 -35.001s2.16699 -22 3.5 -34c4 -34 8.66699 -67.667 14 -101l17.5 -106c6.33301 -37.333 12.833 -77.833 19.5 -121.5s13.667 -92.834 21 -147.501
c2.66699 -19.333 4.5 -35.666 5.5 -48.999s1.5 -25 1.5 -35c0 -20.667 -1.66699 -31 -5 -31c-4.66699 0 -8.66699 -1.66699 -12 -5s-9.66602 -5 -18.999 -5c-8.66699 0 -15.334 0.833008 -20.001 2.5s-8.66699 5.83398 -12 12.501s-6.5 13.667 -9.5 21
s-4.5 16.666 -4.5 27.999c0 5.33301 -0.333008 14.5 -1 27.5s-1.66699 24.167 -3 33.5l-77 517c-1.33301 9.33301 -2.16602 19.166 -2.49902 29.499s-0.5 20.5 -0.5 30.5v25c0 8 0.666992 13.667 2 17c3.33301 13.333 8.66602 22.333 15.999 27
c2.66699 2 8.33398 3 17.001 3c3.33301 0 6 -0.333008 8 -1s4.33301 -1 7 -1c12.667 0 22.667 -3.33301 30 -10s11 -19.667 11 -39z" />
    <glyph glyph-name="bracketright" unicode="]" horiz-adv-x="326" 
d="M-30 -200c-28 0 -48.4961 1.00098 -61.4961 3.00098s-20.167 6 -21.5 12c-0.666992 3.33301 -2 5.66602 -4 6.99902s-3 5.66602 -3 12.999c0 3.33301 0.5 6.16602 1.5 8.49902l3.5 8.5c5.33301 11.333 10 18.666 14 21.999s11.667 5 23 5c3.33301 0 8 -0.333008 14 -1
s16.667 -1 32 -1h11c13.333 0 24.166 0.333008 32.499 1s15.166 2.16699 20.499 4.5s9.66602 5.83301 12.999 10.5s6.66602 11 9.99902 19c12.667 29.333 26 62.833 40 100.5s28 77.334 42 119.001l42.5 130.5l43 135.5l42.5 132.5l41 124c4 11.333 7.16699 23.333 9.5 36
s3.5 20.667 3.5 24c0 2.66699 -0.333008 5 -1 7s-2.66699 3.66699 -6 5s-9 2.5 -17 3.5s-19 1.5 -33 1.5c-12 0 -21.667 -0.166992 -29 -0.5s-13.666 -0.833008 -18.999 -1.5s-10 -1.16699 -14 -1.5s-8.33301 -0.5 -13 -0.5c-7.33301 0 -12.833 3.66699 -16.5 11
s-5.5 12.666 -5.5 15.999c0 18.667 3.66699 31.334 11 38.001s13.333 11 18 13c5.33301 2.66699 11.666 4.16699 18.999 4.5s21 0.5 41 0.5c18.667 0 35.334 -0.166992 50.001 -0.5s32.667 -1.16602 54 -2.49902c5.33301 0 11.5 -2.66699 18.5 -8s13.5 -11.666 19.5 -18.999
s11.167 -15.166 15.5 -23.499s6.5 -15.5 6.5 -21.5c0 -5.33301 -0.333008 -10.5 -1 -15.5s-1.66699 -10.667 -3 -17s-3.33301 -13.833 -6 -22.5s-6.33398 -19.667 -11.001 -33l-222 -670c-12.667 -38.667 -23.667 -68.834 -33 -90.501s-17.5 -38 -24.5 -49s-13 -18 -18 -21
s-9.83301 -5.5 -14.5 -7.5c-11.333 -4 -23.5 -6.5 -36.5 -7.5s-26.833 -1.5 -41.5 -1.5h-37z" />
    <glyph glyph-name="asciicircum" unicode="^" horiz-adv-x="550" 
d="M588 466c3.33301 -8 5.49902 -13.5 6.49902 -16.5s1.5 -6.16699 1.5 -9.5c0 -7.33301 -0.833008 -10.5 -2.5 -9.5s-4.16699 -0.5 -7.5 -4.5c-6 -8 -10.333 -12.833 -13 -14.5s-7 -2.5 -13 -2.5c-2 0 -5.83301 1.83301 -11.5 5.5s-10.167 8.83398 -13.5 15.501l-87 163
c-2.66699 4.66699 -4.66699 7.5 -6 8.5s-3.66602 1.5 -6.99902 1.5c-2 0 -3.66699 -0.166992 -5 -0.5s-3.66602 -1.5 -6.99902 -3.5l-83 -49l-48.5 -30c-11.667 -7.33301 -19.834 -12.833 -24.501 -16.5s-8.33398 -6.83398 -11.001 -9.50098s-6 -4 -10 -4
c-8.66699 0 -15.667 3.16699 -21 9.5s-9 10.5 -11 12.5c-1.33301 1.33301 -2.33301 5 -3 11s-1 13 -1 21c0 4 1.16699 8.16699 3.5 12.5s3.83301 7.5 4.5 9.5s4.5 5.16699 11.5 9.5s20.167 11.166 39.5 20.499l173 85c6.66699 3.33301 12.334 5 17.001 5
c9.33301 0 15.833 -1.66699 19.5 -5s5.83398 -5.66602 6.50098 -6.99902c2 -4 4.16699 -6.33301 6.5 -7s5.16602 -4.66699 8.49902 -12z" />
    <glyph glyph-name="underscore" unicode="_" horiz-adv-x="626" 
d="M581 -96v-64h-700v64h700z" />
    <glyph glyph-name="grave" unicode="`" 
d="M363 743c-6.66699 4.66699 -16.502 10.167 -29.502 16.5s-25.167 11.833 -36.5 16.5c-5.33301 2 -8.66602 5.66699 -9.99902 11s-2 12.666 -2 21.999c0 6 0.833008 10.833 2.5 14.5s4.5 7.5 8.5 11.5c8 8 16 12 24 12c3.33301 0 6 -0.5 8 -1.5s4 -1.5 6 -1.5
c1.33301 0 2.83301 -0.5 4.5 -1.5s4.33398 -2.83301 8.00098 -5.5l15.5 -11.5l27 -19.5l102 -70c17.333 -12 26 -20.333 26 -25c0 -3.33301 -0.5 -6.16602 -1.5 -8.49902l-3.5 -8.5c-1.33301 -3.33301 -2 -6.33301 -2 -9s-0.333008 -5 -1 -7
c-2 -6.66699 -6.33301 -10 -13 -10s-12 0.5 -16 1.5s-9 3.5 -15 7.5z" />
    <glyph glyph-name="a" unicode="a" horiz-adv-x="468" 
d="M492 435c2 -5.33301 5.17285 -9.83105 9.50586 -13.498s9.16602 -5.5 14.499 -5.5c2.66699 0 7 -0.666992 13 -2s11 -5 15 -11c1.33301 -2 2 -4 2 -6c0 -3.33301 -1.33301 -7 -4 -11l-34.5 -48c-11.667 -16.667 -22.667 -34 -33 -52s-19.833 -36.333 -28.5 -55
s-15.334 -37.667 -20.001 -57c-3.33301 -14 -6.5 -28.5 -9.5 -43.5s-4.5 -30.167 -4.5 -45.5c0 -13.333 1.66699 -26.333 5 -39s8.66602 -24.667 15.999 -36c1.33301 -2.66699 2 -4.66699 2 -6s-1.33301 -3.66602 -4 -6.99902s-8.33398 -5.66602 -17.001 -6.99902
c-3.33301 -0.666992 -6.5 -1.5 -9.5 -2.5s-6.16699 -1.5 -9.5 -1.5c-7.33301 0 -15.5 1.66699 -24.5 5s-15.167 8.33301 -18.5 15c-6.66699 14.667 -11.167 29.167 -13.5 43.5s-3.5 28.5 -3.5 42.5c0 15.333 0.666992 27.166 2 35.499s2 13.166 2 14.499
c0 3.33301 -1.33301 5 -4 5c-4 0 -12 -6 -24 -18l-54 -50c-13.333 -12 -25.333 -22.167 -36 -30.5s-20.667 -15.333 -30 -21s-18.333 -10.334 -27 -14.001s-17.334 -6.83398 -26.001 -9.50098c-3.33301 -1.33301 -6.33301 -2.33301 -9 -3s-5 -1 -7 -1
c-2.66699 0 -5.66699 0.5 -9 1.5s-7.5 3.16699 -12.5 6.5s-11.333 8 -19 14l-29.5 23c-2.66699 2 -7 7.5 -13 16.5s-9 23.167 -9 42.5c0 16.667 3.83301 36.334 11.5 59.001s23.834 52.334 48.501 89.001c30 44 57.667 77.167 83 99.5s45.666 39.166 60.999 50.499
c49.333 36 102.666 62.333 159.999 79c6.66699 2 14 3 22 3c11.333 0 22 -2.5 32 -7.5s19.667 -12.167 29 -21.5c2.66699 -2.66699 5.5 -5.83398 8.5 -9.50098s5.16699 -7.16699 6.5 -10.5zM428.006 422.002c-1.33301 0 -5.16504 -0.835938 -11.498 -2.50293
s-12.833 -4.16699 -19.5 -7.5c-47.333 -25.333 -89.5 -52 -126.5 -80s-69.833 -59.333 -98.5 -94c-10.667 -12.667 -20.5 -25.667 -29.5 -39s-16.833 -26.166 -23.5 -38.499s-12 -23.833 -16 -34.5s-6 -19.667 -6 -27c0 -6 1.33301 -12 4 -18s8.66699 -9 18 -9
c4 0 10.833 2.5 20.5 7.5s19.167 11.833 28.5 20.5c23.333 22 47 42.833 71 62.5l69 59c22 19.667 42.5 39.834 61.5 60.501s34.833 43 47.5 67c3.33301 6.66699 7.66602 13.334 12.999 20.001s10.666 12.667 15.999 18c3.33301 3.33301 5 8.33301 5 15
c0 3.33301 -1.66699 7.5 -5 12.5s-9.33301 7.5 -18 7.5z" />
    <glyph glyph-name="b" unicode="b" horiz-adv-x="386" 
d="M450 738c0 -6.66699 -2.15527 -12.8369 -6.48828 -18.5039s-9.33301 -11.167 -15 -16.5l-17.5 -16c-6 -5.33301 -10.667 -11 -14 -17l-42.5 -66l-43.5 -66.5c-14 -21.667 -26.833 -42.667 -38.5 -63s-21.167 -38.833 -28.5 -55.5
c-10.667 -25.333 -22.334 -50.5 -35.001 -75.5s-24.334 -50.333 -35.001 -76s-19.667 -51.834 -27 -78.501s-11 -54.334 -11 -83.001c0 -11.333 0.833008 -20.166 2.5 -26.499s6.5 -9.5 14.5 -9.5c5.33301 0 11.666 2.33301 18.999 7s12.666 9.33398 15.999 14.001
c14.667 18.667 27 35.834 37 51.501s18.667 31.334 26 47.001s13.833 31.667 19.5 48s11.167 34.5 16.5 54.5c1.33301 5.33301 2.66602 10.333 3.99902 15s2 8.33398 2 11.001c0 1.33301 -0.333008 4.83301 -1 10.5s-1.66699 11.834 -3 18.501s-3.33301 13.167 -6 19.5
s-6 11.166 -10 14.499c-2 1.33301 -3.33301 3.83301 -4 7.5s-1 7.16699 -1 10.5c0 8.66699 3.16699 18.334 9.5 29.001s13.833 16 22.5 16c6.66699 0 12.834 -2.66699 18.501 -8s11.167 -11 16.5 -17c6.66699 -8 12.167 -14.333 16.5 -19s8.16602 -8.16699 11.499 -10.5
s6.66602 -3.83301 9.99902 -4.5s8 -1 14 -1s21.333 1.5 46 4.5s61 11.167 109 24.5c5.33301 1.33301 10.166 2.66602 14.499 3.99902s7.16602 2 8.49902 2c2 0 3.66699 -0.333008 5 -1s3.66602 -1 6.99902 -1c8 0 14.667 -2 20 -6c2 -1.33301 4.5 -4.33301 7.5 -9
s4.5 -9 4.5 -13c0 -2 -0.833008 -5.16699 -2.5 -9.5s-3.83398 -6.83301 -6.50098 -7.5c-19.333 -2.66699 -37.333 -6.83398 -54 -12.501s-33 -11.5 -49 -17.5s-32.167 -11.167 -48.5 -15.5s-33.5 -6.5 -51.5 -6.5c-3.33301 0 -8 1 -14 3s-11 3 -15 3
c-1.33301 0 -2.33301 -1 -3 -3s-1 -4 -1 -6c0 -3.33301 0.333008 -6.83301 1 -10.5s1 -7.16699 1 -10.5c0 -6 -0.666992 -10.667 -2 -14s-3 -11.333 -5 -24c-3.33301 -21.333 -9.5 -40.166 -18.5 -56.499s-17.167 -33.166 -24.5 -50.499
c-3.33301 -8 -6.16602 -14.333 -8.49902 -19l-6.5 -12.5c-2 -3.66699 -4 -6.83398 -6 -9.50098s-4.33301 -6 -7 -10c-8 -11.333 -16.667 -22.833 -26 -34.5s-19.5 -22.334 -30.5 -32.001s-22.667 -17.667 -35 -24s-25.5 -9.5 -39.5 -9.5
c-4.66699 0 -8.83398 0.166992 -12.501 0.5s-8.5 1.5 -14.5 3.5c-3.33301 0.666992 -8 2.5 -14 5.5s-12.333 6.83301 -19 11.5s-12.834 9.83398 -18.501 15.501s-9.5 12.167 -11.5 19.5c-2 8.66699 -3.66699 17.167 -5 25.5s-2 16.5 -2 24.5c0 19.333 2 38.333 6 57
s9 36.667 15 54l5 15l9 26l9.5 27c3 8.66699 5.5 15 7.5 19c16.667 38.667 34 75.667 52 111l56 105.5l59.5 105l62.5 108.5c7.33301 13.333 15.666 23.666 24.999 30.999s21 11 35 11c8 0 17.667 -2 29 -6c7.33301 -3.33301 12.333 -7.66602 15 -12.999
s4 -11.666 4 -18.999z" />
    <glyph glyph-name="c" unicode="c" horiz-adv-x="346" 
d="M272 123l33.5 24.5029c11.667 8.33301 22.834 15.666 33.501 21.999s20.667 11.5 30 15.5s17.666 6 24.999 6c3.33301 0 7 -1.16699 11 -3.5s7.66699 -5 11 -8s6 -6 8 -9s3 -4.83301 3 -5.5c0 -2 -0.666992 -3.66699 -2 -5s-2 -3 -2 -5
c0 -3.33301 -0.5 -5.83301 -1.5 -7.5s-3.16699 -3.16699 -6.5 -4.5c-15.333 -6.66699 -32.166 -16.667 -50.499 -30s-38.166 -28.666 -59.499 -45.999c-28 -22.667 -54.333 -40.667 -79 -54s-47.667 -20 -69 -20c-14 0 -26.833 2 -38.5 6s-22 8.83301 -31 14.5
s-16.167 11.167 -21.5 16.5s-8.66602 9.33301 -9.99902 12c-8 16 -12 31.667 -12 47c0 12 1.83301 24.333 5.5 37l10.5 38c1.33301 3.33301 2.83301 8.83301 4.5 16.5s4.16699 15.167 7.5 22.5c12.667 26 26.834 52.667 42.501 80s32.167 53.166 49.5 77.499
s35.666 46.166 54.999 65.499s39.666 34.333 60.999 45c3.33301 1.33301 5.83301 2.16602 7.5 2.49902s4.5 0.5 8.5 0.5c17.333 0 35.666 -3.66699 54.999 -11s35.666 -17.666 48.999 -30.999c2 -2 3.16699 -3.83301 3.5 -5.5s0.5 -4.5 0.5 -8.5
c0 -5.33301 0.333008 -8.83301 1 -10.5s1 -3.16699 1 -4.5c0 -2 -0.333008 -4.33301 -1 -7c-0.666992 -3.33301 -2.83398 -8.33301 -6.50098 -15s-7.5 -14.5 -11.5 -23.5s-7.66699 -18.333 -11 -28s-5 -18.834 -5 -27.501c0 -4 -1.5 -7.5 -4.5 -10.5
s-7.83301 -4.5 -14.5 -4.5c-8 0 -14.667 2.33301 -20 7l-26 19c-7.33301 5.33301 -11 12.666 -11 21.999c0 4.66699 1.16699 9.83398 3.5 15.501s4.83301 11 7.5 16s5.16699 10 7.5 15s3.5 9.5 3.5 13.5c0 2 -0.666992 4.16699 -2 6.5s-3.33301 3.5 -6 3.5
c-3.33301 0 -5.83301 -0.666992 -7.5 -2s-4.5 -4 -8.5 -8c-21.333 -21.333 -42.666 -46 -63.999 -74s-40.666 -57 -57.999 -87c-17.333 -31.333 -31.333 -61.5 -42 -90.5s-16 -49.833 -16 -62.5c0 -6.66699 1.66699 -11.834 5 -15.501s7.33301 -5.5 12 -5.5
c23.333 0 46.666 5.83301 69.999 17.5s47.333 26.834 72 45.501z" />
    <glyph glyph-name="d" unicode="d" horiz-adv-x="496" 
d="M724 747c0 -11.333 -1.8291 -20.998 -5.49609 -28.998s-8.83398 -16.667 -15.501 -26c-4.66699 -6.66699 -8.33398 -13.334 -11.001 -20.001s-6.66699 -14.334 -12 -23.001l-46 -71l-47 -72c-15.333 -24 -29.5 -48 -42.5 -72s-23.5 -47.333 -31.5 -70l-16 -44
c-15.333 -42 -27.833 -78.333 -37.5 -109s-17.334 -57 -23.001 -79s-9.66699 -40.167 -12 -54.5s-3.5 -25.833 -3.5 -34.5c0 -18 1.33301 -30.833 4 -38.5s4 -13.5 4 -17.5c0 -2 -1.33301 -4.33301 -4 -7c-3.33301 -3.33301 -6 -6.33301 -8 -9s-4 -4.83398 -6 -6.50098
s-4.66699 -3 -8 -4s-8 -1.5 -14 -1.5c-4.66699 0 -11.667 2.33301 -21 7s-14.333 8.66699 -15 12c-4 22.667 -6 44.334 -6 65.001c0 26 2.5 50.5 7.5 73.5s11.167 47.833 18.5 74.5c2 6.66699 4.66699 14.167 8 22.5s6.83301 16 10.5 23s6.66699 13 9 18
s3.5 7.83301 3.5 8.5c0 1.33301 -0.666992 2 -2 2s-4.66602 -3 -9.99902 -9l-60 -70c-20 -23.333 -40.5 -45.833 -61.5 -67.5s-42.5 -42.167 -64.5 -61.5s-45.333 -36.333 -70 -51c-5.33301 -3.33301 -10.666 -5.33301 -15.999 -6s-10 -1 -14 -1
c-5.33301 0 -11.666 1.33301 -18.999 4s-14.833 5.66699 -22.5 9s-14.334 6.66602 -20.001 9.99902s-8.83398 6 -9.50098 8c-11.333 19.333 -17 38.333 -17 57c0 26.667 11.667 62.334 35 107.001c24 46 54.667 88 92 126s77 71 119 99
c7.33301 5.33301 17.833 9.83301 31.5 13.5s27.167 5.5 40.5 5.5c10.667 0 20 -1.66699 28 -5c6.66699 -3.33301 14.667 -6.33301 24 -9s17 -6 23 -10c4.66699 0 7.33398 0.333008 8.00098 1c26 28 48.667 56.833 68 86.5s37.666 59.5 54.999 89.5l52 90
c17.333 30 36.666 59 57.999 87c3.33301 4 6.33301 7 9 9s7.33398 3 14.001 3c3.33301 0 7.66602 -1 12.999 -3s10.666 -4.5 15.999 -7.5s10 -6.5 14 -10.5s6 -8 6 -12zM378.004 369.002c0 6.66699 -7.66504 9.99902 -22.998 9.99902c-10 0 -18.333 -1.66699 -25 -5
c-24 -12 -47.833 -27.5 -71.5 -46.5s-45.667 -40 -66 -63s-38.833 -47.833 -55.5 -74.5s-30 -53.667 -40 -81c-0.666992 -1.33301 -1.33398 -3.5 -2.00098 -6.5s-1 -5.16699 -1 -6.5c0 -5.33301 0.5 -10.5 1.5 -15.5s2.83301 -7.5 5.5 -7.5
c3.33301 0 6.66602 1.33301 9.99902 4s6.5 4.5 9.5 5.5s6.83301 3.16699 11.5 6.5c43.333 34 83.5 72.167 120.5 114.5s71.833 85.5 104.5 129.5c6 8 11 13.833 15 17.5s6 9.83398 6 18.501z" />
    <glyph glyph-name="e" unicode="e" horiz-adv-x="366" 
d="M253 -3c-9.33301 -5.33301 -16.0049 -8.33008 -20.0049 -8.99707s-9.33301 -1 -16 -1c-6 0 -11.833 0.333008 -17.5 1s-12.5 2.66699 -20.5 6l-18 7c-6.66699 2.66699 -13.167 5.5 -19.5 8.5s-11.833 5.5 -16.5 7.5s-8 3.66699 -10 5c-10 5.33301 -19.5 14 -28.5 26
s-16.167 26.333 -21.5 43c-3.33301 10 -6.16602 23 -8.49902 39s-3.5 28.667 -3.5 38c0 4.66699 0.333008 9.5 1 14.5s2 11.167 4 18.5c14 51.333 36.667 99.166 68 143.499s66 86.833 104 127.5c8.66699 9.33301 22.5 19.166 41.5 29.499s40.833 15.5 65.5 15.5
c13.333 0 24.333 -1 33 -3s18 -4.66699 28 -8c5.33301 -2 12 -7.83301 20 -17.5s12 -24.5 12 -44.5c0 -13.333 -2.33301 -25.666 -7 -36.999s-10 -23 -16 -35c-5.33301 -10 -10.166 -18.333 -14.499 -25s-10.166 -14 -17.499 -22l-53.5 -59.5
c-18.333 -20.333 -37.166 -39.833 -56.499 -58.5s-39.166 -36 -59.499 -52s-41.166 -30 -62.499 -42c-4 -2.66699 -6 -5.33398 -6 -8.00098c0 -8 2.83301 -16.333 8.5 -25s10.834 -14.334 15.501 -17.001c10 -5.33301 20.333 -8 31 -8c8.66699 0 18 1.66699 28 5
s26.333 11 49 23c17.333 9.33301 33.166 19.5 47.499 30.5s28.166 22.167 41.499 33.5l39.5 34c13 11.333 27.167 21.666 42.5 30.999c5.33301 3.33301 9.5 5.33301 12.5 6s5.5 1 7.5 1c3.33301 0 7.5 -2 12.5 -6s7.5 -8.66699 7.5 -14
c0 -4.66699 -0.166992 -7.66699 -0.5 -9s-0.5 -2.66602 -0.5 -3.99902c0 -2 -0.166992 -4.33301 -0.5 -7s-1.83301 -5 -4.5 -7c-12 -10 -23.167 -20.833 -33.5 -32.5s-23 -24.5 -38 -38.5s-34.167 -29.667 -57.5 -47s-54 -36.333 -92 -57zM327.995 398.003
c5.33301 7.33301 9.66797 14.498 13.001 21.498s5 15.167 5 24.5c0 4 -0.166992 7 -0.5 9s-2.16602 3 -5.49902 3c-5.33301 0 -12.333 -3 -21 -9c-5.33301 -3.33301 -8.83301 -5.16602 -10.5 -5.49902s-4.83398 -2.83301 -9.50098 -7.5
c-16 -14.667 -32.167 -30.667 -48.5 -48s-31.666 -35.666 -45.999 -54.999s-27 -39.666 -38 -60.999s-19.167 -43 -24.5 -65c0 -3.33301 0.666992 -5 2 -5s3.66602 1 6.99902 3c30 22.667 57.333 47.167 82 73.5s48.334 53.166 71.001 80.499
c4 4.66699 6.83301 8.5 8.5 11.5s3.16699 5.83301 4.5 8.5s2.66602 5.5 3.99902 8.5s3.66602 7.16699 6.99902 12.5z" />
    <glyph glyph-name="f" unicode="f" horiz-adv-x="268" 
d="M415 724c5.33301 -7.33301 7.99414 -13.9971 7.99414 -19.9971c0 -5.33301 -1.5 -10.333 -4.5 -15l-9.5 -14.5l-10 -14.5c-3.33301 -4.66699 -5.33301 -9.33398 -6 -14.001c-0.666992 -6 -2 -11.333 -4 -16c-6.66699 -13.333 -15.167 -26.666 -25.5 -39.999l-31.5 -41
c-10.667 -14 -20.667 -28.333 -30 -43s-16.333 -30.334 -21 -47.001c-1.33301 -5.33301 -2.66602 -10 -3.99902 -14s-3.66602 -9.33301 -6.99902 -16l-6 -12c-2.66699 -5.33301 -5.16699 -11 -7.5 -17l-6.5 -17c-2 -5.33301 -3 -9.66602 -3 -12.999s1.66699 -5 5 -5
c14.667 0 29.834 2.5 45.501 7.5s31.5 10.5 47.5 16.5s32.5 11.5 49.5 16.5s34.167 7.5 51.5 7.5c11.333 0 19.666 -2.33301 24.999 -7s8 -8.66699 8 -12c0 -7.33301 -3 -12.666 -9 -15.999l-17 -8l-11 -6c-21.333 -8 -42.666 -17.333 -63.999 -28s-43.333 -18 -66 -22
c-5.33301 -1.33301 -8.5 -2.5 -9.5 -3.5s-5.83301 -3.16699 -14.5 -6.5c-11.333 -4.66699 -22.666 -8.5 -33.999 -11.5s-21.666 -8.16699 -30.999 -15.5c-4 -2.66699 -7 -7 -9 -13l-34.5 -99.5c-11.667 -33 -22.5 -66.5 -32.5 -100.5s-18.667 -68.667 -26 -104
s-12.666 -71.666 -15.999 -108.999c-0.666992 -6 -3.66699 -11.667 -9 -17s-11.666 -9.33301 -18.999 -12l-18 -7c-6.66699 -2.66699 -11 -4 -13 -4c-6 0 -10.5 1.16699 -13.5 3.5s-6.83301 5.16602 -11.5 8.49902c-1.33301 1.33301 -2.83301 6.33301 -4.5 15
s-2.5 16.667 -2.5 24c0 19.333 3.16699 37.666 9.5 54.999s12.166 34.666 17.499 51.999c1.33301 3.33301 3 9.16602 5 17.499s3.66699 15.833 5 22.5c1.33301 8.66699 4.33301 20.667 9 36l15.5 50.5l18 56.5l18 54c5.66699 16.667 10.167 31.167 13.5 43.5s5 20.5 5 24.5
c0 2.66699 -0.666992 5 -2 7c-6 10.667 -14.167 20 -24.5 28s-17.5 18 -21.5 30l-4 12.5c-1.33301 4.33301 -2 8.16602 -2 11.499c0 5.33301 1.5 10 4.5 14s6.16699 6 9.5 6c7.33301 0 16.333 -2.33301 27 -7s20.667 -7 30 -7c2 0 5.66699 0.833008 11 2.5
s9.33301 5.5 12 11.5l41 98c12.667 30 25.334 58.5 38.001 85.5s25.5 53 38.5 78s27.167 49.833 42.5 74.5c4 6.66699 11.667 12 23 16s20.666 6 27.999 6c14 0 25.333 -5.66699 34 -17z" />
    <glyph glyph-name="g" unicode="g" horiz-adv-x="422" 
d="M438 361l-63.4971 -116.501c-16.333 -31 -29 -56.333 -38 -76s-15.167 -34.167 -18.5 -43.5s-5 -15.333 -5 -18s1.33301 -4 4 -4c25.333 21.333 52.166 42 80.499 62s57.166 38.667 86.499 56c8.66699 5.33301 14.167 8.33301 16.5 9s4.83301 1 7.5 1
c10.667 0 19.334 -3.33301 26.001 -10c4 -4 6 -9 6 -15c0 -1.33301 -0.333008 -3.66602 -1 -6.99902s-3 -6.66602 -7 -9.99902c-46 -34.667 -87 -66.834 -123 -96.501s-67.5 -58.167 -94.5 -85.5s-50 -54.666 -69 -81.999s-34.833 -56 -47.5 -86l-26 -61.5l-24 -56l-20 -45
c-6 -13 -10.333 -22.167 -13 -27.5c-5.33301 -10 -10.333 -17.667 -15 -23s-9.66699 -9.5 -15 -12.5s-11.333 -4.83301 -18 -5.5s-14.667 -1 -24 -1s-19.666 2.5 -30.999 7.5s-18.333 12.167 -21 21.5c-2 6.66699 -3 14 -3 22c0 6 1.16699 12.833 3.5 20.5
s6.16602 16.834 11.499 27.501s12.333 23 21 37l32 50c12.667 19.333 23.834 35.5 33.501 48.5l27.5 36.5c8.66699 11.333 17.167 23.166 25.5 35.499s17.833 28 28.5 47s22.667 42.333 36 70s29 62.5 47 104.5v2c0 1.33301 -0.666992 2 -2 2s-2.33301 -0.333008 -3 -1
l-33.5 -32.5c-11 -11 -22.167 -20.833 -33.5 -29.5s-22.833 -15.667 -34.5 -21s-23.834 -8 -36.501 -8c-11.333 0 -21.333 2 -30 6c-10.667 4.66699 -21 11.167 -31 19.5s-19.667 17.166 -29 26.499c-2.66699 2.66699 -4.5 5.5 -5.5 8.5s-1.5 9.83301 -1.5 20.5
c0 21.333 3.5 39.333 10.5 54l18.5 39c2.66699 6.66699 7.66699 15.334 15 26.001s15.666 22 24.999 34l29.5 36.5l28.5 33.5c26 29.333 50.5 52.5 73.5 69.5s43 29.667 60 38s30.5 13.666 40.5 15.999s15.667 3.5 17 3.5c21.333 0 41.166 -3.66699 59.499 -11
s32.833 -18 43.5 -32c4.66699 -6 7.66699 -11.833 9 -17.5s2 -11.5 2 -17.5c0 -7.33301 -0.5 -14 -1.5 -20s-3.16699 -12.333 -6.5 -19zM374.003 390.999c2 2.66699 2.99609 4.99902 2.99609 6.99902c0 1.33301 -0.333008 2.33301 -1 3s-1 1.66699 -1 3
s-0.333008 2.83301 -1 4.5s-3.66699 3.5 -9 5.5s-11 3 -17 3c-9.33301 0 -17.5 -2.16699 -24.5 -6.5s-14.167 -9.16602 -21.5 -14.499c-10 -8 -17.667 -13.333 -23 -16s-11.666 -7.33398 -18.999 -14.001c-13.333 -12.667 -27.833 -27.5 -43.5 -44.5
s-30.834 -34.5 -45.501 -52.5s-27.667 -35.5 -39 -52.5s-19.666 -31.5 -24.999 -43.5c-3.33301 -7.33301 -6.16602 -14.666 -8.49902 -21.999s-3.5 -12.666 -3.5 -15.999c0 -2 1.5 -3.83301 4.5 -5.5s5.5 -2.5 7.5 -2.5c2.66699 0 5.66699 0.166992 9 0.5s7 1.83301 11 4.5
c22.667 14 45.334 31.167 68.001 51.5s44.834 42 66.501 65s42 46.667 61 71s36.167 48.166 51.5 71.499z" />
    <glyph glyph-name="h" unicode="h" horiz-adv-x="418" 
d="M395 -26c-6 -1.33301 -11.6689 -3.00488 -17.002 -5.00488s-11.333 -3 -18 -3c-3.33301 0 -7 0.333008 -11 1s-10 2.66699 -18 6c-19.333 7.33301 -33.166 18.833 -41.499 34.5s-12.5 35.834 -12.5 60.501c0 32 6.33301 69.333 19 112c6.66699 22 13 41 19 57l18 46
c2.66699 6 4 10 4 12c0 1.33301 -0.666992 2 -2 2c-2 0 -6.33301 -3.66699 -13 -11c-17.333 -19.333 -34.5 -40.666 -51.5 -63.999l-50 -70.5l-48.5 -69c-16 -22.333 -31.333 -42.166 -46 -59.499c-2.66699 -3.33301 -4.5 -5.5 -5.5 -6.5s-2.83301 -2.16699 -5.5 -3.5
c-5.33301 -3.33301 -11.166 -6.33301 -17.499 -9s-13.166 -4 -20.499 -4c-2.66699 0 -10 2.66699 -22 8s-22 12 -30 20c-2.66699 2.66699 -4 6.33398 -4 11.001c0 5.33301 1 9 3 11s4 7.33301 6 16c15.333 66.667 40 136.5 74 209.5l115 236.5c21.333 42 45 85.833 71 131.5
s51.333 93.167 76 142.5c3.33301 6 7.16602 9.83301 11.499 11.5s9.16602 2.5 14.499 2.5s9.5 -0.333008 12.5 -1s5.83301 -1 8.5 -1c4.66699 0 9.5 -1.5 14.5 -4.5s9.5 -6.5 13.5 -10.5c3.33301 -3.33301 5.66602 -6.66602 6.99902 -9.99902s2 -8.33301 2 -15
c0 -13.333 -4.5 -25 -13.5 -35l-33.5 -39c-4.66699 -5.33301 -8 -9.83301 -10 -13.5s-5 -8.16699 -9 -13.5c-22.667 -31.333 -44.5 -66.833 -65.5 -106.5s-41.667 -81 -62 -124l-59.5 -130.5l-57 -126c-4 -8.66699 -6.5 -14 -7.5 -16s-1.5 -3.33301 -1.5 -4
c0 -1.33301 0.666992 -2 2 -2c0.666992 0 1.33398 0.5 2.00098 1.5s2.33398 3.16699 5.00098 6.5c40.667 56.667 79.5 107.167 116.5 151.5l110.5 126.5l16 16c3.33301 3.33301 7.33301 5.66602 12 6.99902c10 3.33301 17.667 5 23 5s11.833 -0.833008 19.5 -2.5
s13.5 -3.16699 17.5 -4.5c3.33301 -1.33301 6.66602 -4 9.99902 -8s5 -7.66699 5 -11c0 -14.667 -2.66699 -27.834 -8 -39.501s-12.666 -25.167 -21.999 -40.5c-7.33301 -12 -12.5 -22.833 -15.5 -32.5s-6.5 -19.167 -10.5 -28.5c-13.333 -32 -25.333 -67.167 -36 -105.5
s-16 -74.5 -16 -108.5c0 -24 2.33301 -40 7 -48s10.667 -14 18 -18c3.33301 -1.33301 7.33301 -2.33301 12 -3s9 -1.66699 13 -3c4.66699 -1.33301 7 -4 7 -8c0 -2 -0.666992 -4 -2 -6l-3 -7c-1.33301 -3.33301 -4 -6.16602 -8 -8.49902s-7.66699 -4.16602 -11 -5.49902z
" />
    <glyph glyph-name="i" unicode="i" horiz-adv-x="220" 
d="M237 34c-10.667 -9.33301 -24.8271 -19.666 -42.4941 -30.999s-37.834 -17 -60.501 -17c-7.33301 0 -14.833 2.33301 -22.5 7s-15 10.834 -22 18.501s-13.167 16.167 -18.5 25.5s-9.33301 18.666 -12 27.999c-2 7.33301 -3.33301 14.333 -4 21s-1 13.667 -1 21
c0 12.667 1.16699 25 3.5 37s6.5 26.667 12.5 44c3.33301 9.33301 6.16602 18.166 8.49902 26.499s5.16602 16.166 8.49902 23.499l46 109.5c15.333 36.333 32.333 73.833 51 112.5c5.33301 10.667 12.666 17.834 21.999 21.501s18.666 5.5 27.999 5.5
c5.33301 0 10.833 -0.5 16.5 -1.5s10.167 -3.16699 13.5 -6.5c2.66699 -2 4.66699 -4 6 -6s2 -5.33301 2 -10c0 -13.333 -2.33301 -25.166 -7 -35.499s-10.167 -20.166 -16.5 -29.499l-20.5 -29c-7.33301 -10 -14 -21 -20 -33l-14 -32.5l-16.5 -38.5l-16 -38.5
c-5 -12.333 -9.16699 -23.166 -12.5 -32.499c-8.66699 -22.667 -14.834 -42.834 -18.501 -60.501s-5.5 -30.167 -5.5 -37.5c0 -4.66699 0.833008 -11.167 2.5 -19.5s6.83398 -12.5 15.501 -12.5c5.33301 0 10.333 0.5 15 1.5s9.66699 2.66699 15 5
s11.333 5.66602 18 9.99902s15 10.166 25 17.499c12 8.66699 20.833 14.5 26.5 17.5s12.5 4.5 20.5 4.5c4 0 8.33301 -0.5 13 -1.5s8.66699 -2.83301 12 -5.5s5.16602 -5.16699 5.49902 -7.5s0.5 -4.5 0.5 -6.5c0 -5.33301 -1.33301 -9.83301 -4 -13.5
s-6.66699 -8.16699 -12 -13.5zM364.007 691c5.33301 -5.33301 8.66895 -10.833 10.002 -16.5s2 -11.167 2 -16.5c0 -3.33301 -0.333008 -6.5 -1 -9.5s-2 -5.83301 -4 -8.5c-9.33301 -11.333 -19.5 -22.333 -30.5 -33s-22.167 -16 -33.5 -16c-10 0 -18.5 2.16699 -25.5 6.5
s-11.833 8.83301 -14.5 13.5c-2.66699 5.33301 -4.5 11 -5.5 17s-1.5 11.667 -1.5 17c0 7.33301 1 14.833 3 22.5s5.33301 14.167 10 19.5c5.33301 6 12.166 10.333 20.499 13s17.833 4 28.5 4c8 0 16.167 -1.16699 24.5 -3.5s14.166 -5.5 17.499 -9.5z" />
    <glyph glyph-name="j" unicode="j" horiz-adv-x="238" 
d="M249 448c2 -3.33301 3.83301 -6.66797 5.5 -10.001s2.5 -6.66602 2.5 -9.99902c0 -2 -1 -5.16699 -3 -9.5s-3.66699 -7.5 -5 -9.5c-8.66699 -17.333 -16.5 -33.833 -23.5 -49.5l-20.5 -48l-20 -50.5l-22 -57c-2.66699 -6 -4 -11 -4 -15c0 -2 0.666992 -3 2 -3
c3.33301 0 8.66602 3.33301 15.999 10l25.5 21l27 21.5l26 19.5c8.33301 6 15.5 10.667 21.5 14c8.66699 5.33301 14.834 8.66602 18.501 9.99902s7.5 2 11.5 2c5.33301 0 9.66602 -0.666992 12.999 -2s5 -5 5 -11c0 -8 -1 -14.333 -3 -19s-5 -9 -9 -13
s-8.83301 -8.16699 -14.5 -12.5s-12.167 -9.83301 -19.5 -16.5c-36 -32 -68.667 -66.167 -98 -102.5s-57.666 -73.833 -84.999 -112.5c-7.33301 -10 -14 -20.5 -20 -31.5s-10.667 -20.167 -14 -27.5l-28.5 -74.5l-26.5 -72.5l-26 -72l-27 -75l-5.5 -10.5
c-2.33301 -4.33301 -5.33301 -8.5 -9 -12.5s-8 -7.33301 -13 -10s-10.833 -4 -17.5 -4c-2 0 -4.5 0.833008 -7.5 2.5s-8.5 3.83398 -16.5 6.50098c-6 2 -10.833 5.16699 -14.5 9.5s-6.5 8.83301 -8.5 13.5s-3.16699 9 -3.5 13s-0.5 6.66699 -0.5 8
c0 4.66699 0.5 9.16699 1.5 13.5s2.16699 8.16602 3.5 11.499c12 32 25.5 63.167 40.5 93.5l46 90.5c15.667 30 30.5 60.333 44.5 91s25.667 62 35 94l4 12l4.5 13l6 17l8.5 24l58.5 152.5c20.333 51 38.5 102.833 54.5 155.5c2 6.66699 4.5 11.5 7.5 14.5
s6.16699 5.83301 9.5 8.5c6 4.66699 11.333 7 16 7c5.33301 0 9.5 0.166992 12.5 0.5s6.5 0.5 10.5 0.5c5.33301 0 10.833 -0.666992 16.5 -2s9.5 -3.66602 11.5 -6.99902zM369 645.998c0 -7.33301 -1.50195 -13.334 -4.50195 -18.001s-6.33301 -9 -10 -13l-11 -11.5
c-3.66699 -3.66699 -5.83398 -7.83398 -6.50098 -12.501c-1.33301 -7.33301 -4.83301 -12 -10.5 -14s-11.167 -3 -16.5 -3c-2 0 -5.16699 0.333008 -9.5 1s-9.16602 2 -14.499 4s-10.833 5.16699 -16.5 9.5s-10.834 10.166 -15.501 17.499c-3.33301 4.66699 -5 12.667 -5 24
c0 4 -0.333008 7.83301 -1 11.5s-1 6.83398 -1 9.50098s2 6.33398 6 11.001c6.66699 8 14.334 14.5 23.001 19.5s18.334 7.5 29.001 7.5c8.66699 0 16.334 -1.16699 23.001 -3.5s14.667 -7.5 24 -15.5c8.66699 -7.33301 13.667 -12.166 15 -14.499s2 -5.5 2 -9.5z" />
    <glyph glyph-name="k" unicode="k" horiz-adv-x="376" 
d="M381 698c0 -14.667 -3.00098 -27.1758 -9.00098 -37.5088s-13 -21.166 -21 -32.499c-9.33301 -13.333 -15.166 -22.166 -17.499 -26.499s-4.83301 -8.5 -7.5 -12.5c-23.333 -38.667 -42.833 -78.5 -58.5 -119.5s-32.167 -81.833 -49.5 -122.5c-2 -4 -3 -7 -3 -9
s1 -3 3 -3c2.66699 0 6.66699 1.66699 12 5c32 19.333 63.167 41 93.5 65s55.833 52.333 76.5 85c3.33301 5.33301 6.66602 9.5 9.99902 12.5s6.66602 5.83301 9.99902 8.5c9.33301 6.66699 19.333 10 30 10c4.66699 0 8.66699 -0.5 12 -1.5s8.33301 -3.5 15 -7.5
c12 -7.33301 18 -13.333 18 -18c0 -4 -1.33301 -8.83301 -4 -14.5s-6.33398 -11.667 -11.001 -18s-9.66699 -12.666 -15 -18.999s-10.333 -11.5 -15 -15.5c-8 -7.33301 -13.167 -12.833 -15.5 -16.5s-6.5 -8.16699 -12.5 -13.5c-25.333 -21.333 -51.666 -41.5 -78.999 -60.5
l-81 -54.5c-4.66699 -3.33301 -7 -7.66602 -7 -12.999c0 -3.33301 1.5 -9.16602 4.5 -17.499s8.5 -25.5 16.5 -51.5c1.33301 -4.66699 4.5 -12.667 9.5 -24s10.5 -23.166 16.5 -35.499l17.5 -34.5c5.66699 -10.667 9.5 -17.334 11.5 -20.001l19 -25
c5.33301 -6.66699 10.833 -12.5 16.5 -17.5s12 -9.5 19 -13.5s16.167 -8.33301 27.5 -13c2.66699 -1.33301 5.33398 -2 8.00098 -2s5 -0.166992 7 -0.5s3.5 -1.33301 4.5 -3s1.5 -4.83398 1.5 -9.50098c0 -6.66699 -3 -11.667 -9 -15s-10 -6.66602 -12 -9.99902
c-4.66699 -7.33301 -12.667 -11 -24 -11c-19.333 0 -35 2.83301 -47 8.5s-22 12.5 -30 20.5c-9.33301 9.33301 -15.333 15 -18 17c-3.33301 2.66699 -6.5 5.33398 -9.5 8.00098s-6.16699 6.66699 -9.5 12c-28.667 52 -49 95.833 -61 131.5s-21.333 61.167 -28 76.5
c-1.33301 3.33301 -2.66602 5.5 -3.99902 6.5s-2.66602 1.5 -3.99902 1.5c-2 0 -3.33301 -1.33301 -4 -4c-11.333 -26.667 -22.166 -54.667 -32.499 -84s-18.166 -59.666 -23.499 -90.999c-1.33301 -5.33301 -2.83301 -11.833 -4.5 -19.5s-3.83398 -15.167 -6.50098 -22.5
s-5.83398 -13.666 -9.50098 -18.999s-8.16699 -8 -13.5 -8c-4 0 -7.83301 -0.5 -11.5 -1.5s-8.16699 -1.5 -13.5 -1.5c-1.33301 0 -3.83301 0.333008 -7.5 1s-7.5 2 -11.5 4s-7.66699 5.16699 -11 9.5s-5 10.166 -5 17.499c0 3.33301 0.666992 7.83301 2 13.5
s3 11.167 5 16.5c1.33301 2.66699 2.16602 5.33398 2.49902 8.00098s0.833008 4.66699 1.5 6c34 104 73.167 206.333 117.5 307l131.5 305l11 26c4.66699 12.667 10 19 16 19c4 0 7.5 -0.333008 10.5 -1s10.5 -1.66699 22.5 -3c24.667 -3.33301 37 -12.666 37 -27.999z" />
    <glyph glyph-name="l" unicode="l" horiz-adv-x="232" 
d="M141 -18c-2 0 -7.83691 1.50098 -17.5039 4.50098s-20.167 7.5 -31.5 13.5s-22 13.833 -32 23.5s-16.333 21.5 -19 35.5c-2 10.667 -3 22 -3 34c0 23.333 4.33301 46.833 13 70.5l30 78.5c10.667 28 24 58.667 40 92l51.5 102.5l57.5 105.5l59 102
c4 7.33301 7.66699 15.833 11 25.5s7.16602 19 11.499 28s9.5 16.5 15.5 22.5s14 9 24 9c7.33301 0 13.333 0.333008 18 1s9.66699 1 15 1s10.333 -1 15 -3s8.33398 -4.66699 11.001 -8c5.33301 -8 8 -17.333 8 -28c0 -12 -3.33301 -23.667 -10 -35l-70 -108.5l-69.5 -107
c-22.333 -35.667 -43.5 -71.834 -63.5 -108.501s-37.333 -74.334 -52 -113.001c-8 -20.667 -16.333 -40.834 -25 -60.501s-13 -40.5 -13 -62.5c0 -6 0.333008 -12 1 -18s2 -12.333 4 -19c2.66699 -8 9.33398 -12 20.001 -12c6.66699 0 12.334 1.33301 17.001 4
c10.667 6.66699 21.834 16.334 33.501 29.001l35 37.5c11.667 12.333 23.5 23 35.5 32s23.667 13.5 35 13.5c4 0 10.667 -1.83301 20 -5.5s14 -9.5 14 -17.5c0 -6.66699 -2 -11.667 -6 -15s-8.66699 -7.66602 -14 -12.999c-12.667 -14 -25 -28.667 -37 -44
s-24.5 -29.5 -37.5 -42.5s-27.167 -23.667 -42.5 -32s-32.666 -12.5 -51.999 -12.5z" />
    <glyph glyph-name="m" unicode="m" horiz-adv-x="684" 
d="M276 462c2.66699 -1.33301 4.16504 -3.5 4.49805 -6.5s0.5 -7.16699 0.5 -12.5c0 -2.66699 -0.666992 -7.33398 -2 -14.001s-4.66602 -13.667 -9.99902 -21c-36.667 -51.333 -70.167 -104.666 -100.5 -159.999s-53.166 -112.666 -68.499 -171.999
c0 -2.66699 1 -5.16699 3 -7.5s4 -3.5 6 -3.5s5.66699 1.33301 11 4c26.667 13.333 52.334 30.166 77.001 50.499s47.5 42.666 68.5 66.999s39.667 50.166 56 77.499s30.166 54.666 41.499 81.999c4 10 11 18.667 21 26c12 9.33301 25 14 39 14
c17.333 0 32.666 -6.66699 45.999 -20c2 -2 3.16699 -3.33301 3.5 -4s0.5 -1.66699 0.5 -3c0 -4 -1 -9 -3 -15c-4.66699 -12 -10.5 -23.667 -17.5 -35s-14.5 -22.5 -22.5 -33.5l-24.5 -33.5c-8.33301 -11.333 -15.5 -23 -21.5 -35c-16.667 -32 -28 -58 -34 -78
s-9 -35.667 -9 -47c0 -2.66699 0.833008 -6 2.5 -10s3.83398 -6 6.50098 -6c7.33301 0 16.5 2.83301 27.5 8.5s21.167 13.834 30.5 24.501c17.333 20 35.833 38.833 55.5 56.5l58 54c19 18.333 36.333 37.833 52 58.5s28.167 43.667 37.5 69
c0.666992 2.66699 2.16699 6.16699 4.5 10.5s5.5 8.5 9.5 12.5s8.66699 7.33301 14 10s12 4 20 4c4.66699 0 8.33398 -0.333008 11.001 -1s4.66699 -1.5 6 -2.5s2.83301 -1.83301 4.5 -2.5s4.5 -1.33398 8.5 -2.00098c11.333 -1.33301 18.666 -3.16602 21.999 -5.49902
s7 -7.16602 11 -14.499c2.66699 -4.66699 4 -9.33398 4 -14.001s-1.33301 -8.5 -4 -11.5s-5.83398 -6 -9.50098 -9l-11.5 -9.5c-4 -3.33301 -7.66699 -7.66602 -11 -12.999c-24.667 -41.333 -42.5 -75.833 -53.5 -103.5s-16.5 -54.167 -16.5 -79.5
c0 -16 2.5 -32.333 7.5 -49s13.167 -33.667 24.5 -51c2 -3.33301 3.66699 -5.5 5 -6.5s2.66602 -1.83301 3.99902 -2.5c3.33301 -1.33301 6.5 -4 9.5 -8s4.5 -8 4.5 -12s-2.16699 -7.66699 -6.5 -11s-10.166 -5 -17.499 -5s-13.666 1 -18.999 3s-11.666 3.66699 -18.999 5
c-5.33301 1.33301 -11.833 5.83301 -19.5 13.5s-16.834 22.167 -27.501 43.5c-5.33301 11.333 -10.833 25.333 -16.5 42s-8.5 32.334 -8.5 47.001c0 4 -1.33301 6 -4 6c-2 0 -4.66699 -1.33301 -8 -4c-12.667 -9.33301 -25.167 -20.666 -37.5 -33.999
s-25.166 -26 -38.499 -38s-27.833 -22.167 -43.5 -30.5s-33.5 -12.5 -53.5 -12.5c-18 0 -35 3.66699 -51 11c-21.333 10 -34.5 18.833 -39.5 26.5s-7.5 15.167 -7.5 22.5c0 6.66699 -0.166992 10.834 -0.5 12.501s-1.16602 2.5 -2.49902 2.5s-3.66602 -1.66699 -6.99902 -5
c-14.667 -14.667 -31.334 -27.834 -50.001 -39.501s-36.667 -21.834 -54 -30.501c-3.33301 -1.33301 -6.33301 -2.66602 -9 -3.99902s-5 -2 -7 -2c-14.667 0 -29.334 2.5 -44.001 7.5s-28 12.167 -40 21.5c-2 1.33301 -3.5 2.83301 -4.5 4.5s-2.16699 4.5 -3.5 8.5
c-4 16.667 -6 32.667 -6 48c0 23.333 3.66699 45.5 11 66.5s16.166 41.5 26.499 61.5s21.333 39.833 33 59.5s22.167 39.5 31.5 59.5c6.66699 14.667 12.5 26.5 17.5 35.5l13 23.5l10.5 20c3.33301 6.66699 7 15 11 25c2 5.33301 8.16699 12.166 18.5 20.499
s24.5 12.5 42.5 12.5c12 0 22.333 -2.66699 31 -8z" />
    <glyph glyph-name="n" unicode="n" horiz-adv-x="420" 
d="M91 266l21.5059 48.4922l21.5 44c7.33301 14.333 15.333 29 24 44s18.667 30.833 30 47.5c4 6 6.5 10.167 7.5 12.5s3.83301 5.5 8.5 9.5c7.33301 6.66699 19 10 35 10c22 0 35.333 -5 40 -15c1.33301 -2.66699 2.5 -5.66699 3.5 -9s1.5 -6.33301 1.5 -9
c0 -5.33301 -1.5 -12.166 -4.5 -20.499s-8.83301 -17.166 -17.5 -26.499c-5.33301 -6 -14.166 -16.667 -26.499 -32s-24.833 -34.666 -37.5 -57.999c-7.33301 -13.333 -16.833 -32.333 -28.5 -57s-25.834 -57.667 -42.501 -99c-2 -4.66699 -4.16699 -10.667 -6.5 -18
s-4.5 -14.833 -6.5 -22.5s-3.66699 -14.334 -5 -20.001s-2 -8.83398 -2 -9.50098c0 -2 0.166992 -4.16699 0.5 -6.5s1.16602 -3.5 2.49902 -3.5c5.33301 0 11 4.33301 17 13c34 48 64 87.333 90 118s48.5 56 67.5 76l47 48.5c12.333 12.333 21.166 24.5 26.499 36.5
l11.5 22.5c3 5.66699 5.66699 9.83398 8 12.501s4.66602 4.33398 6.99902 5.00098s5.16602 1 8.49902 1c7.33301 0 13.166 -1.5 17.499 -4.5s10.5 -4.83301 18.5 -5.5c5.33301 -0.666992 10 -3.83398 14 -9.50098s6 -11.5 6 -17.5c0 -2 -1 -5.83301 -3 -11.5
s-4.33301 -10.5 -7 -14.5c-18 -29.333 -32.333 -55 -43 -77s-19.667 -45.667 -27 -71c-1.33301 -5.33301 -2.83301 -12 -4.5 -20s-3 -16.333 -4 -25s-1.83301 -17.167 -2.5 -25.5s-1 -14.833 -1 -19.5c0 -9.33301 1 -17.5 3 -24.5s3.66699 -13.167 5 -18.5
c1.33301 -9.33301 6.66602 -17 15.999 -23s15.666 -10.333 18.999 -13c4 -3.33301 7.5 -6.66602 10.5 -9.99902s4.5 -7.66602 4.5 -12.999c0 -3.33301 -2 -8.16602 -6 -14.499s-10.667 -9.5 -20 -9.5c-4 0 -12.167 1 -24.5 3s-21.5 5.66699 -27.5 11
c-7.33301 6.66699 -14 11.834 -20 15.501s-12.333 10.167 -19 19.5c-11.333 15.333 -17 36 -17 62c0 29.333 1.5 49.5 4.5 60.5s4.5 17.167 4.5 18.5c0 2.66699 -1 4 -3 4s-4 -1.33301 -6 -4l-52.5 -68.5c-14.333 -18.333 -27.5 -36.166 -39.5 -53.499
c-5.33301 -7.33301 -9.83301 -13.166 -13.5 -17.499s-7.16699 -7.83301 -10.5 -10.5s-6.5 -5 -9.5 -7s-6.16699 -5 -9.5 -9c-4 -4.66699 -10 -7.66699 -18 -9s-14.333 -2 -19 -2c-3.33301 0 -8.16602 1.66699 -14.499 5s-13.333 7.33301 -21 12s-14.834 9.66699 -21.501 15
s-11.667 10 -15 14c-2 2.66699 -3.66699 6.83398 -5 12.501s-2 11.167 -2 16.5c0 8 0.5 14.5 1.5 19.5s2.16699 9.66699 3.5 14l4 12.5c1.33301 4 2.33301 8.66699 3 14c0.666992 7.33301 2.83398 16.666 6.50098 27.999s8 23.333 13 36l15.5 38z" />
    <glyph glyph-name="o" unicode="o" horiz-adv-x="368" 
d="M344 460c4.66699 -12.667 10.6631 -24.998 17.9961 -36.998s18.333 -18 33 -18c20 0 36.5 0.5 49.5 1.5s25.167 1.5 36.5 1.5c16 0 30.333 -2.33301 43 -7s19 -11 19 -19c0 -3.33301 -1.33301 -6 -4 -8s-5.66699 -3.83301 -9 -5.5s-6.5 -3 -9.5 -4
s-4.83301 -2.16699 -5.5 -3.5c-1.33301 -3.33301 -5 -5.33301 -11 -6c-10 -1.33301 -21.667 -4 -35 -8s-26.666 -7 -39.999 -9c-10 -1.33301 -18.167 -2.16602 -24.5 -2.49902s-11.166 -0.5 -14.499 -0.5c-6.66699 0 -10.667 -2.66699 -12 -8
c-13.333 -54 -29.666 -103.667 -48.999 -149s-45 -85 -77 -119c-14 -15.333 -28.167 -29 -42.5 -41s-30.166 -18 -47.499 -18c-9.33301 0 -17.333 1.66699 -24 5c-19.333 9.33301 -35.5 19.333 -48.5 30s-21.833 21.667 -26.5 33c-5.33301 14 -9.16602 28.167 -11.499 42.5
s-3.5 27.833 -3.5 40.5c0 41.333 8.66699 80.166 26 116.499s37.666 71.833 60.999 106.5c3.33301 5.33301 6 9.16602 8 11.499s3.66699 4.16602 5 5.49902l5 5l6 8c8 11.333 16.5 22.5 25.5 33.5s18.5 20.833 28.5 29.5s20.333 15.667 31 21s21.667 8 33 8
c8 0 16.667 -1.33301 26 -4s18.333 -7.66699 27 -15c4 -3.33301 7 -6 9 -8s3.66699 -5 5 -9zM292.996 394.002c-2.66699 2.66699 -4.49805 5.33008 -5.49805 7.99707s-1.83301 5 -2.5 7c-3.33301 11.333 -6.66602 17 -9.99902 17c-4.66699 0 -9.66699 -3.33301 -15 -10
c-2 -2.66699 -5 -5.33398 -9 -8.00098s-7.33301 -5.66699 -10 -9c-8 -10 -19 -24.667 -33 -44s-27.833 -41.666 -41.5 -66.999s-25.5 -52.5 -35.5 -81.5s-15 -58.167 -15 -87.5c0 -1.33301 0.166992 -3.16602 0.5 -5.49902s1.16602 -5.16602 2.49902 -8.49902
c1.33301 -4 4.5 -9.66699 9.5 -17s9.83301 -12.666 14.5 -15.999c2 -1.33301 5 -2 9 -2c5.33301 0 9.33301 1 12 3s5 3.66699 7 5c3.33301 1.33301 6 3.16602 8 5.49902s5 6.5 9 12.5l42 64c13.333 20.667 25.166 41.834 35.499 63.501s18.666 43.834 24.999 66.501
s9.5 46.667 9.5 72v10c0 4.66699 -0.333008 8.33398 -1 11.001c-0.666992 3.33301 -1.5 5.66602 -2.5 6.99902s-2.16699 2.66602 -3.5 3.99902z" />
    <glyph glyph-name="p" unicode="p" horiz-adv-x="440" 
d="M240 472c0 -21.333 -3.66992 -43.0029 -11.0029 -65.0029s-14.333 -45.667 -21 -71c-1.33301 -4.66699 -1.66602 -7 -0.999023 -7c1.33301 0 2.66602 0.833008 3.99902 2.5s2.66602 3.16699 3.99902 4.5c22 25.333 44 48.5 66 69.5s44.333 37.5 67 49.5
c5.33301 2.66699 9 4.33398 11 5.00098s3.66699 1 5 1c14.667 0 29.167 -3.66699 43.5 -11s27.833 -15 40.5 -23c4.66699 -3.33301 9.16699 -7.66602 13.5 -12.999s6.5 -14.333 6.5 -27c0 -16.667 -0.666992 -30.167 -2 -40.5s-3 -20.166 -5 -29.499
c-1.33301 -4 -1.66602 -8.16699 -0.999023 -12.5s-0.666016 -10.833 -3.99902 -19.5l-33.5 -89.5c-10.333 -26.333 -20.833 -50 -31.5 -71s-22.167 -40 -34.5 -57s-26.833 -32.833 -43.5 -47.5c-3.33301 -3.33301 -7.66602 -5.33301 -12.999 -6s-10.333 -1 -15 -1
c-6 0 -12.333 1 -19 3s-13.334 4.5 -20.001 7.5s-12.5 6.16699 -17.5 9.5s-8.83301 6.33301 -11.5 9c-12.667 11.333 -23 23.166 -31 35.499s-15 24.833 -21 37.5c-1.33301 3.33301 -3.33301 5 -6 5s-4.66699 -1.66699 -6 -5
c-15.333 -29.333 -29.166 -57.166 -41.499 -83.499s-23.666 -53.166 -33.999 -80.499s-20 -56.166 -29 -86.499s-17.833 -63.833 -26.5 -100.5c-2.66699 -10.667 -3.5 -19.667 -2.5 -27s-2.16699 -12.333 -9.5 -15c-6.66699 -2.66699 -12.834 -4.33398 -18.501 -5.00098
s-11.167 -1 -16.5 -1c-6 0 -11.333 1 -16 3s-9.66699 5.66699 -15 11c-3.33301 3.33301 -6.33301 6.16602 -9 8.49902s-4.33398 7.16602 -5.00098 14.499c0 2 0.333008 4.5 1 7.5s2 7.83301 4 14.5c14.667 48 32.834 100.833 54.501 158.5l65.5 177
c22 60.333 42.333 120.5 61 180.5s32.334 116.667 41.001 170c1.33301 8.66699 2.83301 13.834 4.5 15.501s4.16699 3.16699 7.5 4.5c6 2 12 4.33301 18 7s12.667 4 20 4c8 0 15.5 -2 22.5 -6s10.5 -8.66699 10.5 -14zM374.997 386.997
c-35.333 -22.667 -65.833 -48.666 -91.5 -77.999s-48.5 -60 -68.5 -92c-3.33301 -5.33301 -5.33301 -9.83301 -6 -13.5s-1 -8.83398 -1 -15.501c0 -5.33301 1.83301 -14 5.5 -26s8.16699 -24 13.5 -36s11.5 -22.5 18.5 -31.5s13.5 -13.5 19.5 -13.5
c2.66699 0 5.33398 1.33301 8.00098 4c8 8 16.333 19.333 25 34s16.5 29.5 23.5 44.5s12.833 28.5 17.5 40.5s7.33398 19.667 8.00098 23c9.33301 28 16.666 52 21.999 72s9.16602 36.333 11.499 49s3.83301 22 4.5 28s1 9.33301 1 10c0 2 -1.33301 3 -4 3
c-2 0 -4.33301 -0.666992 -7 -2z" />
    <glyph glyph-name="q" unicode="q" horiz-adv-x="386" 
d="M449 410c0 -6.66699 -1.66895 -13.4971 -5.00195 -20.4971s-7 -13.5 -11 -19.5l-11 -17c-3.33301 -4.66699 -5 -8.66699 -5 -12c0 -6 1.83301 -10.333 5.5 -13s5.5 -6 5.5 -10c0 -1.33301 -0.333008 -2.66602 -1 -3.99902s-2.66699 -4 -6 -8
c-66.667 -88.667 -122.334 -183.834 -167.001 -285.501s-82 -205.834 -112 -312.501c-2.66699 -9.33301 -4 -20.333 -4 -33s-2 -24.667 -6 -36c-2 -5.33301 -5.33301 -12 -10 -20s-10.334 -12 -17.001 -12c-11.333 0 -21.833 2.33301 -31.5 7s-17.167 9.33398 -22.5 14.001
c-2.66699 2 -4.16699 3.5 -4.5 4.5s-0.5 2.16699 -0.5 3.5c0 3.33301 0.333008 6.66602 1 9.99902c7.33301 38 16.833 75.333 28.5 112l36.5 110l8.5 24.5c1.66699 5 3.5 11.167 5.5 18.5c4 15.333 8 27.666 12 36.999s8 18.166 12 26.499s8 17.166 12 26.499
s8 21.666 12 36.999c0 4 -2.33301 6 -7 6l-24 -4.5c-8.66699 -1.66699 -16.667 -2.5 -24 -2.5s-15.166 1 -23.499 3s-16.166 5 -23.499 9l-14 9c-11.333 7.33301 -19.833 17.833 -25.5 31.5s-8.5 28.167 -8.5 43.5c0 6.66699 1 13.334 3 20.001s4 12.667 6 18
c12.667 32.667 29.334 64.334 50.001 95.001s43.667 58.667 69 84s52.5 47.5 81.5 66.5s58.833 33.167 89.5 42.5c8 2.66699 15.5 4.66699 22.5 6s14.5 2 22.5 2c9.33301 0 18.833 -1.16699 28.5 -3.5s18.334 -5.83301 26.001 -10.5s14 -10.5 19 -17.5s7.5 -15.5 7.5 -25.5z
M365.998 392.003c0 3.33301 -1.66309 5.33594 -4.99609 6.00293s-6.33301 1 -9 1c-4 0 -7.83301 -0.833008 -11.5 -2.5s-6.83398 -3.16699 -9.50098 -4.5c-5.33301 -3.33301 -9.33301 -4.83301 -12 -4.5s-8 -2.16699 -16 -7.5c-18 -11.333 -36.333 -24.5 -55 -39.5
s-36.334 -31 -53.001 -48s-31.834 -34.5 -45.501 -52.5s-24.834 -35.333 -33.501 -52c-9.33301 -19.333 -15.5 -34.833 -18.5 -46.5s-4.5 -22.834 -4.5 -33.501c0 -3.33301 1.83301 -6.16602 5.5 -8.49902s7.16699 -3.5 10.5 -3.5c2 0 4.66699 0.5 8 1.5s6 1.83301 8 2.5
c6.66699 1.33301 13.334 4.66602 20.001 9.99902c30 22.667 57.5 46.167 82.5 70.5s48.167 52.5 69.5 84.5c5.33301 8 8 13 8 15c0 3.33301 -1 5.66602 -3 6.99902s-3 3.66602 -3 6.99902s7.33301 13.333 22 30c11.333 12 21.666 23.5 30.999 34.5s14 22.167 14 33.5z" />
    <glyph glyph-name="r" unicode="r" horiz-adv-x="300" 
d="M200 438c4.66699 -7.33301 8.33301 -15.4971 11 -24.4971s4 -19.5 4 -31.5c0 -10.667 -2 -22 -6 -34c-1.33301 -6 -2.33301 -9.83301 -3 -11.5s-1 -3.16699 -1 -4.5c0 -2.66699 1 -4 3 -4c0.666992 0 2 0.5 4 1.5s5 3.16699 9 6.5c55.333 42 101.666 69.333 138.999 82
c4 1.33301 8 2 12 2c14 0 27.5 -2.16699 40.5 -6.5s23.833 -11.5 32.5 -21.5c4.66699 -4.66699 7 -10.334 7 -17.001c0 -8 -1.5 -14.667 -4.5 -20s-6.33301 -9.83301 -10 -13.5s-7.5 -6.33398 -11.5 -8.00098s-7 -2.5 -9 -2.5c-7.33301 0 -14.833 1.66699 -22.5 5
s-15.167 5 -22.5 5c-1.33301 0 -3.16602 -0.166992 -5.49902 -0.5s-5.83301 -1.5 -10.5 -3.5c-27.333 -12.667 -54.166 -27.834 -80.499 -45.501s-50.833 -38.334 -73.5 -62.001s-42.5 -50.334 -59.5 -80.001s-29.833 -62.834 -38.5 -99.501
c-3.33301 -15.333 -7.5 -26.5 -12.5 -33.5s-9.16699 -11.833 -12.5 -14.5c-2.66699 -3.33301 -5.83398 -5.66602 -9.50098 -6.99902s-6.5 -2 -8.5 -2c-8 0.666992 -14.167 3.33398 -18.5 8.00098s-8.16602 9 -11.499 13c-5.33301 5.33301 -9.66602 11.5 -12.999 18.5
s-5.33301 13.5 -6 19.5c0 8.66699 2.16699 17.167 6.5 25.5s9.5 16.833 15.5 25.5l18 26.5c6 9 10.667 18.167 14 27.5l38 114c12.667 38 23 77 31 117l1 10c0.666992 2.66699 1 4.66699 1 6c0 3.33301 -1.33301 6.83301 -4 10.5s-4.33398 7.83398 -5.00098 12.501
c0 4 3.66699 8.66699 11 14s16.666 8 27.999 8c7.33301 0 14.333 -1.16699 21 -3.5s10.667 -4.83301 12 -7.5z" />
    <glyph glyph-name="s" unicode="s" horiz-adv-x="296" 
d="M347 464c7.33301 -7.33301 12.3252 -17.501 14.9922 -30.501s4 -24.5 4 -34.5c0 -19.333 -3 -35.666 -9 -48.999s-12.667 -24.666 -20 -33.999c-4 -5.33301 -6.66699 -8.5 -8 -9.5s-3.33301 -1.5 -6 -1.5c-5.33301 0 -11.666 1.33301 -18.999 4
s-12.666 5.66699 -15.999 9c-10 8 -15 18.667 -15 32c0 2 1 4.66699 3 8c4.66699 7.33301 8.66699 14.666 12 21.999s5 15.333 5 24c0 4 -0.666992 8.66699 -2 14s-3 9.66602 -5 12.999s-5.16699 6.5 -9.5 9.5s-8.5 4.5 -12.5 4.5c-2 0 -5.83301 -3.16699 -11.5 -9.5
s-11.834 -14.5 -18.501 -24.5s-13 -21.167 -19 -33.5s-10 -24.166 -12 -35.499c-0.666992 -3.33301 -1.16699 -7 -1.5 -11s-0.5 -9 -0.5 -15c0 -1.33301 0.333008 -4.83301 1 -10.5s1.33398 -12 2.00098 -19l2 -20c0.666992 -6.33301 1.33398 -11.166 2.00098 -14.499
c2 -18.667 4.83301 -39.167 8.5 -61.5l11 -65.5c3.66699 -21.333 6.66699 -41 9 -59s3.5 -32 3.5 -42c0 -6.66699 -2.66699 -12.667 -8 -18c-9.33301 -9.33301 -18.833 -17.666 -28.5 -24.999s-21.167 -11 -34.5 -11c-10 0 -18.333 1.33301 -25 4
c-33.333 13.333 -61.833 32 -85.5 56s-43.834 50 -60.501 78c-1.33301 2.66699 -2.66602 5.5 -3.99902 8.5s-2 5.16699 -2 6.5c0 7.33301 3.33301 15.333 10 24s15.334 13 26.001 13c10 0 17.667 -0.833008 23 -2.5s10.333 -5.5 15 -11.5c6 -8 11.333 -16.333 16 -25l14 -25
c4.66699 -8 9.83398 -16 15.501 -24s12.167 -15.333 19.5 -22c5.33301 -4.66699 9.33301 -7.66699 12 -9s5.33398 -2 8.00098 -2c6.66699 0 10 2.66699 10 8c0 2 -0.166992 4.5 -0.5 7.5s-1.83301 10.833 -4.5 23.5c-3.33301 16.667 -7 37.334 -11 62.001s-7.5 49 -10.5 73
s-5.5 45.5 -7.5 64.5s-3 31.167 -3 36.5c0 6.66699 0.666992 15 2 25s3.5 20.667 6.5 32s6.83301 22.666 11.5 33.999s10 21.666 16 30.999c14.667 23.333 30.834 39.833 48.501 49.5s31.167 14.5 40.5 14.5c27.333 0 47.833 -3.33301 61.5 -10
s25.834 -15.334 36.501 -26.001z" />
    <glyph glyph-name="t" unicode="t" horiz-adv-x="262" 
d="M360 637c-3.33301 -19.333 -8.50391 -38.1689 -15.5039 -56.502s-15 -36.333 -24 -54l-27.5 -52.5c-9.33301 -17.333 -18 -34.333 -26 -51c-2.66699 -5.33301 -5.33398 -11.333 -8.00098 -18l-7.5 -19.5c-2.33301 -6.33301 -4.16602 -11.833 -5.49902 -16.5
s-2 -7.33398 -2 -8.00098c0 -2 1.33301 -3 4 -3c1.33301 0 4.5 0.333008 9.5 1s10.167 1.66699 15.5 3c22 4.66699 45.667 11.667 71 21s46.333 19 63 29c5.33301 3.33301 9 5 11 5c4 0 8.83301 -0.833008 14.5 -2.5s11 -3.66699 16 -6s9.33301 -5.16602 13 -8.49902
s5.5 -6.33301 5.5 -9c0 -6.66699 -2.66699 -13.5 -8 -20.5s-13.666 -12.833 -24.999 -17.5c-13.333 -5.33301 -22 -9.33301 -26 -12s-10.333 -5.66699 -19 -9c-12 -4.66699 -26 -9.33398 -42 -14.001l-46.5 -13l-40.5 -10.5c-12 -3 -20.667 -5.5 -26 -7.5
c-8.66699 -2.66699 -15 -7.66699 -19 -15s-7.33301 -15.333 -10 -24s-5 -16.667 -7 -24c-1.33301 -5.33301 -3.16602 -10.666 -5.49902 -15.999s-4.16602 -10.666 -5.49902 -15.999c-1.33301 -8 -4.33301 -19 -9 -33l-14.5 -44.5c-5 -15.667 -9.66699 -31.5 -14 -47.5
s-7.16602 -30.333 -8.49902 -43c-0.666992 -4.66699 -3.16699 -12 -7.5 -22s-10.166 -16.667 -17.499 -20c-2 -1.33301 -4.5 -2.16602 -7.5 -2.49902s-5.5 -0.5 -7.5 -0.5c-6 0 -12.5 1 -19.5 3s-12.5 4.66699 -16.5 8c-7.33301 5.33301 -11 13.333 -11 24
c0 4 0.333008 8.83301 1 14.5s1.66699 10.834 3 15.501c12.667 37.333 24.334 76.666 35.001 117.999s24 81.333 40 120c1.33301 4 2 6.33301 2 7c0 2 -1.66699 4 -5 6c-9.33301 4.66699 -16.833 9.66699 -22.5 15s-10.667 10.666 -15 15.999s-8.5 10.833 -12.5 16.5
s-9 10.834 -15 15.501c-2.66699 2 -4.16699 4.16699 -4.5 6.5s-0.5 4.16602 -0.5 5.49902c0 3.33301 1 5.83301 3 7.5s5 3.5 9 5.5l9 3.5c2.66699 1 6.33398 1.5 11.001 1.5c11.333 0 22.666 -2.66699 33.999 -8s21.666 -8 30.999 -8s15 4.66699 17 14
c3.33301 12 8.66602 27.667 15.999 47l38.5 101.5c13.667 37 29.167 73.833 46.5 110.5c3.33301 6.66699 5.5 10.5 6.5 11.5s2.5 1.5 4.5 1.5c8 0 13.333 0.833008 16 2.5s6.66699 2.5 12 2.5c4.66699 0 10.667 -0.666992 18 -2s14 -3.33301 20 -6s9 -5 9 -7v-4
c0 -1.33301 -0.333008 -3.66602 -1 -6.99902z" />
    <glyph glyph-name="u" unicode="u" horiz-adv-x="420" 
d="M237 451c1.33301 -3.33301 3.50195 -7.00098 6.50195 -11.001s4.5 -8.66699 4.5 -14c0 -4 -1.5 -8.5 -4.5 -13.5s-8.16699 -10.167 -15.5 -15.5c-4 -2.66699 -8.83301 -7.33398 -14.5 -14.001s-10.5 -17.667 -14.5 -33c-6 -22 -12.667 -44.5 -20 -67.5l-22 -68.5
c-7.33301 -22.667 -14 -44.5 -20 -65.5s-10.333 -40.5 -13 -58.5c-1.33301 -6.66699 -2 -11.667 -2 -15v-8c0 -2.66699 1.5 -5.66699 4.5 -9s6.16699 -5 9.5 -5c1.33301 0 4.5 0.833008 9.5 2.5s9.16699 4.16699 12.5 7.5l21 20c5.33301 5.33301 9.66602 10 12.999 14
s6.33301 7.83301 9 11.5s6 7.83398 10 12.501c31.333 34 60 69.333 86 106s47 76 63 118c2.66699 6.66699 4.83398 11.167 6.50098 13.5s5.5 5.16602 11.5 8.49902c4.66699 2.66699 8.66699 4.33398 12 5.00098s7 1 11 1s8.16699 -1.33301 12.5 -4
s8.16602 -4.66699 11.499 -6c8 -2.66699 13.333 -5.5 16 -8.5s4 -6.16699 4 -9.5c0 -8 -0.5 -13.667 -1.5 -17s-2.5 -7.33301 -4.5 -12c-17.333 -36.667 -32.333 -73.5 -45 -110.5s-22 -75.5 -28 -115.5c-1.33301 -10.667 -2.66602 -22.167 -3.99902 -34.5
s-2 -25.5 -2 -39.5c0 -12.667 3 -24.167 9 -34.5s9 -21.166 9 -32.499c0 -3.33301 -0.5 -6.83301 -1.5 -10.5s-2.5 -6.16699 -4.5 -7.5c-3.33301 -2 -8 -3 -14 -3c-7.33301 0 -14.166 1.66699 -20.499 5s-12.166 6.66602 -17.499 9.99902
c-4.66699 2.66699 -8.33398 4.5 -11.001 5.5l-6.5 2.5c-1.66699 0.666992 -3 1.66699 -4 3s-2.16699 4 -3.5 8c-4 10 -6.66699 20 -8 30s-2 20 -2 30c0 12.667 0.5 25.834 1.5 39.501s1.5 23.167 1.5 28.5c0 4 -1.33301 6 -4 6c-2 0 -4.33301 -1.33301 -7 -4
s-5 -5.33398 -7 -8.00098c-17.333 -20 -35 -38.5 -53 -55.5s-37.667 -30.833 -59 -41.5c-4 -2 -6.66699 -3.16699 -8 -3.5s-3 -0.5 -5 -0.5s-9.33301 1.33301 -22 4s-25.334 7.66699 -38.001 15c-18 11.333 -28 21.666 -30 30.999c-1.33301 7.33301 -2.5 15 -3.5 23
s-1.5 14.667 -1.5 20c0 18 2.5 37.167 7.5 57.5s10.167 39.166 15.5 56.499c2 6.66699 3.66699 12.5 5 17.5s2.5 9.83301 3.5 14.5s2.16699 9.33398 3.5 14.001l5 17c5.33301 14.667 10.166 29.834 14.499 45.501s9 31.334 14 47.001s10.833 31.5 17.5 47.5s14.667 32 24 48
c5.33301 9.33301 11.833 16 19.5 20s15.5 6 23.5 6c5.33301 0 11.666 -1.33301 18.999 -4s12.333 -6.66699 15 -12z" />
    <glyph glyph-name="v" unicode="v" horiz-adv-x="378" 
d="M198 329l-26.501 -120.499l-26.5 -120.5c-1.33301 -7.33301 -2.16602 -11.833 -2.49902 -13.5s-0.5 -3.5 -0.5 -5.5c0 -4 2.66699 -6 8 -6c3.33301 0 7.16602 0.666992 11.499 2s9.16602 5 14.499 11c17.333 20.667 35.666 47.5 54.999 80.5s36 66.833 50 101.5
c4 10 6.5 17.833 7.5 23.5s3.16699 12.167 6.5 19.5c2 5.33301 3.83301 12.833 5.5 22.5s2.5 19.834 2.5 30.501c0 11.333 -3.66699 20.666 -11 27.999c-3.33301 3.33301 -6.5 7.5 -9.5 12.5s-4.5 10.167 -4.5 15.5c0 6.66699 2.66699 12.334 8 17.001s13 7 23 7
c13.333 0 23.833 -1.66699 31.5 -5s14.834 -10.666 21.501 -21.999c8 -13.333 16 -22 24 -26s16 -6 24 -6c10.667 0 21.334 1.66699 32.001 5s21.167 7.16602 31.5 11.499s20.666 8.16602 30.999 11.499s21.166 5 32.499 5c6 0 13.333 -1 22 -3s17 -5.66699 25 -11
c6 -3.33301 9.66699 -6.5 11 -9.5s2 -7.16699 2 -12.5c0 -1.33301 -0.333008 -2.5 -1 -3.5s-2.66699 -2.5 -6 -4.5c-13.333 -7.33301 -26.666 -13.333 -39.999 -18s-25.666 -8.66699 -36.999 -12s-21.833 -6.16602 -31.5 -8.49902s-17.5 -4.83301 -23.5 -7.5l-12 -4
c-4 -1.33301 -7.66699 -2 -11 -2c-7.33301 0 -14.666 1 -21.999 3s-14.333 3 -21 3c-3.33301 0 -5.83301 -0.166992 -7.5 -0.5s-3.83398 -1.5 -6.50098 -3.5c-2 -1.33301 -3.66699 -4 -5 -8s-3.66602 -12 -6.99902 -24c-12 -46 -29.5 -88.833 -52.5 -128.5
s-49.5 -78.167 -79.5 -115.5c-9.33301 -12 -16.666 -20.167 -21.999 -24.5s-11 -9.83301 -17 -16.5c-4 -4.66699 -9.33301 -8.5 -16 -11.5s-13.334 -4.5 -20.001 -4.5c-10 0 -17.833 2.5 -23.5 7.5s-13.167 10.833 -22.5 17.5l-19 13
c-4.66699 3.33301 -8.33398 6.33301 -11.001 9s-4.66699 5.5 -6 8.5s-2.66602 6.83301 -3.99902 11.5c-1.33301 3.33301 -2.16602 7.33301 -2.49902 12s-0.5 8.66699 -0.5 12c0 10.667 0.666992 20.167 2 28.5s3.66602 19.166 6.99902 32.499
c0.666992 4 1.33398 7.5 2.00098 10.5s1.5 7.16699 2.5 12.5s2.5 12 4.5 20l8 33l29.5 120c9.66699 40 17.167 80.333 22.5 121c1.33301 8 5.16602 13.667 11.499 17s10.5 5 12.5 5c3.33301 0 7 -0.333008 11 -1s8 -1 12 -1c5.33301 0 10.333 -0.333008 15 -1
s9.33398 -3 14.001 -7c3.33301 -2.66699 5 -7.66699 5 -15c0 -15.333 -1.16699 -27.833 -3.5 -37.5s-5 -18.334 -8 -26.001s-6.33301 -15.5 -10 -23.5s-6.83398 -18.333 -9.50098 -31z" />
    <glyph glyph-name="w" unicode="w" horiz-adv-x="540" 
d="M257 462c0 -3.33301 -0.833008 -6.66699 -2.5 -10s-3.5 -6.66602 -5.5 -9.99902c-3.33301 -4.66699 -6 -10 -8 -16s-3.66699 -10.667 -5 -14c-20 -48 -37.667 -96.167 -53 -144.5l-48 -147.5c-2.66699 -8 -4 -13.333 -4 -16c0 -2 1 -3 3 -3
c0.666992 0 1.66699 0.333008 3 1s3.33301 2.16699 6 4.5s6.33398 5.83301 11.001 10.5s10.667 11.334 18 20.001c30.667 36 59 73.5 85 112.5s47.667 79.167 65 120.5c2.66699 6 6.33398 9.83301 11.001 11.5s9.66699 2.5 15 2.5s9.66602 -0.333008 12.999 -1
s6.66602 -1 9.99902 -1c7.33301 0 14.333 -3.16699 21 -9.5s10 -13.166 10 -20.499s-2.16699 -15.833 -6.5 -25.5s-13.166 -25.5 -26.499 -47.5c-7.33301 -12 -12 -22 -14 -30s-4.33301 -14.667 -7 -20c-11.333 -24.667 -20.333 -50.834 -27 -78.501s-10 -55.5 -10 -83.5
c0 -6.66699 2 -11.5 6 -14.5s7 -4.5 9 -4.5c3.33301 0 9 1.83301 17 5.5s16.667 11.5 26 23.5c14.667 18.667 26.5 39.167 35.5 61.5s16 43.5 21 63.5s8.33301 37 10 51s2.5 22.333 2.5 25c0 7.33301 0.833008 13.833 2.5 19.5s2.5 11.5 2.5 17.5
c0 14 -3.33301 28.333 -10 43s-10 27.667 -10 39c0 3.33301 0.666992 7.33301 2 12s4.33301 8.66699 9 12c2.66699 2 9.16699 3.5 19.5 4.5s17.833 1.5 22.5 1.5c4 0 6.83301 -0.333008 8.5 -1s3.5 -2 5.5 -4l8 -8c3.33301 -3.33301 8.66602 -7.33301 15.999 -12
c9.33301 -6 19 -10 29 -12s25.667 -3 47 -3s42.5 2 63.5 6s44.5 6 70.5 6c4.66699 0 9.66699 -1.16699 15 -3.5s8 -10.5 8 -24.5c0 -13.333 -16 -23.666 -48 -30.999c-16 -4 -29.333 -7.5 -40 -10.5l-28.5 -8c-8.33301 -2.33301 -15.833 -4.16602 -22.5 -5.49902
s-13.667 -2 -21 -2c-21.333 0 -36.333 1.33301 -45 4s-15 4 -19 4c-6 0 -9 -4.33301 -9 -13v-20c0 -8.66699 -0.333008 -15.667 -1 -21c-2.66699 -50 -14 -98.5 -34 -145.5s-47.667 -88.167 -83 -123.5c-5.33301 -5.33301 -11.166 -9.5 -17.499 -12.5
s-15.166 -4.5 -26.499 -4.5c-13.333 0 -27.5 2.83301 -42.5 8.5s-29.167 12.167 -42.5 19.5c-6 3.33301 -12.167 9 -18.5 17s-9.5 17.667 -9.5 29c0 9.33301 0.5 16.666 1.5 21.999s1.5 11 1.5 17c0 5.33301 -1 8 -3 8s-7.33301 -4.33301 -16 -13
c-7.33301 -7.33301 -14.333 -15.333 -21 -24s-13.5 -16.667 -20.5 -24s-14.667 -13.333 -23 -18s-17.833 -7 -28.5 -7c-8 0 -14 1.5 -18 4.5s-12 6.83301 -24 11.5c-8 3.33301 -14.833 7 -20.5 11s-9.16699 7 -10.5 9s-2.83301 6 -4.5 12s-2.5 11.667 -2.5 17
s0.333008 10.333 1 15s1.66699 8.66699 3 12c7.33301 30 16.333 60 27 90l32 89c10.667 29.333 20.5 58.666 29.5 87.999s15.5 58.666 19.5 87.999c0.666992 3.33301 3.16699 7 7.5 11s8.16602 6.66699 11.499 8c4.66699 1.33301 9 2.16602 13 2.49902s7.66699 0.5 11 0.5
c5.33301 0 10 -0.166992 14 -0.5s8.66699 -0.5 14 -0.5c3.33301 0 8.16602 -2.16699 14.499 -6.5s9.5 -9.83301 9.5 -16.5z" />
    <glyph glyph-name="x" unicode="x" horiz-adv-x="334" 
d="M190 432c4.66699 -5.33301 8.82812 -10.501 12.4951 -15.501s6.83398 -11.667 9.50098 -20s5.16699 -18.666 7.5 -30.999s4.83301 -28.166 7.5 -47.499c1.33301 -8.66699 2.5 -14 3.5 -16s2.16699 -3 3.5 -3c2 0 4.33301 1.16699 7 3.5s5.33398 4.5 8.00098 6.5
c26 21.333 52 41.5 78 60.5l77 57.5c4 3.33301 7.16699 5.33301 9.5 6s6.83301 1 13.5 1c5.33301 0 10.5 -0.833008 15.5 -2.5s9.16699 -4.5 12.5 -8.5c4.66699 -6 9 -11.333 13 -16s6 -11.334 6 -20.001c0 -2.66699 -1.83301 -4.83398 -5.5 -6.50098
s-6.83398 -3.16699 -9.50098 -4.5c-37.333 -21.333 -72.666 -45 -105.999 -71s-65.666 -53 -96.999 -81c-5.33301 -4.66699 -9.33301 -8.33398 -12 -11.001s-4.5 -5.16699 -5.5 -7.5s-1.66699 -5 -2 -8s-0.5 -6.83301 -0.5 -11.5c0 -38.667 2 -74.667 6 -108s6 -67 6 -101
c0 -12.667 -0.333008 -23.334 -1 -32.001s-2.33398 -22 -5.00098 -40c-0.666992 -3.33301 -3.16699 -6 -7.5 -8s-9.16602 -3 -14.499 -3c-4 0 -7.5 0.333008 -10.5 1s-6.16699 1 -9.5 1s-6 1 -8 3s-5.66699 4.66699 -11 8c-4.66699 2.66699 -8.83398 5.5 -12.501 8.5
s-6.16699 7.16699 -7.5 12.5c-1.33301 6.66699 -2 12.667 -2 18c0 7.33301 0.833008 14.5 2.5 21.5s3.83398 13.167 6.50098 18.5s4 8.66602 4 9.99902c0 2.66699 -0.166992 5.33398 -0.5 8.00098s-0.833008 6.33398 -1.5 11.001c-2 16.667 -3.5 32.667 -4.5 48
s-2.5 31 -4.5 47c-1.33301 7.33301 -2.16602 11.833 -2.49902 13.5s-1.16602 2.5 -2.49902 2.5s-2.5 -0.666992 -3.5 -2l-6.5 -9c-2.66699 -4 -7 -9.33301 -13 -16l-19 -21c-6.66699 -7.33301 -12.834 -15.166 -18.501 -23.499s-9.5 -15.833 -11.5 -22.5
c-1.33301 -4 -3.5 -7.66699 -6.5 -11s-6.83301 -6.66602 -11.5 -9.99902c-9.33301 -7.33301 -20 -11 -32 -11c-1.33301 0 -4.33301 1.66699 -9 5s-9.66699 7.66602 -15 12.999s-9.16602 9.83301 -11.499 13.5s-3.5 8.16699 -3.5 13.5c0 2 0.333008 3.83301 1 5.5
s3.66699 5.5 9 11.5l70.5 79.5l69.5 77.5c4 4.66699 6.33301 8.16699 7 10.5s1 6.83301 1 13.5c0 4.66699 -0.166992 13 -0.5 25s-1.16602 25.167 -2.49902 39.5s-3.5 28.833 -6.5 43.5s-7.16699 27.667 -12.5 39c-4.66699 8.66699 -7.66699 13 -9 13s-3.33301 1.66699 -6 5
c-2 2.66699 -3.16699 5.83398 -3.5 9.50098s-0.5 6.5 -0.5 8.5c0 8 4.66699 13.667 14 17s17.666 5 24.999 5c9.33301 0 16.833 -1.33301 22.5 -4s11.167 -6.66699 16.5 -12z" />
    <glyph glyph-name="y" unicode="y" horiz-adv-x="436" 
d="M252 460c0 -8.66699 -0.660156 -16.0039 -1.99316 -22.0039s-4 -12.667 -8 -20s-7.33301 -12.833 -10 -16.5s-4.83398 -6.5 -6.50098 -8.5s-3.16699 -3.66699 -4.5 -5s-3 -4 -5 -8c-8.66699 -18.667 -16 -36.167 -22 -52.5s-11.5 -32.333 -16.5 -48
s-9.83301 -31.834 -14.5 -48.501s-10.334 -35 -17.001 -55c-2 -6 -3.5 -11.5 -4.5 -16.5s-2.16699 -10.167 -3.5 -15.5s-2.5 -10.666 -3.5 -15.999s-1.5 -10.666 -1.5 -15.999c0 -10.667 1.66699 -16 5 -16c6.66699 0 14 2 22 6c9.33301 4.66699 20.166 11.5 32.499 20.5
s27.833 24.167 46.5 45.5c4 4.66699 9.16699 10 15.5 16s13.5 14 21.5 24c8 9.33301 16.833 18.833 26.5 28.5s20 21.667 31 36s22.5 32 34.5 53s24 47.5 36 79.5c1.33301 4 4.83301 10 10.5 18s10.834 12 15.501 12c5.33301 0 9.83301 -1.16699 13.5 -3.5
s9.5 -3.5 17.5 -3.5s14.333 -1.16699 19 -3.5s8.16699 -5.33301 10.5 -9s3.83301 -7.66699 4.5 -12s1 -8.16602 1 -11.499c0 -9.33301 -2.5 -18.166 -7.5 -26.499s-10.167 -16.5 -15.5 -24.5l-19 -30c-12.667 -19.333 -24 -39.833 -34 -61.5s-19 -44.167 -27 -67.5
c-2 -6 -5.66699 -16.167 -11 -30.5l-17 -45l-16.5 -44.5l-10.5 -30l-9.5 -29c-1.66699 -5.33301 -2.5 -9 -2.5 -11c0 -1.33301 1.33301 -2 4 -2c1.33301 0 2.83301 0.166992 4.5 0.5s3.16699 0.5 4.5 0.5c3.33301 0 7.16602 -1 11.499 -3s6.5 -4.66699 6.5 -8
c0 -7.33301 -0.666992 -12.833 -2 -16.5s-2.66602 -6.5 -3.99902 -8.5c-34 -45.333 -60.167 -91.666 -78.5 -138.999s-32.5 -95 -42.5 -143c-2 -10 -3.83301 -20.833 -5.5 -32.5s-4.5 -22.667 -8.5 -33s-9.66699 -19.333 -17 -27s-17.666 -12.5 -30.999 -14.5
c-4 -0.666992 -8 -1.5 -12 -2.5s-9 -1.5 -15 -1.5c-4 0 -8.16699 0.333008 -12.5 1s-8.33301 2.16699 -12 4.5s-6.83398 6 -9.50098 11s-4 12.167 -4 21.5c0 19.333 7 45.666 21 78.999c11.333 26 24.166 53.833 38.499 83.5s30.166 58.834 47.499 87.501
c0.666992 4.66699 2.83398 13.834 6.50098 27.501s8.33398 30 14.001 49l19 61l20.5 63.5c4 13.333 7.33301 24 10 32s4.5 14.167 5.5 18.5s1.66699 7.33301 2 9s0.5 2.83398 0.5 3.50098c0 2.66699 -1 4 -3 4s-6.66699 -3.66699 -14 -11
c-8.66699 -8.66699 -18.834 -17.5 -30.501 -26.5s-23 -17.333 -34 -25s-20.667 -13.834 -29 -18.501s-13.833 -7 -16.5 -7c-41.333 0 -73 13.333 -95 40c-2.66699 3.33301 -4.33398 6.16602 -5.00098 8.49902s-1 7.5 -1 15.5c0 34.667 3.5 67 10.5 97s15.833 59.333 26.5 88
l33.5 86.5c11.667 29 22.5 59.833 32.5 92.5c3.33301 10 9.16602 17.333 17.499 22s14.166 7 17.499 7c2.66699 0 6.66699 -0.833008 12 -2.5s10.666 -2.5 15.999 -2.5s11 -2 17 -6s9 -9.33301 9 -16z" />
    <glyph glyph-name="z" unicode="z" horiz-adv-x="384" 
d="M428 410c2.66699 -7.33301 4.00195 -14.334 4.00195 -21.001c0 -8 -1.5 -14.833 -4.5 -20.5s-7.5 -11.334 -13.5 -17.001s-13.5 -11.834 -22.5 -18.501s-19.167 -14.667 -30.5 -24c-4 -3.33301 -6 -6 -6 -8s3.66699 -3 11 -3c13.333 0 27.5 -1.83301 42.5 -5.5
s27.167 -10.834 36.5 -21.501c3.33301 -4 5.5 -6.83301 6.5 -8.5s1.5 -3.83398 1.5 -6.50098c-2 -5.33301 -4.5 -9.16602 -7.5 -11.499s-8.16699 -3.5 -15.5 -3.5c-8.66699 0 -19.5 -0.666992 -32.5 -2s-27.167 -3.16602 -42.5 -5.49902s-31.166 -5.16602 -47.499 -8.49902
s-31.833 -7.33301 -46.5 -12c-13.333 -4 -22.166 -7.16699 -26.499 -9.5s-9.83301 -6.5 -16.5 -12.5c-8 -7.33301 -16.333 -15.666 -25 -24.999l-25.5 -28.5c-8.33301 -9.66699 -16.5 -18.667 -24.5 -27s-15 -15.166 -21 -20.499c-4 -3.33301 -7 -8.16602 -9 -14.499
s-3 -10.5 -3 -12.5c0 -3.33301 1 -6 3 -8s5.66699 -4.33301 11 -7c11.333 -5.33301 21 -8 29 -8c10 0 20.667 2 32 6s22.666 6 33.999 6c10.667 0 20.834 2 30.501 6s19.167 8.5 28.5 13.5s18.833 9.5 28.5 13.5s19.5 6 29.5 6c7.33301 0 14.666 -1.16699 21.999 -3.5
s15 -7.16602 23 -14.499c4.66699 -4 7 -10.333 7 -19c0 -1.33301 -0.333008 -2.83301 -1 -4.5s-3.66699 -3.5 -9 -5.5l-50 -20.5c-17.333 -7 -34.833 -13.5 -52.5 -19.5s-35.834 -11 -54.501 -15s-37.334 -6 -56.001 -6c-17.333 0 -35.833 2.33301 -55.5 7
s-36.167 11 -49.5 19c-12 7.33301 -20 16.666 -24 27.999s-6 22.666 -6 33.999c0 3.33301 0.166992 7.66602 0.5 12.999s1.16602 9.33301 2.49902 12c6.66699 14 15.167 26.833 25.5 38.5l31.5 34.5c5.33301 5.33301 9.5 10 12.5 14s4.5 7 4.5 9s-0.5 3.5 -1.5 4.5
s-4.83301 2.5 -11.5 4.5c-6 2 -11.833 4.33301 -17.5 7s-10.167 7.33398 -13.5 14.001c-4.66699 8 -7.83398 14.167 -9.50098 18.5s-2.5 9.16602 -2.5 14.499c0 4.66699 2.66699 9 8 13s11.333 6 18 6c11.333 0 22.333 -2.33301 33 -7s24.334 -7 41.001 -7
s31.167 3.5 43.5 10.5s23.666 15.333 33.999 25s20.333 19.667 30 30s20.167 18.5 31.5 24.5c13.333 7.33301 24.5 16 33.5 26s13.5 18 13.5 24c0 2.66699 -1.83301 4.5 -5.5 5.5s-7.16699 1.5 -10.5 1.5c-8 0 -14.667 -1.33301 -20 -4s-15.333 -4.66699 -30 -6
c-19.333 -2 -36.833 -7.5 -52.5 -16.5s-29.167 -20.167 -40.5 -33.5c-0.666992 -0.666992 -1.5 -1.16699 -2.5 -1.5s-3.16699 -0.5 -6.5 -0.5s-8.33301 3 -15 9s-11.334 12.667 -14.001 20c-3.33301 10 -5 18 -5 24c0 16.667 6.66699 26.667 20 30
c24.667 6 50.834 13 78.501 21s54.834 12 81.501 12c19.333 0 37.666 -2.66699 54.999 -8s28 -10.666 32 -15.999c3.33301 -3.33301 7.83301 -7 13.5 -11s9.83398 -9.33301 12.501 -16z" />
    <glyph glyph-name="braceleft" unicode="{" horiz-adv-x="346" 
d="M519 733c-19.333 0 -35.332 -1.66113 -47.999 -4.99414s-23.334 -8.33301 -32.001 -15s-15.667 -14.834 -21 -24.501s-10.333 -20.834 -15 -33.501c-12.667 -34 -24.834 -69.167 -36.501 -105.5l-39.5 -127.5c-10.667 -34 -22.834 -61 -36.501 -81s-33.167 -32 -58.5 -36
c-2 0 -3 -0.666992 -3 -2s1 -2 3 -2c18.667 -10.667 28 -28 28 -52s-3.33301 -46 -10 -66l-68 -218c-3.33301 -9.33301 -5.5 -17.166 -6.5 -23.499s-1.5 -13.166 -1.5 -20.499c0 -10 3.33301 -19.5 10 -28.5s20.667 -13.5 42 -13.5h40c7.33301 0 12.833 -3 16.5 -9
s5.5 -10.667 5.5 -14c0 -10 -0.833008 -17.333 -2.5 -22s-3.66699 -8.33398 -6 -11.001s-4.66602 -4.66699 -6.99902 -6s-4.16602 -4 -5.49902 -8c-1.33301 -4.66699 -5.83301 -7.33398 -13.5 -8.00098s-14.167 -1 -19.5 -1c-48.667 0 -86.5 8.83301 -113.5 26.5
s-40.5 42.5 -40.5 74.5c0 11.333 0.833008 21.666 2.5 30.999s4.16699 19.666 7.5 30.999l65 206c4 12 8 24.667 12 38s6 23.666 6 30.999c0 18 -13.333 27 -40 27c-18.667 0 -29.667 1 -33 3s-5 6.33301 -5 13c0 1.33301 -1.5 2.16602 -4.5 2.49902
s-4.5 3.16602 -4.5 8.49902c0 4 0.5 8 1.5 12s2.5 8.66699 4.5 14c4 11.333 8.66699 18.5 14 21.5s13.666 4.5 24.999 4.5h12c14.667 0 27 1.66699 37 5s18.833 9.16602 26.5 17.499s14.834 19.833 21.501 34.5s13.667 33 21 55l59 177
c11.333 34.667 23.333 63.334 36 86.001s26.334 40.667 41.001 54s30.667 22.666 48 27.999s37 8 59 8h20c15.333 0 28.166 -0.833008 38.499 -2.5s15.5 -5.5 15.5 -11.5c0 -3.33301 1.16699 -5.66602 3.5 -6.99902s3.5 -5.66602 3.5 -12.999
c0 -5.33301 -1.66699 -11 -5 -17c-5.33301 -11.333 -10 -18.333 -14 -21s-11.667 -4 -23 -4h-12z" />
    <glyph glyph-name="bar" unicode="|" horiz-adv-x="270" 
d="M417 768c0 -10.667 -0.333984 -17.668 -1.00098 -21.001s-2 -6.66602 -4 -9.99902c-8 -12 -14.5 -19.833 -19.5 -23.5s-9.16699 -8.83398 -12.5 -15.501c-13.333 -29.333 -27.333 -64.333 -42 -105l-45 -131l-47.5 -146l-48 -150.5l-46.5 -144.5l-43 -128
c-10 -28.667 -18.5 -51 -25.5 -67s-13.833 -24 -20.5 -24c-8 0 -14.5 0.666992 -19.5 2s-10.167 4 -15.5 8c-7.33301 5.33301 -13.666 8.66602 -18.999 9.99902s-8 5 -8 11c0 9.33301 0.666992 17.666 2 24.999s3 14.333 5 21c2 6 5.5 13.5 10.5 22.5
s9.16699 18.167 12.5 27.5l261 782c11.333 35.333 21.833 60 31.5 74s22.167 21 37.5 21c4 0 9.5 -0.666992 16.5 -2s12.833 -4.66602 17.5 -9.99902s9.66699 -9.66602 15 -12.999s8 -7.66602 8 -12.999z" />
    <glyph glyph-name="braceright" unicode="}" horiz-adv-x="346" 
d="M-57 -122c20.667 0 36.834 0.996094 48.501 2.99609s21 5.5 28 10.5s12.5 11.833 16.5 20.5s8 19.334 12 32.001l80 242c11.333 33.333 24 60.333 38 81s33.667 33.667 59 39c2 0 3 0.666992 3 2s-1 2 -3 2c-19.333 8.66699 -29 25.334 -29 50.001c0 6 0.666992 15 2 27
s4.33301 24.667 9 38l70 221c4.66699 13.333 7.83398 24.333 9.50098 33s2.5 17.334 2.5 26.001c0 10.667 -5 17.834 -15 21.501s-24 5.5 -42 5.5h-41c-7.33301 0 -13 2.16699 -17 6.5s-6 9.16602 -6 14.499c0 12 1.83301 20.5 5.5 25.5s7.5 12.167 11.5 21.5
c1.33301 4 7.66602 6.5 18.999 7.5s25.666 1.5 42.999 1.5h24c8.66699 0 19.334 -1.66699 32.001 -5s24.5 -8.83301 35.5 -16.5s20.5 -17.834 28.5 -30.501s12 -28 12 -46c0 -11.333 -0.833008 -22.666 -2.5 -33.999s-4.16699 -21.666 -7.5 -30.999l-69 -206
c-4.66699 -14 -8.66699 -26.667 -12 -38s-5 -21.666 -5 -30.999c0 -18 13.333 -27 40 -27h19c11.333 0 19.166 -1 23.499 -3s6.5 -5.66699 6.5 -11c0 -16.667 -2.16699 -28.334 -6.5 -35.001s-7.83301 -12.667 -10.5 -18s-7 -8.66602 -13 -9.99902s-15.667 -2 -29 -2
c-9.33301 0 -18.5 -1.16699 -27.5 -3.5s-18 -7.33301 -27 -15s-17.833 -19 -26.5 -34s-17 -34.833 -25 -59.5l-59 -177c-11.333 -34.667 -22.333 -63.334 -33 -86.001s-22.667 -40.667 -36 -54s-29.5 -22.666 -48.5 -27.999s-42.833 -8 -71.5 -8h-15
c-24.667 0 -41.5 1.16699 -50.5 3.5s-13.5 7.16602 -13.5 14.499c0 13.333 2.16699 22.5 6.5 27.5s7.83301 11.167 10.5 18.5c1.33301 5.33301 5.33301 9 12 11s13 3 19 3h15z" />
    <glyph glyph-name="asciitilde" unicode="~" horiz-adv-x="550" 
d="M115 270c-1.33301 7.33301 -2.83008 12.1689 -4.49707 14.502s-3.33398 4 -5.00098 5s-3 2 -4 3s-1.5 3.5 -1.5 7.5c0 5.33301 0.5 9.66602 1.5 12.999s3.83301 6.66602 8.5 9.99902c18 11.333 34 21 48 29s26.667 14.5 38 19.5s22.166 8.5 32.499 10.5
s21.166 3 32.499 3c18.667 0 34.5 -5 47.5 -15s25.167 -21 36.5 -33s22.666 -23 33.999 -33s24.333 -15 39 -15c14 0 26.833 3 38.5 9s22 12.5 31 19.5s16.667 13.5 23 19.5s11.166 9 14.499 9c8 0 15.333 -2.5 22 -7.5s10.334 -10.5 11.001 -16.5
c0 -2.66699 0.5 -4.16699 1.5 -4.5s2 -0.833008 3 -1.5s2 -1.66699 3 -3s1.5 -4 1.5 -8c0 -3.33301 -0.666992 -6.16602 -2 -8.49902s-4.33301 -5.5 -9 -9.5c-9.33301 -8.66699 -19.833 -17.5 -31.5 -26.5s-23.5 -17.333 -35.5 -25s-23.833 -13.834 -35.5 -18.501
s-22.5 -7 -32.5 -7c-12 0 -22.5 0.833008 -31.5 2.5s-17.667 4.5 -26 8.5s-16.666 9.5 -24.999 16.5s-17.5 15.5 -27.5 25.5l-22 21c-5.33301 5.33301 -10.333 9.5 -15 12.5s-9.5 4.83301 -14.5 5.5s-11.5 1 -19.5 1c-6 0 -13 -2.33301 -21 -7s-22 -14.667 -42 -30
c-4 -3.33301 -8.33301 -6 -13 -8s-13 -3 -25 -3c-15.333 0 -23.333 5 -24 15z" />
    <glyph glyph-name="uni00A0" unicode="&#xa0;" horiz-adv-x="246" 
 />
    <glyph glyph-name="exclamdown" unicode="&#xa1;" horiz-adv-x="320" 
d="M91 -80c2.66699 7.33301 4.99805 12.0039 6.99805 14.0039s3.66699 3.5 5 4.5s2.83301 2.5 4.5 4.5s3.16699 6 4.5 12c6.66699 28 13.167 52.667 19.5 74l20 65.5l23.5 74.5c8.66699 27.333 18.667 61 30 101c2 7.33301 4.5 12.333 7.5 15s6.16699 4 9.5 4
c13.333 0 22.666 -2.66699 27.999 -8c9.33301 -9.33301 16.333 -17 21 -23s7 -12.667 7 -20c0 -3.33301 -0.833008 -8.16602 -2.5 -14.499s-3.16699 -11.5 -4.5 -15.5c-2 -4.66699 -3.16699 -8.5 -3.5 -11.5s-0.666016 -5.66699 -0.999023 -8s-0.666016 -5 -0.999023 -8
s-1.16602 -6.83301 -2.49902 -11.5c-13.333 -38.667 -24 -71.334 -32 -98.001l-19.5 -67c-5 -18 -8.66699 -32.333 -11 -43s-4 -19.834 -5 -27.501s-2.16699 -14.334 -3.5 -20.001s-3.33301 -12.167 -6 -19.5l-8.5 -24l-9 -25c-3 -8 -5.5 -15.333 -7.5 -22
s-3.33301 -12 -4 -16c-1.33301 -4.66699 -3.83301 -7.33398 -7.5 -8.00098s-9.16699 -1 -16.5 -1c-4.66699 0 -8 0.5 -10 1.5s-4 2.5 -6 4.5s-4.66699 4.33301 -8 7s-8.33301 5.66699 -15 9c-7.33301 3.33301 -11.666 8 -12.999 14s-2 12.333 -2 19
c0 13.333 1.16699 25.666 3.5 36.999s5.16602 21.333 8.49902 30zM321.998 468.004c5.33301 -0.666992 10.165 -3.16699 14.498 -7.5s6.5 -9.83301 6.5 -16.5c0 -4 -1 -8.66699 -3 -14s-4.66699 -13 -8 -23c-3.33301 -8 -7.5 -15.333 -12.5 -22s-11.167 -10 -18.5 -10
c-3.33301 0 -7.16602 -0.333008 -11.499 -1s-10.166 -1 -17.499 -1c-12 0 -20.5 5.83301 -25.5 17.5s-7.5 25.167 -7.5 40.5c0 5.33301 0.5 9.5 1.5 12.5s3.16699 7.5 6.5 13.5c2 4 4 8.66699 6 14s6.66699 8 14 8c6.66699 0 12 -0.5 16 -1.5l11.5 -3
c3.66699 -1 7.66699 -2.16699 12 -3.5s9.5 -2.33301 15.5 -3z" />
    <glyph glyph-name="cent" unicode="&#xa2;" horiz-adv-x="434" 
d="M351 389c-1.33301 -3.33301 -4.83496 -13.5029 -10.502 -30.5029l-20 -61l-24.5 -76l-24 -75.5l-18.5 -60c-5 -16.667 -7.5 -26.334 -7.5 -29.001c0 -2 1.66699 -3 5 -3c5.33301 0 13.333 1.83301 24 5.5s21.667 9.16699 33 16.5
c4.66699 3.33301 9.16699 7.66602 13.5 12.999s8.83301 9.66602 13.5 12.999c15.333 10 28.666 17.167 39.999 21.5s20.666 6.5 27.999 6.5c8 0 16 -3 24 -9c3.33301 -2.66699 6.33301 -5.5 9 -8.5s4 -6.16699 4 -9.5c0 -1.33301 -0.833008 -4 -2.5 -8
s-7.16699 -9.33301 -16.5 -16c-28 -19.333 -52 -34.5 -72 -45.5s-36.667 -19.333 -50 -25s-24 -9.33398 -32 -11.001s-14 -2.83398 -18 -3.50098c-8 -1.33301 -13.5 -2.33301 -16.5 -3s-5.16699 -2.66699 -6.5 -6l-3.5 -10l-5.5 -15.5l-6 -16.5
c-2 -5.33301 -3.66699 -9.33301 -5 -12c-3.33301 -8.66699 -7.16602 -16 -11.499 -22s-10.166 -9 -17.499 -9c-5.33301 0 -9.83301 1.83301 -13.5 5.5s-10.834 8.5 -21.501 14.5c-4.66699 2.66699 -8 5.66699 -10 9s-3 6.66602 -3 9.99902c0 4 0.666992 7.5 2 10.5
s3.33301 6.5 6 10.5s5.33398 9.16699 8.00098 15.5s5.66699 14.5 9 24.5c0 2.66699 -3.33301 5.33398 -10 8.00098c-26 11.333 -47.167 29.333 -63.5 54s-24.5 48.667 -24.5 72c0 8.66699 0.833008 22.834 2.5 42.501s6.83398 39.5 15.501 59.5
c12 28.667 24 53.334 36 74.001s23.5 38.334 34.5 53.001s21.667 26.834 32 36.501s20.166 17.834 29.499 24.501c10.667 8 20 14.5 28 19.5s15.5 9 22.5 12s14 5 21 6s15.167 1.5 24.5 1.5c3.33301 0 6 2.66699 8 8c8.66699 26.667 16.167 45 22.5 55s14.5 15 24.5 15
c3.33301 0 6.83301 -0.333008 10.5 -1s8.16699 -1 13.5 -1c4 0 9.66699 -1.66699 17 -5s11 -6.66602 11 -9.99902c0 -2.66699 -2 -6.16699 -6 -10.5s-9 -12.833 -15 -25.5c-9.33301 -20 -14 -31.667 -14 -35c0 -2.66699 2 -4.66699 6 -6l18.5 -9.5
c5.66699 -3 11.167 -6.83301 16.5 -11.5c11.333 -10 20.833 -19.833 28.5 -29.5s11.5 -22.167 11.5 -37.5c0 -5.33301 -1.16699 -13.166 -3.5 -23.499s-6.83301 -28.166 -13.5 -53.499c-2 -6.66699 -3.16699 -12.667 -3.5 -18s-1.33301 -9.83301 -3 -13.5
s-4.16699 -6.5 -7.5 -8.5s-8.66602 -3 -15.999 -3c-6 0 -12.333 1.33301 -19 4s-12.5 6 -17.5 10s-9.16699 7.83301 -12.5 11.5s-5 6.5 -5 8.5c0 10.667 1.83301 21 5.5 31s7.16699 21.333 10.5 34c2.66699 9.33301 4.33398 17 5.00098 23s1 9.66699 1 11
c0 12 -2.66699 19 -8 21s-9 3 -11 3c-2.66699 0 -4.66699 -2.33301 -6 -7zM167.998 241.997c-4 -12 -7.66602 -22 -10.999 -30s-6.16602 -15.667 -8.49902 -23s-4.16602 -15 -5.49902 -23s-2 -18.333 -2 -31c0 -4 0.166992 -10.167 0.5 -18.5
s2.16602 -16.166 5.49902 -23.499c5.33301 -13.333 10.166 -21.5 14.499 -24.5s7.16602 -4.5 8.49902 -4.5c3.33301 0 5.33301 0.5 6 1.5s1.66699 3.16699 3 6.5l11 35l29.5 89.5l27 81.5l23 69c7 20.667 12.5 37.667 16.5 51c0 3.33301 -1.66699 5 -5 5
s-10 -5.33301 -20 -16s-21 -24 -33 -40s-23.5 -33.333 -34.5 -52s-19.5 -36.334 -25.5 -53.001z" />
    <glyph glyph-name="sterling" unicode="&#xa3;" horiz-adv-x="490" 
d="M229 233l-26.002 -64.4971l-21.5 -55c-6.33301 -16.333 -11.333 -29.666 -15 -39.999s-5.83398 -16.833 -6.50098 -19.5c0 -2.66699 0.5 -4.16699 1.5 -4.5s4.16699 -0.5 9.5 -0.5c2 0 8.66699 1 20 3l41.5 7.5c16.333 3 33.833 6.5 52.5 10.5s36.167 8 52.5 12
s30.333 7.66699 42 11s18.5 6 20.5 8c1.33301 1.33301 4.83301 2.5 10.5 3.5s11.667 1.66699 18 2s12.166 0.5 17.499 0.5h11c8.66699 0 15 -0.833008 19 -2.5s9.66699 -6.5 17 -14.5c3.33301 -4 5.5 -7 6.5 -9s3.16699 -4.66699 6.5 -8
c6.66699 -6.66699 10.667 -11.167 12 -13.5s2 -6.83301 2 -13.5c0 -4 -1.5 -8.5 -4.5 -13.5s-10.5 -7.5 -22.5 -7.5c-6.66699 0 -11.167 0.166992 -13.5 0.5s-8.83301 0.5 -19.5 0.5c-5.33301 0 -18 -2 -38 -6l-70.5 -14.5l-85 -17.5c-29.667 -6 -56.5 -10.667 -80.5 -14
c-20.667 -3.33301 -41.167 -5.5 -61.5 -6.5s-37.166 -1.5 -50.499 -1.5h-13c-4.66699 0 -8.66699 0.333008 -12 1c-8.66699 1.33301 -14.667 3.66602 -18 6.99902s-5.66602 7.33301 -6.99902 12s-2.5 9.83398 -3.5 15.501s-3.16699 11.167 -6.5 16.5
c-2.66699 3.33301 -4 7.66602 -4 12.999c0 1.33301 0.833008 3.83301 2.5 7.5s3.16699 6.16699 4.5 7.5c2 2 5.5 3.33301 10.5 4s10.167 1 15.5 1s9.66602 -0.5 12.999 -1.5s8.66602 -1.5 15.999 -1.5c5.33301 0 8 1.33301 8 4c-1.33301 2 -2.33301 4.33301 -3 7
s-1 6.33398 -1 11.001c0 6 5.16699 22.167 15.5 48.5l43.5 108.5c1.33301 3.33301 2 5.66602 2 6.99902c0 2.66699 -4.66699 4.33398 -14 5.00098c-11.333 1.33301 -19.666 3.66602 -24.999 6.99902s-8 12.666 -8 27.999c0 5.33301 -1.33301 10 -4 14s-4 11 -4 21
c0 3.33301 2 5.33301 6 6s12.667 1 26 1c2.66699 0 9 0.5 19 1.5s20.667 2.16699 32 3.5c6.66699 1.33301 10.834 2.83301 12.501 4.5s3.16699 3.83398 4.5 6.50098l12 27c29.333 66 56.833 118.5 82.5 157.5s50 68.667 73 89s44.833 33.5 65.5 39.5s40.667 9 60 9
c8 0 17.667 -1.16699 29 -3.5s20.666 -8.16602 27.999 -17.499c12 -14.667 22.5 -26.667 31.5 -36s13.5 -21.333 13.5 -36c0 -4.66699 -1.66699 -12.167 -5 -22.5l-10.5 -32l-10.5 -31c-3.33301 -9.66699 -5 -16.5 -5 -20.5c0 -5.33301 -2.66699 -11.166 -8 -17.499
s-12.333 -9.5 -21 -9.5c-4.66699 0 -9.16699 1 -13.5 3s-10.166 3.66699 -17.499 5c-9.33301 2 -16.166 4.66699 -20.499 8s-6.5 12.666 -6.5 27.999c0 4 1.16699 8.5 3.5 13.5l7.5 15.5l8 16.5c2.66699 5.66699 4 11.167 4 16.5c0.666992 7.33301 2.5 13.666 5.5 18.999
s4.5 13 4.5 23c0 2 -0.666992 5.5 -2 10.5s-4.33301 7.5 -9 7.5c-11.333 0 -24.166 -4 -38.499 -12s-29.333 -20 -45 -36s-31.334 -35.667 -47.001 -59s-30.5 -50 -44.5 -80l-25 -54c-2.66699 -5.33301 -4 -9 -4 -11c0 -3.33301 2 -5 6 -5l38 8
c14.667 3.33301 25.834 5.5 33.501 6.5s13.167 1.5 16.5 1.5c8.66699 0 15 -1 19 -3s9.66699 -6.66699 17 -14c6.66699 -6.66699 11 -11.834 13 -15.501s3 -8.83398 3 -15.501c0 -4 -0.5 -8.83301 -1.5 -14.5s-3.5 -8.5 -7.5 -8.5c-6.66699 0 -12.5 -1 -17.5 -3
s-13.5 -3.33301 -25.5 -4c-11.333 -0.666992 -25.833 -2.83398 -43.5 -6.50098l-65.5 -13.5c-12.667 -2 -20.5 -4 -23.5 -6s-6.16699 -7.33301 -9.5 -16z" />
    </font>
</defs>
</svg>
