<?xml version="1.0" encoding="UTF-8" standalone="no"?><!DOCTYPE svg PUBLIC "-//W3C//DTD SVG 1.1//EN" "http://www.w3.org/Graphics/SVG/1.1/DTD/svg11.dtd"><svg width="100%" height="100%" viewBox="0 0 161 161" version="1.1" xmlns="http://www.w3.org/2000/svg" xmlns:xlink="http://www.w3.org/1999/xlink" xml:space="preserve" xmlns:serif="http://www.serif.com/" style="fill-rule:evenodd;clip-rule:evenodd;stroke-linejoin:round;stroke-miterlimit:2;"><path d="M160.375,80.187c-0,44.282 -35.906,80.188 -80.188,80.188c-44.281,-0 -80.187,-35.906 -80.187,-80.188c0,-44.281 35.906,-80.187 80.188,-80.187c44.281,0 80.187,35.906 80.187,80.187" style="fill:#ffed00;fill-rule:nonzero;"/><path d="M75.862,56.942l0,54.535l-26.38,12.51l-20.915,-12.51l0,-17.642l18.336,-8.682l0.027,21.83l10.569,-4.993l-0,-36.254l18.363,-8.794Zm21.803,44.244l-18.363,8.71l-0,-54.507l18.363,-8.682l-0,54.479Zm21.83,-10.291l-18.363,8.682l0,-54.507l18.363,-8.682l0,54.507Z"/></svg>