<?xml version="1.0" encoding="UTF-8" standalone="no"?>
<!DOCTYPE svg PUBLIC "-//W3C//DTD SVG 1.1//EN" "http://www.w3.org/Graphics/SVG/1.1/DTD/svg11.dtd">
<svg width="100%" height="100%" viewBox="0 0 2544 74" version="1.1" xmlns="http://www.w3.org/2000/svg" xmlns:xlink="http://www.w3.org/1999/xlink" xml:space="preserve" xmlns:serif="http://www.serif.com/" style="fill-rule:evenodd;clip-rule:evenodd;stroke-linejoin:round;stroke-miterlimit:2;">
    <g transform="matrix(1,0,0,1,-0.176364,-0.275007)">
        <path d="M2544,21.984C2543.98,38.453 2543.99,54.922 2543.98,71.391C2543.98,72.311 2543.96,73.233 2543.27,73.968L0.591,73.968C0,73.26 0.98,72.403 0.98,71.579C0.97,70.268 0.98,68.959 0.98,67.649C0.3,67.249 0.22,66.833 0.22,66.416C0.6,49.91 0.2,33.404 0.2,16.898C0.1,16.47 0.31,16.8 0.97,15.729C0.98,14.769 0.97,13.809 0.97,12.848C0.97,12.266 0.82,11.68 0.271,11.117C0.767,10.225 1.645,9.949 2.551,9.76C3.938,9.471 5.331,9.202 6.754,9.169C20.248,8.859 33.699,9.315 47.104,11.68C54.946,12.93 62.833,12.631 70.76,12.676C79.837,12.728 88.96,12.95 97.975,13.396C100.406,13.196 102.836,12.985 105.265,12.758C115.383,11.813 125.463,10.446 135.589,9.635C148.863,8.572 162.151,7.674 175.448,6.891C189.238,6.78 203.38,5.443 216.827,4.601C227.555,3.945 238.231,2.781 248.922,1.764C257.712,0.927 266.534,0.701 275.332,0.38C277.862,0.152 280.309,0.341 282.635,1.392C283.856,1.945 285.118,2.387 286.47,2.454C294.117,2.832 301.739,3.725 309.415,3.537C311.912,3.476 314.414,3.48 316.913,3.561C318,3.595 319.378,3.551 319.847,4.584C320.683,6.421 322.88,6.38 323.412,5.835C326.61,5.428 328.672,5.223 331.361,5.611C337.465,6.492 343.641,6.613 349.787,6.914C353.228,7.82 356.715,6.697 360.201,6.156C364.261,5.526 368.392,4.809 372.569,5.54C375.167,5.206 377.591,6.259 380.179,6.452C393.295,7.425 406.43,8.48 419.572,8.534C420.907,8.584 422.245,8.572 423.524,9.17C425.406,9.671 427.286,9.544 429.191,9.128C434.255,8.22 439.367,7.471 444.565,7.515C456.807,7.615 469.8,7.965 481.246,6.336C494.893,4.51 508.569,3.791 522.323,3.979C525.85,4.26 529.261,5.249 532.75,4.935C539.73,4.307 546.707,4.419 553.696,4.505C560.107,4.582 566.532,4.267 572.839,5.841C573.809,6.83 574.831,5.969 575.827,6.4C580.47,6.344 584.334,6.262 588.291,8.149C588.921,8.449 589.603,8.328 590.261,8.24C591.92,8.19 593.586,8.12 595.252,8.41C607.656,8.251 620.29,9.74 632.396,9.992C632.904,10.3 633.412,10.69 633.919,10.108C638.888,9.496 643.911,9.711 648.919,9.613C655.828,9.478 662.721,9.443 669.614,10.65C672.532,10.328 675.364,9.197 678.294,9.139C692.377,8.861 706.393,9.507 720.376,11.37C731.122,12.802 741.969,12.85 752.802,12.635C758.278,12.527 763.73,12.644 769.124,13.473C771.67,13.291 773.9,13.99 774.95,12.898C798.638,10.446 822.329,8.179 846.12,6.907C859.995,6.166 873.874,5.446 887.746,4.599C898.557,3.939 909.314,2.742 920.9,1.733C928.88,0.91 937.701,0.664 946.501,0.34C948.951,0.139 951.307,0.381 953.553,1.393C954.774,1.944 956.33,2.391 957.386,2.458C965.116,2.838 972.821,3.738 980.58,3.536C982.995,3.474 985.413,3.487 987.829,3.557C988.832,3.586 990.159,3.517 990.586,4.402C991.586,6.477 993.222,6.7 994.783,5.773C997.612,5.234 1000.39,5.398 1003.23,5.748C1009.94,6.473 1015.13,6.674 1020.91,6.914C1023.77,7.31 1026.7,6.994 1029.61,6.443C1034.79,5.595 1038.62,5.79 1043.19,5.55C1045.89,5.4 1048.38,6.255 1051.48,6.453C1064.16,7.424 1077.3,8.39 1090.44,8.534C1091.69,8.582 1092.96,8.503 1094.15,8.936C1096.28,9.711 1098.39,9.495 1100.55,9.38C1105.2,8.5 1109.9,7.493 1114.68,7.512C1122.84,7.546 1131.25,7.902 1139.17,7.397C1152.7,6.557 1166.14,4.394 1179.71,3.96C1181.46,3.905 1183.18,3.779 1184.94,3.842C1191.18,4.66 1197.41,4.691 1203.62,4.798C1210.16,4.912 1216.75,4.657 1223.31,4.43C1232.69,4.107 1241.93,5.325 1251.16,6.485C1257.89,7.332 1264.57,7.94 1271.37,8.163C1282.76,8.537 1294.17,9.137 1305.54,10.122C1310.56,9.647 1315.61,9.37 1320.69,9.545C1327.25,9.771 1333.84,10.26 1340.38,9.912C1346.59,9.805 1352.82,9.181 1359.59,8.959C1360.82,8.896 1362.54,9.21 1364.29,9.76C1377.86,9.509 1391.29,11.667 1404.83,12.505C1412.97,13.9 1421.16,12.654 1429.32,12.62C1432.86,12.606 1436.35,12.907 1439.81,13.463C1443.56,13.15 1447.31,12.795 1451.44,12.366C1474.3,9.7 1497.62,7.986 1520.98,6.583C1533.52,5.83 1546.76,5.298 1558.62,4.591C1569.44,3.983 1580.19,2.753 1590.97,1.739C1599.76,0.912 1608.58,0.667 1617.38,0.36C1619.83,0.138 1622.19,0.366 1624.43,1.378C1625.58,1.892 1626.75,2.361 1628.16,2.424C1634.42,2.739 1640.79,3.476 1647.21,3.522C1650.96,3.549 1654.71,3.494 1658.46,3.549C1659.63,3.566 1661.64,3.476 1661.67,4.538C1662.68,6.28 1664.1,6.99 1665.56,5.798C1668.55,5.178 1671.49,5.434 1674.49,5.789C1680.2,6.464 1685.95,6.689 1691.68,6.92C1695.13,7.58 1698.61,6.666 1702.94,6.148C1706.74,5.556 1710.12,4.832 1714.21,5.39C1716.82,5.17 1719.24,6.199 1721.82,6.44C1731.11,7.304 1740.45,7.292 1749.73,8.107C1755.44,8.608 1761.23,7.865 1766.86,9.381C1767.91,9.663 1769.33,9.566 1770.91,9.308C1777.37,7.624 1784.96,7.386 1791.2,7.527C1802.3,7.742 1812.88,7.695 1823.62,6.259C1837.61,4.392 1851.62,3.744 1865.7,4.23C1868.63,4.81 1871.47,5.215 1874.38,4.951C1881.28,4.328 1888.17,4.363 1895.8,4.498C1901.65,4.628 1908.25,4.214 1914.72,5.847C1915.53,6.5 1916.38,5.981 1917.21,6.32C1921.6,6.301 1926.49,6.23 1930.17,8.175C1930.79,8.468 1931.49,8.324 1932.14,8.235C1933.72,8.23 1935.3,8.16 1936.89,8.4C1949.38,8.232 1961.83,9.72 1974.28,9.995C1974.78,10.32 1975.28,10.71 1975.78,10.109C1980.59,9.513 1985.45,9.678 1990.3,9.619C1997.29,9.535 2004.27,9.422 2011.25,10.48C2014.74,10.362 2018.15,9.142 2021.68,9.95C2035.43,8.908 2049.11,9.625 2062.75,11.447C2074.92,13.72 2087.19,12.723 2099.43,12.623C2103.23,12.591 2106.98,12.877 2110.69,13.462C2112.74,13.284 2114.79,13.93 2116.83,12.88C2140.52,10.407 2164.21,8.173 2188.4,6.903C2201.88,6.162 2215.76,5.442 2229.63,4.597C2240.36,3.943 2251.33,2.76 2261.72,1.753C2270.51,0.925 2279.34,0.692 2288.14,0.37C2290.67,0.151 2293.11,0.355 2295.43,1.412C2296.58,1.931 2297.76,2.376 2299.22,2.436C2305.84,2.758 2312.63,3.585 2319.47,3.531C2322.8,3.505 2326.13,3.489 2329.46,3.552C2330.55,3.573 2331.89,3.481 2332.47,4.438C2333.61,6.296 2335.19,6.91 2336.83,5.755C2339.57,5.192 2342.27,5.414 2345.24,5.747C2350.89,6.46 2356.81,6.665 2362.71,6.916C2365.49,7.35 2368.34,7.7 2371.16,6.48C2375.46,5.579 2379.86,5.284 2384.24,5.46C2385.32,4.987 2386.42,5.55 2387.47,5.338C2394.13,7.131 2401.7,7.42 2407.8,7.471C2417.92,8.11 2428.8,8 2438.15,9.428C2438.89,9.534 2439.66,9.565 2440.39,9.385C2451.22,6.691 2462.26,7.631 2473.24,7.568C2481.17,7.523 2489.53,6.984 2496.89,5.956C2510.3,4.199 2523.75,3.742 2537.24,4.53C2538.67,4.86 2540.61,4.356 2541.45,4.645C2542.35,4.835 2543.23,5.111 2543.73,6.6C2543.92,6.57 2543.9,7.157 2543.9,7.74C2543.9,12.1 2543.9,16.459 2543.9,20.818C2543.97,21.168 2544,21.557 2544,21.984Z" style="fill:rgb(254,254,254);"/>
    </g>
</svg>
