<?xml version="1.0" encoding="UTF-8" standalone="no"?>
<!DOCTYPE svg PUBLIC "-//W3C//DTD SVG 1.1//EN" "http://www.w3.org/Graphics/SVG/1.1/DTD/svg11.dtd">
<svg width="100%" height="100%" viewBox="0 0 23 12" version="1.1" xmlns="http://www.w3.org/2000/svg" xmlns:xlink="http://www.w3.org/1999/xlink" xml:space="preserve" xmlns:serif="http://www.serif.com/" style="fill-rule:evenodd;clip-rule:evenodd;stroke-linejoin:round;stroke-miterlimit:2;">
    <g transform="matrix(1,0,0,1,-24.4206,-31.1297)">
        <path d="M41.57,42.176C41.402,42.378 41.191,42.428 40.939,42.327C40.687,42.226 40.561,42.041 40.561,41.772L40.561,38.141L25.026,38.141C24.858,38.141 24.715,38.082 24.597,37.964C24.479,37.846 24.421,37.704 24.421,37.535L24.421,35.921C24.421,35.787 24.479,35.652 24.597,35.518C24.715,35.383 24.858,35.316 25.026,35.316L40.561,35.316L40.561,31.735C40.561,31.466 40.687,31.281 40.939,31.18C41.191,31.079 41.402,31.13 41.57,31.331L46.614,36.325C46.714,36.459 46.765,36.602 46.765,36.754C46.765,36.905 46.714,37.048 46.614,37.182L41.57,42.176Z" style="fill-rule:nonzero;"/>
    </g>
</svg>
