<?xml version="1.0" encoding="UTF-8" standalone="no"?>
<!DOCTYPE svg PUBLIC "-//W3C//DTD SVG 1.1//EN" "http://www.w3.org/Graphics/SVG/1.1/DTD/svg11.dtd">
<svg width="100%" height="100%" viewBox="0 0 51 61" version="1.1" xmlns="http://www.w3.org/2000/svg" xmlns:xlink="http://www.w3.org/1999/xlink" xml:space="preserve" xmlns:serif="http://www.serif.com/" style="fill-rule:evenodd;clip-rule:evenodd;stroke-linejoin:round;stroke-miterlimit:2;">
    <g transform="matrix(1.08204,0,0,1.08204,-20.4563,-0.734077)">
        <circle cx="40.161" cy="28.829" r="21.256" style="fill:rgb(247,215,59);"/>
    </g>
    <g transform="matrix(0.632426,0,0,0.632426,2.64299,-0.0120523)">
        <path d="M21.84,45.61C21.01,46.285 20.231,47.02 19.51,47.81C15.69,51.94 12.69,57.75 11.36,60.51C9.3,64.77 4.49,79.51 3.54,88.16C3.349,89.543 3.349,90.947 3.54,92.33C3.586,92.546 3.653,92.757 3.74,92.96C4.191,92.941 4.628,92.796 5,92.54C5.806,91.978 6.51,91.281 7.08,90.48C9.5,87.28 11.8,81.8 14,75.1C16.85,66.52 19.49,56 21.84,45.61ZM22.84,41.05C25.92,27.05 28.45,13.89 30.22,6.78C30.608,4.841 31.222,2.955 32.05,1.16C32.302,0.716 32.692,0.365 33.16,0.16C33.712,-0.089 34.361,-0.004 34.83,0.38C35.208,0.662 35.451,1.091 35.5,1.56C35.57,2.02 35.5,4.49 35.5,4.56C35.451,5.42 34.76,6.116 33.9,6.17C33.77,6.63 33.64,7.11 33.52,7.59C31.82,14.42 29.42,26.8 26.52,40.15L27.1,40.15C28.132,40.251 29.107,40.67 29.89,41.35C30.19,41.58 30.49,41.83 30.79,42.03L31.07,42.18C32.076,41.807 32.985,41.212 33.73,40.44C35.33,38.95 36.8,37.04 37.94,35.79C38.04,35.69 39.57,33.91 39.94,33.61C40.562,33.097 41.468,33.097 42.09,33.61C42.696,34.082 42.99,34.855 42.85,35.61C42.826,35.829 42.786,36.047 42.73,36.26C42.97,36.198 43.202,36.107 43.42,35.99C43.88,35.76 44.32,35.47 44.76,35.2C45.741,34.5 46.897,34.084 48.1,34C52.03,34 58.1,34.65 63.79,34.63C67.35,34.63 70.73,34.37 73.21,33.44C73.344,33.407 73.481,33.39 73.619,33.39C74.551,33.39 75.319,34.158 75.319,35.09C75.319,35.725 74.964,36.308 74.4,36.6C70.969,37.652 67.387,38.125 63.8,38C58.13,38 52.03,37.37 48.1,37.37C47.723,37.403 47.359,37.526 47.04,37.73C46.44,38.06 45.85,38.46 45.24,38.79C44.123,39.487 42.789,39.754 41.49,39.54C40.876,39.444 40.31,39.149 39.88,38.7C38.66,40.176 37.365,41.588 36,42.93C34.841,44.092 33.422,44.963 31.86,45.47C30.745,45.733 29.569,45.455 28.69,44.72C28.34,44.48 28,44.19 27.69,43.93C27.497,43.733 27.25,43.597 26.98,43.54C26.575,43.525 26.169,43.555 25.77,43.63C23.22,55 20.35,66.74 17.24,76.16C14.88,83.3 12.36,89.16 9.78,92.52C7.64,95.34 5.33,96.59 3.12,96.31C2.21,96.201 1.399,95.681 0.92,94.9C0.32,93.838 0.003,92.64 0,91.42C-0.34,83.52 5.84,64.13 8.3,59C9.73,56.09 13,49.92 17,45.51C18.638,43.654 20.626,42.138 22.85,41.05L22.84,41.05Z"/>
    </g>
</svg>
