<?xml version="1.0" encoding="UTF-8" standalone="no"?>
<!DOCTYPE svg PUBLIC "-//W3C//DTD SVG 1.1//EN" "http://www.w3.org/Graphics/SVG/1.1/DTD/svg11.dtd">
<svg width="100%" height="100%" viewBox="0 0 169 22" version="1.1" xmlns="http://www.w3.org/2000/svg" xmlns:xlink="http://www.w3.org/1999/xlink" xml:space="preserve" xmlns:serif="http://www.serif.com/" style="fill-rule:evenodd;clip-rule:evenodd;stroke-linejoin:round;stroke-miterlimit:2;">
    <g transform="matrix(1,0,0,1,-0.12,-0.200816)">
        <path d="M2.487,14.335C2.212,14.335 1.937,14.412 1.937,14.565C1.937,14.795 1.524,14.948 1.387,15.102C1.387,15.255 1.112,15.332 1.387,15.408C1.249,15.638 1.112,15.715 0.974,15.715C0.699,15.791 0.424,15.791 0.287,16.98C0.149,16.251 0.12,16.405 0.12,16.481C0.149,16.711 0.287,16.864 0.424,17.94C0.699,17.171 0.699,17.247 0.837,17.324C0.974,17.477 0.974,17.554 1.249,17.554C1.524,17.631 1.662,17.631 1.937,17.631C2.212,17.631 2.349,17.554 2.624,17.631C2.762,17.631 2.762,17.554 2.762,17.477C2.899,17.477 2.899,17.554 3.37,17.554C3.174,17.477 3.174,17.401 3.174,17.401C3.312,17.401 3.174,17.477 3.312,17.477C3.587,17.324 3.724,17.324 4.137,17.477L4.412,17.477C4.687,17.324 4.824,17.324 4.962,17.477C5.99,17.477 5.237,17.477 5.237,17.477C5.374,17.477 5.237,17.401 5.374,17.324C5.512,17.324 5.649,17.324 5.787,17.401L6.749,17.401C7.24,17.401 7.161,17.401 7.299,17.477C7.436,17.477 7.711,17.631 7.986,17.477C8.124,17.477 8.261,17.477 8.399,17.554C8.536,17.631 8.811,17.631 9.224,17.631C9.361,17.554 9.499,17.554 9.636,17.554C9.774,17.631 10.49,17.631 10.186,17.631L10.461,17.631C10.599,17.784 10.736,17.707 10.874,17.784C11.149,17.784 11.286,17.707 11.424,17.784L11.561,17.784C11.699,17.631 11.836,17.784 11.974,17.784C12.249,17.784 12.386,17.784 12.524,17.937C12.799,17.784 12.936,17.937 13.74,17.937C13.349,18.14 13.624,18.9 13.898,17.937L13.898,18.14C14.36,18.9 14.36,18.9 14.173,18.14C14.311,17.937 14.448,17.937 14.723,18.14C14.998,18.14 15.961,18.9 16.236,18.167C16.373,18.167 18.298,18.397 18.298,18.397C18.436,18.474 18.573,18.32 18.711,18.397C19.123,18.474 19.536,18.474 19.948,18.55C20.223,18.627 20.361,18.704 20.636,18.55C21.48,18.627 21.46,18.627 21.873,18.704C22.148,18.704 23.523,18.78 23.523,18.857C23.66,18.933 23.798,18.933 23.798,18.933C24.73,18.78 24.21,18.857 24.348,18.933L24.623,18.933C24.898,19.1 25.173,19.1 25.448,19.1C25.585,19.1 25.86,19.1 25.998,19.87C26.273,19.24 26.273,19.1 26.41,19.87C26.548,19.87 26.685,19.1 26.823,19.87C27.98,19.163 27.648,19.163 28.6,19.24C28.198,19.24 28.473,19.24 28.748,19.24C29.22,19.24 29.16,19.317 29.435,19.317C29.572,19.546 29.847,19.317 29.985,19.393L30.81,19.393C31.85,19.393 31.36,19.393 31.635,19.47C31.91,19.546 32.185,19.546 32.597,19.546L33.147,19.546C33.56,19.623 34.11,19.623 34.66,19.7C34.797,19.623 34.935,19.623 34.935,19.7C34.935,19.776 35.72,19.776 35.21,19.776C35.485,19.776 35.76,19.853 36.172,19.776L36.447,19.776C36.997,19.853 37.409,19.93 37.959,19.93C38.372,19.93 38.922,19.93 39.334,20.83C39.472,20.16 39.609,20.16 39.747,20.16C39.884,20.6 40.22,20.6 40.159,20.83C40.572,20.16 41.122,20.83 41.534,20.16C41.809,20.83 42.84,20.236 42.359,20.236C42.497,20.16 42.772,20.16 43.47,20.313L44.696,20.313C44.971,20.466 45.384,20.236 45.521,20.389C45.659,20.466 45.659,20.466 45.659,20.389C45.796,20.313 45.934,20.313 46.71,20.389C46.209,20.389 46.346,20.389 46.484,20.389C47.34,20.389 47.721,20.543 48.271,20.466L48.546,20.466C48.959,20.543 49.646,20.466 50.196,20.543C50.196,20.619 50.334,20.619 50.471,20.619C50.609,20.543 50.884,20.543 51.21,20.619C51.434,20.696 51.846,20.619 52.258,20.619L52.671,20.619C52.946,20.696 53.221,20.696 53.633,20.696C53.771,20.619 53.771,20.773 53.908,20.696C54.183,20.619 54.458,20.619 54.733,20.696C54.733,20.696 54.871,20.773 55.146,20.773L55.558,20.773C55.833,20.849 56.246,20.696 56.658,20.773C56.796,20.696 57.71,20.849 57.208,20.773C57.346,20.696 57.346,20.696 57.483,20.773C57.758,20.773 58.33,20.849 58.171,20.773C58.446,20.773 58.583,20.773 58.858,20.849L59.271,20.849C59.408,20.849 59.683,20.773 59.82,20.849C60.95,20.619 60.95,20.926 60.37,20.849L60.508,20.849C60.783,20.773 60.92,20.773 61.58,20.849C61.47,20.849 61.608,20.849 61.745,21.3C61.745,20.926 61.883,20.849 61.883,20.849C62.295,20.849 62.708,20.773 63.12,20.849L64.83,20.849C64.495,20.773 64.908,20.849 65.32,20.773L65.733,20.773C66.145,20.619 66.42,20.773 66.833,20.619C66.97,20.696 67.108,20.696 67.382,20.619C67.795,20.619 68.7,20.619 68.482,20.619C68.757,20.543 69.17,20.543 69.582,20.543C69.995,20.543 70.545,20.466 70.957,20.389C71.37,20.389 71.782,20.313 72.195,20.236C72.47,20.16 72.607,20.16 72.882,20.236C72.882,20.83 72.882,20.6 73.2,20.6C73.432,19.93 73.707,19.776 73.707,19.623C74.12,19.546 73.707,19.47 73.707,19.47C73.707,19.393 73.845,19.393 73.845,19.393C74.12,19.317 74.257,19.163 74.12,19.87C73.982,18.933 74.12,18.857 74.257,18.78C74.532,18.704 74.532,18.704 74.257,18.627C74.12,18.55 73.982,18.474 73.845,18.474C73.707,18.474 73.57,18.397 73.707,18.32C73.845,18.32 73.845,18.167 73.845,18.9C73.845,18.14 73.845,17.937 73.982,17.861C74.12,17.784 74.395,17.784 74.395,17.631C74.532,17.554 74.532,17.477 74.67,17.477C75.82,17.324 75.357,17.94 75.494,16.864C75.494,16.788 75.632,16.788 75.769,16.788C75.632,16.634 75.632,16.634 75.769,16.481C75.907,16.251 76.44,16.21 76.319,15.791C76.457,15.715 76.319,15.638 76.182,15.562C75.907,15.408 75.357,15.408 74.945,15.255C74.67,15.332 74.532,15.255 74.395,15.178C74.257,14.948 73.845,14.948 73.432,14.795C73.295,15.25 73.295,14.872 73.157,14.795C72.745,14.719 72.47,14.565 72.57,14.412C72.57,14.412 71.782,14.335 71.645,14.259C71.507,14.259 71.232,14.106 71.95,14.29C70.957,13.952 70.545,13.952 70.407,13.799C69.995,13.722 69.72,13.569 69.17,13.416C68.62,13.263 67.932,13.33 67.108,12.803C66.695,12.649 66.42,12.496 66.8,12.42C65.595,12.343 65.32,12.19 64.908,12.19C64.633,12.113 64.358,11.96 64.83,11.96C63.808,11.807 63.533,11.807 63.12,11.73C62.983,11.73 62.708,11.653 62.57,11.577C62.433,11.5 62.433,11.5 62.295,11.423C61.883,11.423 60.508,11.4 60.95,10.887C59.683,10.887 59.408,10.81 58.996,10.657C58.858,10.58 58.858,10.504 58.583,10.504C58.171,10.427 57.758,10.274 57.346,10.121C56.933,10.44 56.521,9.891 56.108,9.814C55.971,9.814 55.833,9.891 55.696,9.814C55.558,9.661 55.146,9.661 54.871,9.584C54.733,9.508 52.396,8.818 52.121,8.818C51.846,8.818 51.434,8.741 51.296,8.665C50.884,8.511 50.471,8.511 50.59,8.358C49.646,8.281 49.234,8.205 48.959,8.128C48.546,7.975 46.896,7.515 46.484,7.438C46.346,7.438 46.209,7.362 46.346,7.285C46.346,7.285 46.484,7.209 46.621,7.209C46.759,7.209 47.34,7.132 47.171,7.132C47.446,7.132 47.584,7.285 47.859,7.285C47.996,7.209 48.271,7.132 48.546,7.132C48.684,7.285 48.959,7.209 49.96,7.132C49.234,7.132 49.371,7.132 49.509,7.132C49.784,7.209 49.921,7.209 50.196,7.209C51.21,7.209 51.709,7.209 52.533,7.285C52.946,7.285 53.221,7.438 53.633,7.285L54.46,7.285C54.183,7.362 54.321,7.362 54.321,7.362C54.733,7.285 55.146,7.362 55.558,7.362L56.796,7.362C57.71,7.438 57.208,7.438 57.621,7.438C57.758,7.592 58.33,7.515 58.171,7.438L58.721,7.438C58.996,7.515 59.271,7.515 59.546,7.515C59.82,7.438 60.233,7.438 60.508,7.515C60.645,7.592 60.92,7.515 61.58,7.592C61.333,7.438 61.608,7.668 61.883,7.592C62.2,7.592 62.295,7.592 62.433,7.668C62.57,7.668 62.845,7.745 63.12,7.745C63.533,7.668 63.945,7.592 64.495,7.745C64.908,7.745 65.458,7.745 65.87,7.822C66.145,7.822 66.283,7.898 66.42,7.898C66.695,7.898 66.833,7.822 66.97,7.898C67.245,7.975 67.52,7.898 67.657,7.898C68.7,7.898 68.482,7.975 68.895,7.975C69.17,8.51 69.445,8.128 69.857,8.51C69.995,8.51 70.132,8.51 70.27,8.128C70.407,8.128 70.545,8.205 70.682,8.128C71.95,8.51 71.507,8.51 71.782,8.205C72.332,8.128 72.745,8.281 73.295,8.281C73.707,8.358 74.12,8.358 74.532,8.358C75.82,8.281 75.494,8.358 75.907,8.435C76.182,8.435 76.457,8.511 76.594,8.435C77.144,8.435 77.557,8.435 78.107,8.588L78.382,8.588C78.794,8.588 79.207,8.511 79.619,8.588C79.894,8.665 80.307,8.588 80.719,8.741C80.994,8.665 81.132,8.741 81.407,8.741C81.682,8.818 82.94,8.894 82.369,8.818C82.781,8.741 83.194,8.741 83.606,8.818C84.19,8.971 84.431,9.48 84.844,8.894C84.981,8.818 84.981,8.894 85.119,8.971C85.256,8.971 85.394,9.48 85.531,9.48C85.806,8.894 86.219,8.971 86.494,8.971C86.769,8.894 87.44,8.894 87.319,9.48C87.319,9.124 87.594,9.124 87.731,9.48C88.6,9.48 88.281,8.971 88.694,9.48C88.831,9.124 89.106,9.124 89.381,9.48C89.519,8.971 89.656,8.971 89.794,9.124L89.931,9.124C90.206,8.971 90.343,9.48 90.481,9.124L90.618,9.201C90.893,9.124 91.168,9.278 91.443,9.201C91.581,9.124 91.581,9.124 91.718,9.201C91.856,9.201 91.993,9.201 92.131,9.124C92.406,9.124 92.681,9.124 92.818,9.278C92.956,9.354 93.231,9.354 93.368,9.278C93.643,9.278 93.781,9.201 94.56,9.278C94.468,9.278 94.606,9.278 94.881,9.354C95.156,9.354 95.431,9.431 95.706,9.431C96.256,9.508 96.806,9.508 97.218,9.431C97.493,9.431 97.493,9.431 97.631,9.508C97.768,9.584 97.906,9.584 98.18,9.508C98.318,9.431 98.593,9.431 98.73,9.508C98.73,9.584 98.868,9.584 99.5,9.584C99.28,9.508 99.418,9.584 99.693,9.584L100.105,9.584C100.38,9.584 100.518,9.584 100.793,9.661C100.793,9.737 100.93,9.737 101.68,9.737C101.343,9.661 101.618,9.661 101.755,9.737C102.3,9.737 102.305,9.737 102.443,9.584C102.58,9.737 102.718,9.814 102.855,9.814C103.13,9.814 103.405,9.891 103.543,9.814L104.93,9.814C104.23,9.891 104.505,9.891 104.78,9.737C105.55,9.737 105.33,9.814 105.468,9.891C105.605,9.967 105.742,9.967 105.88,9.967C106.17,9.891 106.292,9.891 106.43,9.967C106.567,9.967 106.842,9.967 106.98,9.891C106.98,9.814 107.117,9.814 107.117,9.891C107.255,9.967 107.53,9.967 107.667,10.44C107.805,10.44 107.805,10.121 107.942,10.44C108.355,9.967 108.905,10.121 109.455,10.121C109.867,10.121 110.28,10.274 110.692,10.121C110.83,10.121 110.967,10.121 110.967,10.197C111.242,10.274 111.517,10.274 111.792,10.274C111.93,10.274 112.67,10.274 112.205,10.274C112.48,10.274 112.892,10.35 113.167,10.197C113.304,10.121 113.442,10.197 113.579,10.274C113.717,10.35 113.854,10.427 113.992,10.35C114.267,10.274 114.542,10.274 114.817,10.35C115.92,10.35 115.367,10.427 115.642,10.35C115.779,10.35 115.917,10.274 116.192,10.35L116.467,10.35C116.742,10.35 117.154,10.427 117.567,10.35C117.704,10.35 117.842,10.427 117.979,10.427C118.254,10.427 118.667,10.58 118.942,10.504C119.217,10.35 119.492,10.504 119.767,10.504L120.42,10.504C120.454,10.427 120.592,10.427 121.4,10.58C121.141,10.58 121.279,10.657 121.554,10.58C121.966,10.504 122.516,10.58 122.929,10.58C123.66,10.58 123.341,10.58 123.341,10.657C123.479,10.734 123.616,10.734 123.616,10.657L123.616,10.427C123.754,10.35 123.891,10.427 123.891,10.427C124.166,10.58 124.304,10.58 124.579,10.58C124.579,10.504 124.716,10.58 124.854,10.58C124.854,10.657 124.854,10.657 124.991,10.657C125.129,10.734 125.266,10.657 125.404,10.657C125.679,10.58 125.679,10.81 125.954,10.734C126.91,10.657 126.366,10.734 126.504,10.657C126.641,10.657 126.779,10.81 126.916,10.734C127.54,10.657 127.191,10.657 127.191,10.734C127.466,10.81 127.604,10.81 127.741,10.81C127.879,10.734 127.879,10.734 128.16,10.81C128.154,10.81 128.291,10.81 128.566,10.657C128.703,10.734 128.978,10.81 129.391,10.81C129.528,10.734 129.803,10.81 130.78,10.81C130.353,10.81 130.491,10.81 130.628,10.81C130.903,10.657 131.41,10.657 131.316,10.81C131.866,10.81 132.278,10.887 132.828,10.964L133.241,10.964C133.378,10.81 133.516,10.81 133.791,10.887C134.66,10.887 134.341,10.887 134.478,10.81L135.28,10.81C135.166,10.964 135.303,10.964 135.441,10.81C135.578,10.734 135.578,10.734 135.853,10.81C136.265,10.887 136.54,10.964 137.9,10.887C137.228,10.887 137.365,10.964 137.365,10.964C137.915,11.117 138.328,11.4 138.603,10.887C138.74,10.81 138.878,10.81 138.878,10.887C139.703,10.964 140.39,11.117 141.215,10.964L141.353,10.964C141.628,11.4 142.178,10.964 142.59,10.964C142.728,10.964 142.865,11.4 143.3,10.964C143.3,10.887 143.14,11.4 143.278,10.964C143.69,10.964 144.24,11.4 144.652,10.964C144.79,10.887 144.927,10.887 145.202,10.964L145.615,10.964C146.27,10.964 146.302,10.964 146.577,11.4C146.852,11.117 147.127,11.117 147.265,10.964C147.402,10.887 147.54,10.887 147.677,10.964C147.815,11.4 147.952,11.4 147.952,11.4C148.365,10.964 148.777,11.4 149.19,10.964L149.465,10.964C149.74,10.964 150.152,11.4 150.565,10.964C150.977,10.887 151.252,10.887 151.527,11.117C151.664,11.117 151.527,11.4 151.527,10.964C151.802,11.4 151.939,11.117 152.77,11.4C152.352,10.964 152.489,11.4 152.764,10.964C152.764,11.4 152.764,11.4 152.902,11.4C153.177,11.4 153.452,11.117 153.727,11.4C153.864,10.964 154.2,10.964 154.139,11.4L154.277,11.4C154.827,10.887 155.239,10.964 155.789,10.964C156.202,10.964 156.614,11.117 157.27,10.964C157.164,10.964 157.302,10.964 157.439,10.887C157.577,10.81 157.577,10.887 157.714,10.887C157.989,10.887 158.127,11.4 158.402,10.887L158.539,10.887C158.814,10.964 158.952,10.887 159.226,10.887C159.639,10.887 160.51,10.81 160.326,10.81L160.601,10.81C160.876,10.887 161.151,10.887 161.426,10.81L161.564,10.81C161.701,10.964 161.976,10.887 161.976,10.81L162.389,10.81C162.664,10.81 163.76,10.887 163.489,10.81C163.489,10.734 163.764,10.734 163.901,10.81C164.176,10.887 164.451,10.81 164.864,10.81C165.1,10.734 165.139,10.734 165.276,10.81C165.551,10.964 165.551,10.964 165.689,10.81C165.689,10.734 165.689,10.657 165.826,10.657L166.101,10.657C166.239,10.657 166.376,10.734 166.376,10.58C166.789,10.427 167.63,10.274 167.338,10.197C167.476,10.121 167.476,10.121 167.476,10.44C167.613,9.814 167.751,9.584 167.888,9.431C168.26,9.354 168.26,9.278 167.888,9.278C167.751,9.278 167.888,9.201 167.888,9.124C167.888,9.48 168.26,8.971 168.26,8.818C168.26,8.665 167.751,8.511 167.476,8.511C167.63,8.588 167.63,8.511 167.63,8.358C167.201,8.281 167.201,8.281 167.338,8.128C167.613,8.51 167.751,7.975 167.888,7.822C168.26,7.822 168.26,7.745 168.163,7.745C168.163,7.592 168.26,7.592 167.888,7.515C168.301,7.592 168.301,7.592 168.438,7.362C168.576,7.209 168.713,7.55 168.851,6.825C168.988,6.672 168.851,6.519 168.988,6.366C168.988,6.289 168.713,6.366 168.713,6.289C168.851,6.212 168.988,6.59 168.988,5.829C168.576,5.829 168.438,5.752 168.301,5.752C168.163,5.752 168.26,5.752 167.751,5.829C167.613,5.906 167.338,5.829 167.201,5.752C167.63,5.676 166.926,5.599 166.651,5.676C166.514,5.752 166.376,5.676 166.376,5.599C166.376,5.523 166.376,5.523 166.239,5.446C166.101,5.446 165.964,5.293 165.551,5.446L165.414,5.446C165.139,5.369 165.1,5.369 164.726,5.446L164.451,5.446C164.314,5.446 164.176,5.446 164.39,5.446C163.626,5.599 163.214,5.599 162.939,5.523L162.664,5.523C162.114,5.676 161.564,5.599 161.151,5.599C160.739,5.676 160.464,5.676 159.914,5.752C159.776,5.599 159.639,5.599 159.364,5.676C159.226,5.676 159.364,5.752 159.226,5.829C158.952,5.752 158.677,5.752 158.402,5.752L157.577,5.752C157.302,5.676 157.27,5.752 156.889,5.752C156.614,5.829 156.477,5.829 156.339,5.752C156.339,5.829 156.339,5.906 156.202,5.906C156.64,5.752 155.789,5.752 155.652,5.829C155.514,5.829 155.377,5.829 155.514,5.906C155.652,6.59 155.652,6.59 155.377,6.59C155.102,6.136 154.964,6.136 155.102,5.982C155.102,5.906 154.964,5.906 154.827,5.906C154.827,5.982 154.689,5.906 154.552,5.906C154.414,5.906 154.277,5.829 154.139,5.752L153.39,5.829C152.902,5.982 152.764,5.906 152.627,5.906C152.214,5.752 151.802,5.752 151.39,5.829L150.29,5.829C150.15,5.829 149.74,5.676 149.465,5.829L149.327,5.829C149.19,5.752 148.777,5.906 148.502,5.752C148.502,5.829 148.227,5.829 148.227,5.906C148.227,6.59 147.952,6.136 147.952,6.289C147.815,6.289 147.815,6.212 147.54,5.982C147.127,5.906 146.715,5.906 146.44,5.829C146.165,5.829 145.89,5.752 145.615,5.829C145.34,5.752 145.202,5.906 144.927,5.906C144.652,6.59 144.652,6.59 144.515,5.906C144.377,5.906 144.24,5.752 143.965,5.752C143.69,5.829 143.415,5.752 143.278,5.906C143.14,5.982 143.14,6.59 143.3,6.59L142.59,6.59C142.315,5.829 141.903,5.829 141.49,5.906C140.803,5.829 140.39,5.829 139.703,5.829C139.428,5.752 139.29,5.752 139.15,5.829C138.603,5.906 138.328,5.752 138.53,5.906C137.64,5.752 137.365,5.752 137.228,5.752C136.953,5.752 136.815,5.599 136.54,5.752L136.403,5.752C136.265,5.676 136.265,5.752 136.128,5.752C135.991,5.752 135.853,5.829 135.716,5.752L135.441,5.752C135.303,5.829 135.441,5.906 135.441,5.906C135.578,6.59 135.578,6.59 135.578,6.136L135.303,6.136C135.28,5.982 134.616,5.906 134.341,5.752C134.203,5.676 134.66,5.676 133.928,5.752C133.653,5.829 133.516,5.752 133.241,5.752C132.966,5.676 132.691,5.523 132.416,5.676C132.141,5.446 131.728,5.523 131.453,5.523C131.316,5.523 131.178,5.523 131.178,5.599L131.178,5.829C131.41,5.829 131.41,5.829 130.903,5.752C130.903,5.676 130.766,5.599 130.353,5.599C130.216,5.523 130.78,5.523 129.941,5.523C129.528,5.523 129.253,5.599 128.841,5.523C128.429,5.446 128.154,5.369 127.741,5.523C127.741,5.599 127.604,5.599 127.604,5.599C127.329,5.446 126.916,5.523 126.641,5.523L126.366,5.523C126.229,5.446 126.91,5.446 125.954,5.523C125.679,5.599 125.541,5.599 125.404,5.523C125.404,5.446 125.266,5.446 124.854,5.446C124.716,5.293 124.579,5.369 124.579,5.446C124.304,5.523 124.29,5.523 123.754,5.446C123.754,5.369 123.616,5.369 123.616,5.446C123.204,5.446 122.791,5.369 122.379,5.446L122.241,5.446C122.104,5.369 121.966,5.293 121.691,5.369C121.554,5.216 121.141,5.293 120.867,5.293C120.729,5.293 120.592,5.293 120.454,5.369C120.179,5.446 119.904,5.523 119.629,5.369C119.492,5.293 119.217,5.216 119.79,5.293C118.942,5.293 119.79,5.446 119.79,5.446L119.79,5.523L119.79,5.446C118.804,5.293 118.667,5.216 118.254,5.293C118.117,5.369 117.842,5.369 117.704,5.216C117.704,5.139 117.429,5.139 117.292,5.139C117.154,5.216 116.742,5.63 116.604,5.216L116.467,5.216C116.192,5.139 115.917,5.139 115.779,5.293L115.642,5.293C115.504,5.63 115.229,5.63 114.954,5.139C114.817,5.216 114.679,5.216 114.404,5.139C114.267,5.63 113.992,5.63 113.854,5.139C113.717,5.216 113.579,5.139 113.579,5.139C113.167,5.63 112.755,5.63 112.342,4.986C112.205,4.986 112.205,4.986 112.67,4.986C111.93,5.63 111.792,4.986 111.655,4.986C111.38,4.91 111.105,4.91 110.967,4.91C110.692,4.833 110.555,4.91 110.28,4.833C110.142,4.756 109.73,4.833 109.455,4.91C109.317,4.91 108.905,4.91 108.767,4.833C108.355,4.68 107.805,4.756 107.392,4.833C107.392,4.91 107.392,4.91 107.255,4.833C107.117,4.756 106.98,4.756 106.842,4.833C106.842,4.833 106.705,4.756 106.567,4.756C106.155,4.68 105.742,4.603 105.193,4.603C104.78,4.603 104.368,4.756 104.93,4.526L103.955,4.526C103.543,4.603 103.13,4.526 102.718,4.45L102.58,4.45C102.305,4.45 102.3,4.526 101.893,4.45C101.618,4.45 101.618,4.526 101.755,4.68C101.48,4.68 101.343,4.603 101.343,4.526C101.68,4.45 100.655,4.45 100.243,4.373C99.83,4.45 99.555,4.45 99.28,4.373C99.5,4.296 98.73,4.296 98.455,4.296C98.18,4.373 97.906,4.296 97.631,4.296L97.356,4.296C96.943,4.373 96.668,4.45 96.393,4.296L96.118,4.296C95.843,4.373 95.568,4.373 95.431,4.296C95.156,4.22 94.881,4.22 94.606,4.22L94.331,4.22C93.918,4.143 93.368,4.296 92.956,4.67C92.681,4.22 92.406,4.143 92.268,4.143C91.718,4.67 91.306,4.67 90.756,4.67L90.481,4.67C90.69,3.99 89.519,3.837 88.969,3.913C88.831,3.913 88.831,3.913 88.694,3.837C88.419,3.837 88.281,3.76 88.6,3.837C88.6,3.913 87.869,3.913 87.869,3.913C87.594,3.76 87.456,3.837 87.181,3.837C87.44,3.837 86.906,3.837 86.769,3.837C86.494,3.837 86.494,3.76 86.219,3.76C86.81,3.683 86.81,3.837 85.806,3.837C85.669,3.76 85.531,3.837 85.669,3.913L85.531,3.99C85.256,3.683 85.119,3.607 84.569,3.683L84.431,3.683C84.156,3.607 84.19,3.53 83.744,3.76C83.331,3.683 82.919,3.76 82.507,3.53C82.232,3.607 81.957,3.53 81.682,3.53C81.682,3.53 81.407,3.53 81.407,3.453C81.132,3.377 80.994,3.453 80.719,3.453C80.582,3.53 80.444,3.607 80.307,3.53C80.32,3.453 79.757,3.453 79.619,3.453C79.482,3.377 79.482,3.377 79.344,3.453C79.207,3.453 79.207,3.453 79.69,3.453C78.794,3.453 78.519,3.377 78.382,3.377L77.419,3.377C77.7,3.224 76.732,3.224 76.319,3.224C76.44,3.224 75.769,3.147 75.494,3.224C75.357,3.3 75.219,3.224 75.82,3.224C74.807,3.7 74.257,3.224 73.845,3.7L73.57,3.7C73.432,3.7 73.295,3.147 73.157,3.147C73.2,2.994 72.607,3.7 72.332,3.7C72.195,2.994 71.92,3.7 71.645,2.994C71.507,2.917 71.37,2.917 71.95,2.994C70.957,2.994 70.82,3.7 70.82,2.994C70.407,2.84 69.995,2.917 69.582,2.917C69.445,2.917 69.307,2.994 69.17,2.917C69.32,2.84 68.895,2.84 68.757,2.917C68.757,2.994 68.62,2.994 68.482,2.917C68.482,2.84 68.482,2.764 68.207,2.84C68.7,2.84 67.932,2.764 67.657,2.764C67.52,2.687 67.382,2.84 67.108,2.764C66.695,2.687 66.283,2.764 66.8,2.687C65.87,2.611 65.733,2.687 65.733,2.687L65.458,2.687C65.183,2.611 65.45,2.687 64.77,2.84C64.908,2.687 64.77,2.611 64.633,2.611C64.83,2.611 63.533,2.381 62.983,2.534L62.708,2.534C62.295,2.457 61.883,2.457 61.333,2.457C60.92,2.611 60.645,2.534 60.37,2.457C60.37,2.457 60.233,2.457 60.95,2.457L59.683,2.457C59.271,2.304 58.858,2.304 58.446,2.304C58.171,2.304 57.758,2.457 57.758,2.611C57.483,2.611 57.208,2.611 57.71,2.457C57.71,2.381 57.208,2.381 57.208,2.304C57.71,2.227 57.71,2.304 56.933,2.304C56.658,2.381 56.521,2.457 56.246,2.534C56.108,2.534 55.971,2.611 55.971,2.457C55.971,2.304 55.833,2.304 55.696,2.304C55.833,2.457 55.833,2.457 55.696,2.611C55.558,2.534 55.421,2.457 55.146,2.534C55.8,2.611 55.8,2.534 55.8,2.457L55.283,2.381C55.8,2.227 54.733,2.151 54.183,2.151C53.908,2.151 53.496,2.227 53.221,2.227C52.396,2.151 51.434,2.151 50.471,2.74C50.59,2.151 49.646,1.997 49.234,2.151C49.96,2.151 48.959,2.151 48.821,2.74L48.409,2.74C48.134,2.74 47.859,2.227 47.584,2.151C47.309,2.151 46.896,2.151 46.621,2.74L46.346,2.74C46.71,2.227 45.934,2.227 45.659,2.151C45.109,2.227 44.421,2.74 43.872,2.304C43.322,2.304 43.47,2.381 42.634,2.381C42.359,2.381 41.122,2.457 40.984,2.534C40.984,2.611 40.847,2.611 40.709,2.611C40.159,2.611 39.609,2.687 39.59,2.84C38.509,2.917 38.97,3.7 37.547,3.147C36.859,3.377 36.35,3.683 35.622,4.67C35.485,4.67 35.485,4.143 35.347,4.143C35.21,4.22 35.72,4.296 34.935,4.45C34.935,4.45 34.797,4.603 34.66,4.603C34.385,4.756 34.385,4.833 34.522,4.91C34.522,5.63 34.66,5.63 34.522,5.139C34.247,5.293 33.972,5.446 33.972,5.599C33.697,5.829 33.697,5.829 33.972,5.906C33.835,5.982 33.697,6.59 33.56,6.136C33.422,6.289 33.422,6.595 32.872,6.749C32.872,6.902 32.735,6.979 32.735,7.209C32.597,7.132 32.597,7.209 32.597,7.285C32.597,7.438 32.46,7.592 32.47,7.668C32.185,7.745 31.91,7.822 31.91,7.898C31.91,8.51 31.635,8.205 31.772,8.281C31.91,8.435 31.772,8.665 31.91,8.818C32.47,8.894 32.47,9.48 32.46,9.124C32.735,9.278 33.147,9.431 33.56,9.508C33.697,9.584 33.972,9.661 34.11,9.814C34.247,9.967 34.385,9.891 34.522,9.814C34.66,9.967 34.66,10.44 34.797,10.44C34.935,10.121 34.935,10.44 34.935,9.967C35.485,10.44 35.897,10.197 36.447,10.427C36.585,10.504 36.447,10.35 36.585,10.427C36.859,10.504 37.134,10.504 37.547,10.657C37.547,10.734 37.409,10.657 37.409,10.734C37.547,10.81 37.822,10.887 37.959,10.887C38.234,10.887 38.372,10.964 38.509,11.4C38.784,11.117 38.922,11.27 39.197,11.27C39.334,11.27 39.472,11.27 39.334,11.193C39.334,11.117 39.472,11.117 39.609,11.117C39.747,11.193 39.884,11.193 40.22,11.27C40.434,11.423 40.984,11.423 41.397,11.653C41.672,11.653 41.809,11.73 42.84,11.807C42.497,11.883 43.47,12.36 43.459,12.113C43.597,12.19 43.872,12.19 43.872,12.343C43.872,12.496 43.872,12.496 44.147,12.42L44.421,12.42C44.834,12.496 45.246,12.649 45.659,12.726C45.934,12.803 46.346,12.803 46.621,13.33C46.621,13.109 46.759,13.109 46.896,13.109C47.171,13.33 47.309,13.109 47.446,13.186C47.721,13.263 47.859,13.263 48.134,13.263C48.271,13.339 48.409,13.339 48.684,13.416C48.959,13.646 49.509,13.646 49.921,13.876C50.196,13.952 50.471,13.952 50.609,14.106C50.746,14.182 50.884,14.182 51.21,14.182C51.434,14.182 51.846,14.335 52.258,14.412C52.396,14.489 52.671,14.412 52.808,14.489C53.83,14.642 53.496,14.719 53.908,14.795C54.183,14.872 54.458,14.948 54.733,15.25C55.8,15.102 55.146,15.102 55.283,15.255C55.421,15.255 55.558,15.332 55.696,15.332C55.971,15.255 56.108,15.332 56.108,15.562C56.108,15.638 56.108,15.638 55.833,15.638L54.596,15.638L54.183,15.638C53.496,15.562 52.946,15.562 52.258,15.562C51.434,15.485 50.609,15.485 49.921,15.485C48.134,15.332 46.621,15.255 44.834,15.255C43.872,15.178 42.634,15.25 41.534,15.25C40.709,14.948 39.884,14.948 38.922,14.872C37.959,14.795 36.997,14.719 36.35,14.642C35.21,14.565 34.247,14.489 33.422,14.489C32.735,14.412 32.47,14.335 31.36,14.335C30.26,14.259 29.16,14.182 28.6,14.29C27.785,14.29 27.51,13.952 27.373,13.952C26.685,13.952 26.135,13.876 25.448,13.799L24.898,13.799C24.623,13.799 24.348,13.799 24.73,13.799C23.798,13.722 23.66,13.646 23.385,13.646C22.973,13.646 22.56,13.646 22.285,13.569C21.735,13.492 21.323,13.492 20.773,13.416C20.361,13.339 19.948,13.263 19.398,13.263C18.986,13.263 18.711,13.263 18.298,13.186C17.886,13.109 17.473,13.109 17.61,13.109C16.923,13.186 16.648,13.263 16.511,13.109C16.373,13.109 16.236,13.109 16.98,13.109C15.686,12.956 15.273,13.33 14.723,12.956L14.173,12.956C14.36,13.33 13.898,12.956 13.761,12.956C11.699,12.649 9.499,12.649 7.436,12.649C7.24,12.649 6.611,12.726 6.199,12.649C6.61,12.649 5.924,12.649 5.924,12.649C5.649,12.726 5.512,12.726 5.374,12.726C5.237,12.726 4.962,12.649 4.824,12.726C4.687,12.803 4.412,12.803 4.274,12.879C3.999,12.879 3.724,12.879 3.449,13.109C3.312,13.109 3.174,13.109 3.174,13.186C3.174,13.416 3.174,13.416 2.762,13.646L2.762,13.952C2.487,14.106 2.487,14.106 2.487,14.335ZM138.603,8.741C138.603,8.741 138.465,8.741 138.465,8.818C138.328,8.894 137.915,8.894 137.915,8.741C137.778,8.741 137.778,8.665 137.915,8.588C138.328,8.588 138.465,8.665 138.603,8.741C138.603,8.665 138.465,8.588 138.465,8.588C138.603,8.511 138.74,8.588 138.878,8.588C139.428,8.435 139.978,8.511 140.528,8.435C140.94,8.511 141.353,8.511 141.628,8.435C141.765,8.435 142.315,8.741 142.315,8.741C142.315,8.741 142.315,8.818 142.178,8.818C142.4,8.818 141.903,8.971 141.628,8.894C141.353,8.741 141.78,8.741 140.803,8.818C140.665,8.894 140.528,8.818 140.39,8.818C140.39,8.894 140.39,8.818 140.39,8.741L140.253,8.665C140.115,8.894 139.978,8.894 139.84,8.894C139.703,8.894 139.703,8.894 139.565,8.971C139.29,8.971 139.153,8.971 139.15,8.894C138.878,8.818 138.74,8.741 138.603,8.741ZM120.317,8.358C120.592,8.51 120.592,8.51 121.279,8.128L121.554,8.128C121.416,8.281 121.279,8.358 121.416,8.435C121.4,8.511 120.592,8.435 120.317,8.358C120.42,8.435 119.767,8.511 119.354,8.435C119.354,8.358 119.217,8.358 119.79,8.358C118.942,8.435 118.667,8.435 118.529,8.358L118.254,8.358C117.979,8.511 117.704,8.358 117.429,8.358C117.292,8.281 117.154,8.281 116.879,8.281C116.742,8.281 116.742,8.205 116.742,8.281L116.467,8.281C116.329,8.128 116.192,8.128 116.192,7.975C116.192,7.975 116.192,7.898 116.329,7.898C116.467,7.898 116.467,7.822 116.604,7.898C116.604,7.975 116.742,8.51 116.879,7.975C117.154,7.898 117.429,7.975 117.567,8.128C117.704,8.205 117.842,8.205 117.979,8.51C118.117,7.898 118.117,7.898 118.254,7.975C118.392,8.51 118.529,8.51 118.667,8.128C118.942,8.128 118.804,7.975 119.79,7.975C119.217,7.975 119.354,7.975 119.492,8.51C119.629,8.128 119.767,8.128 120.42,8.128C120.42,8.51 120.179,8.51 120.317,8.51C120.317,8.128 120.179,8.281 120.317,8.358ZM130.903,8.511C131.178,8.511 131.453,8.588 131.453,8.358C131.453,8.281 131.591,8.281 131.728,8.358C131.728,8.358 132.3,8.435 132.278,8.435C132.553,8.281 132.828,8.435 132.966,8.435L133.516,8.435C133.653,8.358 133.791,8.358 133.928,8.358C134.203,8.511 134.478,8.511 134.891,8.511C135.28,8.511 135.166,8.435 135.166,8.588C135.303,8.665 135.166,8.741 134.891,8.818L134.753,8.818C134.203,8.741 133.791,8.818 133.378,8.741C132.966,8.741 132.553,8.665 132.278,8.588C132.141,8.511 131.866,8.435 131.866,8.665C131.866,8.741 131.316,8.741 131.178,8.665C131.178,8.588 131.41,8.588 130.903,8.511ZM113.717,8.128C113.442,8.205 113.442,8.205 113.304,8.128C113.167,7.975 112.892,7.975 112.755,8.51C112.48,8.128 112.48,8.205 112.205,8.51C112.67,8.51 112.67,7.975 111.93,7.975C111.93,7.898 111.792,7.898 111.655,7.975C111.517,8.51 111.38,7.975 111.105,7.975C110.967,7.898 110.967,7.822 110.967,7.745C111.105,7.592 111.105,7.592 111.38,7.668C111.517,7.668 111.792,7.745 111.93,7.668C112.67,7.668 112.67,7.668 112.205,7.668C112.48,7.745 112.755,7.745 113.167,7.745C113.304,7.822 113.442,7.822 113.579,7.745C113.717,7.745 113.854,7.745 113.854,7.822C113.992,7.898 113.992,7.898 113.992,7.975C113.854,8.51 113.717,8.51 113.717,8.128ZM129.666,8.511C129.803,8.511 129.803,8.435 129.941,8.435C129.941,8.511 129.941,8.511 129.803,8.588C129.803,8.665 129.666,8.741 129.528,8.665L129.253,8.665C128.978,8.588 128.841,8.588 128.703,8.665C128.566,8.741 128.429,8.741 128.154,8.665C128.154,8.588 128.16,8.588 127.879,8.588C127.741,8.588 127.604,8.665 127.604,8.588C127.604,8.511 127.604,8.435 127.741,8.281C128.16,8.358 128.291,8.128 128.566,8.281L128.978,8.281C129.391,8.281 129.528,8.281 129.666,8.511ZM146.577,8.588C146.99,8.511 147.127,8.588 147.402,8.588C147.54,8.588 147.677,8.588 147.815,8.511C147.952,8.435 148.9,8.435 148.227,8.511C148.365,8.588 148.365,8.588 148.502,8.588C148.64,8.588 148.777,8.588 148.777,8.741C148.365,8.741 148.9,8.818 147.815,8.894C147.677,8.971 147.54,8.971 147.402,8.818C147.265,8.741 147.127,8.894 146.99,8.818C146.852,8.741 146.852,8.665 146.577,8.588ZM122.379,8.358C122.516,8.281 122.516,8.281 122.516,8.205C122.379,8.128 122.379,8.205 122.241,8.205C122.104,8.281 122.104,8.205 122.104,8.205C121.966,8.128 122.104,8.128 122.241,8.51C122.379,8.51 122.516,8.51 122.654,8.205C122.791,8.281 122.791,8.281 123.66,8.281C123.66,8.281 123.204,8.281 123.341,8.281C123.479,8.358 123.616,8.358 123.754,8.205C123.891,8.128 123.891,8.128 124.166,8.205C124.304,8.281 124.441,8.281 124.441,8.435C124.29,8.358 124.29,8.358 123.891,8.511C123.754,8.588 123.754,8.588 123.616,8.588C123.479,8.511 123.341,8.511 122.929,8.511C122.791,8.358 122.654,8.435 122.379,8.358ZM144.927,8.894C144.79,8.818 144.79,8.818 144.652,8.741C144.515,8.741 144.515,8.741 144.377,8.818C144.377,8.894 144.377,8.971 144.24,8.818L143.828,8.818C143.69,8.741 143.69,8.665 143.828,8.665C144.102,8.588 144.377,8.435 144.79,8.511C145.202,8.435 145.477,8.511 145.89,8.588C146.27,8.588 146.165,8.588 146.165,8.665C146.27,8.818 145.89,8.741 145.752,8.741C145.615,8.741 145.477,8.588 145.202,8.665C145.65,8.665 145.65,8.818 144.927,8.894ZM104.368,7.438C104.505,7.438 104.78,7.515 104.918,7.362L105.55,7.362C105.193,7.362 105.468,7.438 105.605,7.362C106.17,7.285 106.292,7.592 106.155,7.745C106.155,7.822 105.742,7.898 105.605,7.898L105.605,7.745C105.605,7.592 105.33,7.515 105.55,7.592C104.78,7.592 104.505,7.515 104.368,7.438ZM107.805,7.898C108.8,7.745 107.805,7.745 107.667,7.745C107.53,7.745 107.392,7.668 107.392,7.592C107.805,7.592 108.217,7.592 108.355,7.745C108.492,7.822 108.63,7.822 108.63,7.822C108.767,7.898 108.905,7.898 108.905,7.975C108.767,8.51 109.42,8.51 108.905,8.128C108.767,8.205 108.63,8.128 108.492,8.128C108.355,8.51 108.217,7.975 107.805,7.898ZM135.991,8.741L135.578,8.741C135.578,8.665 135.441,8.588 135.578,8.511C135.716,8.435 135.853,8.358 135.991,8.435C136.265,8.511 136.265,8.511 136.54,8.511C136.678,8.435 136.953,8.588 136.953,8.741C136.953,8.741 136.953,8.818 136.815,8.818C136.678,8.818 136.54,8.741 136.403,8.741C136.265,8.665 136.128,8.665 135.991,8.741ZM79.894,5.982C80.169,6.136 80.169,6.289 80.32,6.442C80.32,6.519 79.894,6.519 79.894,6.519C79.757,6.519 79.482,6.519 79.344,6.442C79.344,6.366 79.207,6.289 79.207,6.136L79.344,6.136C79.619,6.212 79.757,6.136 79.619,6.59C79.619,5.906 79.619,5.906 79.757,5.906C79.894,5.906 79.894,5.906 79.894,5.982ZM98.73,7.438C98.593,7.438 98.593,7.362 98.593,7.285C98.455,7.132 98.593,7.55 98.868,7.55C99.28,6.979 99.693,7.132 99.968,7.209C100.105,7.209 100.105,7.209 100.105,7.285L99.693,7.285C99.555,7.209 99.418,7.285 99.143,7.285C99.5,7.285 98.868,7.362 98.73,7.438ZM125.954,8.435C125.816,8.358 125.541,8.281 125.816,8.205C125.954,8.128 126.229,8.205 126.229,8.281L126.366,8.358C126.641,8.281 126.779,8.588 127.191,8.511C127.191,8.511 127.329,8.511 127.329,8.588L126.229,8.588C126.91,8.435 125.954,8.435 125.954,8.435ZM85.531,6.519C85.394,6.442 85.394,6.366 85.669,6.442L85.944,6.442C86.81,6.442 86.81,6.519 86.81,6.595C86.81,6.749 85.944,6.825 85.531,6.825C85.394,6.825 85.394,6.825 85.119,6.672C85.119,6.595 85.256,6.595 85.531,6.519ZM109.18,7.515C109.592,7.592 109.867,7.745 110.142,7.898C110.5,7.975 109.867,7.975 109.867,7.898L109.592,7.898C109.455,8.51 109.317,7.975 109.18,7.898C108.905,7.745 108.905,7.745 109.18,7.515ZM142.453,8.588C142.59,8.511 142.59,8.435 142.865,8.435C142.865,8.435 143.14,8.665 143.14,8.435L143.69,8.588C143.69,8.665 143.69,8.665 143.553,8.741C143.278,8.818 142.728,8.741 142.453,8.588ZM101.618,7.209C101.618,7.285 101.618,7.362 101.755,7.438C101.343,7.515 100.93,7.438 100.655,7.285C100.655,7.209 100.518,7.209 100.518,7.132C100.793,7.132 100.93,7.132 101.205,7.209C101.48,7.285 101.48,7.285 101.618,7.209ZM102.718,7.668C101.893,7.592 101.893,7.592 102.3,7.132C102.443,7.209 102.443,7.438 102.718,7.668ZM95.568,6.825C95.843,6.979 95.843,7.132 95.706,7.209L95.706,7.285C95.706,7.362 95.843,7.362 95.706,7.438C95.568,7.438 95.568,7.362 95.431,7.362C95.293,7.285 95.293,7.132 95.431,7.55C95.431,6.979 95.568,6.902 95.568,6.825ZM150.84,8.665C151.115,8.588 151.39,8.588 151.664,8.588C151.664,8.665 151.802,8.741 151.527,8.818C151.39,8.894 151.252,8.818 151.115,8.741C151.115,8.741 150.977,8.741 150.84,8.665ZM56.933,15.638C56.796,15.715 56.658,15.715 56.521,15.715C56.246,15.715 56.246,15.638 56.246,15.562C56.246,15.485 56.383,15.485 56.521,15.485C56.658,15.485 56.933,15.562 56.933,15.638ZM94.331,7.209C94.193,7.132 94.193,7.55 94.193,6.979C94.331,6.979 94.606,6.902 94.606,6.979C94.743,7.55 94.881,7.209 94.743,7.285C94.606,7.362 94.468,7.285 94.331,7.209ZM67.52,3.7L67.108,3.7C66.97,3.147 66.833,3.7 66.833,2.994C66.833,2.917 66.97,2.917 67.108,2.917L67.52,2.917C67.52,2.994 67.657,3.7 67.52,3.7ZM156.752,8.665C156.614,8.588 156.477,8.511 156.614,8.435C156.752,8.435 156.889,8.435 157.27,8.511C157.164,8.588 157.164,8.741 157.27,8.741C156.889,8.741 156.752,8.741 156.752,8.665ZM97.493,7.285C97.493,7.209 97.356,7.132 97.493,7.55C97.631,7.55 97.631,7.55 97.631,7.132C97.631,7.209 97.768,7.132 97.906,7.132C97.906,7.285 97.768,7.285 97.493,7.285ZM91.168,6.749C91.31,6.825 90.893,6.902 90.756,6.825C90.618,6.749 90.618,6.672 90.756,6.672C90.893,6.595 90.893,6.595 91.31,6.672L91.168,6.749ZM151.939,8.741C152.352,8.588 152.352,8.894 152.764,8.818C152.352,8.971 152.352,8.971 151.939,8.741ZM150.15,8.741C149.877,8.818 149.74,8.818 149.602,8.741C149.602,8.741 149.602,8.665 149.74,8.665C149.74,8.588 149.877,8.511 150.15,8.588C150.152,8.665 150.15,8.665 150.15,8.741ZM157.852,8.588C157.714,8.665 157.577,8.588 157.439,8.665C157.164,8.665 157.164,8.588 157.164,8.588C157.302,8.435 157.439,8.435 157.577,8.511C157.714,8.511 157.714,8.588 157.852,8.588ZM158.127,8.358C158.127,8.281 158.264,8.281 158.402,8.281C158.539,8.281 158.539,8.358 158.539,8.435L158.402,8.511C158.402,8.511 158.264,8.435 158.127,8.358ZM109.867,0.235C110.5,0.235 110.142,0.388 110.142,0.312C110.28,0.235 110.142,0.158 110.142,0.82C110.142,0.82 110.5,0.5 109.867,0.5C109.867,0.5 109.73,0.5 109.73,0.82C109.592,0.158 109.867,0.158 109.867,0.235ZM69.857,9.354C69.995,9.431 70.132,9.431 70.27,9.354L70.27,9.201C70.132,9.124 69.995,9.124 69.857,9.124C69.72,9.201 69.72,9.278 69.857,9.354Z" style="fill:rgb(247,218,60);"/>
    </g>
</svg>
