<?xml version="1.0" encoding="UTF-8" standalone="no"?>
<!DOCTYPE svg PUBLIC "-//W3C//DTD SVG 1.1//EN" "http://www.w3.org/Graphics/SVG/1.1/DTD/svg11.dtd">
<svg width="100%" height="100%" viewBox="0 0 549 430" version="1.1" xmlns="http://www.w3.org/2000/svg" xmlns:xlink="http://www.w3.org/1999/xlink" xml:space="preserve" xmlns:serif="http://www.serif.com/" style="fill-rule:evenodd;clip-rule:evenodd;stroke-linejoin:round;stroke-miterlimit:2;">
    <g transform="matrix(1,0,0,1,-0.602,-0.9)">
        <path d="M462.68,262.508C447.189,262.508 437.27,267.151 437.27,273.961C437.27,282.8 451.219,287.271 469.508,291.295C487.487,295.318 549.483,310.485 549.483,362.487C549.483,403.346 511.356,430.894 462.68,430.894C434.649,430.894 404.984,422.128 382.185,408.71L392.876,427.179L321.89,427.179L289.32,360.94L270.433,360.94L270.433,427.179L211.226,427.179L211.226,224.62L138.544,356.916L138.544,427.179L79.337,427.179L79.337,356.916L0.602,213.602L52.722,213.602L52.722,71.474L26.994,86.331L1.575,38.663L69.771,0.9L111.929,0.9L111.929,214.478L68.322,214.478L109.716,294.39L151.253,213.602L182.752,213.602C168.47,209.583 152.931,202.719 138.586,192.191L167.414,144.524C180.433,155.358 197.482,161.238 212.362,161.238C230.961,161.238 240.88,152.262 240.88,142.357C240.88,133.71 232.201,126.261 220.111,126.261C212.362,126.261 205.542,129.47 200.272,134.309L147.885,119.142L159.45,0.9L286.758,0.9L286.758,56.616L208.642,56.616L207.712,75.188C213.292,73.331 219.801,72.402 227.551,72.402C269.89,72.402 301.637,103.46 301.637,143.904C301.637,176.791 280.562,203.336 247.682,213.602L307.321,213.602C340.21,213.602 367.271,230.85 379.433,256.954C388.694,227.998 419.496,209.888 462.688,209.888C496.786,209.888 524.685,221.34 541.114,235.888L514.145,281.8C501.126,269.937 480.357,262.508 462.68,262.508ZM306.81,269.318L270.433,269.318L270.433,309.557L306.81,309.557C317.24,309.557 325.61,300.89 325.61,289.437C325.61,277.985 317.24,269.318 306.81,269.318ZM384.298,306.131C379.627,325.433 367.229,341.88 350.99,350.725L372.264,390.34L397.592,352.272C415.881,368.59 441.299,378.273 461.758,378.273C476.17,378.273 488.727,373.321 488.727,364.964C488.727,356.916 476.637,353.201 452.769,347.32C420.299,339.322 396.9,326.184 384.298,306.131ZM360.715,129.527L340.434,129.527L340.434,110.342L321.386,110.342L321.386,90.335L340.434,90.335L340.434,71.15L360.715,71.15L360.715,90.335L379.763,90.335L379.763,110.342L360.715,110.342L360.715,129.527Z" style="fill:rgb(24,22,4);"/>
    </g>
</svg>
