<?xml version="1.0" encoding="UTF-8" standalone="no"?>
<!DOCTYPE svg PUBLIC "-//W3C//DTD SVG 1.1//EN" "http://www.w3.org/Graphics/SVG/1.1/DTD/svg11.dtd">
<svg width="100%" height="100%" viewBox="0 0 549 430" version="1.1" xmlns="http://www.w3.org/2000/svg" xmlns:xlink="http://www.w3.org/1999/xlink" xml:space="preserve" xmlns:serif="http://www.serif.com/" style="fill-rule:evenodd;clip-rule:evenodd;stroke-linejoin:round;stroke-miterlimit:2;">
    <path d="M462.078,261.608C446.587,261.608 436.668,266.251 436.668,273.061C436.668,281.9 450.617,286.371 468.906,290.395C486.885,294.418 548.881,309.585 548.881,361.587C548.881,402.446 510.754,429.994 462.078,429.994C434.047,429.994 404.382,421.228 381.583,407.81L392.274,426.28L321.288,426.28L288.718,360.039L269.831,360.039L269.831,426.28L210.624,426.28L210.624,223.72L137.942,356.015L137.942,426.28L78.735,426.28L78.735,356.015L0,212.702L52.12,212.702L52.12,70.574L26.392,85.432L0.973,37.763L69.169,0L111.327,0L111.327,213.577L67.72,213.577L109.114,293.49L150.651,212.702L182.151,212.702C167.868,208.683 152.329,201.82 137.984,191.292L166.812,143.624C179.831,154.458 196.881,160.339 211.76,160.339C230.359,160.339 240.278,151.362 240.278,141.457C240.278,132.81 231.599,125.361 219.509,125.361C211.76,125.361 204.94,128.57 199.67,133.409L147.283,118.242L158.848,0L286.156,0L286.156,55.716L208.04,55.716L207.11,74.288C212.69,72.431 219.199,71.502 226.949,71.502C269.288,71.502 301.035,102.56 301.035,143.005C301.035,175.89 279.96,202.436 247.08,212.702L306.719,212.702C339.608,212.702 366.669,229.949 378.831,256.054C388.092,227.098 418.894,208.987 462.086,208.987C496.184,208.987 524.083,220.44 540.512,234.988L513.543,280.9C500.524,269.037 479.755,261.608 462.078,261.608ZM383.696,305.231C379.025,324.533 366.627,340.98 350.388,349.825L371.662,389.44L396.99,351.372C415.279,367.69 440.697,377.373 461.156,377.373C475.578,377.373 488.125,372.42 488.125,364.064C488.125,356.015 476.035,352.301 452.167,346.42C419.697,338.422 396.298,325.284 383.696,305.231ZM306.208,268.418L269.831,268.418L269.831,308.657L306.208,308.657C316.638,308.657 325.008,299.99 325.008,288.538C325.008,277.085 316.638,268.418 306.208,268.418Z" style="fill:rgb(24,22,4);"/>
    <g transform="matrix(1,0,0,1,-0.602,-0.9)">
        <path d="M360.715,129.527L340.434,129.527L340.434,110.342L321.386,110.342L321.386,90.335L340.434,90.335L340.434,71.15L360.715,71.15L360.715,90.335L379.763,90.335L379.763,110.342L360.715,110.342L360.715,129.527Z" style="fill:rgb(247,216,59);"/>
    </g>
</svg>
